<svg width="383" height="383" viewBox="0 0 383 383" fill="none" xmlns="http://www.w3.org/2000/svg">
<path d="M365.972 53.5753L287.106 0.82856C285.393 -0.317882 283.475 -0.206097 281.95 0.743638L281.947 0.735837L281.84 0.807761C281.816 0.823358 281.792 0.839823 281.768 0.855421L2.59961 187.521L68.9933 377.252L345.216 192.437L345.214 192.43C348.597 190.544 351.753 187.993 354.521 184.786L373.025 163.351C379.412 155.953 382.999 145.919 382.999 135.456V87.7398C382.999 73.6454 376.509 60.6221 365.972 53.5753Z" fill="white"/>
<path d="M7.95398 187.484L86.8198 240.231C97.3568 247.278 103.848 260.301 103.848 274.396V322.113C103.848 332.576 100.26 342.61 93.8731 350.008L75.3695 371.443C64.4704 384.068 47.6102 386.639 34.2613 377.712L3.45672 357.11C1.31806 355.679 0 353.035 0 350.173V192.804C0 188.075 4.41871 185.12 7.95398 187.484Z" fill="#EFF2F7"/>
<path d="M133.716 307.333V307.346C133.716 316.598 130.572 325.478 124.96 332.062C119.14 338.891 112.57 346.549 112.57 346.549C110.328 349.146 107.824 351.293 105.16 353.027L105.161 353.067L319.713 209.483C322.252 207.794 324.636 205.718 326.782 203.231C326.782 203.231 333.309 195.626 339.104 188.831C344.72 182.246 347.867 173.362 347.867 164.105L133.716 307.333Z" fill="#667790"/>
<path d="M340.813 184.933C340.813 183.938 340.355 183.018 339.61 182.52L329.972 176.074L133.716 307.332V307.345C133.716 315.517 131.26 323.396 126.82 329.662L339.61 187.345C340.355 186.847 340.813 185.928 340.813 184.933Z" fill="#C2CDDD"/>
<path d="M340.814 186.608V168.824L336.877 171.458V189.241L340.814 186.608Z" fill="#E0E0E0"/>
<path d="M297.605 215.422V197.68L293.668 200.313V218.055L297.605 215.422Z" fill="#E0E0E0"/>
<path d="M254.398 244.282V226.539L250.461 229.173V246.914L254.398 244.282Z" fill="#E0E0E0"/>
<path d="M211.188 273.137V255.395L207.252 258.028V275.77L211.188 273.137Z" fill="#E0E0E0"/>
<path d="M167.981 301.996V284.254L164.045 286.887V304.629L167.981 301.996Z" fill="#E0E0E0"/>
<path d="M367.878 141.942C367.878 145.341 366.094 149.289 363.893 150.761C361.692 152.233 359.908 150.671 359.908 147.272C359.908 143.872 361.692 139.924 363.893 138.452C366.094 136.981 367.878 138.543 367.878 141.942Z" fill="#F0F0F0"/>
<path d="M211.189 238.028V224.659L273.6 182.918V196.287L211.189 238.028Z" fill="#F0F0F0"/>
<path opacity="0.2" d="M346.156 40.3203L67.0488 226.99V378.504C67.7049 378.107 68.3527 377.686 68.9893 377.237L68.9945 377.252L70.6028 376.176V229.367L349.71 42.6972L346.156 40.3203Z" fill="#C2CDDD"/>
<g clip-path="url(#clip0_14131_86654)">
<path d="M18.5306 220.413L20.8944 231.813L22.0307 233.222L20.6839 227.035L22.369 226.64L23.6117 227.054L23.9249 235.571L25.378 237.373L30.5364 232.309L30.201 229.544L25.4569 222.551L27.142 222.156L30.0191 226.102L30.6214 223.575L25.2017 212.663L26.8868 212.268L31.3016 221.139L33.2401 215.26L34.9251 214.866L36.1291 217.292L32.1995 224.08L32.3234 227.232L33.9469 225.422L35.6321 225.027L36.2848 227.263L32.4258 229.834L32.548 232.941L38.6988 240.627L39.0491 240.272L37.5095 231.282L39.1947 230.887L40.4185 231.02L41.1293 238.159L42.4185 236.849L41.4798 226.544L43.169 226.089L44.7416 227.132L44.044 237.062L49.8005 240.902L49.6316 243.698L47.9465 244.093L43.4095 239.555L42.0319 240.954L45.7331 245.579L45.2366 247.44L43.5341 247.813L40.9365 242.067L39.7203 243.302L40.5112 256.283L41.6956 257.775L43.6275 254.629L45.3126 254.234L46.0829 256.375L42.9887 259.403L44.9775 261.908L50.7206 260.638L51.2861 263.596L45.983 264.759L48.0433 275.591L46.5685 275.966L44.8802 276.344L43.6533 264.395L42.3615 261.771L42.6275 268.995L40.9424 269.39L40.2937 260.588L39.9274 258.706L34.3144 263.737L34.4328 266.75L38.6578 272.139L38.148 273.984L36.4629 274.378L34.5601 269.987L34.6555 272.411L39.4245 282.002L38.39 283.717L36.7048 284.112L33.9753 274.847L30.3514 281.12L28.6663 281.515L29.1476 278.694L32.5738 272.003L32.5228 268.894L29.6584 271.114L27.9733 271.508L29.0057 268.878L32.411 266.609L32.7384 263.29L26.4619 255.447L25.2427 256.685L26.0959 265.254L24.4107 265.648L23.364 258.594L22.8453 259.121L22.0946 269.881L20.4095 270.275L20.4724 259.113L13.947 252.666L15.6321 252.271L21.8542 256.415L23.171 255.077L18.3687 249.095L20.0539 248.7L24.2665 253.964L25.4951 252.717L24.7008 239.679L23.2646 237.898L19.6842 241.402L17.999 241.796L21.9598 236.28L20.273 234.189L12.7892 236.257L13.8869 232.91L18.7585 231.498L16.7404 220.839L18.5306 220.413ZM28.1538 252.071L33.2425 258.43L37.7004 254.435L37.0695 244.081L31.9808 237.722L27.523 241.717L28.1538 252.071Z" fill="#336CD6"/>
<path d="M16.8448 220.808L19.2087 232.208L20.9531 234.371L20.6833 227.035L21.9262 227.449L22.2394 235.966L23.6925 237.768L29.2812 232.759L29.1639 229.775L24.9466 224.396L25.4564 222.551L29.0606 227.148L28.9357 223.97L24.1667 214.378L25.2011 212.663L29.6159 221.534L33.2395 215.26L34.4435 217.686L30.5139 224.474L30.6379 227.626L33.9465 225.422L34.5991 227.658L30.7402 230.229L30.8624 233.336L37.0133 241.022L38.3443 239.67L37.509 231.282L38.7328 231.415L39.4435 238.553L40.7326 237.244L41.4833 226.484L43.0559 227.527L42.3583 237.457L48.1149 241.296L47.946 244.093L41.7239 239.95L40.3464 241.349L44.0476 245.974L43.5511 247.835L39.2509 242.462L38.0347 243.697L38.8255 256.678L40.0098 258.169L43.6269 254.629L44.3973 256.769L41.3031 259.798L43.2919 262.302L49.035 261.032L49.6006 263.99L44.2973 265.154L46.3576 275.986L44.8828 276.361L42.6527 264.655L40.6759 262.166L40.9419 269.39L39.6991 268.976L39.3887 260.545L38.2418 259.101L32.6286 264.131L32.747 267.145L36.9721 272.534L36.4623 274.378L32.8504 269.772L32.9696 272.806L37.7388 282.397L36.7042 284.112L32.2894 275.242L28.6655 281.515L27.4618 279.089L31.3912 272.301L31.2736 269.309L27.9726 271.508L27.3198 269.272L31.1712 266.706L31.0524 263.685L24.7759 255.842L23.5568 257.08L24.4098 265.648L23.1861 265.515L22.4574 258.197L21.1594 259.515L20.4088 270.276L18.8361 269.232L19.5338 259.302L13.7771 255.463L13.9462 252.666L20.1682 256.809L21.4851 255.471L17.8715 250.956L18.368 249.095L22.5807 254.359L23.8093 253.111L23.015 240.073L21.5787 238.292L17.9983 241.796L17.2279 239.655L20.2739 236.674L18.5872 234.583L12.7885 236.256L12.2012 233.304L17.565 231.749L15.3784 221.227L16.8448 220.808ZM26.4682 252.466L31.557 258.825L36.0149 254.83L35.384 244.476L30.2952 238.117L25.8374 242.112L26.4682 252.466Z" fill="#0047CC"/>
</g>
<path d="M27.8313 331.831C27.8731 331.865 27.9143 331.896 27.9545 331.923C25.428 329.87 24.396 328.056 24.3418 327.961C24.396 328.056 25.4282 329.87 27.8313 331.831Z" fill="#FF9861"/>
<path d="M26.3563 322.105C26.4647 321.986 27.2808 321.094 28.1821 319.685C26.4077 315.917 20.5245 311.771 20.19 311.535L18.0039 313.007C18.2307 313.167 21.0097 315.124 23.3288 317.543C24.7204 318.994 25.9462 320.611 26.3563 322.105Z" fill="#8C0318"/>
<path d="M38.5894 358.286C44.3009 358.04 43.6863 346.441 43.6539 345.83C43.3817 347.669 40.7823 348.735 39.2928 347.739C38.5753 347.259 38.1152 346.3 38.297 344.719C38.8564 339.855 35.5417 331.387 35.3673 330.941C36.1009 334.564 33.6761 342.216 31.5107 340.768C31.4778 340.746 31.4447 340.721 31.412 340.695C29.2225 338.94 26.9572 335.935 26.838 335.777C26.8285 339.684 27.6881 343.338 28.8402 346.476C29.0322 346.999 29.2323 347.508 29.4378 348.001C29.6435 348.494 29.8544 348.971 30.0683 349.432C30.2821 349.893 30.4986 350.336 30.7153 350.762C30.8238 350.975 30.932 351.184 31.0401 351.387C32.445 354.036 33.7978 355.899 34.3652 356.639C34.5438 356.872 34.6399 356.988 34.645 356.994C35.4639 357.495 36.2095 357.837 36.8873 358.044C37.1986 358.139 37.4955 358.204 37.7789 358.244C38.0622 358.284 38.332 358.297 38.5894 358.286Z" fill="#FFDA24"/>
<path d="M35.676 296.062C35.6084 296.666 34.3255 308.133 37.3986 313.547C40.4718 318.961 41.3407 323.772 41.5476 328.399C41.621 330.009 42.3636 331.194 43.3285 331.84C43.4496 331.921 43.5746 331.992 43.7017 332.055C43.7436 332.076 43.7867 332.092 43.8292 332.111C43.9158 332.15 44.0027 332.188 44.091 332.219C44.1419 332.237 44.1934 332.25 44.2447 332.266C44.3266 332.29 44.4087 332.312 44.4912 332.329C44.5457 332.341 44.6004 332.349 44.6551 332.358C44.7361 332.37 44.817 332.379 44.898 332.384C44.9533 332.388 45.0084 332.391 45.0635 332.391C45.1451 332.392 45.2265 332.389 45.3078 332.382C45.3612 332.378 45.4147 332.375 45.4678 332.368C45.5531 332.357 45.6373 332.338 45.7214 332.319C45.7687 332.308 45.8165 332.3 45.8633 332.286C45.9648 332.257 46.0642 332.219 46.1627 332.177C46.1901 332.165 46.2185 332.158 46.2456 332.145C46.37 332.088 46.4911 332.019 46.6086 331.941C46.9713 331.7 47.2931 331.354 47.5551 330.908C46.8625 330.976 46.1417 330.787 45.5145 330.368C44.5495 329.723 43.8071 328.538 43.7336 326.927C43.5268 322.3 42.6577 317.489 39.5846 312.075C36.5113 306.661 37.7945 295.193 37.8619 294.59L36.7689 295.326L35.676 296.062Z" fill="#8C0318"/>
<path d="M50.3437 327.578L48.1577 329.05C48.2882 329.779 50.7681 343.633 49.4265 350.419C49.3482 350.816 49.259 351.206 49.1593 351.587C49.1552 351.603 49.1507 351.618 49.1465 351.633C49.0499 351.999 48.9433 352.356 48.8263 352.704C48.818 352.728 48.809 352.752 48.8007 352.776C48.6856 353.113 48.5609 353.441 48.4259 353.758C48.4132 353.788 48.3997 353.817 48.3867 353.847C48.2527 354.156 48.1095 354.455 47.956 354.743C47.9387 354.775 47.9208 354.806 47.9033 354.838C47.7498 355.12 47.5872 355.39 47.4144 355.648C47.3928 355.68 47.3705 355.712 47.3485 355.744C47.1748 355.996 46.9917 356.237 46.7986 356.465C46.773 356.495 46.7471 356.525 46.7213 356.555C46.5261 356.778 46.3211 356.989 46.106 357.186C46.0775 357.212 46.0489 357.237 46.0201 357.263C45.8018 357.457 45.5733 357.635 45.3346 357.799C45.3174 357.811 45.3026 357.826 45.2852 357.838L47.4713 356.366C49.6523 354.898 50.9785 352.166 51.6126 348.948C52.9542 342.161 50.4743 328.307 50.3437 327.578Z" fill="#8C0318"/>
<path d="M46.1067 357.187C46.3218 356.99 46.5269 356.779 46.722 356.556C46.7478 356.526 46.7738 356.496 46.7993 356.466C46.9926 356.238 47.1755 355.997 47.3493 355.745C47.3711 355.713 47.3934 355.681 47.4151 355.649C47.5879 355.391 47.7505 355.121 47.904 354.84C47.9215 354.808 47.9394 354.776 47.9567 354.744C48.1102 354.456 48.2534 354.157 48.3874 353.848C48.4003 353.818 48.4139 353.789 48.4266 353.759C48.5615 353.442 48.6862 353.114 48.8014 352.777C48.8098 352.753 48.8189 352.729 48.827 352.705C48.944 352.357 49.0506 352 49.1472 351.634C49.1513 351.619 49.1559 351.604 49.16 351.588C49.2597 351.207 49.3489 350.818 49.4272 350.42C50.7688 343.634 48.289 329.78 48.1584 329.051C48.0582 329.806 47.8426 330.418 47.5543 330.909C47.2923 331.355 46.9706 331.701 46.6078 331.942C46.4903 332.02 46.3693 332.089 46.2449 332.146C46.2178 332.159 46.1894 332.166 46.1619 332.178C46.0634 332.22 45.9641 332.258 45.8626 332.287C45.8158 332.301 45.7681 332.309 45.7206 332.32C45.6365 332.339 45.5525 332.358 45.4671 332.369C45.414 332.376 45.3606 332.379 45.3071 332.383C45.2258 332.389 45.1447 332.393 45.0627 332.392C45.0076 332.392 44.9525 332.389 44.8973 332.385C44.8163 332.38 44.7353 332.371 44.6544 332.358C44.5996 332.35 44.5449 332.341 44.4905 332.33C44.4077 332.313 44.3259 332.29 44.244 332.266C44.1927 332.251 44.1412 332.238 44.0903 332.22C44.0018 332.189 43.9151 332.151 43.8285 332.112C43.7861 332.093 43.743 332.077 43.701 332.056C43.5739 331.992 43.4488 331.921 43.3277 331.84C42.3628 331.195 41.6203 330.01 41.5469 328.399C41.34 323.773 40.4711 318.962 37.3979 313.548C34.3248 308.134 35.6077 296.666 35.6753 296.062C35.4855 296.15 35.2915 296.249 35.095 296.36C35.0935 296.361 35.0919 296.361 35.0904 296.362C34.8971 296.472 34.7012 296.593 34.5045 296.725C31.6528 298.638 28.6297 302.906 30.3559 308.838C31.6089 313.144 29.7639 317.213 28.1821 319.686C27.2809 321.094 26.4647 321.987 26.3564 322.105C25.9463 320.611 24.7204 318.994 23.3288 317.543C21.0097 315.125 18.2307 313.167 18.0039 313.008C20.8521 319.586 18.6272 328.997 20.3666 338.002C22.106 347.013 34.0185 356.495 34.6455 356.994C34.6404 356.988 34.5443 356.872 34.3657 356.639C32.7424 354.562 24.5852 343.893 24.2049 338.79C23.7824 333.121 25.7522 332.252 24.3424 327.961C24.3967 328.057 25.4288 329.871 27.9551 331.923C30.2254 333.442 30.0683 323.689 31.7913 322.075C33.5448 320.434 34.8348 318.529 34.7455 316.141C35.1049 317.036 41.9338 334.05 40.6089 338.84C40.1113 340.64 40.7731 341.977 41.7938 342.66C43.4896 343.794 46.1763 343.125 46.1844 339.781C46.3275 340.777 49.0451 359.704 38.5899 358.286C38.3327 358.297 38.0629 358.284 37.7796 358.244C37.4961 358.205 37.1993 358.138 36.8879 358.044C40.5389 359.487 43.309 359.192 45.3354 357.8C45.5741 357.636 45.8027 357.458 46.021 357.264C46.0498 357.239 46.0783 357.213 46.1067 357.187Z" fill="#ED0529"/>
<path d="M31.041 351.387C30.9329 351.184 30.8247 350.975 30.7162 350.762C30.4995 350.336 30.283 349.892 30.0692 349.432C29.8553 348.971 29.6444 348.494 29.4387 348.001C29.2332 347.508 29.0331 346.999 28.8411 346.476C27.689 343.339 26.8293 339.684 26.8389 335.777C26.9581 335.935 29.2232 338.94 31.4129 340.695C31.4456 340.721 31.4787 340.746 31.5116 340.768C33.677 342.216 36.1018 334.563 35.3681 330.941C35.5426 331.387 38.8573 339.855 38.2978 344.719C38.1161 346.3 38.5762 347.259 39.2936 347.739C40.7831 348.735 43.3825 347.669 43.6548 345.83C43.6872 346.441 44.3019 358.04 38.5903 358.286C49.0454 359.704 46.3278 340.777 46.1848 339.781C46.1767 343.125 43.49 343.794 41.7941 342.66C40.7735 341.977 40.1115 340.64 40.6093 338.84C41.9342 334.05 35.1052 317.036 34.7458 316.141C34.8353 318.529 33.5453 320.434 31.7917 322.075C30.0687 323.689 30.2258 333.442 27.9555 331.923C27.9153 331.896 27.8741 331.866 27.8323 331.832C25.429 329.871 24.397 328.057 24.3428 327.961C25.7525 332.252 23.7828 333.121 24.2053 338.79C24.5856 343.893 32.7427 354.561 34.366 356.639C33.7987 355.899 32.4459 354.036 31.041 351.387Z" fill="#FF9861"/>
<path d="M35.0946 296.359C35.2911 296.248 35.4851 296.149 35.6749 296.062L36.768 295.326L37.861 294.59C37.4792 294.765 37.0804 294.989 36.6783 295.26L34.4922 296.731C34.4963 296.729 34.5001 296.727 34.5042 296.724C34.7007 296.592 34.8967 296.471 35.09 296.362C35.0915 296.361 35.0931 296.36 35.0946 296.359Z" fill="#ED0529"/>
<defs>
<clipPath id="clip0_14131_86654">
<rect width="61.7742" height="71.56" fill="white" transform="translate(4.11914 209.91)"/>
</clipPath>
</defs>
</svg>
