<svg width="532" height="532" viewBox="0 0 532 532" fill="none" xmlns="http://www.w3.org/2000/svg">
<g clip-path="url(#clip0_13394_180610)">
<path d="M45.6916 90.3607L35.8281 183.74C35.6978 184.969 36.3831 186.283 37.9091 187.398C40.9625 189.617 46.2344 190.175 49.6889 188.644C51.4105 187.873 52.3569 186.732 52.4871 185.502L62.332 92.3002L54.8812 72.803L45.6916 90.3607Z" fill="#667790"/>
<path d="M45.7081 89.9997C45.5776 91.2348 46.2657 92.5548 47.7983 93.6738C50.8657 95.9042 56.1615 96.4643 59.6312 94.9256C61.3607 94.1517 62.3117 93.0054 62.4421 91.7698L65.6792 60.6256L49.0133 58.9388L45.7081 89.9997Z" fill="#EFF2F7"/>
<path d="M51.8143 55.7711C48.3619 57.3025 48.0396 60.348 51.0949 62.5702C54.1481 64.7922 59.42 65.3501 62.8743 63.8165C66.4134 62.2429 66.5705 59.1818 63.5934 57.0175C60.5366 54.7928 55.2646 54.2348 51.8143 55.7711Z" fill="white"/>
<path d="M27.6382 21.7461L31.5307 40.5397L48.0265 44.3997L31.5307 48.2596L27.6382 67.0533L23.7457 48.2596L7.25 44.3997L23.7457 40.5397L27.6382 21.7461Z" fill="#FFCFE0"/>
<path d="M70.2249 13.5938L72.9064 26.3734L84.2701 28.9982L72.9064 31.6229L70.2249 44.4026L67.5434 31.6229L56.1797 28.9982L67.5434 26.3734L70.2249 13.5938Z" fill="#FFCFE0"/>
<path d="M93.331 52.5547L95.061 60.8239L102.392 62.5223L95.061 64.2206L93.331 72.4898L91.601 64.2206L84.2695 62.5223L91.601 60.8239L93.331 52.5547Z" fill="#FFCFE0"/>
<path d="M470.127 104.528L378.083 42.967C376.084 41.629 373.845 41.7595 372.066 42.8679L372.062 42.8588L371.937 42.9427C371.91 42.9609 371.882 42.9802 371.854 42.9984L46.0352 260.856L123.523 482.292L445.904 266.593L445.901 266.585C449.849 264.385 453.532 261.407 456.764 257.664L478.359 232.648C485.813 224.013 490 212.302 490 200.091V144.401C490 127.952 482.425 112.752 470.127 104.528Z" fill="white"/>
<path d="M52.2831 260.815L144.328 322.376C156.625 330.6 164.201 345.799 164.201 362.249V417.94C164.201 430.151 160.014 441.862 152.56 450.496L130.964 475.513C118.244 490.248 98.5659 493.249 82.9864 482.83L47.0343 458.785C44.5383 457.115 43 454.029 43 450.689V267.023C43 261.504 48.1571 258.056 52.2831 260.815Z" fill="#EFF2F7"/>
<path d="M199.058 400.688V400.703C199.058 411.501 195.389 421.866 188.839 429.55C182.046 437.52 174.378 446.458 174.378 446.458C171.761 449.489 168.839 451.994 165.73 454.018L165.731 454.065L416.136 286.488C419.098 284.517 421.881 282.093 424.385 279.191C424.385 279.191 432.004 270.315 438.767 262.384C445.321 254.699 448.994 244.331 448.994 233.527L199.058 400.688Z" fill="#667790"/>
<path d="M440.763 257.835C440.763 256.674 440.228 255.6 439.36 255.02L428.11 247.496L199.059 400.687V400.702C199.059 410.24 196.193 419.436 191.012 426.749L439.36 260.651C440.228 260.069 440.763 258.996 440.763 257.835Z" fill="#C2CDDD"/>
<path d="M440.763 259.787V239.031L436.168 242.105V262.86L440.763 259.787Z" fill="#E0E0E0"/>
<path d="M390.337 293.422V272.715L385.742 275.788V296.495L390.337 293.422Z" fill="#E0E0E0"/>
<path d="M339.907 327.102V306.395L335.312 309.468V330.174L339.907 327.102Z" fill="#E0E0E0"/>
<path d="M289.477 360.782V340.074L284.883 343.148V363.854L289.477 360.782Z" fill="#E0E0E0"/>
<path d="M239.051 394.461V373.754L234.457 376.827V397.534L239.051 394.461Z" fill="#E0E0E0"/>
<path d="M472.352 207.66C472.352 211.628 470.27 216.236 467.701 217.954C465.133 219.671 463.051 217.849 463.051 213.881C463.051 209.914 465.133 205.306 467.701 203.588C470.27 201.87 472.352 203.694 472.352 207.66Z" fill="#F0F0F0"/>
<path d="M289.48 319.803V304.2L362.321 255.484V271.087L289.48 319.803Z" fill="#F0F0F0"/>
<path opacity="0.2" d="M447 89.0586L121.254 306.921V483.754C122.02 483.29 122.776 482.799 123.519 482.275L123.525 482.292L125.402 481.036V309.695L451.148 91.8327L447 89.0586Z" fill="#C2CDDD"/>
<g clip-path="url(#clip1_13394_180610)">
<path d="M64.6272 299.245L67.386 312.55L68.7122 314.195L67.1403 306.973L69.1071 306.512L70.5574 306.995L70.923 316.936L72.6189 319.039L78.6392 313.129L78.2478 309.902L72.7109 301.74L74.6776 301.28L78.0355 305.885L78.7384 302.935L72.4131 290.2L74.3798 289.739L79.5323 300.092L81.7947 293.231L83.7613 292.771L85.1665 295.602L80.5802 303.524L80.7249 307.203L82.6196 305.091L84.5864 304.63L85.3482 307.24L80.8444 310.241L80.9869 313.867L88.1656 322.837L88.5744 322.422L86.7776 311.93L88.7443 311.469L90.1727 311.625L91.0022 319.956L92.5068 318.428L91.4113 306.4L93.3827 305.869L95.2182 307.087L94.404 318.676L101.122 323.157L100.925 326.421L98.9586 326.882L93.6634 321.586L92.0557 323.219L96.3753 328.617L95.7959 330.789L93.8089 331.224L90.7772 324.518L89.3578 325.959L90.2808 341.109L91.6632 342.85L93.9178 339.178L95.8846 338.718L96.7836 341.216L93.1724 344.751L95.4935 347.674L102.196 346.192L102.856 349.644L96.667 351.002L99.0715 363.643L97.3504 364.081L95.3799 364.522L93.948 350.577L92.4403 347.514L92.7508 355.945L90.7841 356.406L90.0269 346.134L89.5995 343.937L83.0485 349.808L83.1867 353.325L88.1177 359.614L87.5228 361.767L85.556 362.228L83.3354 357.103L83.4467 359.932L89.0126 371.126L87.8052 373.127L85.8384 373.588L82.6528 362.775L78.4234 370.096L76.4566 370.557L77.0184 367.265L81.0171 359.456L80.9575 355.828L77.6146 358.418L75.6479 358.878L76.8528 355.808L80.8271 353.16L81.2092 349.287L73.8838 340.133L72.461 341.579L73.4567 351.579L71.4899 352.039L70.2683 343.806L69.663 344.421L68.7868 356.979L66.8201 357.44L66.8935 344.411L59.2777 336.888L61.2444 336.427L68.5062 341.263L70.0431 339.702L64.4383 332.72L66.4051 332.259L71.3217 338.403L72.7555 336.947L71.8285 321.73L70.1523 319.652L65.9736 323.741L64.0068 324.202L68.6295 317.764L66.6608 315.323L57.9264 317.736L59.2076 313.83L64.8933 312.182L62.538 299.742L64.6272 299.245ZM75.8585 336.193L81.7976 343.615L87.0004 338.952L86.2641 326.868L80.325 319.447L75.1223 324.109L75.8585 336.193Z" fill="#336CD6"/>
<path d="M62.6582 299.706L65.4171 313.011L67.453 315.536L67.1381 306.974L68.5887 307.457L68.9543 317.398L70.6501 319.501L77.1727 313.655L77.0358 310.172L72.1138 303.894L72.7088 301.741L76.9152 307.106L76.7696 303.396L71.2036 292.202L72.4108 290.201L77.5634 300.553L81.7925 293.232L83.1976 296.063L78.6114 303.985L78.7562 307.664L82.6176 305.091L83.3793 307.701L78.8756 310.702L79.0182 314.328L86.1969 323.298L87.7503 321.72L86.7755 311.931L88.2038 312.086L89.0332 320.417L90.5377 318.889L91.4139 306.331L93.2492 307.548L92.4351 319.137L99.1536 323.619L98.9565 326.883L91.6947 322.047L90.087 323.68L94.4066 329.078L93.8272 331.25L88.8084 324.979L87.389 326.421L88.312 341.571L89.6942 343.311L93.9156 339.179L94.8147 341.677L91.2036 345.212L93.5247 348.135L100.227 346.652L100.888 350.105L94.6981 351.462L97.1027 364.104L95.3814 364.542L92.7786 350.88L90.4715 347.975L90.782 356.407L89.3316 355.923L88.9692 346.083L87.6307 344.398L81.0795 350.269L81.2178 353.787L86.1489 360.076L85.5538 362.229L81.3384 356.852L81.4775 360.393L87.0436 371.587L85.8361 373.589L80.6837 363.236L76.4542 370.558L75.0493 367.726L79.6353 359.804L79.498 356.312L75.6455 358.879L74.8837 356.269L79.3785 353.274L79.2399 349.748L71.9147 340.595L70.4918 342.04L71.4873 352.04L70.0591 351.884L69.2087 343.343L67.6938 344.882L66.8177 357.44L64.9822 356.222L65.7965 344.633L59.0779 340.152L59.2752 336.888L66.537 341.723L68.0739 340.162L63.8565 334.892L64.4359 332.72L69.3526 338.864L70.7865 337.407L69.8595 322.191L68.1832 320.112L64.0044 324.201L63.1053 321.703L66.6604 318.224L64.6917 315.783L57.9241 317.736L57.2386 314.291L63.4987 312.476L60.9468 300.195L62.6582 299.706ZM73.8897 336.655L79.8288 344.076L85.0316 339.413L84.2953 327.329L78.3562 319.907L73.1534 324.57L73.8897 336.655Z" fill="#0047CC"/>
</g>
<path d="M75.4789 429.279C75.5276 429.319 75.5758 429.354 75.6226 429.386C72.674 426.99 71.4696 424.873 71.4062 424.762C71.4696 424.873 72.6741 426.99 75.4789 429.279Z" fill="#FF9861"/>
<path d="M73.7559 417.929C73.8825 417.791 74.8349 416.75 75.8868 415.106C73.8159 410.708 66.9497 405.869 66.5592 405.594L64.0078 407.311C64.2726 407.498 67.5159 409.783 70.2226 412.605C71.8466 414.299 73.2773 416.186 73.7559 417.929Z" fill="#8C0318"/>
<path d="M88.0355 460.156C94.7014 459.869 93.9841 446.332 93.9463 445.619C93.6286 447.765 90.5948 449.009 88.8564 447.847C88.0191 447.287 87.4821 446.168 87.6942 444.322C88.3471 438.645 84.4786 428.762 84.275 428.242C85.1312 432.47 82.3012 441.401 79.7739 439.711C79.7356 439.685 79.6969 439.656 79.6587 439.626C77.1033 437.578 74.4596 434.071 74.3204 433.886C74.3093 438.446 75.3126 442.711 76.6572 446.373C76.8813 446.983 77.1149 447.577 77.3547 448.152C77.5948 448.728 77.8409 449.285 78.0905 449.823C78.3401 450.36 78.5927 450.878 78.8456 451.375C78.9722 451.624 79.0985 451.867 79.2247 452.105C80.8643 455.196 82.4433 457.37 83.1054 458.233C83.3139 458.505 83.4261 458.641 83.432 458.648C84.3877 459.233 85.2579 459.632 86.049 459.873C86.4123 459.984 86.7588 460.061 87.0896 460.107C87.4202 460.154 87.7352 460.169 88.0355 460.156Z" fill="#FFDA24"/>
<path d="M84.6303 387.534C84.5514 388.239 83.0541 401.623 86.6408 407.941C90.2274 414.26 91.2416 419.875 91.4831 425.275C91.5687 427.154 92.4353 428.538 93.5615 429.291C93.7028 429.385 93.8487 429.468 93.9971 429.542C94.046 429.567 94.0963 429.585 94.1459 429.608C94.247 429.653 94.3484 429.698 94.4515 429.734C94.5109 429.754 94.571 429.77 94.6308 429.788C94.7264 429.816 94.8222 429.842 94.9185 429.862C94.9821 429.875 95.046 429.885 95.1098 429.895C95.2043 429.909 95.2987 429.92 95.3933 429.927C95.4578 429.931 95.5221 429.934 95.5864 429.935C95.6817 429.936 95.7767 429.931 95.8716 429.924C95.9339 429.919 95.9963 429.916 96.0583 429.907C96.1578 429.894 96.2562 429.873 96.3542 429.85C96.4095 429.837 96.4653 429.828 96.5199 429.812C96.6383 429.778 96.7544 429.733 96.8693 429.684C96.9013 429.671 96.9345 429.662 96.9661 429.647C97.1113 429.58 97.2526 429.501 97.3897 429.41C97.813 429.128 98.1887 428.724 98.4944 428.204C97.686 428.283 96.8448 428.063 96.1129 427.573C94.9866 426.82 94.1201 425.437 94.0343 423.557C93.7929 418.157 92.7787 412.542 89.192 406.223C85.6052 399.905 87.1028 386.521 87.1815 385.816L85.9058 386.675L84.6303 387.534Z" fill="#8C0318"/>
<path d="M101.752 424.316L99.2002 426.034C99.3526 426.885 102.247 443.054 100.681 450.974C100.59 451.438 100.485 451.893 100.369 452.337C100.364 452.355 100.359 452.373 100.354 452.391C100.242 452.818 100.117 453.235 99.9805 453.64C99.9709 453.669 99.9603 453.697 99.9507 453.725C99.8163 454.118 99.6708 454.501 99.5132 454.871C99.4983 454.906 99.4826 454.94 99.4675 454.975C99.311 455.335 99.1439 455.685 98.9648 456.02C98.9446 456.058 98.9237 456.095 98.9033 456.132C98.7242 456.46 98.5344 456.775 98.3327 457.077C98.3075 457.114 98.2815 457.151 98.2558 457.189C98.0531 457.483 97.8394 457.764 97.614 458.03C97.5842 458.066 97.5539 458.1 97.5238 458.135C97.2959 458.396 97.0567 458.642 96.8057 458.871C96.7724 458.902 96.7391 458.932 96.7055 458.962C96.4507 459.188 96.1839 459.396 95.9053 459.587C95.8853 459.601 95.868 459.619 95.8477 459.632L98.3992 457.915C100.945 456.201 102.492 453.012 103.232 449.257C104.798 441.337 101.904 425.167 101.752 424.316Z" fill="#8C0318"/>
<path d="M96.8067 458.873C97.0577 458.644 97.2971 458.398 97.5247 458.137C97.5549 458.102 97.5852 458.067 97.615 458.032C97.8405 457.766 98.0541 457.485 98.2568 457.191C98.2823 457.153 98.3083 457.116 98.3337 457.079C98.5354 456.777 98.7252 456.462 98.9042 456.134C98.9247 456.097 98.9456 456.06 98.9658 456.022C99.1449 455.687 99.312 455.337 99.4685 454.977C99.4835 454.942 99.4993 454.908 99.5142 454.873C99.6716 454.503 99.8171 454.12 99.9517 453.727C99.9615 453.699 99.972 453.671 99.9815 453.642C100.118 453.237 100.243 452.82 100.355 452.393C100.36 452.375 100.365 452.357 100.37 452.339C100.486 451.895 100.591 451.44 100.682 450.976C102.248 443.056 99.3536 426.887 99.2011 426.036C99.0842 426.918 98.8326 427.632 98.4962 428.205C98.1903 428.725 97.8149 429.129 97.3915 429.411C97.2544 429.502 97.1131 429.581 96.9679 429.648C96.9363 429.663 96.9031 429.672 96.8711 429.685C96.7561 429.734 96.6403 429.779 96.5217 429.813C96.4671 429.829 96.4114 429.838 96.3561 429.851C96.2579 429.874 96.1598 429.895 96.0602 429.908C95.9982 429.917 95.9359 429.92 95.8734 429.925C95.7786 429.932 95.6838 429.937 95.5882 429.936C95.5239 429.935 95.4596 429.932 95.3952 429.927C95.3006 429.921 95.2061 429.91 95.1117 429.896C95.0476 429.886 94.9839 429.876 94.9203 429.863C94.8237 429.843 94.7283 429.817 94.6327 429.789C94.5728 429.771 94.5127 429.755 94.4533 429.735C94.35 429.698 94.2488 429.654 94.1477 429.609C94.0983 429.586 94.048 429.568 93.9989 429.543C93.8505 429.469 93.7046 429.386 93.5633 429.292C92.4372 428.539 91.5706 427.155 91.4849 425.276C91.2434 419.876 90.2293 414.261 86.6426 407.942C83.0559 401.624 84.5532 388.24 84.6321 387.535C84.4106 387.637 84.1842 387.753 83.9548 387.882C83.9531 387.883 83.9512 387.884 83.9495 387.885C83.7238 388.013 83.4953 388.154 83.2657 388.308C79.9375 390.541 76.4092 395.522 78.4239 402.445C79.8863 407.471 77.7329 412.22 75.8868 415.106C74.835 416.75 73.8825 417.792 73.756 417.93C73.2774 416.186 71.8466 414.299 70.2226 412.606C67.5159 409.783 64.2726 407.498 64.0078 407.312C67.3319 414.989 64.7353 425.973 66.7654 436.483C68.7953 446.999 82.6985 458.066 83.4303 458.648C83.4243 458.641 83.3122 458.506 83.1037 458.234C81.2091 455.809 71.6889 443.358 71.245 437.402C70.7519 430.786 73.0509 429.772 71.4055 424.764C71.4688 424.876 72.6734 426.993 75.6219 429.388C78.2716 431.16 78.0882 419.778 80.0991 417.895C82.1456 415.979 83.6512 413.756 83.5469 410.968C83.9664 412.014 91.9364 431.87 90.3902 437.461C89.8094 439.562 90.5818 441.122 91.773 441.919C93.7522 443.243 96.8878 442.462 96.8974 438.559C97.0643 439.722 100.236 461.811 88.0338 460.156C87.7336 460.169 87.4187 460.154 87.088 460.107C86.7572 460.061 86.4107 459.984 86.0474 459.873C90.3084 461.558 93.5414 461.213 95.9065 459.589C96.185 459.398 96.4518 459.189 96.7066 458.964C96.7402 458.934 96.7735 458.904 96.8067 458.873Z" fill="#ED0529"/>
<path d="M79.2246 452.105C79.0985 451.867 78.9722 451.624 78.8456 451.376C78.5926 450.878 78.34 450.361 78.0904 449.823C77.8408 449.285 77.5947 448.728 77.3546 448.153C77.1148 447.577 76.8812 446.984 76.6571 446.373C75.3125 442.712 74.3092 438.447 74.3203 433.887C74.4595 434.071 77.1031 437.578 79.6587 439.626C79.6969 439.657 79.7355 439.685 79.7739 439.711C82.3012 441.401 85.1311 432.47 84.2749 428.243C84.4785 428.763 88.3471 438.646 87.6941 444.323C87.482 446.168 88.019 447.287 88.8563 447.847C90.5947 449.01 93.6284 447.766 93.9462 445.62C93.984 446.332 94.7015 459.869 88.0354 460.156C100.238 461.811 97.0659 439.722 96.899 438.56C96.8895 442.462 93.7539 443.243 91.7747 441.919C90.5835 441.123 89.8109 439.562 90.3919 437.462C91.9382 431.87 83.968 412.014 83.5486 410.969C83.653 413.757 82.1474 415.979 80.1008 417.895C78.0898 419.778 78.2733 431.161 75.6236 429.389C75.5767 429.357 75.5285 429.321 75.4798 429.282C72.6749 426.993 71.4705 424.876 71.4072 424.765C73.0524 429.772 70.7536 430.786 71.2467 437.402C71.6905 443.359 81.2108 455.81 83.1053 458.234C82.4432 457.37 80.8643 455.197 79.2246 452.105Z" fill="#FF9861"/>
<path d="M83.9531 387.881C84.1824 387.752 84.4089 387.636 84.6304 387.534L85.906 386.675L87.1817 385.816C86.7362 386.021 86.2707 386.282 85.8014 386.598L83.25 388.316C83.2548 388.313 83.2592 388.31 83.264 388.307C83.4934 388.153 83.7221 388.012 83.9478 387.884C83.9495 387.883 83.9514 387.882 83.9531 387.881Z" fill="#ED0529"/>
</g>
<defs>
<clipPath id="clip0_13394_180610">
<rect width="532" height="532" fill="white" transform="matrix(-1 0 0 1 532 0)"/>
</clipPath>
<clipPath id="clip1_13394_180610">
<rect width="72.0968" height="83.5179" fill="white" transform="translate(47.8047 286.984)"/>
</clipPath>
</defs>
</svg>
