<svg width="708" height="689" viewBox="0 0 708 689" fill="none" xmlns="http://www.w3.org/2000/svg">
<path d="M558.127 304.528L466.083 242.967C464.084 241.629 461.845 241.759 460.066 242.868L460.062 242.859L459.937 242.943C459.91 242.961 459.882 242.98 459.854 242.998L134.035 460.856L211.523 682.292L533.904 466.593L533.901 466.585C537.849 464.385 541.532 461.407 544.764 457.664L566.359 432.648C573.813 424.013 578 412.302 578 400.091V344.401C578 327.952 570.425 312.752 558.127 304.528Z" fill="white"/>
<path d="M140.283 460.815L232.328 522.376C244.625 530.6 252.201 545.799 252.201 562.249V617.94C252.201 630.151 248.014 641.862 240.56 650.496L218.964 675.513C206.244 690.248 186.566 693.249 170.986 682.83L135.034 658.785C132.538 657.115 131 654.029 131 650.689V467.023C131 461.504 136.157 458.056 140.283 460.815Z" fill="#EFF2F7"/>
<path d="M287.058 600.688V600.703C287.058 611.501 283.389 621.866 276.839 629.55C270.046 637.52 262.378 646.458 262.378 646.458C259.761 649.489 256.839 651.994 253.73 654.018L253.731 654.065L504.136 486.488C507.098 484.517 509.881 482.093 512.385 479.191C512.385 479.191 520.004 470.315 526.767 462.384C533.321 454.699 536.994 444.331 536.994 433.527L287.058 600.688Z" fill="#667790"/>
<path d="M528.763 457.835C528.763 456.674 528.228 455.6 527.36 455.02L516.11 447.496L287.059 600.687V600.702C287.059 610.24 284.193 619.436 279.012 626.749L527.36 460.651C528.228 460.069 528.763 458.996 528.763 457.835Z" fill="#C2CDDD"/>
<path d="M528.763 459.787V439.031L524.168 442.105V462.86L528.763 459.787Z" fill="#E0E0E0"/>
<path d="M478.337 493.422V472.715L473.742 475.788V496.495L478.337 493.422Z" fill="#E0E0E0"/>
<path d="M427.907 527.102V506.395L423.312 509.468V530.174L427.907 527.102Z" fill="#E0E0E0"/>
<path d="M377.477 560.782V540.074L372.883 543.148V563.854L377.477 560.782Z" fill="#E0E0E0"/>
<path d="M327.051 594.461V573.754L322.457 576.827V597.534L327.051 594.461Z" fill="#E0E0E0"/>
<path d="M560.352 407.66C560.352 411.628 558.27 416.236 555.701 417.954C553.133 419.671 551.051 417.849 551.051 413.881C551.051 409.914 553.133 405.306 555.701 403.588C558.27 401.87 560.352 403.694 560.352 407.66Z" fill="#F0F0F0"/>
<path d="M377.48 519.803V504.2L450.321 455.484V471.087L377.48 519.803Z" fill="#F0F0F0"/>
<path opacity="0.2" d="M535 289.059L209.254 506.921V683.754C210.02 683.29 210.776 682.799 211.519 682.275L211.525 682.292L213.402 681.036V509.695L539.148 291.833L535 289.059Z" fill="#C2CDDD"/>
<g clip-path="url(#clip0_13394_182176)">
<path d="M152.627 499.245L155.386 512.55L156.712 514.195L155.14 506.973L157.107 506.512L158.557 506.995L158.923 516.936L160.619 519.039L166.639 513.129L166.248 509.902L160.711 501.74L162.678 501.28L166.035 505.885L166.738 502.935L160.413 490.2L162.38 489.739L167.532 500.092L169.795 493.231L171.761 492.771L173.167 495.602L168.58 503.524L168.725 507.203L170.62 505.091L172.586 504.63L173.348 507.24L168.844 510.241L168.987 513.867L176.166 522.837L176.574 522.422L174.778 511.93L176.744 511.469L178.173 511.625L179.002 519.956L180.507 518.428L179.411 506.4L181.383 505.869L183.218 507.087L182.404 518.676L189.122 523.157L188.925 526.421L186.959 526.882L181.663 521.586L180.056 523.219L184.375 528.617L183.796 530.789L181.809 531.224L178.777 524.518L177.358 525.959L178.281 541.109L179.663 542.85L181.918 539.178L183.885 538.718L184.784 541.216L181.172 544.751L183.493 547.674L190.196 546.192L190.856 549.644L184.667 551.002L187.072 563.643L185.35 564.081L183.38 564.522L181.948 550.577L180.44 547.514L180.751 555.945L178.784 556.406L178.027 546.134L177.6 543.937L171.049 549.808L171.187 553.325L176.118 559.614L175.523 561.767L173.556 562.228L171.335 557.103L171.447 559.932L177.013 571.126L175.805 573.127L173.838 573.588L170.653 562.775L166.423 570.096L164.457 570.557L165.018 567.265L169.017 559.456L168.958 555.828L165.615 558.418L163.648 558.878L164.853 555.808L168.827 553.16L169.209 549.287L161.884 540.133L160.461 541.579L161.457 551.579L159.49 552.039L158.268 543.806L157.663 544.421L156.787 556.979L154.82 557.44L154.894 544.411L147.278 536.888L149.244 536.427L156.506 541.263L158.043 539.702L152.438 532.72L154.405 532.259L159.322 538.403L160.755 536.947L159.828 521.73L158.152 519.652L153.974 523.741L152.007 524.202L156.629 517.764L154.661 515.323L145.926 517.736L147.208 513.83L152.893 512.182L150.538 499.742L152.627 499.245ZM163.859 536.193L169.798 543.615L175 538.952L174.264 526.868L168.325 519.447L163.122 524.109L163.859 536.193Z" fill="#336CD6"/>
<path d="M150.658 499.706L153.417 513.011L155.453 515.536L155.138 506.974L156.589 507.457L156.954 517.398L158.65 519.501L165.173 513.655L165.036 510.172L160.114 503.894L160.709 501.741L164.915 507.106L164.77 503.396L159.204 492.202L160.411 490.201L165.563 500.553L169.793 493.232L171.198 496.063L166.611 503.985L166.756 507.664L170.618 505.091L171.379 507.701L166.876 510.702L167.018 514.328L174.197 523.298L175.75 521.72L174.775 511.931L176.204 512.086L177.033 520.417L178.538 518.889L179.414 506.331L181.249 507.548L180.435 519.137L187.154 523.619L186.957 526.883L179.695 522.047L178.087 523.68L182.407 529.078L181.827 531.25L176.808 524.979L175.389 526.421L176.312 541.571L177.694 543.311L181.916 539.179L182.815 541.677L179.204 545.212L181.525 548.135L188.227 546.652L188.888 550.105L182.698 551.462L185.103 564.104L183.381 564.542L180.779 550.88L178.471 547.975L178.782 556.407L177.332 555.923L176.969 546.083L175.631 544.398L169.08 550.269L169.218 553.787L174.149 560.076L173.554 562.229L169.338 556.852L169.477 560.393L175.044 571.587L173.836 573.589L168.684 563.236L164.454 570.558L163.049 567.726L167.635 559.804L167.498 556.312L163.645 558.879L162.884 556.269L167.379 553.274L167.24 549.748L159.915 540.595L158.492 542.04L159.487 552.04L158.059 551.884L157.209 543.343L155.694 544.882L154.818 557.44L152.982 556.222L153.797 544.633L147.078 540.152L147.275 536.888L154.537 541.723L156.074 540.162L151.856 534.892L152.436 532.72L157.353 538.864L158.786 537.407L157.859 522.191L156.183 520.112L152.004 524.201L151.105 521.703L154.66 518.224L152.692 515.783L145.924 517.736L145.239 514.291L151.499 512.476L148.947 500.195L150.658 499.706ZM161.89 536.655L167.829 544.076L173.032 539.413L172.295 527.329L166.356 519.907L161.153 524.57L161.89 536.655Z" fill="#0047CC"/>
</g>
<path d="M163.479 629.279C163.528 629.319 163.576 629.354 163.623 629.386C160.674 626.99 159.47 624.873 159.406 624.762C159.47 624.873 160.674 626.99 163.479 629.279Z" fill="#FF9861"/>
<path d="M161.756 617.929C161.882 617.791 162.835 616.75 163.887 615.106C161.816 610.708 154.95 605.869 154.559 605.594L152.008 607.311C152.273 607.498 155.516 609.783 158.223 612.605C159.847 614.299 161.277 616.186 161.756 617.929Z" fill="#8C0318"/>
<path d="M176.036 660.156C182.701 659.869 181.984 646.332 181.946 645.619C181.629 647.765 178.595 649.009 176.856 647.847C176.019 647.287 175.482 646.168 175.694 644.322C176.347 638.645 172.479 628.762 172.275 628.242C173.131 632.47 170.301 641.401 167.774 639.711C167.736 639.685 167.697 639.656 167.659 639.626C165.103 637.578 162.46 634.071 162.32 633.886C162.309 638.446 163.313 642.711 164.657 646.373C164.881 646.983 165.115 647.577 165.355 648.152C165.595 648.728 165.841 649.285 166.09 649.823C166.34 650.36 166.593 650.878 166.846 651.375C166.972 651.624 167.099 651.867 167.225 652.105C168.864 655.196 170.443 657.37 171.105 658.233C171.314 658.505 171.426 658.641 171.432 658.648C172.388 659.233 173.258 659.632 174.049 659.873C174.412 659.984 174.759 660.061 175.09 660.107C175.42 660.154 175.735 660.169 176.036 660.156Z" fill="#FFDA24"/>
<path d="M172.63 587.534C172.551 588.239 171.054 601.623 174.641 607.941C178.227 614.26 179.242 619.875 179.483 625.275C179.569 627.154 180.435 628.538 181.561 629.291C181.703 629.385 181.849 629.468 181.997 629.542C182.046 629.567 182.096 629.585 182.146 629.608C182.247 629.653 182.348 629.698 182.451 629.734C182.511 629.754 182.571 629.77 182.631 629.788C182.726 629.816 182.822 629.842 182.918 629.862C182.982 629.875 183.046 629.885 183.11 629.895C183.204 629.909 183.299 629.92 183.393 629.927C183.458 629.931 183.522 629.934 183.586 629.935C183.682 629.936 183.777 629.931 183.872 629.924C183.934 629.919 183.996 629.916 184.058 629.907C184.158 629.894 184.256 629.873 184.354 629.85C184.409 629.837 184.465 629.828 184.52 629.812C184.638 629.778 184.754 629.733 184.869 629.684C184.901 629.671 184.934 629.662 184.966 629.647C185.111 629.58 185.253 629.501 185.39 629.41C185.813 629.128 186.189 628.724 186.494 628.204C185.686 628.283 184.845 628.063 184.113 627.573C182.987 626.82 182.12 625.437 182.034 623.557C181.793 618.157 180.779 612.542 177.192 606.223C173.605 599.905 175.103 586.521 175.182 585.816L173.906 586.675L172.63 587.534Z" fill="#8C0318"/>
<path d="M189.752 624.316L187.2 626.034C187.353 626.885 190.247 643.054 188.681 650.974C188.59 651.438 188.485 651.893 188.369 652.337C188.364 652.355 188.359 652.373 188.354 652.391C188.242 652.818 188.117 653.235 187.981 653.64C187.971 653.669 187.96 653.697 187.951 653.725C187.816 654.118 187.671 654.501 187.513 654.871C187.498 654.906 187.483 654.94 187.467 654.975C187.311 655.335 187.144 655.685 186.965 656.02C186.945 656.058 186.924 656.095 186.903 656.132C186.724 656.46 186.534 656.775 186.333 657.077C186.307 657.114 186.281 657.151 186.256 657.189C186.053 657.483 185.839 657.764 185.614 658.03C185.584 658.066 185.554 658.1 185.524 658.135C185.296 658.396 185.057 658.642 184.806 658.871C184.772 658.902 184.739 658.932 184.705 658.962C184.451 659.188 184.184 659.396 183.905 659.587C183.885 659.601 183.868 659.619 183.848 659.632L186.399 657.915C188.945 656.201 190.492 653.012 191.232 649.257C192.798 641.337 189.904 625.167 189.752 624.316Z" fill="#8C0318"/>
<path d="M184.807 658.873C185.058 658.644 185.297 658.398 185.525 658.137C185.555 658.102 185.585 658.067 185.615 658.032C185.841 657.766 186.054 657.485 186.257 657.191C186.282 657.153 186.308 657.116 186.334 657.079C186.535 656.777 186.725 656.462 186.904 656.134C186.925 656.097 186.946 656.06 186.966 656.022C187.145 655.687 187.312 655.337 187.468 654.977C187.483 654.942 187.499 654.908 187.514 654.873C187.672 654.503 187.817 654.12 187.952 653.727C187.961 653.699 187.972 653.671 187.982 653.642C188.118 653.237 188.243 652.82 188.355 652.393C188.36 652.375 188.365 652.357 188.37 652.339C188.486 651.895 188.591 651.44 188.682 650.976C190.248 643.056 187.354 626.887 187.201 626.036C187.084 626.918 186.833 627.632 186.496 628.205C186.19 628.725 185.815 629.129 185.392 629.411C185.254 629.502 185.113 629.581 184.968 629.648C184.936 629.663 184.903 629.672 184.871 629.685C184.756 629.734 184.64 629.779 184.522 629.813C184.467 629.829 184.411 629.838 184.356 629.851C184.258 629.874 184.16 629.895 184.06 629.908C183.998 629.917 183.936 629.92 183.873 629.925C183.779 629.932 183.684 629.937 183.588 629.936C183.524 629.935 183.46 629.932 183.395 629.927C183.301 629.921 183.206 629.91 183.112 629.896C183.048 629.886 182.984 629.876 182.92 629.863C182.824 629.843 182.728 629.817 182.633 629.789C182.573 629.771 182.513 629.755 182.453 629.735C182.35 629.698 182.249 629.654 182.148 629.609C182.098 629.586 182.048 629.568 181.999 629.543C181.851 629.469 181.705 629.386 181.563 629.292C180.437 628.539 179.571 627.155 179.485 625.276C179.243 619.876 178.229 614.261 174.643 607.942C171.056 601.624 172.553 588.24 172.632 587.535C172.411 587.637 172.184 587.753 171.955 587.882C171.953 587.883 171.951 587.884 171.949 587.885C171.724 588.013 171.495 588.154 171.266 588.308C167.937 590.541 164.409 595.522 166.424 602.445C167.886 607.471 165.733 612.22 163.887 615.106C162.835 616.75 161.882 617.792 161.756 617.93C161.277 616.186 159.847 614.299 158.223 612.606C155.516 609.783 152.273 607.498 152.008 607.312C155.332 614.989 152.735 625.973 154.765 636.483C156.795 646.999 170.698 658.066 171.43 658.648C171.424 658.641 171.312 658.506 171.104 658.234C169.209 655.809 159.689 643.358 159.245 637.402C158.752 630.786 161.051 629.772 159.406 624.764C159.469 624.876 160.673 626.993 163.622 629.388C166.272 631.16 166.088 619.778 168.099 617.895C170.146 615.979 171.651 613.756 171.547 610.968C171.966 612.014 179.936 631.87 178.39 637.461C177.809 639.562 178.582 641.122 179.773 641.919C181.752 643.243 184.888 642.462 184.897 638.559C185.064 639.722 188.236 661.811 176.034 660.156C175.734 660.169 175.419 660.154 175.088 660.107C174.757 660.061 174.411 659.984 174.047 659.873C178.308 661.558 181.541 661.213 183.906 659.589C184.185 659.398 184.452 659.189 184.707 658.964C184.74 658.934 184.773 658.904 184.807 658.873Z" fill="#ED0529"/>
<path d="M167.225 652.105C167.098 651.867 166.972 651.624 166.846 651.376C166.593 650.878 166.34 650.361 166.09 649.823C165.841 649.285 165.595 648.728 165.355 648.153C165.115 647.577 164.881 646.984 164.657 646.373C163.313 642.712 162.309 638.447 162.32 633.887C162.459 634.071 165.103 637.578 167.659 639.626C167.697 639.657 167.736 639.685 167.774 639.711C170.301 641.401 173.131 632.47 172.275 628.243C172.478 628.763 176.347 638.646 175.694 644.323C175.482 646.168 176.019 647.287 176.856 647.847C178.595 649.01 181.628 647.766 181.946 645.62C181.984 646.332 182.702 659.869 176.035 660.156C188.238 661.811 185.066 639.722 184.899 638.56C184.89 642.462 181.754 643.243 179.775 641.919C178.583 641.123 177.811 639.562 178.392 637.462C179.938 631.87 171.968 612.014 171.549 610.969C171.653 613.757 170.147 615.979 168.101 617.895C166.09 619.778 166.273 631.161 163.624 629.389C163.577 629.357 163.529 629.321 163.48 629.282C160.675 626.993 159.47 624.876 159.407 624.765C161.052 629.772 158.754 630.786 159.247 637.402C159.691 643.359 169.211 655.81 171.105 658.234C170.443 657.37 168.864 655.197 167.225 652.105Z" fill="#FF9861"/>
<path d="M171.953 587.881C172.182 587.752 172.409 587.636 172.63 587.534L173.906 586.675L175.182 585.816C174.736 586.021 174.271 586.282 173.801 586.598L171.25 588.316C171.255 588.313 171.259 588.31 171.264 588.307C171.493 588.153 171.722 588.012 171.948 587.884C171.949 587.883 171.951 587.882 171.953 587.881Z" fill="#ED0529"/>
<path d="M298.068 133.705C299.667 133.705 300.963 132.408 300.963 130.809C300.963 129.21 299.667 127.914 298.068 127.914C296.468 127.914 295.172 129.21 295.172 130.809C295.172 132.408 296.468 133.705 298.068 133.705Z" fill="#CCDAF5"/>
<path d="M292.275 107.65C293.874 107.65 295.17 106.354 295.17 104.755C295.17 103.156 293.874 101.859 292.275 101.859C290.675 101.859 289.379 103.156 289.379 104.755C289.379 106.354 290.675 107.65 292.275 107.65Z" fill="#CCDAF5"/>
<path d="M324.13 101.857C325.729 101.857 327.026 100.561 327.026 98.9617C327.026 97.3627 325.729 96.0664 324.13 96.0664C322.531 96.0664 321.234 97.3627 321.234 98.9617C321.234 100.561 322.531 101.857 324.13 101.857Z" fill="#CCDAF5"/>
<path d="M283.591 148.185C285.19 148.185 286.487 146.889 286.487 145.29C286.487 143.691 285.19 142.395 283.591 142.395C281.992 142.395 280.695 143.691 280.695 145.29C280.695 146.889 281.992 148.185 283.591 148.185Z" fill="#CCDAF5"/>
<path d="M298.068 185.826C299.667 185.826 300.963 184.529 300.963 182.93C300.963 181.331 299.667 180.035 298.068 180.035C296.468 180.035 295.172 181.331 295.172 182.93C295.172 184.529 296.468 185.826 298.068 185.826Z" fill="#CCDAF5"/>
<path d="M396.518 125.022C399.716 125.022 402.309 122.43 402.309 119.232C402.309 116.034 399.716 113.441 396.518 113.441C393.319 113.441 390.727 116.034 390.727 119.232C390.727 122.43 393.319 125.022 396.518 125.022Z" fill="#CCDAF5"/>
<path d="M387.833 70.0131C389.432 70.0131 390.729 68.7169 390.729 67.1179C390.729 65.5189 389.432 64.2227 387.833 64.2227C386.234 64.2227 384.938 65.5189 384.938 67.1179C384.938 68.7169 386.234 70.0131 387.833 70.0131Z" fill="#CCDAF5"/>
<path d="M408.103 133.705C409.702 133.705 410.998 132.408 410.998 130.809C410.998 129.21 409.702 127.914 408.103 127.914C406.503 127.914 405.207 129.21 405.207 130.809C405.207 132.408 406.503 133.705 408.103 133.705Z" fill="#CCDAF5"/>
<path d="M350.189 180.029C351.788 180.029 353.084 178.733 353.084 177.134C353.084 175.535 351.788 174.238 350.189 174.238C348.589 174.238 347.293 175.535 347.293 177.134C347.293 178.733 348.589 180.029 350.189 180.029Z" fill="#CCDAF5"/>
<path d="M379.146 182.923C380.745 182.923 382.041 181.627 382.041 180.028C382.041 178.429 380.745 177.133 379.146 177.133C377.546 177.133 376.25 178.429 376.25 180.028C376.25 181.627 377.546 182.923 379.146 182.923Z" fill="#CCDAF5"/>
<path d="M384.936 168.448C388.134 168.448 390.727 165.856 390.727 162.658C390.727 159.46 388.134 156.867 384.936 156.867C381.737 156.867 379.145 159.46 379.145 162.658C379.145 165.856 381.737 168.448 384.936 168.448Z" fill="#CCDAF5"/>
<path d="M405.208 174.24C406.807 174.24 408.104 172.943 408.104 171.344C408.104 169.745 406.807 168.449 405.208 168.449C403.609 168.449 402.312 169.745 402.312 171.344C402.312 172.943 403.609 174.24 405.208 174.24Z" fill="#CCDAF5"/>
<path d="M402.311 197.405C405.509 197.405 408.102 194.813 408.102 191.615C408.102 188.417 405.509 185.824 402.311 185.824C399.112 185.824 396.52 188.417 396.52 191.615C396.52 194.813 399.112 197.405 402.311 197.405Z" fill="#CCDAF5"/>
<path d="M364.669 197.408C366.268 197.408 367.565 196.111 367.565 194.512C367.565 192.913 366.268 191.617 364.669 191.617C363.07 191.617 361.773 192.913 361.773 194.512C361.773 196.111 363.07 197.408 364.669 197.408Z" fill="#CCDAF5"/>
<path d="M332.814 211.884C334.413 211.884 335.709 210.588 335.709 208.989C335.709 207.39 334.413 206.094 332.814 206.094C331.214 206.094 329.918 207.39 329.918 208.989C329.918 210.588 331.214 211.884 332.814 211.884Z" fill="#CCDAF5"/>
<path d="M280.693 122.126C282.292 122.126 283.588 120.83 283.588 119.231C283.588 117.632 282.292 116.336 280.693 116.336C279.093 116.336 277.797 117.632 277.797 119.231C277.797 120.83 279.093 122.126 280.693 122.126Z" fill="#CCDAF5"/>
<path d="M289.38 168.447C290.979 168.447 292.276 167.15 292.276 165.551C292.276 163.952 290.979 162.656 289.38 162.656C287.781 162.656 286.484 163.952 286.484 165.551C286.484 167.15 287.781 168.447 289.38 168.447Z" fill="#CCDAF5"/>
<path d="M315.439 200.298C317.038 200.298 318.334 199.002 318.334 197.403C318.334 195.804 317.038 194.508 315.439 194.508C313.839 194.508 312.543 195.804 312.543 197.403C312.543 199.002 313.839 200.298 315.439 200.298Z" fill="#CCDAF5"/>
<path d="M379.146 220.564C380.745 220.564 382.041 219.268 382.041 217.669C382.041 216.07 380.745 214.773 379.146 214.773C377.546 214.773 376.25 216.07 376.25 217.669C376.25 219.268 377.546 220.564 379.146 220.564Z" fill="#CCDAF5"/>
<path d="M408.103 211.884C409.702 211.884 410.998 210.588 410.998 208.989C410.998 207.39 409.702 206.094 408.103 206.094C406.503 206.094 405.207 207.39 405.207 208.989C405.207 210.588 406.503 211.884 408.103 211.884Z" fill="#CCDAF5"/>
<path d="M454.435 165.556C456.034 165.556 457.33 164.26 457.33 162.661C457.33 161.062 456.034 159.766 454.435 159.766C452.836 159.766 451.539 161.062 451.539 162.661C451.539 164.26 452.836 165.556 454.435 165.556Z" fill="#CCDAF5"/>
<path d="M405.208 151.08C406.807 151.08 408.104 149.783 408.104 148.184C408.104 146.585 406.807 145.289 405.208 145.289C403.609 145.289 402.312 146.585 402.312 148.184C402.312 149.783 403.609 151.08 405.208 151.08Z" fill="#CCDAF5"/>
<path d="M439.954 188.927C441.554 188.927 442.85 187.631 442.85 186.032C442.85 184.433 441.554 183.137 439.954 183.137C438.355 183.137 437.059 184.433 437.059 186.032C437.059 187.631 438.355 188.927 439.954 188.927Z" fill="#CCDAF5"/>
<path d="M329.919 188.72C331.518 188.72 332.815 187.424 332.815 185.825C332.815 184.226 331.518 182.93 329.919 182.93C328.32 182.93 327.023 184.226 327.023 185.825C327.023 187.424 328.32 188.72 329.919 188.72Z" fill="#CCDAF5"/>
<path d="M358.876 214.775C360.475 214.775 361.772 213.479 361.772 211.88C361.772 210.281 360.475 208.984 358.876 208.984C357.277 208.984 355.98 210.281 355.98 211.88C355.98 213.479 357.277 214.775 358.876 214.775Z" fill="#CCDAF5"/>
<path d="M387.833 211.884C389.432 211.884 390.729 210.588 390.729 208.989C390.729 207.39 389.432 206.094 387.833 206.094C386.234 206.094 384.938 207.39 384.938 208.989C384.938 210.588 386.234 211.884 387.833 211.884Z" fill="#CCDAF5"/>
<path d="M425.81 200.298C427.409 200.298 428.705 199.002 428.705 197.403C428.705 195.804 427.409 194.508 425.81 194.508C424.211 194.508 422.914 195.804 422.914 197.403C422.914 199.002 424.211 200.298 425.81 200.298Z" fill="#CCDAF5"/>
<path d="M460.224 151.08C461.823 151.08 463.119 149.783 463.119 148.184C463.119 146.585 461.823 145.289 460.224 145.289C458.625 145.289 457.328 146.585 457.328 148.184C457.328 149.783 458.625 151.08 460.224 151.08Z" fill="#CCDAF5"/>
<path d="M425.478 133.705C427.077 133.705 428.373 132.408 428.373 130.809C428.373 129.21 427.077 127.914 425.478 127.914C423.878 127.914 422.582 129.21 422.582 130.809C422.582 132.408 423.878 133.705 425.478 133.705Z" fill="#CCDAF5"/>
<path d="M442.849 142.388C444.448 142.388 445.744 141.092 445.744 139.493C445.744 137.894 444.448 136.598 442.849 136.598C441.25 136.598 439.953 137.894 439.953 139.493C439.953 141.092 441.25 142.388 442.849 142.388Z" fill="#CCDAF5"/>
<path d="M431.271 174.24C432.87 174.24 434.166 172.943 434.166 171.344C434.166 169.745 432.87 168.449 431.271 168.449C429.671 168.449 428.375 169.745 428.375 171.344C428.375 172.943 429.671 174.24 431.271 174.24Z" fill="#CCDAF5"/>
<path d="M439.954 122.126C441.554 122.126 442.85 120.83 442.85 119.231C442.85 117.632 441.554 116.336 439.954 116.336C438.355 116.336 437.059 117.632 437.059 119.231C437.059 120.83 438.355 122.126 439.954 122.126Z" fill="#CCDAF5"/>
<path d="M457.329 104.759C458.929 104.759 460.225 103.463 460.225 101.864C460.225 100.265 458.929 98.9688 457.329 98.9688C455.73 98.9688 454.434 100.265 454.434 101.864C454.434 103.463 455.73 104.759 457.329 104.759Z" fill="#CCDAF5"/>
<path d="M387.833 49.7514C389.432 49.7514 390.729 48.4552 390.729 46.8562C390.729 45.2572 389.432 43.9609 387.833 43.9609C386.234 43.9609 384.938 45.2572 384.938 46.8562C384.938 48.4552 386.234 49.7514 387.833 49.7514Z" fill="#CCDAF5"/>
<path d="M361.772 61.3232C364.97 61.3232 367.563 58.7307 367.563 55.5327C367.563 52.3347 364.97 49.7422 361.772 49.7422C358.573 49.7422 355.98 52.3347 355.98 55.5327C355.98 58.7307 358.573 61.3232 361.772 61.3232Z" fill="#CCDAF5"/>
<path d="M338.607 64.2241C340.206 64.2241 341.502 62.9278 341.502 61.3288C341.502 59.7298 340.206 58.4336 338.607 58.4336C337.007 58.4336 335.711 59.7298 335.711 61.3288C335.711 62.9278 337.007 64.2241 338.607 64.2241Z" fill="#CCDAF5"/>
<path d="M324.127 87.3857C327.326 87.3857 329.919 84.7932 329.919 81.5952C329.919 78.3972 327.326 75.8047 324.127 75.8047C320.929 75.8047 318.336 78.3972 318.336 81.5952C318.336 84.7932 320.929 87.3857 324.127 87.3857Z" fill="#CCDAF5"/>
<path d="M321.233 122.132C324.431 122.132 327.024 119.539 327.024 116.341C327.024 113.143 324.431 110.551 321.233 110.551C318.034 110.551 315.441 113.143 315.441 116.341C315.441 119.539 318.034 122.132 321.233 122.132Z" fill="#CCDAF5"/>
<path d="M321.232 148.185C322.831 148.185 324.127 146.889 324.127 145.29C324.127 143.691 322.831 142.395 321.232 142.395C319.632 142.395 318.336 143.691 318.336 145.29C318.336 146.889 319.632 148.185 321.232 148.185Z" fill="#CCDAF5"/>
<path d="M300.962 153.97C302.561 153.97 303.858 152.674 303.858 151.075C303.858 149.476 302.561 148.18 300.962 148.18C299.363 148.18 298.066 149.476 298.066 151.075C298.066 152.674 299.363 153.97 300.962 153.97Z" fill="#CCDAF5"/>
<path d="M376.247 136.603C377.846 136.603 379.143 135.307 379.143 133.708C379.143 132.109 377.846 130.812 376.247 130.812C374.648 130.812 373.352 132.109 373.352 133.708C373.352 135.307 374.648 136.603 376.247 136.603Z" fill="#CCDAF5"/>
<path d="M332.814 130.814C334.413 130.814 335.709 129.518 335.709 127.919C335.709 126.32 334.413 125.023 332.814 125.023C331.214 125.023 329.918 126.32 329.918 127.919C329.918 129.518 331.214 130.814 332.814 130.814Z" fill="#CCDAF5"/>
<path d="M350.189 110.548C351.788 110.548 353.084 109.252 353.084 107.653C353.084 106.054 351.788 104.758 350.189 104.758C348.589 104.758 347.293 106.054 347.293 107.653C347.293 109.252 348.589 110.548 350.189 110.548Z" fill="#CCDAF5"/>
<path d="M367.564 101.857C369.163 101.857 370.459 100.561 370.459 98.9617C370.459 97.3627 369.163 96.0664 367.564 96.0664C365.964 96.0664 364.668 97.3627 364.668 98.9617C364.668 100.561 365.964 101.857 367.564 101.857Z" fill="#CCDAF5"/>
<path d="M312.544 165.556C314.143 165.556 315.44 164.26 315.44 162.661C315.44 161.062 314.143 159.766 312.544 159.766C310.945 159.766 309.648 161.062 309.648 162.661C309.648 164.26 310.945 165.556 312.544 165.556Z" fill="#CCDAF5"/>
<path d="M361.771 84.4897C363.37 84.4897 364.666 83.1935 364.666 81.5945C364.666 79.9955 363.37 78.6992 361.771 78.6992C360.171 78.6992 358.875 79.9955 358.875 81.5945C358.875 83.1935 360.171 84.4897 361.771 84.4897Z" fill="#CCDAF5"/>
<path d="M387.833 107.65C389.432 107.65 390.729 106.354 390.729 104.755C390.729 103.156 389.432 101.859 387.833 101.859C386.234 101.859 384.938 103.156 384.938 104.755C384.938 106.354 386.234 107.65 387.833 107.65Z" fill="#CCDAF5"/>
<path d="M390.728 90.2827C392.327 90.2827 393.623 88.9864 393.623 87.3874C393.623 85.7884 392.327 84.4922 390.728 84.4922C389.128 84.4922 387.832 85.7884 387.832 87.3874C387.832 88.9864 389.128 90.2827 390.728 90.2827Z" fill="#CCDAF5"/>
<path d="M419.685 107.65C421.284 107.65 422.58 106.354 422.58 104.755C422.58 103.156 421.284 101.859 419.685 101.859C418.086 101.859 416.789 103.156 416.789 104.755C416.789 106.354 418.086 107.65 419.685 107.65Z" fill="#CCDAF5"/>
<path d="M437.06 90.2827C438.659 90.2827 439.955 88.9864 439.955 87.3874C439.955 85.7884 438.659 84.4922 437.06 84.4922C435.461 84.4922 434.164 85.7884 434.164 87.3874C434.164 88.9864 435.461 90.2827 437.06 90.2827Z" fill="#CCDAF5"/>
<path d="M413.892 67.1186C415.491 67.1186 416.787 65.8224 416.787 64.2234C416.787 62.6244 415.491 61.3281 413.892 61.3281C412.293 61.3281 410.996 62.6244 410.996 64.2234C410.996 65.8224 412.293 67.1186 413.892 67.1186Z" fill="#CCDAF5"/>
<path d="M410.998 87.3857C414.197 87.3857 416.79 84.7932 416.79 81.5952C416.79 78.3972 414.197 75.8047 410.998 75.8047C407.8 75.8047 405.207 78.3972 405.207 81.5952C405.207 84.7932 407.8 87.3857 410.998 87.3857Z" fill="#CCDAF5"/>
<path d="M355.979 133.706C359.177 133.706 361.77 131.113 361.77 127.915C361.77 124.717 359.177 122.125 355.979 122.125C352.78 122.125 350.188 124.717 350.188 127.915C350.188 131.113 352.78 133.706 355.979 133.706Z" fill="#CCDAF5"/>
<path d="M382.04 151.08C383.639 151.08 384.936 149.783 384.936 148.184C384.936 146.585 383.639 145.289 382.04 145.289C380.441 145.289 379.145 146.585 379.145 148.184C379.145 149.783 380.441 151.08 382.04 151.08Z" fill="#CCDAF5"/>
<path d="M335.709 168.448C338.908 168.448 341.501 165.856 341.501 162.658C341.501 159.46 338.908 156.867 335.709 156.867C332.511 156.867 329.918 159.46 329.918 162.658C329.918 165.856 332.511 168.448 335.709 168.448Z" fill="#CCDAF5"/>
<path d="M361.771 162.658C363.37 162.658 364.666 161.361 364.666 159.762C364.666 158.163 363.37 156.867 361.771 156.867C360.171 156.867 358.875 158.163 358.875 159.762C358.875 161.361 360.171 162.658 361.771 162.658Z" fill="#CCDAF5"/>
<path d="M350.189 151.08C351.788 151.08 353.084 149.783 353.084 148.184C353.084 146.585 351.788 145.289 350.189 145.289C348.589 145.289 347.293 146.585 347.293 148.184C347.293 149.783 348.589 151.08 350.189 151.08Z" fill="#CCDAF5"/>
<path d="M425.479 156.87C428.677 156.87 431.27 154.278 431.27 151.08C431.27 147.882 428.677 145.289 425.479 145.289C422.28 145.289 419.688 147.882 419.688 151.08C419.688 154.278 422.28 156.87 425.479 156.87Z" fill="#CCDAF5"/>
<path d="M306.755 93.1733C308.354 93.1733 309.651 91.8771 309.651 90.2781C309.651 88.6791 308.354 87.3828 306.755 87.3828C305.156 87.3828 303.859 88.6791 303.859 90.2781C303.859 91.8771 305.156 93.1733 306.755 93.1733Z" fill="#CCDAF5"/>
<path d="M286.486 96.0717C288.085 96.0717 289.381 94.7755 289.381 93.1765C289.381 91.5775 288.085 90.2812 286.486 90.2812C284.886 90.2812 283.59 91.5775 283.59 93.1765C283.59 94.7755 284.886 96.0717 286.486 96.0717Z" fill="#CCDAF5"/>
<path d="M300.962 72.9038C302.561 72.9038 303.858 71.6075 303.858 70.0085C303.858 68.4095 302.561 67.1133 300.962 67.1133C299.363 67.1133 298.066 68.4095 298.066 70.0085C298.066 71.6075 299.363 72.9038 300.962 72.9038Z" fill="#CCDAF5"/>
<path d="M321.232 55.5327C322.831 55.5327 324.127 54.2364 324.127 52.6374C324.127 51.0384 322.831 49.7422 321.232 49.7422C319.632 49.7422 318.336 51.0384 318.336 52.6374C318.336 54.2364 319.632 55.5327 321.232 55.5327Z" fill="#CCDAF5"/>
<path d="M347.294 43.9546C348.893 43.9546 350.19 42.6583 350.19 41.0593C350.19 39.4603 348.893 38.1641 347.294 38.1641C345.695 38.1641 344.398 39.4603 344.398 41.0593C344.398 42.6583 345.695 43.9546 347.294 43.9546Z" fill="#CCDAF5"/>
<path d="M370.458 41.06C372.057 41.06 373.354 39.7638 373.354 38.1648C373.354 36.5658 372.057 35.2695 370.458 35.2695C368.859 35.2695 367.562 36.5658 367.562 38.1648C367.562 39.7638 368.859 41.06 370.458 41.06Z" fill="#CCDAF5"/>
<path d="M408.103 49.7514C409.702 49.7514 410.998 48.4552 410.998 46.8562C410.998 45.2572 409.702 43.9609 408.103 43.9609C406.503 43.9609 405.207 45.2572 405.207 46.8562C405.207 48.4552 406.503 49.7514 408.103 49.7514Z" fill="#CCDAF5"/>
<path d="M432.747 65.603C434.346 65.603 435.643 64.3067 435.643 62.7077C435.643 61.1087 434.346 59.8125 432.747 59.8125C431.148 59.8125 429.852 61.1087 429.852 62.7077C429.852 64.3067 431.148 65.603 432.747 65.603Z" fill="#CCDAF5"/>
<path d="M460.224 130.814C461.823 130.814 463.119 129.518 463.119 127.919C463.119 126.32 461.823 125.023 460.224 125.023C458.625 125.023 457.328 126.32 457.328 127.919C457.328 129.518 458.625 130.814 460.224 130.814Z" fill="#CCDAF5"/>
<path d="M448.642 84.4897C450.241 84.4897 451.537 83.1935 451.537 81.5945C451.537 79.9955 450.241 78.6992 448.642 78.6992C447.043 78.6992 445.746 79.9955 445.746 81.5945C445.746 83.1935 447.043 84.4897 448.642 84.4897Z" fill="#CCDAF5"/>
<path d="M79.0068 406.38C80.4302 406.38 81.584 405.226 81.584 403.803C81.584 402.38 80.4302 401.227 79.0068 401.227C77.5835 401.227 76.4297 402.38 76.4297 403.803C76.4297 405.226 77.5835 406.38 79.0068 406.38Z" fill="#CCDAF5"/>
<path d="M73.8545 383.189C75.2778 383.189 76.4317 382.035 76.4317 380.612C76.4317 379.189 75.2778 378.035 73.8545 378.035C72.4312 378.035 71.2773 379.189 71.2773 380.612C71.2773 382.035 72.4312 383.189 73.8545 383.189Z" fill="#CCDAF5"/>
<path d="M102.202 378.036C103.625 378.036 104.779 376.883 104.779 375.46C104.779 374.036 103.625 372.883 102.202 372.883C100.779 372.883 99.625 374.036 99.625 375.46C99.625 376.883 100.779 378.036 102.202 378.036Z" fill="#CCDAF5"/>
<path d="M66.124 419.267C67.5474 419.267 68.7012 418.113 68.7012 416.69C68.7012 415.267 67.5474 414.113 66.124 414.113C64.7007 414.113 63.5469 415.267 63.5469 416.69C63.5469 418.113 64.7007 419.267 66.124 419.267Z" fill="#CCDAF5"/>
<path d="M79.0068 452.763C80.4302 452.763 81.584 451.609 81.584 450.186C81.584 448.763 80.4302 447.609 79.0068 447.609C77.5835 447.609 76.4297 448.763 76.4297 450.186C76.4297 451.609 77.5835 452.763 79.0068 452.763Z" fill="#CCDAF5"/>
<path d="M166.631 398.651C169.478 398.651 171.785 396.344 171.785 393.497C171.785 390.651 169.478 388.344 166.631 388.344C163.784 388.344 161.477 390.651 161.477 393.497C161.477 396.344 163.784 398.651 166.631 398.651Z" fill="#CCDAF5"/>
<path d="M158.901 349.693C160.325 349.693 161.479 348.539 161.479 347.116C161.479 345.693 160.325 344.539 158.901 344.539C157.478 344.539 156.324 345.693 156.324 347.116C156.324 348.539 157.478 349.693 158.901 349.693Z" fill="#CCDAF5"/>
<path d="M176.94 406.38C178.364 406.38 179.518 405.226 179.518 403.803C179.518 402.38 178.364 401.227 176.94 401.227C175.517 401.227 174.363 402.38 174.363 403.803C174.363 405.226 175.517 406.38 176.94 406.38Z" fill="#CCDAF5"/>
<path d="M125.397 447.611C126.821 447.611 127.975 446.457 127.975 445.034C127.975 443.611 126.821 442.457 125.397 442.457C123.974 442.457 122.82 443.611 122.82 445.034C122.82 446.457 123.974 447.611 125.397 447.611Z" fill="#CCDAF5"/>
<path d="M151.171 450.189C152.594 450.189 153.748 449.035 153.748 447.612C153.748 446.189 152.594 445.035 151.171 445.035C149.748 445.035 148.594 446.189 148.594 447.612C148.594 449.035 149.748 450.189 151.171 450.189Z" fill="#CCDAF5"/>
<path d="M156.322 437.299C159.169 437.299 161.477 434.992 161.477 432.146C161.477 429.3 159.169 426.992 156.322 426.992C153.476 426.992 151.168 429.3 151.168 432.146C151.168 434.992 153.476 437.299 156.322 437.299Z" fill="#CCDAF5"/>
<path d="M174.362 442.458C175.786 442.458 176.939 441.305 176.939 439.881C176.939 438.458 175.786 437.305 174.362 437.305C172.939 437.305 171.785 438.458 171.785 439.881C171.785 441.305 172.939 442.458 174.362 442.458Z" fill="#CCDAF5"/>
<path d="M171.787 463.065C174.634 463.065 176.941 460.758 176.941 457.911C176.941 455.065 174.634 452.758 171.787 452.758C168.94 452.758 166.633 455.065 166.633 457.911C166.633 460.758 168.94 463.065 171.787 463.065Z" fill="#CCDAF5"/>
<path d="M138.284 463.075C139.708 463.075 140.861 461.922 140.861 460.499C140.861 459.076 139.708 457.922 138.284 457.922C136.861 457.922 135.707 459.076 135.707 460.499C135.707 461.922 136.861 463.075 138.284 463.075Z" fill="#CCDAF5"/>
<path d="M109.937 475.958C111.36 475.958 112.514 474.805 112.514 473.381C112.514 471.958 111.36 470.805 109.937 470.805C108.513 470.805 107.359 471.958 107.359 473.381C107.359 474.805 108.513 475.958 109.937 475.958Z" fill="#CCDAF5"/>
<path d="M63.5459 396.075C64.9692 396.075 66.1231 394.922 66.1231 393.499C66.1231 392.076 64.9692 390.922 63.5459 390.922C62.1226 390.922 60.9688 392.076 60.9688 393.499C60.9688 394.922 62.1226 396.075 63.5459 396.075Z" fill="#CCDAF5"/>
<path d="M71.2764 437.31C72.6997 437.31 73.8535 436.156 73.8535 434.733C73.8535 433.31 72.6997 432.156 71.2764 432.156C69.853 432.156 68.6992 433.31 68.6992 434.733C68.6992 436.156 69.853 437.31 71.2764 437.31Z" fill="#CCDAF5"/>
<path d="M94.4717 465.65C95.895 465.65 97.0488 464.496 97.0488 463.073C97.0488 461.65 95.895 460.496 94.4717 460.496C93.0484 460.496 91.8945 461.65 91.8945 463.073C91.8945 464.496 93.0484 465.65 94.4717 465.65Z" fill="#CCDAF5"/>
<path d="M151.171 483.685C152.594 483.685 153.748 482.531 153.748 481.108C153.748 479.685 152.594 478.531 151.171 478.531C149.748 478.531 148.594 479.685 148.594 481.108C148.594 482.531 149.748 483.685 151.171 483.685Z" fill="#CCDAF5"/>
<path d="M176.94 475.958C178.364 475.958 179.518 474.805 179.518 473.381C179.518 471.958 178.364 470.805 176.94 470.805C175.517 470.805 174.363 471.958 174.363 473.381C174.363 474.805 175.517 475.958 176.94 475.958Z" fill="#CCDAF5"/>
<path d="M218.175 434.724C219.598 434.724 220.752 433.57 220.752 432.147C220.752 430.724 219.598 429.57 218.175 429.57C216.751 429.57 215.598 430.724 215.598 432.147C215.598 433.57 216.751 434.724 218.175 434.724Z" fill="#CCDAF5"/>
<path d="M174.362 421.841C175.786 421.841 176.939 420.687 176.939 419.264C176.939 417.841 175.786 416.688 174.362 416.688C172.939 416.688 171.785 417.841 171.785 419.264C171.785 420.687 172.939 421.841 174.362 421.841Z" fill="#CCDAF5"/>
<path d="M205.288 455.529C206.711 455.529 207.865 454.375 207.865 452.952C207.865 451.529 206.711 450.375 205.288 450.375C203.865 450.375 202.711 451.529 202.711 452.952C202.711 454.375 203.865 455.529 205.288 455.529Z" fill="#CCDAF5"/>
<path d="M107.358 455.341C108.782 455.341 109.936 454.187 109.936 452.764C109.936 451.341 108.782 450.188 107.358 450.188C105.935 450.188 104.781 451.341 104.781 452.764C104.781 454.187 105.935 455.341 107.358 455.341Z" fill="#CCDAF5"/>
<path d="M133.132 478.532C134.555 478.532 135.709 477.379 135.709 475.956C135.709 474.533 134.555 473.379 133.132 473.379C131.709 473.379 130.555 474.533 130.555 475.956C130.555 477.379 131.709 478.532 133.132 478.532Z" fill="#CCDAF5"/>
<path d="M158.901 475.958C160.325 475.958 161.479 474.805 161.479 473.381C161.479 471.958 160.325 470.805 158.901 470.805C157.478 470.805 156.324 471.958 156.324 473.381C156.324 474.805 157.478 475.958 158.901 475.958Z" fill="#CCDAF5"/>
<path d="M192.694 465.65C194.118 465.65 195.271 464.496 195.271 463.073C195.271 461.65 194.118 460.496 192.694 460.496C191.271 460.496 190.117 461.65 190.117 463.073C190.117 464.496 191.271 465.65 192.694 465.65Z" fill="#CCDAF5"/>
<path d="M223.331 421.841C224.754 421.841 225.908 420.687 225.908 419.264C225.908 417.841 224.754 416.688 223.331 416.688C221.908 416.688 220.754 417.841 220.754 419.264C220.754 420.687 221.908 421.841 223.331 421.841Z" fill="#CCDAF5"/>
<path d="M192.405 406.38C193.829 406.38 194.982 405.226 194.982 403.803C194.982 402.38 193.829 401.227 192.405 401.227C190.982 401.227 189.828 402.38 189.828 403.803C189.828 405.226 190.982 406.38 192.405 406.38Z" fill="#CCDAF5"/>
<path d="M207.866 414.118C209.29 414.118 210.443 412.965 210.443 411.542C210.443 410.119 209.29 408.965 207.866 408.965C206.443 408.965 205.289 410.119 205.289 411.542C205.289 412.965 206.443 414.118 207.866 414.118Z" fill="#CCDAF5"/>
<path d="M197.558 442.458C198.981 442.458 200.135 441.305 200.135 439.881C200.135 438.458 198.981 437.305 197.558 437.305C196.134 437.305 194.98 438.458 194.98 439.881C194.98 441.305 196.134 442.458 197.558 442.458Z" fill="#CCDAF5"/>
<path d="M205.288 396.075C206.711 396.075 207.865 394.922 207.865 393.499C207.865 392.076 206.711 390.922 205.288 390.922C203.865 390.922 202.711 392.076 202.711 393.499C202.711 394.922 203.865 396.075 205.288 396.075Z" fill="#CCDAF5"/>
<path d="M220.753 380.611C222.176 380.611 223.33 379.457 223.33 378.034C223.33 376.611 222.176 375.457 220.753 375.457C219.33 375.457 218.176 376.611 218.176 378.034C218.176 379.457 219.33 380.611 220.753 380.611Z" fill="#CCDAF5"/>
<path d="M158.901 331.654C160.325 331.654 161.479 330.5 161.479 329.077C161.479 327.654 160.325 326.5 158.901 326.5C157.478 326.5 156.324 327.654 156.324 329.077C156.324 330.5 157.478 331.654 158.901 331.654Z" fill="#CCDAF5"/>
<path d="M135.709 341.967C138.556 341.967 140.863 339.66 140.863 336.814C140.863 333.967 138.556 331.66 135.709 331.66C132.862 331.66 130.555 333.967 130.555 336.814C130.555 339.66 132.862 341.967 135.709 341.967Z" fill="#CCDAF5"/>
<path d="M115.089 344.54C116.512 344.54 117.666 343.387 117.666 341.963C117.666 340.54 116.512 339.387 115.089 339.387C113.666 339.387 112.512 340.54 112.512 341.963C112.512 343.387 113.666 344.54 115.089 344.54Z" fill="#CCDAF5"/>
<path d="M102.205 365.151C105.052 365.151 107.359 362.844 107.359 359.997C107.359 357.151 105.052 354.844 102.205 354.844C99.3584 354.844 97.0508 357.151 97.0508 359.997C97.0508 362.844 99.3584 365.151 102.205 365.151Z" fill="#CCDAF5"/>
<path d="M99.627 396.081C102.474 396.081 104.781 393.773 104.781 390.927C104.781 388.081 102.474 385.773 99.627 385.773C96.7803 385.773 94.4727 388.081 94.4727 390.927C94.4727 393.773 96.7803 396.081 99.627 396.081Z" fill="#CCDAF5"/>
<path d="M99.6279 419.267C101.051 419.267 102.205 418.113 102.205 416.69C102.205 415.267 101.051 414.113 99.6279 414.113C98.2046 414.113 97.0508 415.267 97.0508 416.69C97.0508 418.113 98.2046 419.267 99.6279 419.267Z" fill="#CCDAF5"/>
<path d="M81.585 424.419C83.0083 424.419 84.1621 423.266 84.1621 421.842C84.1621 420.419 83.0083 419.266 81.585 419.266C80.1616 419.266 79.0078 420.419 79.0078 421.842C79.0078 423.266 80.1616 424.419 81.585 424.419Z" fill="#CCDAF5"/>
<path d="M148.593 408.958C150.016 408.958 151.17 407.805 151.17 406.381C151.17 404.958 150.016 403.805 148.593 403.805C147.169 403.805 146.016 404.958 146.016 406.381C146.016 407.805 147.169 408.958 148.593 408.958Z" fill="#CCDAF5"/>
<path d="M109.937 403.806C111.36 403.806 112.514 402.652 112.514 401.229C112.514 399.806 111.36 398.652 109.937 398.652C108.513 398.652 107.359 399.806 107.359 401.229C107.359 402.652 108.513 403.806 109.937 403.806Z" fill="#CCDAF5"/>
<path d="M125.397 385.771C126.821 385.771 127.975 384.617 127.975 383.194C127.975 381.771 126.821 380.617 125.397 380.617C123.974 380.617 122.82 381.771 122.82 383.194C122.82 384.617 123.974 385.771 125.397 385.771Z" fill="#CCDAF5"/>
<path d="M140.858 378.036C142.282 378.036 143.436 376.883 143.436 375.46C143.436 374.036 142.282 372.883 140.858 372.883C139.435 372.883 138.281 374.036 138.281 375.46C138.281 376.883 139.435 378.036 140.858 378.036Z" fill="#CCDAF5"/>
<path d="M91.8936 434.724C93.3169 434.724 94.4707 433.57 94.4707 432.147C94.4707 430.724 93.3169 429.57 91.8936 429.57C90.4702 429.57 89.3164 430.724 89.3164 432.147C89.3164 433.57 90.4702 434.724 91.8936 434.724Z" fill="#CCDAF5"/>
<path d="M135.706 362.583C137.129 362.583 138.283 361.43 138.283 360.006C138.283 358.583 137.129 357.43 135.706 357.43C134.283 357.43 133.129 358.583 133.129 360.006C133.129 361.43 134.283 362.583 135.706 362.583Z" fill="#CCDAF5"/>
<path d="M158.901 383.189C160.325 383.189 161.479 382.035 161.479 380.612C161.479 379.189 160.325 378.035 158.901 378.035C157.478 378.035 156.324 379.189 156.324 380.612C156.324 382.035 157.478 383.189 158.901 383.189Z" fill="#CCDAF5"/>
<path d="M161.476 367.732C162.899 367.732 164.053 366.578 164.053 365.155C164.053 363.732 162.899 362.578 161.476 362.578C160.052 362.578 158.898 363.732 158.898 365.155C158.898 366.578 160.052 367.732 161.476 367.732Z" fill="#CCDAF5"/>
<path d="M187.249 383.189C188.672 383.189 189.826 382.035 189.826 380.612C189.826 379.189 188.672 378.035 187.249 378.035C185.826 378.035 184.672 379.189 184.672 380.612C184.672 382.035 185.826 383.189 187.249 383.189Z" fill="#CCDAF5"/>
<path d="M202.714 367.732C204.137 367.732 205.291 366.578 205.291 365.155C205.291 363.732 204.137 362.578 202.714 362.578C201.291 362.578 200.137 363.732 200.137 365.155C200.137 366.578 201.291 367.732 202.714 367.732Z" fill="#CCDAF5"/>
<path d="M182.093 347.118C183.516 347.118 184.67 345.965 184.67 344.542C184.67 343.119 183.516 341.965 182.093 341.965C180.669 341.965 179.516 343.119 179.516 344.542C179.516 345.965 180.669 347.118 182.093 347.118Z" fill="#CCDAF5"/>
<path d="M179.518 365.151C182.364 365.151 184.672 362.844 184.672 359.997C184.672 357.151 182.364 354.844 179.518 354.844C176.671 354.844 174.363 357.151 174.363 359.997C174.363 362.844 176.671 365.151 179.518 365.151Z" fill="#CCDAF5"/>
<path d="M130.553 406.385C133.399 406.385 135.707 404.078 135.707 401.232C135.707 398.385 133.399 396.078 130.553 396.078C127.706 396.078 125.398 398.385 125.398 401.232C125.398 404.078 127.706 406.385 130.553 406.385Z" fill="#CCDAF5"/>
<path d="M153.745 421.841C155.168 421.841 156.322 420.687 156.322 419.264C156.322 417.841 155.168 416.688 153.745 416.688C152.322 416.688 151.168 417.841 151.168 419.264C151.168 420.687 152.322 421.841 153.745 421.841Z" fill="#CCDAF5"/>
<path d="M112.514 437.299C115.36 437.299 117.668 434.992 117.668 432.146C117.668 429.3 115.36 426.992 112.514 426.992C109.667 426.992 107.359 429.3 107.359 432.146C107.359 434.992 109.667 437.299 112.514 437.299Z" fill="#CCDAF5"/>
<path d="M135.706 432.146C137.129 432.146 138.283 430.992 138.283 429.569C138.283 428.146 137.129 426.992 135.706 426.992C134.283 426.992 133.129 428.146 133.129 429.569C133.129 430.992 134.283 432.146 135.706 432.146Z" fill="#CCDAF5"/>
<path d="M125.397 421.841C126.821 421.841 127.975 420.687 127.975 419.264C127.975 417.841 126.821 416.688 125.397 416.688C123.974 416.688 122.82 417.841 122.82 419.264C122.82 420.687 123.974 421.841 125.397 421.841Z" fill="#CCDAF5"/>
<path d="M192.404 426.995C195.251 426.995 197.559 424.687 197.559 421.841C197.559 418.995 195.251 416.688 192.404 416.688C189.558 416.688 187.25 418.995 187.25 421.841C187.25 424.687 189.558 426.995 192.404 426.995Z" fill="#CCDAF5"/>
<path d="M86.7412 370.31C88.1645 370.31 89.3184 369.156 89.3184 367.733C89.3184 366.31 88.1645 365.156 86.7412 365.156C85.3179 365.156 84.1641 366.31 84.1641 367.733C84.1641 369.156 85.3179 370.31 86.7412 370.31Z" fill="#CCDAF5"/>
<path d="M68.7022 372.888C70.1255 372.888 71.2793 371.734 71.2793 370.311C71.2793 368.888 70.1255 367.734 68.7022 367.734C67.2788 367.734 66.125 368.888 66.125 370.311C66.125 371.734 67.2788 372.888 68.7022 372.888Z" fill="#CCDAF5"/>
<path d="M81.585 352.271C83.0083 352.271 84.1621 351.117 84.1621 349.694C84.1621 348.271 83.0083 347.117 81.585 347.117C80.1616 347.117 79.0078 348.271 79.0078 349.694C79.0078 351.117 80.1616 352.271 81.585 352.271Z" fill="#CCDAF5"/>
<path d="M99.6279 336.814C101.051 336.814 102.205 335.66 102.205 334.237C102.205 332.814 101.051 331.66 99.6279 331.66C98.2046 331.66 97.0508 332.814 97.0508 334.237C97.0508 335.66 98.2046 336.814 99.6279 336.814Z" fill="#CCDAF5"/>
<path d="M122.819 326.505C124.243 326.505 125.396 325.351 125.396 323.928C125.396 322.505 124.243 321.352 122.819 321.352C121.396 321.352 120.242 322.505 120.242 323.928C120.242 325.351 121.396 326.505 122.819 326.505Z" fill="#CCDAF5"/>
<path d="M143.437 323.927C144.86 323.927 146.014 322.773 146.014 321.35C146.014 319.927 144.86 318.773 143.437 318.773C142.013 318.773 140.859 319.927 140.859 321.35C140.859 322.773 142.013 323.927 143.437 323.927Z" fill="#CCDAF5"/>
<path d="M176.94 331.654C178.364 331.654 179.518 330.5 179.518 329.077C179.518 327.654 178.364 326.5 176.94 326.5C175.517 326.5 174.363 327.654 174.363 329.077C174.363 330.5 175.517 331.654 176.94 331.654Z" fill="#CCDAF5"/>
<path d="M198.874 345.771C200.297 345.771 201.451 344.617 201.451 343.194C201.451 341.771 200.297 340.617 198.874 340.617C197.451 340.617 196.297 341.771 196.297 343.194C196.297 344.617 197.451 345.771 198.874 345.771Z" fill="#CCDAF5"/>
<path d="M223.331 403.806C224.754 403.806 225.908 402.652 225.908 401.229C225.908 399.806 224.754 398.652 223.331 398.652C221.908 398.652 220.754 399.806 220.754 401.229C220.754 402.652 221.908 403.806 223.331 403.806Z" fill="#CCDAF5"/>
<path d="M213.022 362.583C214.446 362.583 215.6 361.43 215.6 360.006C215.6 358.583 214.446 357.43 213.022 357.43C211.599 357.43 210.445 358.583 210.445 360.006C210.445 361.43 211.599 362.583 213.022 362.583Z" fill="#CCDAF5"/>
<path d="M486.441 253.2C484.994 252.675 483.393 253.415 482.864 254.85C481.499 258.56 480.701 262.589 480.159 265.684C479.895 267.19 480.912 268.622 482.43 268.884C482.592 268.912 482.752 268.925 482.911 268.925C484.242 268.925 485.42 267.976 485.656 266.631C486.158 263.763 486.891 260.047 488.105 256.748C488.634 255.313 487.889 253.724 486.441 253.2Z" fill="#FFCFE0"/>
<path d="M590.105 230.505C582.291 221.172 573.464 213.639 563.868 208.113C555.304 203.182 547.693 200.742 542.277 199.532C543.538 198.879 544.795 198.248 546.038 197.627C547.444 197.128 548.858 196.592 550.226 196.072C555.088 194.227 559.68 192.485 564.401 192.091C565.937 191.963 567.078 190.615 566.95 189.08C566.822 187.545 565.475 186.397 563.938 186.532C558.433 186.991 553.254 188.956 548.246 190.857C546.854 191.386 545.415 191.932 544.016 192.425C543.907 192.464 543.8 192.509 543.697 192.561C542.61 193.104 541.511 193.655 540.405 194.222C543.022 189.647 546.998 183.63 552.523 177.644C559.038 170.584 566.407 164.945 574.427 160.881C584.424 155.815 595.493 153.187 607.327 153.071C608.867 153.056 610.104 151.795 610.089 150.254C610.074 148.723 608.828 147.492 607.3 147.492C607.291 147.492 607.281 147.492 607.272 147.492C594.526 147.618 582.588 150.468 571.786 155.965C563.157 160.356 555.248 166.43 548.277 174.019C543.76 178.936 540.243 183.822 537.606 188.016C538.198 183.934 539.065 179.627 540.232 174.962C540.255 174.869 540.273 174.776 540.287 174.682C540.338 174.563 540.431 174.379 540.512 174.247C541.324 172.938 540.92 171.218 539.611 170.407C538.302 169.594 536.582 169.999 535.77 171.308C535.439 171.842 534.916 172.811 534.773 173.794C533.46 179.071 532.511 183.924 531.9 188.529C530.204 184.993 527.987 180.946 525.156 176.788C514.214 160.716 499.283 150.781 481.98 148.057C480.458 147.82 479.03 148.857 478.791 150.379C478.551 151.9 479.591 153.328 481.113 153.568C497.026 156.073 510.259 164.893 520.445 179.783C523.891 184.82 526.388 189.739 528.1 193.654C525.199 191.831 521.56 189.765 517.342 187.83C502.741 181.129 488.182 179.279 475.24 182.478C473.744 182.848 472.831 184.36 473.201 185.855C473.571 187.351 475.084 188.263 476.579 187.893C491.311 184.251 505.536 188.572 514.876 192.836C517.923 194.228 520.663 195.704 523.017 197.096C517.023 196.835 509.133 197.083 500.463 198.903C489.587 201.186 479.754 205.483 471.237 211.673C460.605 219.401 452.041 230.091 445.78 243.446C445.126 244.841 445.727 246.502 447.122 247.155C447.505 247.335 447.907 247.42 448.304 247.42C449.352 247.42 450.357 246.826 450.832 245.814C456.667 233.366 464.601 223.423 474.413 216.262C482.259 210.536 491.34 206.546 501.403 204.406C508.633 202.868 515.35 202.516 520.737 202.627C517.084 204.376 513.591 206.548 510.216 209.173C510.206 209.181 510.196 209.188 510.186 209.197C499.692 217.59 493.581 228.515 489.43 237.094C488.759 238.481 489.339 240.149 490.726 240.82C491.118 241.009 491.532 241.099 491.939 241.099C492.975 241.099 493.971 240.519 494.452 239.523C498.345 231.478 504.046 221.257 513.656 213.565C517.681 210.436 521.769 208.058 526.154 206.321C518.609 217.925 513.501 235.659 510.933 259.226C508.601 280.628 509.333 299.238 509.341 299.424C509.403 300.924 510.639 302.098 512.126 302.098C512.165 302.098 512.204 302.097 512.243 302.096C513.782 302.032 514.979 300.733 514.915 299.194C514.887 298.497 512.4 231.521 533.525 205.652C540.036 215.713 547.625 231.64 552.789 263.155C553.013 264.522 554.196 265.494 555.539 265.494C555.688 265.494 555.84 265.482 555.993 265.456C557.513 265.207 558.544 263.773 558.295 262.253C555.471 245.014 550.78 223.325 539.453 204.648C540.183 204.789 540.97 204.955 541.816 205.156C546.344 206.231 553.417 208.487 561.396 213.129C570.37 218.35 578.647 225.469 585.995 234.289C595.224 245.365 603.012 259.174 609.142 275.331C609.565 276.445 610.625 277.131 611.751 277.131C612.08 277.131 612.415 277.073 612.74 276.949C614.181 276.403 614.905 274.792 614.359 273.351C607.97 256.511 599.81 242.096 590.105 230.505Z" fill="#FFCFE0"/>
<path d="M634.442 206.881C618.295 193.86 600.201 186.62 582.114 185.943C582.078 185.942 582.042 185.941 582.007 185.941C580.514 185.941 579.278 187.113 579.221 188.604C579.163 190.131 580.364 191.416 581.904 191.473C598.771 192.104 615.722 198.917 630.922 211.175C631.44 211.592 632.062 211.795 632.681 211.795C633.491 211.795 634.296 211.446 634.847 210.773C635.819 209.588 635.638 207.845 634.442 206.881Z" fill="#FFCFE0"/>
<path d="M543.321 159.369C543.727 159.574 544.159 159.671 544.585 159.671C545.601 159.671 546.581 159.118 547.073 158.159C550.439 151.603 554.546 146.052 559.282 141.662C560.746 140.304 562.295 139.035 563.887 137.889C565.134 136.992 565.411 135.262 564.506 134.025C563.601 132.788 561.856 132.513 560.61 133.411C558.832 134.69 557.102 136.107 555.471 137.621C550.261 142.452 545.762 148.517 542.101 155.648C541.402 157.01 541.948 158.676 543.321 159.369Z" fill="#FFCFE0"/>
<path d="M448.304 205.556C449.053 205.556 449.799 205.259 450.349 204.672C454.702 200.024 459.4 196.25 464.312 193.456C465.649 192.696 466.111 191.005 465.344 189.68C464.578 188.354 462.872 187.896 461.536 188.656C456.136 191.728 450.997 195.85 446.261 200.907C445.213 202.026 445.278 203.777 446.407 204.817C446.944 205.312 447.625 205.556 448.304 205.556Z" fill="#FFCFE0"/>
<path d="M609.519 214.18C613.109 214.18 613.115 208.602 609.519 208.602C605.929 208.602 605.923 214.18 609.519 214.18Z" fill="#FF9FC1"/>
<path d="M623.452 251.438C627.042 251.438 627.048 245.859 623.452 245.859C619.863 245.859 619.857 251.438 623.452 251.438Z" fill="#FF9FC1"/>
<path d="M535.523 269.813C539.113 269.813 539.119 264.234 535.523 264.234C531.933 264.234 531.927 269.813 535.523 269.813Z" fill="#FF9FC1"/>
<path d="M482.898 295.149C486.488 295.149 486.494 289.57 482.898 289.57C479.308 289.57 479.302 295.149 482.898 295.149Z" fill="#FF9FC1"/>
<path d="M464.296 166.891C467.886 166.891 467.892 161.312 464.296 161.312C460.706 161.312 460.7 166.891 464.296 166.891Z" fill="#FF9FC1"/>
<path d="M584.48 140.766C588.07 140.766 588.076 135.188 584.48 135.188C580.89 135.187 580.884 140.766 584.48 140.766Z" fill="#FF9FC1"/>
<path d="M95.3698 212.633C93.7601 212.049 91.9788 212.872 91.3912 214.468C89.8723 218.595 88.9855 223.075 88.3823 226.518C88.0889 228.192 89.2199 229.786 90.908 230.077C91.0879 230.107 91.2662 230.122 91.4428 230.122C92.9233 230.122 94.2338 229.067 94.4958 227.571C95.055 224.381 95.8695 220.248 97.2196 216.58C97.8081 214.983 96.9795 213.216 95.3698 212.633Z" fill="#FFCFE0"/>
<path d="M210.663 187.389C201.973 177.009 192.155 168.63 181.483 162.485C171.958 157 163.493 154.286 157.47 152.941C158.871 152.215 160.27 151.513 161.652 150.822C163.216 150.267 164.788 149.671 166.31 149.093C171.717 147.041 176.824 145.103 182.076 144.665C183.783 144.523 185.053 143.023 184.91 141.316C184.767 139.609 183.27 138.332 181.56 138.482C175.438 138.993 169.678 141.179 164.108 143.293C162.56 143.881 160.959 144.488 159.404 145.037C159.282 145.08 159.163 145.13 159.049 145.188C157.839 145.792 156.617 146.405 155.387 147.035C158.298 141.947 162.72 135.255 168.865 128.597C176.11 120.746 184.307 114.473 193.226 109.953C204.344 104.319 216.656 101.397 229.817 101.267C231.53 101.25 232.906 99.8479 232.889 98.1341C232.872 96.4314 231.487 95.0625 229.787 95.0625C229.777 95.0625 229.766 95.0625 229.756 95.0625C215.58 95.2024 202.302 98.3726 190.289 104.486C180.692 109.37 171.895 116.125 164.143 124.565C159.119 130.034 155.207 135.468 152.274 140.133C152.933 135.593 153.897 130.803 155.194 125.614C155.22 125.511 155.241 125.408 155.255 125.303C155.312 125.17 155.416 124.965 155.506 124.819C156.409 123.363 155.96 121.451 154.504 120.548C153.048 119.644 151.135 120.095 150.232 121.55C149.864 122.144 149.282 123.222 149.123 124.316C147.663 130.184 146.608 135.582 145.928 140.704C144.042 136.77 141.575 132.269 138.427 127.645C126.257 109.77 109.652 98.7208 90.4075 95.6908C88.7148 95.4272 87.1266 96.5804 86.8601 98.2731C86.5935 99.9651 87.7497 101.554 89.4423 101.82C107.141 104.606 121.859 114.415 133.188 130.976C137.021 136.578 139.797 142.05 141.701 146.403C138.475 144.376 134.428 142.078 129.737 139.926C113.497 132.474 97.3051 130.416 82.9107 133.973C81.2474 134.385 80.2319 136.066 80.6433 137.73C81.0547 139.393 82.7378 140.408 84.3999 139.997C100.785 135.945 116.606 140.751 126.994 145.494C130.383 147.042 133.43 148.684 136.048 150.232C129.381 149.941 120.606 150.217 110.964 152.241C98.8673 154.781 87.9308 159.559 78.4584 166.445C66.6344 175.039 57.1087 186.928 50.1455 201.782C49.4185 203.333 50.0865 205.181 51.638 205.908C52.0638 206.107 52.5116 206.202 52.9527 206.202C54.1188 206.202 55.2366 205.541 55.7639 204.415C62.2543 190.571 71.078 179.512 81.9906 171.548C90.7169 165.179 100.817 160.742 112.01 158.362C120.05 156.652 127.521 156.26 133.512 156.383C129.449 158.329 125.565 160.744 121.811 163.663C121.799 163.672 121.788 163.681 121.777 163.69C110.106 173.025 103.31 185.175 98.6927 194.718C97.9467 196.26 98.5921 198.115 100.134 198.861C100.57 199.072 101.03 199.171 101.483 199.171C102.636 199.171 103.743 198.526 104.279 197.419C108.608 188.471 114.949 177.104 125.637 168.548C130.114 165.069 134.66 162.424 139.537 160.492C131.146 173.398 125.464 193.121 122.609 219.332C120.015 243.136 120.829 263.834 120.838 264.04C120.907 265.708 122.281 267.014 123.935 267.014C123.978 267.014 124.022 267.014 124.065 267.012C125.777 266.941 127.108 265.497 127.037 263.784C127.006 263.009 124.24 188.519 147.736 159.748C154.977 170.938 163.417 188.651 169.161 223.702C169.41 225.223 170.726 226.303 172.219 226.303C172.385 226.303 172.554 226.29 172.724 226.262C174.415 225.985 175.562 224.39 175.284 222.699C172.143 203.525 166.926 179.403 154.328 158.63C155.14 158.787 156.015 158.972 156.956 159.196C161.992 160.391 169.859 162.901 178.733 168.063C188.714 173.87 197.919 181.788 206.092 191.597C216.357 203.916 225.019 219.274 231.836 237.244C232.307 238.483 233.486 239.246 234.738 239.246C235.104 239.246 235.476 239.181 235.838 239.044C237.44 238.436 238.246 236.645 237.639 235.043C230.533 216.313 221.457 200.28 210.663 187.389Z" fill="#FFCFE0"/>
<path d="M259.974 161.11C242.016 146.627 221.891 138.575 201.774 137.822C201.735 137.821 201.695 137.82 201.655 137.82C199.996 137.82 198.62 139.123 198.557 140.782C198.493 142.48 199.828 143.909 201.541 143.973C220.301 144.674 239.153 152.251 256.059 165.885C256.634 166.349 257.326 166.574 258.015 166.574C258.916 166.574 259.811 166.186 260.424 165.438C261.506 164.12 261.304 162.181 259.974 161.11Z" fill="#FFCFE0"/>
<path d="M158.633 108.27C159.084 108.498 159.565 108.606 160.038 108.606C161.168 108.606 162.258 107.991 162.806 106.924C166.55 99.6326 171.118 93.4597 176.384 88.5769C178.012 87.0668 179.735 85.655 181.506 84.3806C182.892 83.3826 183.201 81.4588 182.195 80.0832C181.188 78.7069 179.247 78.4012 177.862 79.3996C175.884 80.8226 173.96 82.3986 172.145 84.0819C166.351 89.4548 161.348 96.2004 157.276 104.132C156.499 105.646 157.106 107.499 158.633 108.27Z" fill="#FFCFE0"/>
<path d="M52.9531 159.642C53.7858 159.642 54.6161 159.312 55.2276 158.659C60.069 153.489 65.2942 149.292 70.7571 146.184C72.2434 145.338 72.7575 143.458 71.9046 141.984C71.0521 140.51 69.1556 140.001 67.6697 140.846C61.6639 144.262 55.948 148.847 50.6808 154.471C49.5147 155.716 49.5873 157.663 50.8429 158.82C51.44 159.37 52.1976 159.642 52.9531 159.642Z" fill="#FFCFE0"/>
<path d="M232.251 169.228C236.244 169.228 236.25 163.023 232.251 163.023C228.258 163.023 228.252 169.228 232.251 169.228Z" fill="#FF9FC1"/>
<path d="M247.747 210.653C251.74 210.653 251.746 204.449 247.747 204.449C243.754 204.449 243.748 210.653 247.747 210.653Z" fill="#FF9FC1"/>
<path d="M149.958 231.099C153.951 231.099 153.957 224.895 149.958 224.895C145.965 224.894 145.959 231.099 149.958 231.099Z" fill="#FF9FC1"/>
<path d="M91.4309 259.278C95.4235 259.278 95.4301 253.074 91.4309 253.074C87.4378 253.074 87.4312 259.278 91.4309 259.278Z" fill="#FF9FC1"/>
<path d="M70.7313 116.63C74.724 116.63 74.7306 110.426 70.7313 110.426C66.7387 110.426 66.7321 116.63 70.7313 116.63Z" fill="#FF9FC1"/>
<path d="M204.403 87.5832C208.396 87.5832 208.402 81.3789 204.403 81.3789C200.411 81.3785 200.404 87.5832 204.403 87.5832Z" fill="#FF9FC1"/>
<defs>
<clipPath id="clip0_13394_182176">
<rect width="72.0968" height="83.5179" fill="white" transform="translate(135.805 486.984)"/>
</clipPath>
</defs>
</svg>
