<svg width="448" height="448" viewBox="0 0 448 448" fill="none" xmlns="http://www.w3.org/2000/svg">
<path d="M224.004 223.998L49.4102 123.198L223.998 22.3984L398.592 123.2L224.004 223.998Z" fill="#5C93F8"/>
<path d="M139.029 174.943L134.383 172.26L308.97 71.4609L313.617 74.1427L139.029 174.943Z" fill="#003EB3"/>
<path opacity="0.8" d="M151.492 182.136L121.922 165.064L296.509 64.2656L326.079 81.338L151.492 182.136Z" fill="#FDEDE6"/>
<path d="M224.001 425.598L49.4062 324.796V123.199L224.001 224V425.598Z" fill="#3977E9"/>
<path opacity="0.8" d="M151.501 182.158V203.354L147.762 205.319L144.081 199.07L140.342 201.035L136.66 194.786L132.976 196.783L129.295 190.534L125.612 192.531L121.93 186.281V165.086L151.501 182.158Z" fill="#FBE8DE"/>
<path d="M398.592 324.796L224 425.598V224L398.592 123.199V324.796Z" fill="#2A5DBB"/>
<path d="M384.861 173.873L341.58 198.862C339.572 200.022 337.938 199.078 337.938 196.758V175.348C337.938 173.029 339.572 170.198 341.58 169.039L384.861 144.051C386.871 142.891 388.505 143.835 388.505 146.153V167.564C388.506 169.883 386.871 172.714 384.861 173.873ZM341.581 171.134C340.573 171.717 339.753 173.136 339.753 174.3V195.71C339.753 196.875 340.573 197.348 341.581 196.764L384.862 171.777C385.871 171.195 386.691 169.775 386.691 168.612V147.201C386.691 146.037 385.871 145.564 384.862 146.147L341.581 171.134Z" fill="#5C93F8"/>
<path d="M344.919 192.146L342.629 193.469V173.213L344.919 171.891V192.146Z" fill="#5C93F8"/>
<path d="M372.992 175.944L370.703 177.265V157.01L372.992 155.688V175.944Z" fill="#5C93F8"/>
<path d="M349.374 189.577L346.066 191.487V171.231L349.374 169.32V189.577Z" fill="#5C93F8"/>
<path d="M369.679 177.857L366.371 179.768V159.512L369.679 157.602V177.857Z" fill="#5C93F8"/>
<path d="M381.036 171.298L378.746 172.62V152.365L381.036 151.043V171.298Z" fill="#5C93F8"/>
<path d="M377.722 173.208L374.414 175.119V154.862L377.722 152.953V173.208Z" fill="#5C93F8"/>
<path d="M362.229 182.157L357.266 185.024V164.768L362.229 161.902V182.157Z" fill="#5C93F8"/>
<path d="M352.553 187.739L350.898 188.695V168.439L352.553 167.484V187.739Z" fill="#5C93F8"/>
<path d="M383.814 169.693L382.16 170.649V150.394L383.814 149.438V169.693Z" fill="#5C93F8"/>
<path d="M355.737 185.905L354.082 186.86V166.604L355.737 165.648V185.905Z" fill="#5C93F8"/>
<path d="M365.304 180.382L363.648 181.336V161.081L365.304 160.125V180.382Z" fill="#5C93F8"/>
<path d="M250.494 386.931C250.423 386.149 249.813 385.856 249.08 386.28C248.629 386.539 248.228 387.013 247.967 387.54C247.81 387.858 247.506 388.034 247.349 387.897C247.089 387.67 246.688 387.659 246.238 387.92C245.787 388.18 245.386 388.654 245.125 389.182C244.968 389.499 244.664 389.675 244.509 389.537C244.248 389.311 243.847 389.301 243.397 389.561C242.946 389.821 242.545 390.295 242.285 390.822C242.127 391.14 241.823 391.314 241.667 391.179C241.407 390.951 241.006 390.942 240.555 391.202C239.822 391.625 239.213 392.621 239.141 393.486C239.219 389.899 241.73 385.601 244.818 383.818C247.905 382.035 250.417 383.433 250.494 386.931Z" fill="#5C93F8"/>
<path d="M246.236 397.652C245.095 398.31 244.168 397.775 244.168 396.458V387.477L245.465 386.727V395.709C245.465 396.198 245.811 396.399 246.236 396.152C246.66 395.908 247.006 395.308 247.006 394.819L248.304 394.07C248.304 395.387 247.376 396.994 246.236 397.652Z" fill="#5C93F8"/>
<path d="M251.116 397.637L238.522 404.909C237.157 405.697 236.047 405.056 236.047 403.48V388.938C236.047 387.362 237.157 385.439 238.522 384.651L251.116 377.38C252.479 376.592 253.59 377.233 253.59 378.809V393.351C253.59 394.926 252.479 396.849 251.116 397.637ZM238.522 386.075C237.836 386.469 237.28 387.435 237.28 388.226V402.768C237.28 403.558 237.836 403.88 238.522 403.484L251.116 396.213C251.8 395.818 252.357 394.854 252.357 394.063V379.521C252.357 378.73 251.799 378.409 251.116 378.803L238.522 386.075Z" fill="#5C93F8"/>
<path d="M264.998 375.154C264.816 375.064 264.525 375.24 264.348 375.543L263.174 377.57L261.344 376.505C263.026 373.828 264.835 375.038 264.998 375.154Z" fill="#5C93F8"/>
<path d="M268 372.647L266.165 375.827L265.01 375.16C265.01 375.16 265.003 375.157 264.998 375.153C264.835 375.036 263.026 373.827 261.344 376.505L262.512 374.482C263.706 372.415 265.653 371.291 266.846 371.98L268 372.647Z" fill="#5C93F8"/>
<path d="M268.867 375.041L265.219 377.148L268.867 370.828V375.041Z" fill="#5C93F8"/>
<path d="M260.935 383.188C260.879 383.499 261.03 383.699 261.271 383.636L262.87 383.213L262.195 386.493C260.073 386.891 260.859 383.499 260.935 383.188Z" fill="#5C93F8"/>
<path d="M258.854 381.773L261.363 381.102L260.941 383.166C260.941 383.166 260.938 383.178 260.936 383.189C260.86 383.501 260.074 386.892 262.195 386.495L260.6 386.923C258.969 387.36 257.997 385.975 258.432 383.841L258.854 381.773Z" fill="#5C93F8"/>
<path d="M260.594 378.457L262.417 381.053L257.434 382.389L260.594 378.457Z" fill="#5C93F8"/>
<path d="M267.235 380.77C267.474 380.548 267.613 380.171 267.55 379.933L267.125 378.33L269.63 376.113C270.07 378.394 267.474 380.575 267.235 380.77Z" fill="#5C93F8"/>
<path d="M266.313 384.693L265.641 382.185L267.219 380.786C267.219 380.786 267.227 380.779 267.236 380.77C267.475 380.575 270.071 378.394 269.631 376.113L270.059 377.709C270.496 379.341 269.522 381.849 267.89 383.295L266.313 384.693Z" fill="#5C93F8"/>
<path d="M263.711 385.617L265.535 380.914L266.871 385.898L263.711 385.617Z" fill="#5C93F8"/>
<path d="M270.095 386.68L257.501 393.952C256.137 394.739 255.027 394.098 255.027 392.523V377.981C255.027 376.404 256.137 374.481 257.501 373.695L270.095 366.423C271.46 365.635 272.57 366.276 272.57 367.852V382.393C272.57 383.971 271.46 385.893 270.095 386.68ZM257.501 375.118C256.817 375.514 256.26 376.479 256.26 377.269V391.812C256.26 392.602 256.818 392.924 257.501 392.529L270.095 385.258C270.781 384.863 271.336 383.898 271.336 383.107V368.564C271.336 367.775 270.78 367.453 270.095 367.847L257.501 375.118Z" fill="#5C93F8"/>
<path d="M280.159 375.883L278.336 376.936V367.538L280.159 366.484V375.883Z" fill="#5C93F8"/>
<path d="M288.181 371.25V373.357L276.852 379.898V377.793L288.181 371.25Z" fill="#5C93F8"/>
<path d="M286.697 372.106L284.875 373.159V363.76L286.697 362.707V372.106Z" fill="#5C93F8"/>
<path d="M282.235 365.733L276.258 369.184L279.246 364.008L282.235 365.733Z" fill="#5C93F8"/>
<path d="M288.774 361.96L282.797 365.411L285.785 360.234L288.774 361.96Z" fill="#5C93F8"/>
<path d="M288.815 375.868L276.221 383.139C274.857 383.927 273.746 383.286 273.746 381.711V367.169C273.746 365.594 274.857 363.67 276.221 362.882L288.815 355.61C290.18 354.823 291.289 355.463 291.289 357.039V371.582C291.289 373.158 290.18 375.08 288.815 375.868ZM276.221 364.306C275.535 364.702 274.98 365.666 274.98 366.455V380.998C274.98 381.789 275.536 382.11 276.221 381.716L288.815 374.444C289.5 374.05 290.056 373.084 290.056 372.294V357.752C290.056 356.961 289.5 356.64 288.815 357.035L276.221 364.306Z" fill="#5C93F8"/>
<path d="M301.716 358.376C304.18 356.521 306.102 351.75 306.102 348.836L296.371 354.455C296.371 357.37 298.295 359.923 300.757 358.931V364.819L298.221 366.284V367.233L304.251 363.752V362.802L301.717 364.265V358.376H301.716Z" fill="#5C93F8"/>
<path d="M307.534 365.063L294.94 372.335C293.575 373.122 292.465 372.482 292.465 370.906V356.363C292.465 354.788 293.575 352.865 294.94 352.077L307.534 344.805C308.897 344.018 310.009 344.659 310.009 346.234V360.777C310.009 362.352 308.897 364.275 307.534 365.063ZM294.94 353.502C294.255 353.897 293.698 354.861 293.698 355.652V370.193C293.698 370.984 294.256 371.306 294.94 370.911L307.534 363.639C308.219 363.245 308.775 362.279 308.775 361.489V346.946C308.775 346.156 308.218 345.835 307.534 346.23L294.94 353.502Z" fill="#5C93F8"/>
<g opacity="0.6">
<path d="M97.6367 151.047L225.61 221.212H222.389L349.375 151.616L225.611 226.791L224 227.77L222.388 226.791L97.6367 151.047Z" fill="#003EB3"/>
</g>
<path d="M40.1572 215.521L73.3097 193.348C74.0298 192.866 74.836 192.913 75.4769 193.313L75.4781 193.309L75.5231 193.34C75.5332 193.346 75.5432 193.353 75.5533 193.36L192.906 271.827L164.997 351.584L48.882 273.894L48.8829 273.891C47.461 273.098 46.1343 272.026 44.9705 270.678L37.1922 261.667C34.5074 258.557 32.9993 254.339 32.9993 249.941V229.883C32.9993 223.958 35.7278 218.483 40.1572 215.521Z" fill="white"/>
<path d="M190.656 271.815L157.504 293.987C153.075 296.95 150.346 302.424 150.346 308.349V328.408C150.346 332.806 151.854 337.024 154.539 340.134L162.317 349.144C166.899 354.452 173.986 355.533 179.598 351.78L192.547 343.119C193.446 342.518 194 341.406 194 340.203V274.051C194 272.063 192.143 270.821 190.656 271.815Z" fill="#EFF2F7"/>
<path d="M137.789 322.192V322.198C137.789 326.087 139.111 329.82 141.47 332.588C143.916 335.458 146.678 338.677 146.678 338.677C147.621 339.769 148.673 340.671 149.793 341.4L149.793 341.417L59.6022 281.06C58.5352 280.35 57.5331 279.477 56.6309 278.431C56.6309 278.431 53.887 275.235 51.4509 272.378C49.0903 269.61 47.7674 265.875 47.7674 261.984L137.789 322.192Z" fill="#667790"/>
<path d="M50.7322 270.74C50.7322 270.321 50.925 269.934 51.2378 269.725L55.2896 267.016L137.789 322.192V322.197C137.789 325.633 138.821 328.945 140.688 331.579L51.2378 271.754C50.925 271.544 50.7322 271.158 50.7322 270.74Z" fill="#C2CDDD"/>
<path d="M50.7357 271.445V263.969L52.3906 265.076V272.551L50.7357 271.445Z" fill="#E0E0E0"/>
<path d="M68.8958 283.556V276.098L70.5508 277.205V284.663L68.8958 283.556Z" fill="#E0E0E0"/>
<path d="M87.0599 295.689V288.23L88.7148 289.337V296.795L87.0599 295.689Z" fill="#E0E0E0"/>
<path d="M105.224 307.818V300.359L106.879 301.466V308.924L105.224 307.818Z" fill="#E0E0E0"/>
<path d="M123.388 319.951V312.492L125.043 313.599V321.057L123.388 319.951Z" fill="#E0E0E0"/>
<path d="M39.3569 252.668C39.3569 254.097 40.1068 255.757 41.0319 256.376C41.9571 256.994 42.707 256.338 42.707 254.909C42.707 253.48 41.9571 251.82 41.0319 251.201C40.1068 250.583 39.3569 251.24 39.3569 252.668Z" fill="#F0F0F0"/>
<path d="M105.223 293.061V287.441L78.9872 269.895V275.514L105.223 293.061Z" fill="#F0F0F0"/>
<path opacity="0.2" d="M48.4895 209.949L165.816 288.419V352.11C165.541 351.943 165.268 351.766 165.001 351.578L164.999 351.584L164.322 351.131V289.418L46.9956 210.948L48.4895 209.949Z" fill="#C2CDDD"/>
<g clip-path="url(#clip0_13340_784503)">
<path d="M186.212 285.655L185.218 290.448L184.741 291.04L185.307 288.439L184.598 288.273L184.076 288.447L183.944 292.027L183.334 292.785L181.165 290.656L181.306 289.494L183.3 286.554L182.592 286.388L181.383 288.047L181.129 286.985L183.408 282.398L182.699 282.232L180.843 285.961L180.029 283.489L179.32 283.324L178.814 284.343L180.466 287.197L180.414 288.522L179.731 287.761L179.023 287.595L178.749 288.535L180.371 289.616L180.32 290.922L177.734 294.153L177.587 294.003L178.234 290.224L177.526 290.058L177.011 290.115L176.712 293.115L176.17 292.565L176.565 288.233L175.855 288.041L175.194 288.48L175.487 292.654L173.067 294.268L173.138 295.444L173.847 295.61L175.754 293.702L176.333 294.29L174.777 296.234L174.986 297.017L175.701 297.174L176.793 294.758L177.305 295.277L176.972 300.734L176.474 301.361L175.662 300.039L174.954 299.873L174.63 300.772L175.931 302.046L175.095 303.098L172.68 302.565L172.443 303.808L174.672 304.297L173.806 308.85L174.426 309.008L175.136 309.167L175.651 304.144L176.194 303.041L176.082 306.078L176.791 306.244L177.064 302.544L177.217 301.753L179.577 303.867L179.527 305.134L177.751 307.399L177.965 308.175L178.674 308.341L179.474 306.495L179.434 307.514L177.429 311.545L177.864 312.266L178.572 312.432L179.72 308.538L181.243 311.175L181.951 311.341L181.749 310.155L180.309 307.342L180.33 306.035L181.534 306.968L182.243 307.134L181.809 306.028L180.377 305.075L180.239 303.68L182.878 300.383L183.39 300.903L183.032 304.505L183.74 304.671L184.18 301.705L184.398 301.927L184.714 306.45L185.422 306.616L185.396 301.923L188.139 299.214L187.43 299.048L184.815 300.789L184.261 300.227L186.28 297.712L185.572 297.546L183.801 299.759L183.284 299.235L183.618 293.754L184.222 293.006L185.727 294.478L186.435 294.644L184.77 292.326L185.48 291.446L188.625 292.316L188.164 290.909L186.116 290.315L186.964 285.834L186.212 285.655ZM182.167 298.963L180.028 301.637L178.154 299.957L178.419 295.605L180.558 292.932L182.432 294.611L182.167 298.963Z" fill="#336CD6"/>
<path d="M186.923 285.82L185.929 290.612L185.196 291.521L185.309 288.437L184.787 288.611L184.655 292.192L184.044 292.949L181.695 290.844L181.744 289.589L183.517 287.328L183.303 286.553L181.788 288.485L181.84 287.149L183.845 283.117L183.41 282.396L181.554 286.125L180.031 283.488L179.525 284.507L181.177 287.361L181.125 288.686L179.734 287.759L179.46 288.699L181.082 289.78L181.03 291.086L178.445 294.317L177.885 293.749L178.236 290.223L177.722 290.279L177.423 293.279L176.881 292.729L176.566 288.206L175.905 288.644L176.198 292.818L173.778 294.432L173.849 295.608L176.465 293.866L177.044 294.455L175.488 296.399L175.697 297.181L177.504 294.922L178.016 295.442L177.683 300.898L177.185 301.525L175.665 300.037L175.341 300.937L176.642 302.21L175.806 303.263L173.391 302.729L173.154 303.972L175.383 304.461L174.517 309.014L175.137 309.172L176.074 304.251L176.905 303.205L176.793 306.242L177.316 306.068L177.446 302.524L177.928 301.917L180.288 304.031L180.238 305.298L178.462 307.563L178.676 308.339L180.195 306.402L180.145 307.678L178.14 311.71L178.575 312.431L180.431 308.702L181.954 311.339L182.46 310.319L180.808 307.466L180.858 306.208L182.245 307.132L182.52 306.193L180.901 305.114L180.951 303.844L183.589 300.547L184.101 301.067L183.743 304.669L184.257 304.613L184.564 301.537L185.109 302.091L185.425 306.614L186.086 306.176L185.793 302.001L188.213 300.387L188.141 299.212L185.526 300.953L184.972 300.391L186.491 298.493L186.283 297.71L184.512 299.923L183.995 299.399L184.329 293.918L184.933 293.169L186.438 294.642L186.762 293.743L185.482 292.489L186.191 291.61L188.628 292.314L188.875 291.073L186.62 290.419L187.539 285.996L186.923 285.82ZM182.878 299.128L180.739 301.801L178.865 300.121L179.13 295.769L181.269 293.096L183.143 294.775L182.878 299.128Z" fill="#0047CC"/>
</g>
<path d="M182.303 332.49C182.285 332.505 182.268 332.517 182.251 332.529C183.313 331.666 183.747 330.903 183.77 330.863C183.747 330.903 183.313 331.666 182.303 332.49Z" fill="#FF9861"/>
<path d="M182.923 328.404C182.877 328.354 182.534 327.979 182.155 327.387C182.901 325.803 185.374 324.06 185.515 323.961L186.434 324.58C186.338 324.647 185.17 325.47 184.195 326.486C183.61 327.096 183.095 327.776 182.923 328.404Z" fill="#8C0318"/>
<path d="M177.779 343.612C175.378 343.508 175.636 338.633 175.65 338.376C175.764 339.149 176.857 339.597 177.483 339.178C177.785 338.977 177.978 338.574 177.902 337.909C177.667 335.864 179.06 332.305 179.133 332.117C178.825 333.64 179.844 336.857 180.754 336.248C180.768 336.239 180.782 336.228 180.796 336.217C181.716 335.48 182.669 334.216 182.719 334.15C182.723 335.792 182.361 337.328 181.877 338.647C181.796 338.867 181.712 339.081 181.626 339.288C181.539 339.496 181.451 339.696 181.361 339.89C181.271 340.084 181.18 340.27 181.089 340.449C181.043 340.539 180.998 340.626 180.952 340.712C180.362 341.826 179.793 342.608 179.555 342.919C179.479 343.017 179.439 343.066 179.437 343.069C179.093 343.279 178.779 343.423 178.494 343.51C178.363 343.55 178.239 343.578 178.12 343.594C178 343.611 177.887 343.616 177.779 343.612Z" fill="#FFDA24"/>
<path d="M179.005 317.455C179.033 317.708 179.573 322.529 178.281 324.805C176.989 327.081 176.624 329.103 176.537 331.048C176.506 331.725 176.194 332.223 175.788 332.494C175.737 332.529 175.685 332.558 175.631 332.585C175.614 332.594 175.596 332.601 175.578 332.609C175.541 332.625 175.505 332.641 175.468 332.654C175.446 332.661 175.425 332.667 175.403 332.674C175.369 332.684 175.334 332.693 175.299 332.7C175.277 332.705 175.254 332.709 175.231 332.712C175.197 332.717 175.163 332.721 175.128 332.723C175.105 332.725 175.082 332.726 175.059 332.726C175.025 332.727 174.99 332.725 174.956 332.723C174.934 332.721 174.911 332.72 174.889 332.717C174.853 332.712 174.818 332.704 174.782 332.696C174.762 332.691 174.742 332.688 174.723 332.682C174.68 332.67 174.638 332.654 174.597 332.636C174.585 332.631 174.573 332.628 174.562 332.623C174.51 332.599 174.459 332.57 174.409 332.537C174.257 332.436 174.122 332.29 174.012 332.103C174.303 332.131 174.606 332.052 174.869 331.876C175.275 331.605 175.587 331.106 175.618 330.429C175.705 328.484 176.07 326.462 177.362 324.186C178.654 321.91 178.115 317.09 178.086 316.836L178.546 317.145L179.005 317.455Z" fill="#8C0318"/>
<path d="M172.838 330.703L173.757 331.322C173.702 331.628 172.66 337.452 173.224 340.305C173.257 340.472 173.294 340.636 173.336 340.796C173.338 340.802 173.34 340.809 173.342 340.815C173.382 340.969 173.427 341.119 173.476 341.265C173.48 341.275 173.484 341.285 173.487 341.296C173.535 341.437 173.588 341.575 173.645 341.708C173.65 341.721 173.656 341.733 173.661 341.746C173.717 341.876 173.778 342.001 173.842 342.122C173.849 342.136 173.857 342.149 173.864 342.162C173.929 342.281 173.997 342.394 174.07 342.503C174.079 342.516 174.088 342.529 174.097 342.543C174.17 342.649 174.247 342.75 174.329 342.846C174.339 342.859 174.35 342.871 174.361 342.884C174.443 342.978 174.529 343.066 174.62 343.149C174.632 343.16 174.644 343.171 174.656 343.182C174.748 343.263 174.844 343.338 174.944 343.407C174.951 343.412 174.958 343.418 174.965 343.423L174.046 342.805C173.129 342.187 172.572 341.039 172.305 339.686C171.741 336.833 172.784 331.01 172.838 330.703Z" fill="#8C0318"/>
<path d="M174.62 343.148C174.53 343.065 174.444 342.976 174.361 342.882C174.351 342.87 174.34 342.857 174.329 342.845C174.248 342.749 174.171 342.648 174.098 342.542C174.089 342.528 174.079 342.515 174.07 342.501C173.997 342.393 173.929 342.279 173.865 342.161C173.857 342.148 173.85 342.134 173.842 342.121C173.778 342 173.718 341.874 173.661 341.744C173.656 341.732 173.65 341.719 173.645 341.707C173.588 341.573 173.536 341.436 173.487 341.294C173.484 341.284 173.48 341.274 173.477 341.264C173.427 341.117 173.383 340.967 173.342 340.814C173.34 340.807 173.338 340.801 173.337 340.794C173.295 340.634 173.257 340.47 173.224 340.303C172.66 337.451 173.703 331.627 173.758 331.32C173.8 331.638 173.89 331.895 174.012 332.101C174.122 332.289 174.257 332.434 174.409 332.536C174.459 332.569 174.51 332.597 174.562 332.621C174.573 332.627 174.585 332.63 174.597 332.635C174.638 332.652 174.68 332.668 174.723 332.681C174.742 332.686 174.762 332.69 174.782 332.694C174.818 332.703 174.853 332.71 174.889 332.715C174.911 332.718 174.934 332.719 174.956 332.721C174.99 332.724 175.025 332.725 175.059 332.725C175.082 332.725 175.105 332.724 175.129 332.722C175.163 332.72 175.197 332.716 175.231 332.711C175.254 332.707 175.277 332.704 175.3 332.699C175.334 332.692 175.369 332.682 175.403 332.672C175.425 332.666 175.446 332.66 175.468 332.652C175.505 332.639 175.541 332.624 175.578 332.607C175.596 332.599 175.614 332.592 175.631 332.584C175.685 332.557 175.737 332.527 175.788 332.493C176.194 332.222 176.506 331.723 176.537 331.046C176.624 329.101 176.989 327.079 178.281 324.803C179.573 322.528 179.034 317.707 179.005 317.453C179.085 317.49 179.166 317.531 179.249 317.578C179.25 317.578 179.25 317.579 179.251 317.579C179.332 317.625 179.415 317.676 179.497 317.731C180.696 318.536 181.967 320.33 181.241 322.823C180.715 324.634 181.49 326.344 182.155 327.384C182.534 327.976 182.877 328.351 182.922 328.401C183.095 327.773 183.61 327.093 184.195 326.483C185.17 325.466 186.338 324.643 186.434 324.576C185.236 327.341 186.172 331.298 185.44 335.083C184.709 338.871 179.702 342.857 179.438 343.067C179.44 343.064 179.481 343.015 179.556 342.917C180.238 342.044 183.667 337.56 183.827 335.414C184.005 333.031 183.176 332.666 183.769 330.862C183.746 330.902 183.312 331.665 182.25 332.528C181.296 333.166 181.362 329.066 180.638 328.388C179.901 327.698 179.358 326.897 179.396 325.893C179.245 326.27 176.374 333.422 176.931 335.435C177.14 336.192 176.862 336.754 176.433 337.041C175.72 337.518 174.591 337.237 174.587 335.831C174.527 336.25 173.385 344.206 177.78 343.61C177.888 343.614 178.002 343.609 178.121 343.592C178.24 343.575 178.365 343.548 178.495 343.508C176.961 344.115 175.796 343.99 174.944 343.405C174.844 343.337 174.748 343.261 174.656 343.18C174.644 343.169 174.632 343.159 174.62 343.148Z" fill="#ED0529"/>
<path d="M180.953 340.711C180.998 340.625 181.043 340.538 181.089 340.448C181.18 340.269 181.271 340.083 181.361 339.889C181.451 339.695 181.54 339.495 181.626 339.287C181.712 339.08 181.797 338.866 181.877 338.647C182.362 337.328 182.723 335.791 182.719 334.149C182.669 334.216 181.717 335.479 180.796 336.216C180.782 336.227 180.769 336.238 180.755 336.247C179.844 336.856 178.825 333.639 179.134 332.116C179.06 332.304 177.667 335.863 177.902 337.908C177.978 338.573 177.785 338.976 177.483 339.177C176.857 339.596 175.765 339.148 175.65 338.375C175.637 338.632 175.378 343.507 177.779 343.611C173.384 344.207 174.527 336.251 174.587 335.832C174.59 337.238 175.719 337.519 176.432 337.042C176.861 336.755 177.14 336.193 176.93 335.437C176.373 333.423 179.244 326.271 179.395 325.895C179.358 326.899 179.9 327.699 180.637 328.389C181.361 329.068 181.295 333.167 182.25 332.529C182.266 332.518 182.284 332.505 182.301 332.491C183.312 331.666 183.745 330.904 183.768 330.863C183.176 332.667 184.004 333.032 183.826 335.415C183.666 337.561 180.237 342.045 179.555 342.919C179.793 342.607 180.362 341.825 180.953 340.711Z" fill="#FF9861"/>
<path d="M179.251 317.58C179.168 317.533 179.087 317.491 179.007 317.455L178.547 317.145L178.088 316.836C178.248 316.91 178.416 317.004 178.585 317.118L179.504 317.736C179.502 317.735 179.501 317.734 179.499 317.733C179.416 317.678 179.334 317.627 179.253 317.581C179.252 317.58 179.251 317.58 179.251 317.58Z" fill="#ED0529"/>
<defs>
<clipPath id="clip0_13340_784503">
<rect width="25.9677" height="30.0814" fill="white" transform="matrix(-1 0 0 1 192.27 281.238)"/>
</clipPath>
</defs>
</svg>
