<svg xmlns="http://www.w3.org/2000/svg" width="89" height="32" viewBox="0 0 89 32" fill="none">
  <g clip-path="url(#clip0_12955_726512)">
    <path d="M20.5459 17.6549H24.2707C23.831 15.1359 22.6105 12.819 20.7817 11.0318L18.2272 13.6357C19.3556 14.7362 20.158 16.1271 20.5459 17.6549Z" fill="white"/>
    <path d="M12.2141 11.1817C14.4885 11.1806 16.6704 12.0822 18.2804 13.6887L20.8569 11.104C19.722 9.96919 18.3745 9.06926 16.8915 8.45569C15.4085 7.84213 13.819 7.52697 12.2141 7.52824H12.1071L12.1391 11.179L12.2141 11.1817Z" fill="white"/>
    <path d="M12.2131 11.1817V7.53092C10.5906 7.52893 8.98405 7.85146 7.48801 8.47951C5.99198 9.10757 4.63666 10.0285 3.50179 11.1881L6.10201 13.7481C6.89805 12.9344 7.84879 12.2882 8.89828 11.8475C9.94777 11.4067 11.0748 11.1804 12.2131 11.1817Z" fill="white"/>
    <path d="M3.64527 19.765C3.6437 18.638 3.86458 17.5218 4.29525 16.4804C4.72592 15.4389 5.35791 14.4927 6.15498 13.696L3.57761 11.1141C2.44136 12.2497 1.54045 13.5984 0.926525 15.0829C0.312603 16.5675 -0.00225265 18.1586 1.21316e-05 19.765C1.21316e-05 19.8007 1.21316e-05 19.8363 1.21316e-05 19.872L3.64618 19.8418C3.64527 19.8153 3.64527 19.7906 3.64527 19.765Z" fill="white"/>
    <path d="M3.64527 19.7668H7.79631e-06C-0.00182841 21.3915 0.320704 23.0002 0.948696 24.4986C1.57669 25.997 2.4975 27.3549 3.65715 28.4928L6.20801 25.8871C5.39517 25.0887 4.74983 24.1362 4.30977 23.0853C3.86972 22.0343 3.64381 20.9062 3.64527 19.7668Z" fill="white"/>
    <path d="M12.2149 28.3483C11.0891 28.3496 9.97412 28.1281 8.93424 27.6965C7.89437 27.265 6.95015 26.632 6.15596 25.834L3.57768 28.4132C4.70971 29.5507 6.05559 30.4529 7.53779 31.068C9.02 31.6831 10.6093 31.9989 12.214 31.9972H12.3201L12.289 28.3456L12.2149 28.3483Z" fill="white"/>
    <path d="M19.0116 24.9911C18.213 26.0357 17.1842 26.8821 16.0052 27.4644C14.8262 28.0467 13.5288 28.3492 12.2138 28.3483V32C14.0886 32.0015 15.9384 31.5704 17.6193 30.7403C19.3002 29.9101 20.7669 28.7033 21.9053 27.2137L19.0116 24.9911Z" fill="white"/>
    <path d="M73.782 17.6549H77.5068C77.0672 15.1359 75.8467 12.819 74.0179 11.0318L71.4634 13.6357C72.5918 14.7362 73.3942 16.1271 73.782 17.6549Z" fill="white"/>
    <path d="M65.4489 11.1817C67.7233 11.1806 69.9052 12.0822 71.5152 13.6887L74.0917 11.104C72.9567 9.96927 71.6092 9.06939 70.1262 8.45583C68.6432 7.84227 67.0538 7.52707 65.4489 7.52824H65.342L65.374 11.179L65.4489 11.1817Z" fill="white"/>
    <path d="M65.4489 11.1817L65.4493 7.53092C63.8267 7.52893 62.2202 7.85146 60.7242 8.47951C59.2281 9.10757 57.8728 10.0285 56.7379 11.1881L59.3382 13.7481C60.1342 12.9344 61.085 12.2882 62.1344 11.8475C63.1839 11.4067 64.3107 11.1804 65.4489 11.1817Z" fill="white"/>
    <path d="M56.8814 19.765C56.8799 18.638 57.1007 17.5218 57.5314 16.4804C57.9621 15.4389 58.5941 14.4927 59.3911 13.696L56.8138 11.1141C55.6775 12.2497 54.7766 13.5984 54.1627 15.0829C53.5488 16.5675 53.2339 18.1586 53.2362 19.765C53.2362 19.8007 53.2362 19.8363 53.2362 19.872L56.8814 19.84C56.8814 19.8153 56.8814 19.7906 56.8814 19.765Z" fill="white"/>
    <path d="M56.8814 19.7668H53.2362C53.2343 21.3915 53.5569 23.0002 54.1849 24.4986C54.8128 25.997 55.7337 27.3549 56.8933 28.4928L59.4487 25.888C58.635 25.0899 57.9887 24.1374 57.5479 23.0863C57.107 22.0352 56.8804 20.9067 56.8814 19.7668Z" fill="white"/>
    <path d="M65.4493 28.3483C64.3234 28.3496 63.2085 28.1281 62.1686 27.6965C61.1287 27.265 60.1845 26.632 59.3903 25.834L56.8129 28.4132C57.945 29.5507 59.2909 30.4529 60.7731 31.068C62.2553 31.6831 63.8445 31.9989 65.4493 31.9972H65.5553L65.5233 28.3456L65.4493 28.3483Z" fill="white"/>
    <path d="M72.2468 24.9911C71.4482 26.0357 70.4194 26.8821 69.2405 27.4644C68.0615 28.0467 66.7642 28.3492 65.4493 28.3483L65.4491 32C67.3238 32.0014 69.1736 31.5703 70.8545 30.7402C72.5355 29.91 74.0022 28.7032 75.1405 27.2137L72.2468 24.9911Z" fill="white"/>
    <path d="M84.7962 12.7799H81.1509V23.8181H84.7962V12.7799Z" fill="white"/>
    <path d="M84.7966 23.7614C84.7966 26.3964 86.008 27.5346 88.1365 28.9884L86.0546 31.9817C82.9461 29.9356 81.1522 27.6151 81.1522 23.7614H84.7966Z" fill="white"/>
    <path d="M39.6764 7.53641C36.6363 7.53015 33.7176 8.7288 31.5594 10.8699V18.2838C32.1079 15.3526 34.7018 11.1872 39.6727 11.1872C39.7642 11.1872 39.8556 11.1872 39.947 11.1936V7.53641C39.8593 7.53641 39.7678 7.53641 39.6764 7.53641Z" fill="white"/>
    <path d="M49.8055 18.8489H46.1593V17.6485C46.1654 15.9473 45.4979 14.3129 44.3026 13.1023C43.1073 11.8918 41.4815 11.2036 39.7804 11.1882V7.53649C42.4487 7.55438 45.0014 8.62825 46.8801 10.5232C48.7588 12.4182 49.8106 14.9801 49.8055 17.6485V18.8489Z" fill="white"/>
    <path d="M31.5613 8.52667H27.9161V21.3066H31.5613V8.52667Z" fill="white"/>
    <path d="M84.7962 0H81.1509V12.7799H84.7962V0Z" fill="white"/>
    <path d="M49.8055 18.8489H46.1593L46.1603 31.6288H49.8055L49.8055 18.8489Z" fill="white"/>
    <path d="M24.2707 17.6549L11.5125 17.6558V21.3075H24.2704L24.2707 17.6549Z" fill="white"/>
    <path d="M77.5057 17.6558H64.7478V21.3075H77.5057V17.6558Z" fill="white"/>
  </g>
  <defs>
    <clipPath id="clip0_12955_726512">
      <rect width="89" height="32" fill="white"/>
    </clipPath>
  </defs>
</svg>