<svg width="477" height="671" viewBox="0 0 477 671" fill="none" xmlns="http://www.w3.org/2000/svg">
<path d="M478 956C351.227 956 229.645 905.639 140.003 815.997C50.3606 726.355 3.45997e-05 604.774 4.01411e-05 478C4.56826e-05 351.227 50.3606 229.645 140.003 140.003C229.645 50.3606 351.227 -7.29322e-06 478 -2.0894e-05L478 181.011C399.233 181.011 323.693 212.3 267.997 267.997C212.3 323.693 181.011 399.234 181.011 478C181.011 556.767 212.3 632.307 267.997 688.003C323.693 743.7 399.233 774.989 478 774.989L478 956Z" fill="url(#paint0_linear_12955_726509)"/>
<defs>
<linearGradient id="paint0_linear_12955_726509" x1="478" y1="-2.0894e-05" x2="478" y2="956" gradientUnits="userSpaceOnUse">
<stop stop-color="#003EB3" stop-opacity="0.4"/>
<stop offset="0.865" stop-color="#003EB3" stop-opacity="0"/>
</linearGradient>
</defs>
</svg>
