<svg width="956" height="671" viewBox="0 0 956 671" fill="none" xmlns="http://www.w3.org/2000/svg">
<path d="M478 956C367.412 956 260.246 917.655 174.76 847.499C89.2745 777.343 30.7593 679.716 9.18467 571.253C-12.3899 462.79 4.31096 350.202 56.4416 252.672C108.572 155.143 192.908 78.7057 295.077 36.3856C397.247 -5.93456 510.93 -11.5195 616.756 20.5825C722.582 52.6844 814.003 120.487 875.442 212.437C936.882 304.388 964.538 414.797 953.698 524.852C942.859 634.907 894.194 737.8 815.997 815.997L688.003 688.003C736.589 639.418 766.825 575.489 773.559 507.11C780.294 438.731 763.111 370.132 724.938 313.001C686.764 255.871 629.963 213.744 564.211 193.799C498.46 173.853 427.827 177.323 364.347 203.617C300.867 229.912 248.468 277.403 216.079 338C183.689 398.597 173.312 468.55 186.717 535.94C200.122 603.33 236.478 663.987 289.592 707.576C342.705 751.165 409.29 774.989 478 774.989L478 956Z" fill="url(#paint0_linear_13394_182162)" fill-opacity="0.3"/>
<defs>
<linearGradient id="paint0_linear_13394_182162" x1="478" y1="-2.0894e-05" x2="478" y2="956" gradientUnits="userSpaceOnUse">
<stop stop-color="#003EB3"/>
<stop offset="0.865" stop-color="#0047CC" stop-opacity="0"/>
</linearGradient>
</defs>
</svg>
