<svg xmlns="http://www.w3.org/2000/svg" width="12" height="12" viewBox="0 0 12 12" fill="none">
  <mask id="mask0_14415_66" style="mask-type:alpha" maskUnits="userSpaceOnUse" x="0" y="0" width="12" height="12">
    <rect width="12" height="12" fill="#D9D9D9"/>
  </mask>
  <g mask="url(#mask0_14415_66)">
    <path d="M4.78775 8.78594C4.72108 8.78594 4.6565 8.77344 4.594 8.74844C4.5315 8.72344 4.47108 8.68177 4.41275 8.62344L2.30025 6.51094C2.20025 6.41094 2.15233 6.28385 2.1565 6.12969C2.16067 5.97552 2.21275 5.84844 2.31275 5.74844C2.41275 5.64844 2.53775 5.59844 2.68775 5.59844C2.83775 5.59844 2.96275 5.64844 3.06275 5.74844L4.81275 7.49844L8.95025 3.36094C9.05025 3.26094 9.17317 3.21094 9.319 3.21094C9.46483 3.21094 9.58775 3.26094 9.68775 3.36094C9.78775 3.46094 9.83775 3.58385 9.83775 3.72969C9.83775 3.87552 9.78775 3.99844 9.68775 4.09844L5.16275 8.62344C5.10442 8.68177 5.044 8.72344 4.9815 8.74844C4.919 8.77344 4.85442 8.78594 4.78775 8.78594Z" fill="white"/>
  </g>
</svg>