<svg xmlns="http://www.w3.org/2000/svg" width="16" height="16" viewBox="0 0 16 16" fill="none">
  <mask id="mask0_14432_31992" style="mask-type:alpha" maskUnits="userSpaceOnUse" x="0" y="0" width="16" height="16">
    <rect width="16" height="16" fill="#D9D9D9"/>
  </mask>
  <g mask="url(#mask0_14432_31992)">
    <path d="M6.4849 12.9849C6.32934 12.6627 6.19323 12.2849 6.07656 11.8516C5.9599 11.4182 5.86267 10.9349 5.7849 10.4016H3.40156C3.72378 11.0349 4.15434 11.5766 4.69323 12.0266C5.23212 12.4766 5.82934 12.796 6.4849 12.9849ZM2.95156 9.20156H5.6349C5.61267 9.01267 5.59878 8.82101 5.59323 8.62656C5.58767 8.43212 5.5849 8.2349 5.5849 8.0349C5.5849 7.8349 5.58767 7.63212 5.59323 7.42656C5.59878 7.22101 5.61267 7.01267 5.6349 6.80156H2.95156C2.89601 7.02378 2.85712 7.23212 2.8349 7.42656C2.81267 7.62101 2.80156 7.81267 2.80156 8.00156C2.80156 8.20156 2.81267 8.39601 2.8349 8.5849C2.85712 8.77379 2.89601 8.97934 2.95156 9.20156ZM3.40156 5.60156H5.7849C5.86267 5.06823 5.9599 4.5849 6.07656 4.15156C6.19323 3.71823 6.32934 3.34045 6.4849 3.01823C5.82934 3.20712 5.23212 3.52656 4.69323 3.97656C4.15434 4.42656 3.72378 4.96823 3.40156 5.60156ZM7.00156 5.60156H9.00156C8.90156 4.99045 8.75712 4.42656 8.56823 3.9099C8.37934 3.39323 8.19045 3.04045 8.00156 2.85156C7.81267 3.04045 7.62379 3.39323 7.4349 3.9099C7.24601 4.42656 7.10156 4.99045 7.00156 5.60156ZM10.2182 5.60156H12.6016C12.2793 4.96823 11.8488 4.42656 11.3099 3.97656C10.771 3.52656 10.1738 3.20712 9.51823 3.01823C9.67379 3.34045 9.8099 3.71823 9.92656 4.15156C10.0432 4.5849 10.1405 5.06823 10.2182 5.60156ZM7.86823 14.4016C7.02379 14.4016 6.22101 14.2349 5.4599 13.9016C4.69879 13.5682 4.03212 13.1099 3.4599 12.5266C2.88767 11.9432 2.4349 11.2627 2.10156 10.4849C1.76823 9.70712 1.60156 8.87934 1.60156 8.00156C1.60156 7.11267 1.76823 6.28212 2.10156 5.5099C2.4349 4.73767 2.89323 4.0599 3.47656 3.47656C4.0599 2.89323 4.74045 2.4349 5.51823 2.10156C6.29601 1.76823 7.12378 1.60156 8.00156 1.60156C8.89045 1.60156 9.72101 1.76823 10.4932 2.10156C11.2655 2.4349 11.9432 2.88767 12.5266 3.4599C13.1099 4.03212 13.5682 4.70156 13.9016 5.46823C14.2349 6.2349 14.4016 7.04601 14.4016 7.90156C14.4016 8.04601 14.3988 8.19323 14.3932 8.34323C14.3877 8.49323 14.3738 8.64601 14.3516 8.80156H13.1349C13.1571 8.66823 13.1738 8.5349 13.1849 8.40156C13.196 8.26823 13.2016 8.1349 13.2016 8.00156C13.2016 7.81267 13.1905 7.62101 13.1682 7.42656C13.146 7.23212 13.1071 7.02378 13.0516 6.80156H10.3682C10.3905 6.99045 10.4043 7.18212 10.4099 7.37656C10.4155 7.57101 10.4182 7.76823 10.4182 7.96823V8.80156H9.20156V7.95156C9.20156 7.79601 9.19879 7.62101 9.19323 7.42656C9.18767 7.23212 9.17378 7.02378 9.15156 6.80156H6.85156C6.82934 7.01267 6.81545 7.21823 6.8099 7.41823C6.80434 7.61823 6.80156 7.81267 6.80156 8.00156C6.80156 8.19045 6.80434 8.38212 6.8099 8.57656C6.81545 8.77101 6.82934 8.97934 6.85156 9.20156H8.80156V10.4016H7.00156C7.09045 10.9016 7.25156 11.4238 7.4849 11.9682C7.71823 12.5127 7.95712 12.9071 8.20156 13.1516C8.30156 13.0293 8.40434 12.8682 8.5099 12.6682C8.61545 12.4682 8.71267 12.2405 8.80156 11.9849V14.3516C8.65712 14.3738 8.50434 14.3877 8.34323 14.3932C8.18212 14.3988 8.02379 14.4016 7.86823 14.4016ZM12.9682 13.8182L11.2016 12.0516V13.4016H10.0016V10.0016H13.4016V11.2016H12.0516L13.8182 12.9682L12.9682 13.8182Z" fill="#D3135A"/>
  </g>
</svg>