<svg width="654" height="674" viewBox="0 0 654 674" fill="none" xmlns="http://www.w3.org/2000/svg">
<path d="M327.307 310.617V243.008L330.195 241.341V308.949L327.307 310.617Z" fill="#8A8A8A"/>
<path d="M330.196 241.351L233.75 185.668L230.861 187.335L327.307 243.019L330.196 241.351Z" fill="#707A6D"/>
<path d="M230.891 366.304L134.445 310.621V313.957L230.891 369.639V366.304Z" fill="#4C4C4C"/>
<path d="M230.891 366.304L327.336 310.621V313.957L230.891 369.639V366.304Z" fill="#8A8A8A"/>
<path d="M230.891 366.298L134.445 310.616L230.888 254.935L327.334 310.617L230.891 366.298Z" fill="white"/>
<path d="M144.343 316.33L143.311 315.734L239.753 260.053L240.786 260.649L144.343 316.33Z" fill="#F0F0F0"/>
<path d="M154.055 321.936L153.021 321.34L249.464 265.658L250.497 266.255L154.055 321.936Z" fill="#F0F0F0"/>
<path d="M163.764 327.542L162.73 326.945L259.173 271.264L260.207 271.86L163.764 327.542Z" fill="#F0F0F0"/>
<path d="M173.474 333.149L172.441 332.552L268.884 276.871L269.917 277.468L173.474 333.149Z" fill="#F0F0F0"/>
<path d="M183.183 338.754L182.15 338.158L278.593 282.477L279.626 283.073L183.183 338.754Z" fill="#F0F0F0"/>
<path d="M192.894 344.361L191.861 343.764L288.304 288.083L289.337 288.679L192.894 344.361Z" fill="#F0F0F0"/>
<path d="M202.603 349.967L201.57 349.371L298.013 293.689L299.046 294.286L202.603 349.967Z" fill="#F0F0F0"/>
<path d="M212.314 355.573L211.281 354.977L307.724 299.296L308.757 299.892L212.314 355.573Z" fill="#F0F0F0"/>
<path d="M222.025 361.179L220.992 360.583L317.435 304.901L318.468 305.498L222.025 361.179Z" fill="#F0F0F0"/>
<path d="M327.307 310.615L230.861 254.932V187.324L327.307 243.007V310.615Z" fill="#BECDBA"/>
<path d="M131.527 241.351L230.862 184L233.75 185.667L134.416 243.018L131.527 241.351Z" fill="#707A6D"/>
<path d="M134.416 310.617V243.008L131.527 241.341V308.949L134.416 310.617Z" fill="#4C4C4C"/>
<path d="M134.416 310.615L230.862 254.932V187.324L134.416 243.007V310.615Z" fill="#ACBBA8"/>
<path d="M199.009 223.312L199.006 223.309C199.004 223.307 199.002 223.306 198.999 223.304L198.576 223.011L198.576 223.011C198.559 222.996 198.534 222.996 198.506 223.015C198.454 223.051 198.412 223.139 198.412 223.212C198.412 223.244 198.421 223.267 198.435 223.28L198.435 223.281L198.436 223.282C198.438 223.284 198.441 223.286 198.444 223.287L198.868 223.58L198.868 223.579C198.885 223.594 198.909 223.595 198.937 223.575C198.989 223.539 199.031 223.451 199.031 223.379C199.031 223.348 199.022 223.326 199.009 223.313L199.009 223.312Z" fill="#4C4C4C"/>
<path d="M190.156 234.46L190.311 234.628L198.849 223.575L207.388 225.222L207.542 224.883L198.849 223.207L190.156 234.46Z" fill="#E0E0E0"/>
<path d="M199.03 223.047C198.859 223.156 198.721 223.422 198.721 223.641C198.721 223.859 198.859 223.948 199.03 223.838C199.201 223.729 199.339 223.463 199.339 223.245C199.339 223.026 199.201 222.938 199.03 223.047Z" fill="white"/>
<path d="M190.111 248.182L207.037 238.858V224.412L190.111 233.735V248.182Z" fill="#F0F0F0"/>
<path d="M199.665 232.994C199.101 233.305 198.643 234.061 198.643 234.684C198.643 235.306 199.101 235.559 199.665 235.247C200.23 234.936 200.688 234.179 200.688 233.557C200.688 232.935 200.23 232.682 199.665 232.994Z" fill="#C6C6C6"/>
<path d="M190.707 246.672L198.724 242.256L200.546 238.766L197.187 234.481L190.707 246.672Z" fill="#E0E0E0"/>
<path d="M200.547 238.766L201.908 240.502L206.076 238.207L202.801 234.448L200.547 238.766Z" fill="#C6C6C6"/>
<path d="M198.725 242.256L201.908 240.503L200.546 238.767L198.725 242.256Z" fill="#C6C6C6"/>
<path d="M189 233.504L190.016 234.08L206.187 225.173V225.431C206.626 225.214 207.06 225.029 207.582 224.895C207.707 224.863 207.83 224.826 207.952 224.787L208 223.917L207.203 223.478L189 233.504Z" fill="#4C4C4C"/>
<path d="M189 248.56L189.797 248.999L190.016 246.865V234.08L189 233.504V248.56Z" fill="#333333"/>
<path d="M206.188 237.958L207.203 238.534L207.934 225.142C207.295 225.307 206.748 225.526 206.188 225.799V237.958Z" fill="#C6C6C6"/>
<path d="M190.016 246.866L189.797 249L207.203 238.534L206.187 237.958L190.016 246.866Z" fill="#E0E0E0"/>
<path d="M189.797 249L208 238.973V223.917L189.797 233.944V249ZM190.813 234.52L206.984 225.612V238.398L190.813 247.305V234.52Z" fill="#8A8A8A"/>
<path d="M228.779 367.88V300.272L231.668 298.604V366.213L228.779 367.88Z" fill="#8A8A8A"/>
<path d="M231.668 298.615L135.223 242.932L132.334 244.599L228.78 300.282L231.668 298.615Z" fill="#707A6D"/>
<path d="M132.364 423.568L35.918 367.885V371.22L132.364 426.903V423.568Z" fill="#F0F0F0"/>
<path d="M132.363 423.568L228.809 367.885V371.22L132.363 426.903V423.568Z" fill="#8A8A8A"/>
<path d="M132.364 423.561L35.918 367.878L132.361 312.197L228.807 367.88L132.364 423.561Z" fill="white"/>
<path d="M45.8158 373.594L44.7832 372.997L141.226 317.316L142.259 317.913L45.8158 373.594Z" fill="#F0F0F0"/>
<path d="M55.5272 379.199L54.4941 378.603L150.937 322.922L151.97 323.518L55.5272 379.199Z" fill="#F0F0F0"/>
<path d="M65.2362 384.806L64.2031 384.21L160.646 328.528L161.679 329.125L65.2362 384.806Z" fill="#F0F0F0"/>
<path d="M74.9471 390.412L73.9141 389.815L170.357 334.134L171.39 334.73L74.9471 390.412Z" fill="#F0F0F0"/>
<path d="M84.6561 396.018L83.623 395.421L180.066 339.74L181.099 340.336L84.6561 396.018Z" fill="#F0F0F0"/>
<path d="M94.3671 401.624L93.334 401.028L189.777 345.347L190.81 345.943L94.3671 401.624Z" fill="#F0F0F0"/>
<path d="M104.076 407.231L103.043 406.634L199.486 350.953L200.519 351.55L104.076 407.231Z" fill="#F0F0F0"/>
<path d="M113.787 412.837L112.754 412.241L209.196 356.56L210.23 357.156L113.787 412.837Z" fill="#F0F0F0"/>
<path d="M123.498 418.444L122.465 417.848L218.908 362.166L219.941 362.762L123.498 418.444Z" fill="#F0F0F0"/>
<path d="M228.78 367.879L132.334 312.196V244.588L228.78 300.271V367.879Z" fill="#BECDBA"/>
<path d="M33 298.614L132.334 241.264L135.223 242.931L35.8886 300.282L33 298.614Z" fill="#707A6D"/>
<path d="M35.8886 367.879V300.271L33 298.604V366.212L35.8886 367.879Z" fill="#5A6357"/>
<path d="M35.8887 367.879L132.334 312.196V244.588L35.8887 300.271V367.879Z" fill="#ACBBA8"/>
<path d="M166.991 284.312L166.994 284.309C166.996 284.307 166.998 284.306 167.001 284.304L167.424 284.011L167.424 284.011C167.441 283.996 167.466 283.996 167.494 284.015C167.546 284.051 167.588 284.139 167.588 284.212C167.588 284.244 167.579 284.267 167.565 284.28L167.565 284.281L167.564 284.282C167.562 284.284 167.559 284.286 167.556 284.287L167.132 284.58L167.132 284.579C167.115 284.594 167.091 284.595 167.063 284.575C167.011 284.539 166.969 284.451 166.969 284.379C166.969 284.348 166.978 284.326 166.991 284.313L166.991 284.312Z" fill="#4C4C4C"/>
<path d="M175.844 295.46L175.689 295.628L167.151 284.575L158.612 286.222L158.458 285.883L167.151 284.207L175.844 295.46Z" fill="#E0E0E0"/>
<path d="M166.97 284.047C167.141 284.156 167.279 284.422 167.279 284.641C167.279 284.859 167.141 284.948 166.97 284.838C166.799 284.729 166.661 284.463 166.661 284.245C166.661 284.026 166.799 283.938 166.97 284.047Z" fill="white"/>
<path d="M175.889 309.182L158.963 299.858V285.412L175.889 294.735V309.182Z" fill="#F0F0F0"/>
<path d="M166.335 293.994C166.899 294.305 167.357 295.061 167.357 295.684C167.357 296.306 166.899 296.559 166.335 296.247C165.77 295.936 165.312 295.179 165.312 294.557C165.312 293.935 165.77 293.682 166.335 293.994Z" fill="#C6C6C6"/>
<path d="M175.293 307.672L167.276 303.256L165.454 299.766L168.813 295.481L175.293 307.672Z" fill="#E0E0E0"/>
<path d="M165.453 299.766L164.092 301.502L159.924 299.207L163.199 295.448L165.453 299.766Z" fill="#C6C6C6"/>
<path d="M167.275 303.256L164.092 301.503L165.454 299.767L167.275 303.256Z" fill="#C6C6C6"/>
<path d="M177 294.504L175.984 295.08L159.813 286.173V286.431C159.374 286.214 158.94 286.029 158.418 285.895C158.293 285.863 158.17 285.826 158.048 285.787L158 284.917L158.797 284.478L177 294.504Z" fill="#4C4C4C"/>
<path d="M177 309.56L176.203 309.999L175.984 307.865V295.08L177 294.504V309.56Z" fill="#333333"/>
<path d="M159.812 298.958L158.797 299.534L158.066 286.142C158.705 286.307 159.252 286.526 159.812 286.799V298.958Z" fill="#C6C6C6"/>
<path d="M175.984 307.866L176.203 310L158.797 299.534L159.813 298.958L175.984 307.866Z" fill="#E0E0E0"/>
<path d="M176.203 310L158 299.973V284.917L176.203 294.944V310ZM175.187 295.52L159.016 286.612V299.398L175.187 308.305V295.52Z" fill="#8A8A8A"/>
<path d="M425.055 367.074V299.465L427.943 297.798V365.406L425.055 367.074Z" fill="#8A8A8A"/>
<path d="M427.944 297.808L331.498 242.125L328.609 243.792L425.055 299.476L427.944 297.808Z" fill="#707A6D"/>
<path d="M328.637 422.762L232.191 367.079V370.415L328.637 426.097V422.762Z" fill="#4C4C4C"/>
<path d="M328.639 422.762L425.084 367.079V370.415L328.639 426.097V422.762Z" fill="#8A8A8A"/>
<path d="M328.639 422.755L232.193 367.072L328.636 311.391L425.082 367.073L328.639 422.755Z" fill="white"/>
<path d="M242.091 372.787L241.059 372.191L337.501 316.51L338.534 317.106L242.091 372.787Z" fill="#F0F0F0"/>
<path d="M251.803 378.393L250.77 377.797L347.213 322.115L348.245 322.712L251.803 378.393Z" fill="#F0F0F0"/>
<path d="M261.512 383.999L260.479 383.402L356.922 327.721L357.955 328.317L261.512 383.999Z" fill="#F0F0F0"/>
<path d="M271.223 389.605L270.189 389.008L366.632 333.327L367.666 333.924L271.223 389.605Z" fill="#F0F0F0"/>
<path d="M280.932 395.212L279.898 394.616L376.341 338.935L377.374 339.531L280.932 395.212Z" fill="#F0F0F0"/>
<path d="M290.642 400.818L289.609 400.221L386.052 344.54L387.085 345.136L290.642 400.818Z" fill="#F0F0F0"/>
<path d="M300.351 406.423L299.318 405.827L395.761 350.146L396.794 350.742L300.351 406.423Z" fill="#F0F0F0"/>
<path d="M310.062 412.029L309.029 411.433L405.472 355.752L406.505 356.348L310.062 412.029Z" fill="#F0F0F0"/>
<path d="M319.773 417.636L318.74 417.04L415.183 361.358L416.216 361.955L319.773 417.636Z" fill="#F0F0F0"/>
<path d="M425.055 367.073L328.609 311.39V243.782L425.055 299.465V367.073Z" fill="#BECDBA"/>
<path d="M229.275 297.808L328.61 240.457L331.498 242.125L232.164 299.475L229.275 297.808Z" fill="#707A6D"/>
<path d="M232.164 367.074V299.465L229.275 297.798V365.406L232.164 367.074Z" fill="#4C4C4C"/>
<path d="M232.164 367.073L328.61 311.39V243.782L232.164 299.465V367.073Z" fill="#ACBBA8"/>
<g clip-path="url(#clip0_12955_714040)">
<path d="M314.454 314.165C314.468 313.581 314.829 313.025 315.552 312.607C317.181 311.667 320.025 311.785 321.906 312.871C322.942 313.469 323.468 314.236 323.461 314.962H323.461V316.687C323.459 317.188 323.201 317.67 322.68 318.063L322.214 321.059C322.21 321.488 321.948 321.896 321.419 322.202C320.241 322.882 318.185 322.797 316.825 322.011C316.104 321.596 315.724 321.067 315.701 320.56L315.7 320.56L315.236 317.452C314.705 316.965 314.441 316.422 314.454 315.901H314.454V314.227C314.453 314.209 314.453 314.192 314.454 314.174V314.165H314.454Z" fill="#4C4C4C"/>
<path d="M314.758 314.227C314.758 314.209 314.758 314.192 314.758 314.174V314.165H314.758C314.772 313.581 315.134 313.025 315.857 312.607C317.485 311.667 320.33 311.785 322.21 312.871C323.246 313.469 323.773 314.236 323.765 314.962L323.766 314.962V316.687H323.765C323.763 317.282 323.401 317.85 322.666 318.274C321.038 319.214 318.193 319.096 316.313 318.011C315.268 317.407 314.741 316.632 314.758 315.901H314.758V314.227Z" fill="#8A8A8A"/>
<path d="M316.313 316.275C318.194 317.361 321.038 317.479 322.666 316.539C324.295 315.598 324.091 313.956 322.21 312.871C320.33 311.785 317.485 311.667 315.857 312.607C314.229 313.548 314.433 315.19 316.313 316.275Z" fill="#C6C6C6"/>
<path d="M316.865 315.958C318.394 316.841 320.706 316.937 322.03 316.172C323.354 315.408 323.188 314.073 321.659 313.19C320.13 312.307 317.818 312.212 316.494 312.976C315.17 313.74 315.336 315.076 316.865 315.958Z" fill="#4C4C4C"/>
<path d="M316.494 314.457C317.818 313.693 320.131 313.789 321.659 314.672C322.136 314.947 322.48 315.266 322.688 315.597C322.539 315.809 322.321 316.004 322.03 316.172C320.706 316.936 318.394 316.841 316.865 315.958C316.389 315.683 316.045 315.364 315.837 315.032C315.985 314.82 316.204 314.625 316.494 314.457Z" fill="#8A8A8A"/>
<path d="M321.859 309.203C320.992 312.299 321.211 316.077 320.952 316.181C320.658 316.3 319.716 316.243 319.521 315.545C319.521 315.545 320.051 311.633 320.898 308.702L321.859 309.203Z" fill="#55BE5A"/>
<path d="M316.853 306.216C317.72 309.311 317.982 315.359 318.241 315.463C318.535 315.581 319.478 315.525 319.672 314.827C319.672 314.827 318.595 309.056 317.979 305.715L316.853 306.216Z" fill="#2B9E31"/>
<path d="M312.063 310.17C312.983 310.069 313.72 310.117 313.496 309.472C313.272 308.828 311.723 308.748 310.721 309.2C310.607 309.252 310.494 309.311 310.383 309.374C310.045 308.38 309.889 307.238 310.085 305.961C310.42 303.779 312.304 301.948 314.061 302.514C315.818 303.08 316.155 305.275 316.155 305.275C316.155 305.275 317.538 303.538 319.343 303.92C321.117 304.295 321.847 306.74 321.119 308.778C320.895 308.349 320.554 307.782 320.13 307.36C319.349 306.585 317.87 306.118 317.435 306.643C316.999 307.168 317.707 307.382 318.533 307.799C319.237 308.154 320.242 308.805 320.547 309.987C320.284 310.431 319.985 310.825 319.663 311.174C319.547 310.931 319.412 310.687 319.255 310.471C318.61 309.58 317.226 308.879 316.711 309.327C316.196 309.775 316.86 310.099 317.608 310.645C318.007 310.935 318.504 311.36 318.846 311.934C316.614 313.719 313.866 313.874 313.866 313.874C313.866 313.874 311.978 312.647 310.841 310.446C311.274 310.284 311.708 310.209 312.063 310.17ZM316.295 312.347C316.837 312.644 317.064 312.439 316.933 312.048C316.829 311.734 316.546 311.396 316.335 311.175C316.145 310.976 315.906 310.827 315.64 310.759C315.453 310.711 315.258 310.7 315.167 310.818C314.967 311.081 315.752 312.051 316.295 312.347Z" fill="#55BE5A"/>
<path d="M321.001 305.651C322.673 304.869 324.414 306.248 324.414 306.248C324.414 306.248 324.245 304.034 325.827 303.084C327.382 302.152 329.581 303.445 330.435 305.434C329.979 305.272 329.343 305.089 328.745 305.069C327.646 305.033 326.245 305.697 326.283 306.378C326.321 307.06 326.985 306.734 327.874 306.477C328.632 306.258 329.811 306.051 330.839 306.709C330.949 307.214 330.998 307.705 331 308.18C330.749 308.081 330.484 307.995 330.222 307.943C329.143 307.729 327.652 308.158 327.58 308.836C327.508 309.515 328.215 309.301 329.134 309.191C329.624 309.133 330.277 309.105 330.919 309.293C330.499 312.12 328.591 314.104 328.591 314.104C328.591 314.104 323.255 315.034 320.435 310.882C319.195 309.056 319.329 306.432 321.001 305.651ZM322.795 311.157C323.09 311.306 323.898 310.355 324.09 309.767C324.281 309.179 324.038 308.994 323.677 309.195C323.388 309.356 323.108 309.696 322.93 309.944C322.769 310.167 322.668 310.43 322.65 310.704C322.637 310.897 322.662 311.09 322.795 311.157Z" fill="#2B9E31"/>
</g>
<path d="M282.939 315.107V285.012L302.811 273.307L303 325L304.5 326L306.871 269.039L305.085 268L280.001 282.775V339.043L281.787 339.877L282.939 315.107Z" fill="#8A8A8A"/>
<path d="M284.726 316.145V286.051L304.597 274.345V326.114L306.871 324.029L306.871 269.038L281.787 283.813V340.085L284.726 338V316.145Z" fill="#E0E0E0"/>
<path d="M303.352 275.079V325.906L284.723 339.251V286.052L303.352 275.079Z" fill="#F0F0F0"/>
<path d="M288.314 311.237C288.893 311.719 288.818 311.661 288.699 312.906C288.61 313.808 288.765 314.629 289.026 315.017C289.044 315.044 289.061 315.071 289.079 315.089H289.083C289.132 315.152 289.185 315.193 289.243 315.22C289.38 315.283 289.53 315.247 289.689 315.08C290.321 314.412 290.096 312.044 289.977 310.777C289.959 310.596 289.901 310.425 289.809 310.276C289.76 310.195 289.702 310.118 289.636 310.05C289.34 309.744 288.898 309.581 288.473 309.662C288.221 309.712 287.739 310.758 288.314 311.237Z" fill="#4C4C4C"/>
<path d="M289.026 315.017C289.044 315.044 289.061 315.071 289.079 315.089H289.083C289.128 315.117 289.185 315.162 289.243 315.22C289.38 315.284 289.53 315.247 289.689 315.08C290.321 314.413 290.096 312.045 289.977 310.777C289.959 310.597 289.901 310.425 289.809 310.276C289.782 310.15 289.716 310.073 289.636 310.051C289.393 309.974 288.991 310.398 288.968 311.332C288.946 312.473 288.818 314.589 289.026 315.017Z" fill="#8A8A8A"/>
<path d="M522.475 423.697V356.088L525.363 354.421V422.029L522.475 423.697Z" fill="#8A8A8A"/>
<path d="M525.364 354.431L428.918 298.748L426.029 300.416L522.475 356.099L525.364 354.431Z" fill="#707A6D"/>
<path d="M426.057 479.385L329.611 423.702V427.038L426.057 482.72V479.385Z" fill="#4C4C4C"/>
<path d="M426.059 479.385L522.504 423.702V427.038L426.059 482.72V479.385Z" fill="#8A8A8A"/>
<path d="M426.059 479.378L329.613 423.695L426.056 368.014L522.502 423.696L426.059 479.378Z" fill="white"/>
<path d="M339.511 429.41L338.479 428.814L434.921 373.133L435.954 373.729L339.511 429.41Z" fill="#F0F0F0"/>
<path d="M349.223 435.017L348.189 434.421L444.632 378.739L445.665 379.336L349.223 435.017Z" fill="#F0F0F0"/>
<path d="M358.932 440.622L357.898 440.025L454.341 384.344L455.375 384.94L358.932 440.622Z" fill="#F0F0F0"/>
<path d="M368.642 446.229L367.609 445.632L464.052 389.951L465.085 390.548L368.642 446.229Z" fill="#F0F0F0"/>
<path d="M378.351 451.835L377.318 451.239L473.761 395.558L474.794 396.154L378.351 451.835Z" fill="#F0F0F0"/>
<path d="M388.062 457.442L387.029 456.845L483.472 401.164L484.505 401.761L388.062 457.442Z" fill="#F0F0F0"/>
<path d="M397.771 463.047L396.738 462.451L493.181 406.77L494.214 407.366L397.771 463.047Z" fill="#F0F0F0"/>
<path d="M407.482 468.653L406.449 468.057L502.892 412.376L503.925 412.972L407.482 468.653Z" fill="#F0F0F0"/>
<path d="M417.193 474.26L416.16 473.664L512.603 417.982L513.636 418.579L417.193 474.26Z" fill="#F0F0F0"/>
<path d="M522.475 423.696L426.029 368.014V300.405L522.475 356.088V423.696Z" fill="#BECDBA"/>
<path d="M326.695 354.431L426.03 297.08L428.918 298.748L329.584 356.098L326.695 354.431Z" fill="#707A6D"/>
<path d="M329.584 423.696V356.087L326.695 354.42V422.028L329.584 423.696Z" fill="#4C4C4C"/>
<path d="M329.584 423.696L426.03 368.014V300.405L329.584 356.088V423.696Z" fill="#ACBBA8"/>
<g clip-path="url(#clip1_12955_714040)">
<path d="M411.454 370.165C411.468 369.581 411.829 369.025 412.552 368.607C414.181 367.667 417.025 367.785 418.906 368.871C419.942 369.469 420.468 370.236 420.461 370.962H420.461V372.687C420.459 373.188 420.201 373.67 419.68 374.063L419.214 377.059C419.21 377.488 418.948 377.896 418.419 378.202C417.241 378.882 415.185 378.797 413.825 378.011C413.104 377.596 412.724 377.067 412.701 376.56L412.7 376.56L412.236 373.452C411.705 372.965 411.441 372.422 411.454 371.901H411.454V370.227C411.453 370.209 411.453 370.192 411.454 370.174V370.165H411.454Z" fill="#4C4C4C"/>
<path d="M411.758 370.227C411.758 370.209 411.758 370.192 411.758 370.174V370.165H411.758C411.772 369.581 412.134 369.025 412.857 368.607C414.485 367.667 417.33 367.785 419.21 368.871C420.246 369.469 420.773 370.236 420.765 370.962L420.766 370.962V372.687H420.765C420.763 373.282 420.401 373.85 419.666 374.274C418.038 375.214 415.193 375.096 413.313 374.011C412.268 373.407 411.741 372.632 411.758 371.901H411.758V370.227Z" fill="#8A8A8A"/>
<path d="M413.313 372.275C415.194 373.361 418.038 373.479 419.666 372.539C421.295 371.598 421.091 369.956 419.21 368.871C417.33 367.785 414.485 367.667 412.857 368.607C411.229 369.548 411.433 371.19 413.313 372.275Z" fill="#C6C6C6"/>
<path d="M413.865 371.958C415.394 372.841 417.706 372.937 419.03 372.172C420.354 371.408 420.188 370.073 418.659 369.19C417.13 368.307 414.818 368.212 413.494 368.976C412.17 369.74 412.336 371.076 413.865 371.958Z" fill="#4C4C4C"/>
<path d="M413.494 370.457C414.818 369.693 417.131 369.789 418.659 370.672C419.136 370.947 419.48 371.266 419.688 371.597C419.539 371.809 419.321 372.004 419.03 372.172C417.706 372.936 415.394 372.841 413.865 371.958C413.389 371.683 413.045 371.364 412.837 371.032C412.985 370.82 413.204 370.625 413.494 370.457Z" fill="#8A8A8A"/>
<path d="M418.859 365.203C417.992 368.299 418.211 372.077 417.952 372.181C417.658 372.3 416.716 372.243 416.521 371.545C416.521 371.545 417.051 367.633 417.898 364.702L418.859 365.203Z" fill="#55BE5A"/>
<path d="M413.853 362.216C414.72 365.311 414.982 371.359 415.241 371.463C415.535 371.581 416.478 371.525 416.672 370.827C416.672 370.827 415.595 365.056 414.979 361.715L413.853 362.216Z" fill="#2B9E31"/>
<path d="M409.063 366.17C409.983 366.069 410.72 366.117 410.496 365.472C410.272 364.828 408.723 364.748 407.721 365.2C407.607 365.252 407.494 365.311 407.383 365.374C407.045 364.38 406.889 363.238 407.085 361.961C407.42 359.779 409.304 357.948 411.061 358.514C412.818 359.08 413.155 361.275 413.155 361.275C413.155 361.275 414.538 359.538 416.343 359.92C418.117 360.295 418.847 362.74 418.119 364.778C417.895 364.349 417.554 363.782 417.13 363.36C416.349 362.585 414.87 362.118 414.435 362.643C413.999 363.168 414.707 363.382 415.533 363.799C416.237 364.154 417.242 364.805 417.547 365.987C417.284 366.431 416.985 366.825 416.663 367.174C416.547 366.931 416.412 366.687 416.255 366.471C415.61 365.58 414.226 364.879 413.711 365.327C413.196 365.775 413.86 366.099 414.608 366.645C415.007 366.935 415.504 367.36 415.846 367.934C413.614 369.719 410.866 369.874 410.866 369.874C410.866 369.874 408.978 368.647 407.841 366.446C408.274 366.284 408.708 366.209 409.063 366.17ZM413.295 368.347C413.837 368.644 414.064 368.439 413.933 368.048C413.829 367.734 413.546 367.396 413.335 367.175C413.145 366.976 412.906 366.827 412.64 366.759C412.453 366.711 412.258 366.7 412.167 366.818C411.967 367.081 412.752 368.051 413.295 368.347Z" fill="#55BE5A"/>
<path d="M418.001 361.651C419.673 360.869 421.414 362.248 421.414 362.248C421.414 362.248 421.245 360.034 422.827 359.084C424.382 358.152 426.581 359.445 427.435 361.434C426.979 361.272 426.343 361.089 425.745 361.069C424.646 361.033 423.245 361.697 423.283 362.378C423.321 363.06 423.985 362.734 424.874 362.477C425.632 362.258 426.811 362.051 427.839 362.709C427.949 363.214 427.998 363.705 428 364.18C427.749 364.081 427.484 363.995 427.222 363.943C426.143 363.729 424.652 364.158 424.58 364.836C424.508 365.515 425.215 365.301 426.134 365.191C426.624 365.133 427.277 365.105 427.919 365.293C427.499 368.12 425.591 370.104 425.591 370.104C425.591 370.104 420.255 371.034 417.435 366.882C416.195 365.056 416.329 362.432 418.001 361.651ZM419.795 367.157C420.09 367.306 420.898 366.355 421.09 365.767C421.281 365.179 421.038 364.994 420.677 365.195C420.388 365.356 420.108 365.696 419.93 365.944C419.769 366.167 419.668 366.43 419.65 366.704C419.637 366.897 419.662 367.09 419.795 367.157Z" fill="#2B9E31"/>
</g>
<path d="M379.939 372.107V342.012L399.811 330.307L400 382L401.5 383L403.871 326.039L402.085 325L377.001 339.775V396.043L378.787 396.877L379.939 372.107Z" fill="#8A8A8A"/>
<path d="M381.726 373.145V343.051L401.597 331.345V383.114L403.871 381.029L403.871 326.038L378.787 340.813V397.085L381.726 395V373.145Z" fill="#E0E0E0"/>
<path d="M400.352 332.079V382.906L381.723 396.251V343.052L400.352 332.079Z" fill="#F0F0F0"/>
<path d="M385.314 368.237C385.893 368.719 385.818 368.661 385.699 369.906C385.61 370.808 385.765 371.629 386.026 372.017C386.044 372.044 386.061 372.071 386.079 372.089H386.083C386.132 372.152 386.185 372.193 386.243 372.22C386.38 372.283 386.53 372.247 386.689 372.08C387.321 371.412 387.096 369.044 386.977 367.777C386.959 367.596 386.901 367.425 386.809 367.276C386.76 367.195 386.702 367.118 386.636 367.05C386.34 366.744 385.898 366.581 385.473 366.662C385.221 366.712 384.739 367.758 385.314 368.237Z" fill="#4C4C4C"/>
<path d="M386.026 372.017C386.044 372.044 386.061 372.071 386.079 372.089H386.083C386.128 372.117 386.185 372.162 386.243 372.22C386.38 372.284 386.53 372.247 386.689 372.08C387.321 371.413 387.096 369.045 386.977 367.777C386.959 367.597 386.901 367.425 386.809 367.276C386.782 367.15 386.716 367.073 386.636 367.051C386.393 366.974 385.991 367.398 385.968 368.332C385.946 369.473 385.818 371.589 386.026 372.017Z" fill="#8A8A8A"/>
<path d="M326.527 424.337V356.729L329.416 355.062V422.67L326.527 424.337Z" fill="#8A8A8A"/>
<path d="M329.416 355.072L232.971 299.389L230.082 301.056L326.528 356.739L329.416 355.072Z" fill="#707A6D"/>
<path d="M230.11 480.026L132 423.165V426.5L230.11 483.36V480.026Z" fill="#F0F0F0"/>
<path d="M230.111 480.025L326.557 424.342V427.677L230.111 483.36V480.025Z" fill="#8A8A8A"/>
<path d="M230.112 480.019L133.666 424.336L230.109 368.655L326.555 424.338L230.112 480.019Z" fill="white"/>
<path d="M143.564 430.051L142.531 429.455L238.974 373.773L240.007 374.37L143.564 430.051Z" fill="#F0F0F0"/>
<path d="M153.275 435.657L152.242 435.061L248.685 379.38L249.718 379.976L153.275 435.657Z" fill="#F0F0F0"/>
<path d="M162.984 441.264L161.951 440.668L258.394 384.986L259.427 385.583L162.984 441.264Z" fill="#F0F0F0"/>
<path d="M172.695 446.87L171.662 446.273L268.105 390.592L269.138 391.188L172.695 446.87Z" fill="#F0F0F0"/>
<path d="M182.404 452.476L181.371 451.879L277.814 396.198L278.847 396.794L182.404 452.476Z" fill="#F0F0F0"/>
<path d="M192.115 458.082L191.082 457.486L287.525 401.805L288.558 402.401L192.115 458.082Z" fill="#F0F0F0"/>
<path d="M201.824 463.689L200.791 463.092L297.234 407.411L298.267 408.008L201.824 463.689Z" fill="#F0F0F0"/>
<path d="M211.535 469.295L210.502 468.699L306.945 413.018L307.978 413.614L211.535 469.295Z" fill="#F0F0F0"/>
<path d="M221.246 474.901L220.213 474.305L316.656 418.623L317.689 419.219L221.246 474.901Z" fill="#F0F0F0"/>
<path d="M326.528 424.337L230.082 368.654V301.046L326.528 356.729V424.337Z" fill="#BECDBA"/>
<path d="M130.748 355.071L230.082 297.721L232.971 299.388L133.637 356.739L130.748 355.071Z" fill="#707A6D"/>
<path d="M133.637 424.337V356.729L130.748 355.062V422.67L133.637 424.337Z" fill="#5A6357"/>
<path d="M133.637 424.337L230.082 368.654V301.046L133.637 356.729V424.337Z" fill="#ACBBA8"/>
<g clip-path="url(#clip2_12955_714040)">
<path d="M215.454 371.165C215.468 370.581 215.829 370.025 216.552 369.607C218.181 368.667 221.025 368.785 222.906 369.871C223.942 370.469 224.468 371.236 224.461 371.962H224.461V373.687C224.459 374.188 224.201 374.67 223.68 375.063L223.214 378.059C223.21 378.488 222.948 378.896 222.419 379.202C221.241 379.882 219.185 379.797 217.825 379.011C217.104 378.596 216.724 378.067 216.701 377.56L216.7 377.56L216.236 374.452C215.705 373.965 215.441 373.422 215.454 372.901H215.454V371.227C215.453 371.209 215.453 371.192 215.454 371.174V371.165H215.454Z" fill="#4C4C4C"/>
<path d="M215.758 371.227C215.758 371.209 215.758 371.192 215.758 371.174V371.165H215.758C215.772 370.581 216.134 370.025 216.857 369.607C218.485 368.667 221.33 368.785 223.21 369.871C224.246 370.469 224.773 371.236 224.765 371.962L224.766 371.962V373.687H224.765C224.763 374.282 224.401 374.85 223.666 375.274C222.038 376.214 219.193 376.096 217.313 375.011C216.268 374.407 215.741 373.632 215.758 372.901H215.758V371.227Z" fill="#8A8A8A"/>
<path d="M217.313 373.275C219.194 374.361 222.038 374.479 223.666 373.539C225.295 372.598 225.091 370.956 223.21 369.871C221.33 368.785 218.485 368.667 216.857 369.607C215.229 370.548 215.433 372.19 217.313 373.275Z" fill="#C6C6C6"/>
<path d="M217.865 372.958C219.394 373.841 221.706 373.937 223.03 373.172C224.354 372.408 224.188 371.073 222.659 370.19C221.13 369.307 218.818 369.212 217.494 369.976C216.17 370.74 216.336 372.076 217.865 372.958Z" fill="#4C4C4C"/>
<path d="M217.494 371.457C218.818 370.693 221.131 370.789 222.659 371.672C223.136 371.947 223.48 372.266 223.688 372.597C223.539 372.809 223.321 373.004 223.03 373.172C221.706 373.936 219.394 373.841 217.865 372.958C217.389 372.683 217.045 372.364 216.837 372.032C216.985 371.82 217.204 371.625 217.494 371.457Z" fill="#8A8A8A"/>
<path d="M222.859 366.203C221.992 369.299 222.211 373.077 221.952 373.181C221.658 373.3 220.716 373.243 220.521 372.545C220.521 372.545 221.051 368.633 221.898 365.702L222.859 366.203Z" fill="#55BE5A"/>
<path d="M217.853 363.216C218.72 366.311 218.982 372.359 219.241 372.463C219.535 372.581 220.478 372.525 220.672 371.827C220.672 371.827 219.595 366.056 218.979 362.715L217.853 363.216Z" fill="#2B9E31"/>
<path d="M213.063 367.17C213.983 367.069 214.72 367.117 214.496 366.472C214.272 365.828 212.723 365.748 211.721 366.2C211.607 366.252 211.494 366.311 211.383 366.374C211.045 365.38 210.889 364.238 211.085 362.961C211.42 360.779 213.304 358.948 215.061 359.514C216.818 360.08 217.155 362.275 217.155 362.275C217.155 362.275 218.538 360.538 220.343 360.92C222.117 361.295 222.847 363.74 222.119 365.778C221.895 365.349 221.554 364.782 221.13 364.36C220.349 363.585 218.87 363.118 218.435 363.643C217.999 364.168 218.707 364.382 219.533 364.799C220.237 365.154 221.242 365.805 221.547 366.987C221.284 367.431 220.985 367.825 220.663 368.174C220.547 367.931 220.412 367.687 220.255 367.471C219.61 366.58 218.226 365.879 217.711 366.327C217.196 366.775 217.86 367.099 218.608 367.645C219.007 367.935 219.504 368.36 219.846 368.934C217.614 370.719 214.866 370.874 214.866 370.874C214.866 370.874 212.978 369.647 211.841 367.446C212.274 367.284 212.708 367.209 213.063 367.17ZM217.295 369.347C217.837 369.644 218.064 369.439 217.933 369.048C217.829 368.734 217.546 368.396 217.335 368.175C217.145 367.976 216.906 367.827 216.64 367.759C216.453 367.711 216.258 367.7 216.167 367.818C215.967 368.081 216.752 369.051 217.295 369.347Z" fill="#55BE5A"/>
<path d="M222.001 362.651C223.673 361.869 225.414 363.248 225.414 363.248C225.414 363.248 225.245 361.034 226.827 360.084C228.382 359.152 230.581 360.445 231.435 362.434C230.979 362.272 230.343 362.089 229.745 362.069C228.646 362.033 227.245 362.697 227.283 363.378C227.321 364.06 227.985 363.734 228.874 363.477C229.632 363.258 230.811 363.051 231.839 363.709C231.949 364.214 231.998 364.705 232 365.18C231.749 365.081 231.484 364.995 231.222 364.943C230.143 364.729 228.652 365.158 228.58 365.836C228.508 366.515 229.215 366.301 230.134 366.191C230.624 366.133 231.277 366.105 231.919 366.293C231.499 369.12 229.591 371.104 229.591 371.104C229.591 371.104 224.255 372.034 221.435 367.882C220.195 366.056 220.329 363.432 222.001 362.651ZM223.795 368.157C224.09 368.306 224.898 367.355 225.09 366.767C225.281 366.179 225.038 365.994 224.677 366.195C224.388 366.356 224.108 366.696 223.93 366.944C223.769 367.167 223.668 367.43 223.65 367.704C223.637 367.897 223.662 368.09 223.795 368.157Z" fill="#2B9E31"/>
</g>
<path d="M183.939 372.107V342.012L203.811 330.307L204 382L205.5 383L207.871 326.039L206.085 325L181.001 339.775V396.043L182.787 396.877L183.939 372.107Z" fill="#8A8A8A"/>
<path d="M185.726 373.145V343.051L205.597 331.345V383.114L207.871 381.029L207.871 326.038L182.787 340.813V397.085L185.726 395V373.145Z" fill="#E0E0E0"/>
<path d="M204.352 332.079V382.906L185.723 396.251V343.052L204.352 332.079Z" fill="#F0F0F0"/>
<path d="M189.314 368.237C189.893 368.719 189.818 368.661 189.699 369.906C189.61 370.808 189.765 371.629 190.026 372.017C190.044 372.044 190.061 372.071 190.079 372.089H190.083C190.132 372.152 190.185 372.193 190.243 372.22C190.38 372.283 190.53 372.247 190.689 372.08C191.321 371.412 191.096 369.044 190.977 367.777C190.959 367.596 190.901 367.425 190.809 367.276C190.76 367.195 190.702 367.118 190.636 367.05C190.34 366.744 189.898 366.581 189.473 366.662C189.221 366.712 188.739 367.758 189.314 368.237Z" fill="#4C4C4C"/>
<path d="M190.026 372.017C190.044 372.044 190.061 372.071 190.079 372.089H190.083C190.128 372.117 190.185 372.162 190.243 372.22C190.38 372.284 190.53 372.247 190.689 372.08C191.321 371.413 191.096 369.045 190.977 367.777C190.959 367.597 190.901 367.425 190.809 367.276C190.782 367.15 190.716 367.073 190.636 367.051C190.393 366.974 189.991 367.398 189.968 368.332C189.946 369.473 189.818 371.589 190.026 372.017Z" fill="#8A8A8A"/>
<path d="M279.061 373.107V343.012L259.189 331.307L259 383L257.5 384L255.129 327.039L256.915 326L281.999 340.775V397.043L280.213 397.877L279.061 373.107Z" fill="#8A8A8A"/>
<path d="M277.274 374.145V344.051L257.403 332.345V384.114L255.129 382.029L255.129 327.038L280.213 341.813V398.085L277.274 396V374.145Z" fill="#E0E0E0"/>
<path d="M258.648 333.079V383.906L277.277 397.251V344.052L258.648 333.079Z" fill="#F0F0F0"/>
<path d="M273.686 369.237C273.107 369.719 273.182 369.661 273.301 370.906C273.39 371.808 273.235 372.629 272.974 373.017C272.956 373.044 272.939 373.071 272.921 373.089H272.917C272.868 373.152 272.815 373.193 272.757 373.22C272.62 373.283 272.47 373.247 272.311 373.08C271.679 372.412 271.904 370.044 272.023 368.777C272.041 368.596 272.099 368.425 272.191 368.276C272.24 368.195 272.298 368.118 272.364 368.05C272.66 367.744 273.102 367.581 273.527 367.662C273.779 367.712 274.261 368.758 273.686 369.237Z" fill="#4C4C4C"/>
<path d="M272.974 373.017C272.956 373.044 272.939 373.071 272.921 373.089H272.917C272.872 373.117 272.815 373.162 272.757 373.22C272.62 373.284 272.47 373.247 272.311 373.08C271.679 372.413 271.904 370.045 272.023 368.777C272.041 368.597 272.099 368.425 272.191 368.276C272.218 368.15 272.284 368.073 272.364 368.051C272.607 367.974 273.009 368.398 273.032 369.332C273.054 370.473 273.182 372.589 272.974 373.017Z" fill="#8A8A8A"/>
<path d="M423.947 480.961V413.353L426.836 411.686V479.294L423.947 480.961Z" fill="#8A8A8A"/>
<path d="M426.836 411.696L330.391 356.013L327.502 357.68L423.948 413.363L426.836 411.696Z" fill="#707A6D"/>
<path d="M327.53 536.65L230 480.001V483.336L327.53 539.985V536.65Z" fill="#F0F0F0"/>
<path d="M327.531 536.649L423.977 480.966V484.301L327.531 539.984V536.649Z" fill="#8A8A8A"/>
<path d="M327.532 536.642L231.086 480.959L327.529 425.278L423.975 480.961L327.532 536.642Z" fill="white"/>
<path d="M240.984 486.674L239.951 486.078L336.394 430.396L337.427 430.993L240.984 486.674Z" fill="#F0F0F0"/>
<path d="M250.695 492.28L249.662 491.684L346.105 436.003L347.138 436.599L250.695 492.28Z" fill="#F0F0F0"/>
<path d="M260.404 497.886L259.371 497.29L355.814 441.608L356.847 442.205L260.404 497.886Z" fill="#F0F0F0"/>
<path d="M270.115 503.492L269.082 502.895L365.525 447.214L366.558 447.81L270.115 503.492Z" fill="#F0F0F0"/>
<path d="M279.824 509.099L278.791 508.502L375.234 452.821L376.267 453.417L279.824 509.099Z" fill="#F0F0F0"/>
<path d="M289.535 514.704L288.502 514.108L384.945 458.427L385.978 459.023L289.535 514.704Z" fill="#F0F0F0"/>
<path d="M299.244 520.311L298.211 519.714L394.654 464.033L395.687 464.63L299.244 520.311Z" fill="#F0F0F0"/>
<path d="M308.955 525.917L307.922 525.321L404.364 469.64L405.398 470.236L308.955 525.917Z" fill="#F0F0F0"/>
<path d="M318.666 531.524L317.633 530.928L414.076 475.246L415.109 475.843L318.666 531.524Z" fill="#F0F0F0"/>
<path d="M423.948 480.961L327.502 425.278V357.67L423.948 413.353V480.961Z" fill="#BECDBA"/>
<path d="M228.168 411.695L327.502 354.345L330.391 356.012L231.057 413.363L228.168 411.695Z" fill="#707A6D"/>
<path d="M231.057 480.961V413.353L228.168 411.686V479.294L231.057 480.961Z" fill="#5A6357"/>
<path d="M231.057 480.961L327.502 425.278V357.67L231.057 413.353V480.961Z" fill="#ACBBA8"/>
<path d="M285.009 400.312L285.006 400.309C285.004 400.307 285.002 400.306 284.999 400.304L284.576 400.011L284.576 400.011C284.559 399.996 284.534 399.996 284.506 400.015C284.454 400.051 284.412 400.139 284.412 400.212C284.412 400.244 284.421 400.267 284.435 400.28L284.435 400.281L284.436 400.282C284.438 400.284 284.441 400.286 284.444 400.287L284.868 400.58L284.868 400.579C284.885 400.594 284.909 400.595 284.937 400.575C284.989 400.539 285.031 400.451 285.031 400.379C285.031 400.348 285.022 400.326 285.009 400.313L285.009 400.312Z" fill="#4C4C4C"/>
<path d="M276.156 411.46L276.311 411.628L284.849 400.575L293.388 402.222L293.542 401.883L284.849 400.207L276.156 411.46Z" fill="#E0E0E0"/>
<path d="M285.03 400.047C284.859 400.156 284.721 400.422 284.721 400.641C284.721 400.859 284.859 400.948 285.03 400.838C285.201 400.729 285.339 400.463 285.339 400.245C285.339 400.026 285.201 399.938 285.03 400.047Z" fill="white"/>
<path d="M276.111 425.182L293.037 415.858V401.412L276.111 410.735V425.182Z" fill="#F0F0F0"/>
<path d="M285.665 409.994C285.101 410.305 284.643 411.061 284.643 411.684C284.643 412.306 285.101 412.559 285.665 412.247C286.23 411.936 286.688 411.179 286.688 410.557C286.688 409.935 286.23 409.682 285.665 409.994Z" fill="#C6C6C6"/>
<path d="M276.707 423.672L284.724 419.256L286.546 415.766L283.187 411.481L276.707 423.672Z" fill="#E0E0E0"/>
<path d="M286.547 415.766L287.908 417.502L292.076 415.207L288.801 411.448L286.547 415.766Z" fill="#C6C6C6"/>
<path d="M284.725 419.256L287.908 417.503L286.546 415.767L284.725 419.256Z" fill="#C6C6C6"/>
<path d="M275 410.504L276.016 411.08L292.187 402.173V402.431C292.626 402.214 293.06 402.029 293.582 401.895C293.707 401.863 293.83 401.826 293.952 401.787L294 400.917L293.203 400.478L275 410.504Z" fill="#4C4C4C"/>
<path d="M275 425.56L275.797 425.999L276.016 423.865V411.08L275 410.504V425.56Z" fill="#333333"/>
<path d="M292.188 414.958L293.203 415.534L293.934 402.142C293.295 402.307 292.748 402.526 292.188 402.799V414.958Z" fill="#C6C6C6"/>
<path d="M276.016 423.866L275.797 426L293.203 415.534L292.187 414.958L276.016 423.866Z" fill="#E0E0E0"/>
<path d="M275.797 426L294 415.973V400.917L275.797 410.944V426ZM276.813 411.52L292.984 402.612V415.398L276.813 424.305V411.52Z" fill="#8A8A8A"/>
<path d="M376.061 430.107V400.012L356.189 388.307L356 440L354.5 441L352.129 384.039L353.915 383L378.999 397.775V454.043L377.213 454.877L376.061 430.107Z" fill="#8A8A8A"/>
<path d="M374.274 431.145V401.051L354.403 389.345V441.114L352.129 439.029L352.129 384.038L377.213 398.813V455.085L374.274 453V431.145Z" fill="#E0E0E0"/>
<path d="M355.648 390.079V440.906L374.277 454.251V401.052L355.648 390.079Z" fill="#F0F0F0"/>
<path d="M370.686 426.237C370.107 426.719 370.182 426.661 370.301 427.906C370.39 428.808 370.235 429.629 369.974 430.017C369.956 430.044 369.939 430.071 369.921 430.089H369.917C369.868 430.152 369.815 430.193 369.757 430.22C369.62 430.283 369.47 430.247 369.311 430.08C368.679 429.412 368.904 427.044 369.023 425.777C369.041 425.596 369.099 425.425 369.191 425.276C369.24 425.195 369.298 425.118 369.364 425.05C369.66 424.744 370.102 424.581 370.527 424.662C370.779 424.712 371.261 425.758 370.686 426.237Z" fill="#4C4C4C"/>
<path d="M369.974 430.017C369.956 430.044 369.939 430.071 369.921 430.089H369.917C369.872 430.117 369.815 430.162 369.757 430.22C369.62 430.284 369.47 430.247 369.311 430.08C368.679 429.413 368.904 427.045 369.023 425.777C369.041 425.597 369.099 425.425 369.191 425.276C369.218 425.15 369.284 425.073 369.364 425.051C369.607 424.974 370.009 425.398 370.032 426.332C370.054 427.473 370.182 429.589 369.974 430.017Z" fill="#8A8A8A"/>
<g clip-path="url(#clip3_12955_714040)">
<path d="M344.546 433.165C344.532 432.581 344.171 432.025 343.448 431.607C341.819 430.667 338.975 430.785 337.094 431.871C336.058 432.469 335.532 433.236 335.539 433.962H335.539V435.687C335.541 436.188 335.799 436.67 336.32 437.063L336.786 440.059C336.79 440.488 337.052 440.896 337.581 441.202C338.759 441.882 340.815 441.797 342.175 441.011C342.896 440.596 343.276 440.067 343.299 439.56L343.3 439.56L343.764 436.452C344.295 435.965 344.559 435.422 344.546 434.901H344.546V433.227C344.547 433.209 344.547 433.192 344.546 433.174V433.165H344.546Z" fill="#4C4C4C"/>
<path d="M344.242 433.227C344.242 433.209 344.242 433.192 344.242 433.174V433.165H344.242C344.228 432.581 343.866 432.025 343.143 431.607C341.515 430.667 338.67 430.785 336.79 431.871C335.754 432.469 335.227 433.236 335.235 433.962L335.234 433.962V435.687H335.235C335.237 436.282 335.599 436.85 336.334 437.274C337.962 438.214 340.807 438.096 342.687 437.011C343.732 436.407 344.259 435.632 344.242 434.901H344.242V433.227Z" fill="#8A8A8A"/>
<path d="M342.687 435.275C340.806 436.361 337.962 436.479 336.334 435.539C334.705 434.598 334.909 432.956 336.79 431.871C338.67 430.785 341.515 430.667 343.143 431.607C344.771 432.548 344.567 434.19 342.687 435.275Z" fill="#C6C6C6"/>
<path d="M342.135 434.958C340.606 435.841 338.294 435.937 336.97 435.172C335.646 434.408 335.812 433.073 337.341 432.19C338.87 431.307 341.182 431.212 342.506 431.976C343.83 432.74 343.664 434.076 342.135 434.958Z" fill="#4C4C4C"/>
<path d="M342.506 433.457C341.182 432.693 338.869 432.789 337.341 433.672C336.864 433.947 336.52 434.266 336.312 434.597C336.461 434.809 336.679 435.004 336.97 435.172C338.294 435.936 340.606 435.841 342.135 434.958C342.611 434.683 342.955 434.364 343.163 434.032C343.015 433.82 342.796 433.625 342.506 433.457Z" fill="#8A8A8A"/>
<path d="M337.141 428.203C338.008 431.299 337.789 435.077 338.048 435.181C338.342 435.3 339.284 435.243 339.479 434.545C339.479 434.545 338.949 430.633 338.102 427.702L337.141 428.203Z" fill="#55BE5A"/>
<path d="M342.147 425.216C341.28 428.311 341.018 434.359 340.759 434.463C340.465 434.581 339.522 434.525 339.328 433.827C339.328 433.827 340.405 428.056 341.021 424.715L342.147 425.216Z" fill="#2B9E31"/>
<path d="M346.937 429.17C346.017 429.069 345.28 429.117 345.504 428.472C345.728 427.828 347.277 427.748 348.279 428.2C348.393 428.252 348.506 428.311 348.617 428.374C348.955 427.38 349.111 426.238 348.915 424.961C348.58 422.779 346.696 420.948 344.939 421.514C343.182 422.08 342.845 424.275 342.845 424.275C342.845 424.275 341.462 422.538 339.657 422.92C337.883 423.295 337.153 425.74 337.881 427.778C338.105 427.349 338.446 426.782 338.87 426.36C339.651 425.585 341.13 425.118 341.565 425.643C342.001 426.168 341.293 426.382 340.467 426.799C339.763 427.154 338.758 427.805 338.453 428.987C338.716 429.431 339.015 429.825 339.337 430.174C339.453 429.931 339.588 429.687 339.745 429.471C340.39 428.58 341.774 427.879 342.289 428.327C342.804 428.775 342.14 429.099 341.392 429.645C340.993 429.935 340.496 430.36 340.154 430.934C342.386 432.719 345.134 432.874 345.134 432.874C345.134 432.874 347.022 431.647 348.159 429.446C347.726 429.284 347.292 429.209 346.937 429.17ZM342.705 431.347C342.163 431.644 341.936 431.439 342.067 431.048C342.171 430.734 342.454 430.396 342.665 430.175C342.855 429.976 343.094 429.827 343.36 429.759C343.547 429.711 343.742 429.7 343.833 429.818C344.033 430.081 343.248 431.051 342.705 431.347Z" fill="#55BE5A"/>
<path d="M337.999 424.651C336.327 423.869 334.586 425.248 334.586 425.248C334.586 425.248 334.755 423.034 333.173 422.084C331.618 421.152 329.419 422.445 328.565 424.434C329.021 424.272 329.657 424.089 330.255 424.069C331.354 424.033 332.755 424.697 332.717 425.378C332.679 426.06 332.015 425.734 331.126 425.477C330.368 425.258 329.189 425.051 328.161 425.709C328.051 426.214 328.002 426.705 328 427.18C328.251 427.081 328.516 426.995 328.778 426.943C329.857 426.729 331.348 427.158 331.42 427.836C331.492 428.515 330.785 428.301 329.866 428.191C329.376 428.133 328.723 428.105 328.081 428.293C328.501 431.12 330.409 433.104 330.409 433.104C330.409 433.104 335.745 434.034 338.565 429.882C339.805 428.056 339.671 425.432 337.999 424.651ZM336.205 430.157C335.91 430.306 335.102 429.355 334.91 428.767C334.719 428.179 334.962 427.994 335.323 428.195C335.612 428.356 335.892 428.696 336.07 428.944C336.231 429.167 336.332 429.43 336.35 429.704C336.363 429.897 336.338 430.09 336.205 430.157Z" fill="#2B9E31"/>
</g>
<path d="M282.815 261.736L273.459 267.288V269L282.815 263.449V261.736Z" fill="#8A8A8A"/>
<path d="M264.356 250.785L256.443 255.48C255.55 256.01 255 256.989 255 258.049L273.459 269.001C273.459 267.941 274.009 266.962 274.902 266.432L282.815 261.737L264.356 250.785Z" fill="#E0E0E0"/>
<path d="M281.251 264.389V236.031L262.662 225.001V251.818L260.535 253.065L258.863 220.979L260.535 220L284 233.923V267.431L282.329 268.41L281.251 264.389Z" fill="#8A8A8A"/>
<path d="M279.58 265.368V237.009L260.99 225.98V252.797L258.863 254.043V220.979L282.329 234.901V268.409L278.391 266.073L279.58 265.368Z" fill="#E0E0E0"/>
<path d="M279.58 263.656L282.328 266.869V268.411L278.391 266.074L279.58 265.369V263.656Z" fill="#8A8A8A"/>
<path d="M262.154 226.671V252.116L279.581 262.456V237.01L262.154 226.671Z" fill="#F0F0F0"/>
<path d="M279.58 237.01V260.491L272.54 256.317L271.791 255.871L271.068 255.441L270.865 255.322L270.319 254.999L269.393 254.447L263.809 251.135V227.65L264.958 228.335L269.393 230.966L270.319 231.514L270.865 231.837L271.068 231.961L271.791 232.39L272.54 232.832L279.58 237.01Z" fill="#8A8A8A"/>
<path d="M279.581 237.01V259.127L279.386 259.012L272.541 254.948L271.792 254.506L271.068 254.077L270.866 253.954L270.32 253.631L269.393 253.082L264.959 250.451V228.335L269.393 230.966L270.32 231.514L270.866 231.837L271.068 231.961L271.792 232.39L272.541 232.832L279.581 237.01Z" fill="#B6CEFB"/>
<path opacity="0.3" d="M279.581 251.288V259.126L272.541 254.948L271.792 254.506L271.068 254.076L270.866 253.953L270.32 253.63L269.393 253.082L264.959 250.451L270.928 246.91C271.627 246.497 272.202 246.91 272.202 246.91L279.581 251.288Z" fill="#E0E0E0"/>
<path d="M271.791 232.389V255.87L271.067 255.441L270.864 255.322L270.318 254.999V231.514L270.864 231.837L271.067 231.96L271.791 232.389Z" fill="#4C4C4C"/>
<path d="M270.924 231.898V255.383L270.378 255.06L269.451 254.507V231.026L270.378 231.575L270.924 231.898Z" fill="#F0F0F0"/>
<path d="M272.539 232.832V256.317L271.79 255.871L271.066 255.442V231.961L271.79 232.39L272.539 232.832Z" fill="#F0F0F0"/>
<path d="M272.541 256.317L273.694 255.633V233.517L272.541 232.832V256.317Z" fill="#8A8A8A"/>
<path d="M272.152 242.451C271.61 242.906 271.68 242.851 271.792 244.024C271.875 244.874 271.73 245.648 271.486 246.013C271.469 246.039 271.453 246.064 271.436 246.081H271.432C271.387 246.141 271.337 246.179 271.283 246.205C271.155 246.264 271.014 246.23 270.865 246.073C270.274 245.444 270.485 243.212 270.596 242.018C270.613 241.848 270.667 241.686 270.754 241.546C270.799 241.469 270.853 241.397 270.915 241.333C271.192 241.044 271.606 240.891 272.003 240.968C272.239 241.014 272.69 242.001 272.152 242.451Z" fill="#4C4C4C"/>
<path d="M271.486 246.013C271.469 246.039 271.453 246.064 271.436 246.081H271.432C271.391 246.107 271.337 246.149 271.283 246.205C271.155 246.264 271.014 246.23 270.865 246.073C270.274 245.444 270.485 243.212 270.596 242.018C270.613 241.848 270.667 241.686 270.754 241.546C270.778 241.427 270.841 241.355 270.915 241.333C271.143 241.261 271.519 241.661 271.54 242.541C271.56 243.616 271.68 245.61 271.486 246.013Z" fill="#8A8A8A"/>
<path d="M270.171 241.276C269.629 241.731 269.7 241.676 269.811 242.849C269.894 243.699 269.749 244.473 269.505 244.839C269.489 244.864 269.472 244.89 269.456 244.907H269.452C269.406 244.966 269.356 245.004 269.303 245.03C269.174 245.089 269.034 245.055 268.885 244.898C268.293 244.269 268.504 242.037 268.616 240.843C268.633 240.673 268.686 240.511 268.773 240.371C268.819 240.295 268.872 240.222 268.934 240.159C269.212 239.87 269.625 239.716 270.022 239.793C270.258 239.84 270.709 240.826 270.171 241.276Z" fill="#4C4C4C"/>
<path d="M269.505 244.839C269.489 244.864 269.472 244.89 269.456 244.907H269.452C269.41 244.932 269.356 244.975 269.303 245.03C269.174 245.09 269.034 245.055 268.885 244.898C268.293 244.269 268.504 242.038 268.616 240.843C268.633 240.673 268.686 240.511 268.773 240.371C268.798 240.252 268.86 240.18 268.934 240.159C269.162 240.086 269.538 240.486 269.559 241.366C269.58 242.441 269.7 244.435 269.505 244.839Z" fill="#8A8A8A"/>
<path opacity="0.3" d="M279.58 259.127V259.815L273.111 255.977V233.172L273.695 233.516V255.632L279.58 259.127Z" fill="white"/>
<path opacity="0.3" d="M269.392 253.082V253.773L264.355 250.785V227.978L264.958 228.335V250.451L269.392 253.082Z" fill="#8A8A8A"/>
<path opacity="0.7" d="M274.436 244.581C274.353 244.87 273.807 245.049 273.695 244.301V240.454C274.113 240.267 274.456 240.707 274.506 241.23C274.572 241.868 274.523 244.292 274.436 244.581Z" fill="#8A8A8A"/>
<path d="M272.479 259.522C275.786 259.522 276.207 257.4 276.207 257.4C276.207 257.4 275.41 261.841 275.411 261.857C275.426 262.325 275.133 262.795 274.531 263.152C273.358 263.848 271.455 263.848 270.282 263.152C269.692 262.802 269.399 262.343 269.402 261.884C269.402 261.868 268.606 257.376 268.606 257.376C268.606 257.376 269.172 259.522 272.479 259.522Z" fill="#4C4C4C"/>
<path d="M269.719 255.801C271.203 254.92 273.61 254.92 275.094 255.801C276.578 256.682 276.578 258.109 275.094 258.99C273.61 259.871 271.203 259.871 269.719 258.99C268.235 258.109 268.235 256.682 269.719 255.801ZM270.009 258.818C271.331 259.602 273.482 259.602 274.804 258.818C276.126 258.034 276.126 256.758 274.804 255.973C273.482 255.189 271.331 255.189 270.009 255.973C268.687 256.758 268.687 258.034 270.009 258.818Z" fill="#8A8A8A"/>
<path d="M272.407 255.095C275.097 255.095 275.859 256.742 275.795 257.457C275.751 257.951 275.44 258.442 274.805 258.819C273.482 259.604 271.331 259.604 270.008 258.819C269.339 258.422 269.017 257.899 269.016 257.377C269.016 256.789 269.717 255.095 272.407 255.095Z" fill="#77CB7B"/>
<path d="M272.46 254.336L272.541 254.454L272.494 254.56L272.172 254.487C269.743 254.66 268.877 252.797 268.877 252.797L268.925 252.691C269.747 252.242 270.731 252.055 272.46 254.336Z" fill="#77CB7B"/>
<path d="M275.093 248.667L275.222 248.763C275.222 248.763 275.421 251.64 272.353 253.154L272.011 253.471L271.882 253.375L271.901 253.174C272.471 249.176 273.792 248.705 275.093 248.667Z" fill="#77CB7B"/>
<path d="M269.791 248.697C272.17 251.005 272.786 254.29 272.922 256.4C272.922 256.4 272.941 256.488 272.944 256.584C272.999 256.668 272.97 256.766 272.857 256.833C272.704 256.923 272.456 256.923 272.304 256.833C272.207 256.776 272.172 256.696 272.198 256.622C272.171 256.556 272.153 256.472 272.146 256.365C272.061 254.987 271.401 251.341 269.265 249.27C269.112 249.12 269.105 248.871 269.25 248.713C269.395 248.555 269.637 248.548 269.791 248.697Z" fill="#55BE5A"/>
<path d="M266.48 248.977C266.48 248.977 266.525 248.823 266.638 248.602C266.962 247.963 267.625 247.742 268.312 247.718C268.031 247.304 268.069 246.813 268.963 246.337C270.001 245.785 270.473 246.214 270.667 246.807C271.312 246.313 272.011 246.014 272.541 246.384C272.626 246.443 272.66 246.429 272.66 246.429C272.66 246.429 272.58 246.525 272.685 246.547C272.691 247.047 272.271 247.541 271.946 247.771C272.478 247.792 272.979 247.984 272.979 247.984C272.979 247.984 273.107 248.19 272.783 248.621C272.314 249.23 271.749 249.605 271.149 249.534C271.055 250.118 270.62 250.464 269.646 250.643C268.774 250.754 268.709 250.419 268.709 250.419C268.709 250.419 268.746 250.439 268.749 250.333C268.086 250.838 267.326 250.978 266.801 250.59C266.655 250.479 266.594 250.409 266.56 250.329C266.423 250.006 266.849 249.823 267.352 249.455C267.167 249.452 267.001 249.433 266.868 249.39C266.641 249.322 266.48 248.977 266.48 248.977Z" fill="#00369A"/>
<path d="M269.776 247.965C270.445 247.758 270.487 248.178 270.342 248.383C269.886 249.025 267.876 251.387 266.753 250.556C265.63 249.726 269.107 248.173 269.776 247.965Z" fill="#0047CC"/>
<path d="M270.366 247.955C270.765 248.199 270.261 248.618 269.98 248.715C269.099 249.016 265.782 249.908 266.548 248.399C267.314 246.89 269.966 247.711 270.366 247.955Z" fill="#0047CC"/>
<path d="M268.874 246.134C270.817 245.101 270.78 247.505 270.64 247.985C270.5 248.466 269.863 248.579 269.662 248.506C269.031 248.275 266.931 247.167 268.874 246.134Z" fill="#0047CC"/>
<path d="M272.451 246.18C273.607 246.986 270.146 248.579 269.477 248.795C268.808 249.011 268.754 248.594 268.895 248.389C269.336 247.746 271.295 245.374 272.451 246.18Z" fill="#0047CC"/>
<path d="M269.807 247.752C270.682 247.575 273.903 247.168 272.759 248.655C271.615 250.141 269.511 248.827 269.231 248.5C268.951 248.174 269.527 247.809 269.807 247.752Z" fill="#0047CC"/>
<path d="M270.804 247.766C271.057 248.26 271.657 250.274 269.622 250.648C267.588 251.021 269.341 248.423 269.78 247.954C270.218 247.486 270.723 247.609 270.804 247.766Z" fill="#0047CC"/>
<path d="M269.243 247.599C269.933 247.246 270.676 247.281 270.902 247.678C271.127 248.076 270.749 248.685 270.059 249.039C269.368 249.393 268.625 249.358 268.399 248.96C268.174 248.563 268.552 247.953 269.243 247.599Z" fill="white"/>
<path d="M379.856 317.329L370.822 322.427V324L379.856 318.902V317.329Z" fill="#8A8A8A"/>
<path d="M362.034 307.272L354.393 311.584C353.531 312.071 353 312.97 353 313.943L370.822 324.001C370.822 323.028 371.353 322.128 372.216 321.642L379.856 317.33L362.034 307.272Z" fill="#E0E0E0"/>
<path d="M378.345 319.765V293.722L360.396 283.593V308.221L358.342 309.365L356.729 279.899L358.342 279L380.999 291.786V322.559L379.385 323.458L378.345 319.765Z" fill="#8A8A8A"/>
<path d="M376.731 320.664V294.621L358.782 284.491V309.12L356.729 310.264V279.898L379.385 292.685V323.457L375.583 321.312L376.731 320.664Z" fill="#E0E0E0"/>
<path d="M376.734 319.092L379.388 322.042V323.458L375.586 321.312L376.734 320.664V319.092Z" fill="#8A8A8A"/>
<path d="M359.908 285.126V308.494L376.734 317.99V294.621L359.908 285.126Z" fill="#F0F0F0"/>
<path d="M376.731 294.622V316.186L369.934 312.353L369.212 311.943L368.513 311.549L368.317 311.439L367.79 311.143L366.895 310.635L361.504 307.594V286.026L362.614 286.655L366.895 289.071L367.79 289.575L368.317 289.872L368.513 289.985L369.212 290.379L369.934 290.785L376.731 294.622Z" fill="#8A8A8A"/>
<path d="M376.733 294.622V314.933L376.545 314.827L369.936 311.095L369.213 310.689L368.514 310.295L368.318 310.182L367.791 309.885L366.896 309.381L362.615 306.965V286.654L366.896 289.071L367.791 289.574L368.318 289.871L368.514 289.984L369.213 290.378L369.936 290.784L376.733 294.622Z" fill="#B6CEFB"/>
<path opacity="0.3" d="M376.733 307.734V314.932L369.936 311.095L369.213 310.689L368.514 310.295L368.318 310.182L367.791 309.885L366.896 309.381L362.615 306.965L368.378 303.713C369.053 303.335 369.608 303.713 369.608 303.713L376.733 307.734Z" fill="#E0E0E0"/>
<path d="M369.213 290.378V311.942L368.514 311.548L368.318 311.439L367.791 311.142V289.574L368.318 289.871L368.514 289.984L369.213 290.378Z" fill="#4C4C4C"/>
<path d="M368.375 289.927V311.495L367.848 311.198L366.953 310.691V289.127L367.848 289.631L368.375 289.927Z" fill="#F0F0F0"/>
<path d="M369.935 290.785V312.352L369.213 311.943L368.514 311.548V289.984L369.213 290.379L369.935 290.785Z" fill="#F0F0F0"/>
<path d="M369.936 312.352L371.049 311.724V291.413L369.936 290.784V312.352Z" fill="#8A8A8A"/>
<path d="M369.56 299.619C369.037 300.036 369.105 299.985 369.213 301.063C369.293 301.844 369.153 302.554 368.917 302.89C368.901 302.913 368.886 302.937 368.87 302.952H368.866C368.822 303.007 368.774 303.042 368.722 303.066C368.598 303.12 368.462 303.089 368.318 302.945C367.747 302.367 367.951 300.317 368.059 299.22C368.075 299.064 368.127 298.916 368.211 298.787C368.254 298.717 368.306 298.651 368.366 298.592C368.634 298.327 369.033 298.186 369.417 298.256C369.644 298.299 370.08 299.205 369.56 299.619Z" fill="#4C4C4C"/>
<path d="M368.917 302.89C368.901 302.913 368.886 302.936 368.87 302.952H368.866C368.826 302.975 368.774 303.014 368.722 303.065C368.598 303.12 368.462 303.089 368.318 302.944C367.747 302.367 367.951 300.317 368.059 299.22C368.075 299.064 368.127 298.916 368.211 298.787C368.235 298.678 368.294 298.611 368.366 298.592C368.586 298.525 368.949 298.892 368.969 299.7C368.989 300.688 369.105 302.519 368.917 302.89Z" fill="#8A8A8A"/>
<path d="M367.648 298.539C367.125 298.957 367.193 298.906 367.301 299.984C367.381 300.765 367.241 301.475 367.005 301.811C366.989 301.834 366.973 301.858 366.957 301.873H366.953C366.91 301.928 366.862 301.963 366.81 301.986C366.686 302.041 366.55 302.01 366.406 301.865C365.835 301.288 366.039 299.238 366.147 298.141C366.163 297.985 366.215 297.837 366.298 297.708C366.342 297.638 366.394 297.571 366.454 297.513C366.722 297.247 367.121 297.107 367.505 297.177C367.732 297.22 368.167 298.126 367.648 298.539Z" fill="#4C4C4C"/>
<path d="M367.005 301.81C366.989 301.834 366.973 301.857 366.957 301.873H366.953C366.913 301.896 366.862 301.935 366.81 301.986C366.686 302.041 366.55 302.01 366.406 301.865C365.835 301.287 366.039 299.238 366.147 298.141C366.163 297.985 366.215 297.837 366.298 297.708C366.322 297.598 366.382 297.532 366.454 297.513C366.674 297.446 367.037 297.813 367.057 298.621C367.077 299.609 367.193 301.44 367.005 301.81Z" fill="#8A8A8A"/>
<path opacity="0.3" d="M376.732 314.933V315.565L370.486 312.04V291.097L371.049 291.413V311.724L376.732 314.933Z" fill="white"/>
<path opacity="0.3" d="M366.896 309.383V310.017L362.033 307.272V286.327L362.615 286.655V306.966L366.896 309.383Z" fill="#8A8A8A"/>
<path opacity="0.7" d="M371.766 301.575C371.686 301.84 371.159 302.004 371.051 301.317V297.784C371.454 297.613 371.785 298.017 371.833 298.497C371.897 299.083 371.849 301.309 371.766 301.575Z" fill="#8A8A8A"/>
<path d="M369.875 315.297C373.068 315.297 373.475 313.348 373.475 313.348C373.475 313.348 372.705 317.427 372.706 317.441C372.72 317.871 372.437 318.303 371.857 318.631C370.724 319.27 368.887 319.27 367.754 318.631C367.184 318.309 366.901 317.888 366.904 317.466C366.904 317.452 366.136 313.326 366.136 313.326C366.136 313.326 366.682 315.297 369.875 315.297Z" fill="#4C4C4C"/>
<path d="M367.21 311.879C368.643 311.07 370.967 311.07 372.4 311.879C373.833 312.688 373.833 313.999 372.4 314.808C370.967 315.617 368.643 315.617 367.21 314.808C365.777 313.999 365.777 312.688 367.21 311.879ZM367.49 314.65C368.766 315.37 370.843 315.37 372.12 314.65C373.396 313.929 373.396 312.757 372.12 312.037C370.843 311.317 368.766 311.317 367.49 312.037C366.214 312.757 366.214 313.929 367.49 314.65Z" fill="#8A8A8A"/>
<path d="M369.805 311.23C372.402 311.23 373.139 312.743 373.077 313.4C373.034 313.853 372.734 314.305 372.12 314.651C370.843 315.371 368.766 315.371 367.489 314.651C366.843 314.286 366.532 313.806 366.532 313.326C366.531 312.787 367.208 311.23 369.805 311.23Z" fill="#77CB7B"/>
<path d="M369.855 310.533L369.934 310.641L369.888 310.739L369.577 310.672C367.232 310.83 366.396 309.12 366.396 309.12L366.442 309.022C367.236 308.61 368.186 308.438 369.855 310.533Z" fill="#77CB7B"/>
<path d="M372.398 305.327L372.523 305.415C372.523 305.415 372.715 308.058 369.753 309.448L369.423 309.739L369.298 309.651L369.317 309.466C369.866 305.794 371.142 305.362 372.398 305.327Z" fill="#77CB7B"/>
<path d="M367.28 305.354C369.576 307.474 370.171 310.491 370.303 312.428C370.303 312.428 370.321 312.51 370.324 312.598C370.377 312.674 370.349 312.764 370.239 312.826C370.092 312.909 369.853 312.909 369.706 312.826C369.612 312.773 369.579 312.7 369.603 312.632C369.578 312.571 369.56 312.495 369.553 312.396C369.471 311.131 368.834 307.783 366.772 305.88C366.624 305.743 366.617 305.514 366.757 305.369C366.897 305.224 367.131 305.217 367.28 305.354Z" fill="#55BE5A"/>
<path d="M364.084 305.612C364.084 305.612 364.128 305.471 364.236 305.268C364.549 304.68 365.189 304.477 365.853 304.455C365.581 304.075 365.618 303.624 366.481 303.188C367.483 302.681 367.939 303.075 368.127 303.619C368.749 303.165 369.424 302.89 369.936 303.23C370.018 303.284 370.051 303.272 370.051 303.272C370.051 303.272 369.974 303.36 370.075 303.38C370.081 303.839 369.675 304.293 369.361 304.504C369.875 304.523 370.359 304.7 370.359 304.7C370.359 304.7 370.482 304.889 370.17 305.285C369.717 305.844 369.171 306.189 368.592 306.123C368.501 306.659 368.081 306.978 367.141 307.142C366.299 307.244 366.236 306.936 366.236 306.936C366.236 306.936 366.271 306.954 366.275 306.857C365.634 307.321 364.9 307.45 364.394 307.093C364.253 306.991 364.194 306.927 364.161 306.854C364.028 306.557 364.44 306.389 364.926 306.05C364.747 306.048 364.587 306.03 364.458 305.991C364.24 305.929 364.084 305.612 364.084 305.612Z" fill="#00369A"/>
<path d="M367.267 304.682C367.913 304.492 367.953 304.878 367.813 305.066C367.373 305.655 365.432 307.824 364.348 307.062C363.263 306.299 366.62 304.873 367.267 304.682Z" fill="#0047CC"/>
<path d="M367.835 304.674C368.221 304.897 367.735 305.283 367.463 305.372C366.613 305.649 363.41 306.468 364.15 305.082C364.889 303.696 367.45 304.45 367.835 304.674Z" fill="#0047CC"/>
<path d="M366.394 303.001C368.27 302.052 368.234 304.26 368.099 304.701C367.964 305.142 367.349 305.246 367.154 305.179C366.546 304.967 364.518 303.95 366.394 303.001Z" fill="#0047CC"/>
<path d="M369.85 303.043C370.966 303.784 367.624 305.247 366.978 305.445C366.332 305.643 366.28 305.261 366.416 305.072C366.842 304.481 368.734 302.303 369.85 303.043Z" fill="#0047CC"/>
<path d="M367.296 304.487C368.141 304.324 371.251 303.95 370.146 305.316C369.042 306.681 367.01 305.474 366.74 305.174C366.47 304.875 367.026 304.539 367.296 304.487Z" fill="#0047CC"/>
<path d="M368.259 304.5C368.504 304.953 369.082 306.803 367.118 307.146C365.154 307.489 366.847 305.103 367.27 304.673C367.693 304.243 368.181 304.355 368.259 304.5Z" fill="#0047CC"/>
<path d="M366.751 304.347C367.418 304.022 368.136 304.054 368.353 304.419C368.571 304.785 368.206 305.344 367.539 305.669C366.872 305.994 366.155 305.962 365.937 305.597C365.72 305.232 366.084 304.672 366.751 304.347Z" fill="white"/>
<path d="M477.775 374.329L468.096 379.427V381L477.775 375.902V374.329Z" fill="#8A8A8A"/>
<path d="M458.679 364.272L450.493 368.584C449.569 369.071 449 369.97 449 370.943L468.095 381.001C468.095 380.028 468.664 379.128 469.588 378.642L477.774 374.33L458.679 364.272Z" fill="#E0E0E0"/>
<path d="M476.156 376.765V350.722L456.925 340.593V365.221L454.725 366.365L452.996 336.899L454.725 336L479 348.786V379.559L477.271 380.458L476.156 376.765Z" fill="#8A8A8A"/>
<path d="M474.427 377.664V351.621L455.197 341.491V366.12L452.996 367.264V336.898L477.271 349.685V380.457L473.197 378.312L474.427 377.664Z" fill="#E0E0E0"/>
<path d="M474.427 376.092L477.271 379.042V380.458L473.197 378.312L474.427 377.664V376.092Z" fill="#8A8A8A"/>
<path d="M456.4 342.126V365.494L474.428 374.99V351.621L456.4 342.126Z" fill="#F0F0F0"/>
<path d="M474.427 351.622V373.186L467.144 369.353L466.37 368.943L465.621 368.549L465.411 368.439L464.846 368.143L463.888 367.635L458.111 364.594V343.026L459.301 343.655L463.888 346.071L464.846 346.575L465.411 346.872L465.621 346.985L466.37 347.379L467.144 347.785L474.427 351.622Z" fill="#8A8A8A"/>
<path d="M474.427 351.622V371.933L474.225 371.827L467.144 368.095L466.369 367.689L465.621 367.295L465.411 367.182L464.846 366.885L463.888 366.381L459.301 363.965V343.654L463.888 346.071L464.846 346.574L465.411 346.871L465.621 346.984L466.369 347.378L467.144 347.784L474.427 351.622Z" fill="#B6CEFB"/>
<path opacity="0.3" d="M474.427 364.734V371.932L467.144 368.095L466.37 367.689L465.621 367.295L465.411 367.182L464.846 366.885L463.888 366.381L459.301 363.965L465.475 360.713C466.198 360.335 466.793 360.713 466.793 360.713L474.427 364.734Z" fill="#E0E0E0"/>
<path d="M466.371 347.378V368.942L465.622 368.548L465.412 368.439L464.848 368.142V346.574L465.412 346.871L465.622 346.984L466.371 347.378Z" fill="#4C4C4C"/>
<path d="M465.472 346.927V368.495L464.908 368.198L463.949 367.691V346.127L464.908 346.631L465.472 346.927Z" fill="#F0F0F0"/>
<path d="M467.144 347.785V369.352L466.37 368.943L465.621 368.548V346.984L466.37 347.379L467.144 347.785Z" fill="#F0F0F0"/>
<path d="M467.146 369.352L468.339 368.724V348.413L467.146 347.784V369.352Z" fill="#8A8A8A"/>
<path d="M466.743 356.619C466.183 357.036 466.255 356.985 466.371 358.063C466.456 358.844 466.307 359.554 466.054 359.89C466.037 359.913 466.02 359.937 466.003 359.952H465.998C465.951 360.007 465.9 360.042 465.844 360.066C465.712 360.12 465.566 360.089 465.412 359.945C464.8 359.367 465.019 357.317 465.134 356.22C465.151 356.064 465.207 355.916 465.297 355.787C465.344 355.717 465.399 355.651 465.464 355.592C465.75 355.327 466.178 355.186 466.589 355.256C466.833 355.299 467.299 356.205 466.743 356.619Z" fill="#4C4C4C"/>
<path d="M466.054 359.89C466.037 359.913 466.02 359.936 466.003 359.952H465.998C465.956 359.975 465.9 360.014 465.844 360.065C465.712 360.12 465.566 360.089 465.412 359.944C464.8 359.367 465.019 357.317 465.134 356.22C465.151 356.064 465.207 355.916 465.297 355.787C465.322 355.678 465.387 355.611 465.464 355.592C465.699 355.525 466.088 355.892 466.11 356.7C466.131 357.688 466.255 359.519 466.054 359.89Z" fill="#8A8A8A"/>
<path d="M464.694 355.539C464.134 355.957 464.206 355.906 464.322 356.984C464.408 357.765 464.258 358.475 464.005 358.811C463.988 358.834 463.971 358.858 463.954 358.873H463.95C463.903 358.928 463.851 358.963 463.796 358.986C463.663 359.041 463.518 359.01 463.363 358.865C462.752 358.288 462.97 356.238 463.085 355.141C463.102 354.985 463.158 354.837 463.248 354.708C463.295 354.638 463.351 354.571 463.415 354.513C463.701 354.247 464.129 354.107 464.54 354.177C464.784 354.22 465.25 355.126 464.694 355.539Z" fill="#4C4C4C"/>
<path d="M464.005 358.81C463.988 358.834 463.971 358.857 463.954 358.873H463.95C463.907 358.896 463.851 358.935 463.796 358.986C463.663 359.041 463.518 359.01 463.363 358.865C462.752 358.287 462.97 356.238 463.085 355.141C463.102 354.985 463.158 354.837 463.248 354.708C463.273 354.598 463.338 354.532 463.415 354.513C463.65 354.446 464.039 354.813 464.061 355.621C464.082 356.609 464.206 358.44 464.005 358.81Z" fill="#8A8A8A"/>
<path opacity="0.3" d="M474.428 371.933V372.565L467.736 369.04V348.097L468.34 348.413V368.724L474.428 371.933Z" fill="white"/>
<path opacity="0.3" d="M463.888 366.383V367.017L458.678 364.272V343.327L459.301 343.655V363.966L463.888 366.383Z" fill="#8A8A8A"/>
<path opacity="0.7" d="M469.106 358.575C469.02 358.84 468.455 359.004 468.34 358.317V354.784C468.772 354.613 469.127 355.017 469.178 355.497C469.247 356.083 469.196 358.309 469.106 358.575Z" fill="#8A8A8A"/>
<path d="M467.081 372.297C470.502 372.297 470.938 370.348 470.938 370.348C470.938 370.348 470.113 374.427 470.114 374.441C470.129 374.871 469.826 375.303 469.204 375.631C467.99 376.27 466.022 376.27 464.808 375.631C464.198 375.309 463.894 374.888 463.897 374.466C463.898 374.452 463.074 370.326 463.074 370.326C463.074 370.326 463.66 372.297 467.081 372.297Z" fill="#4C4C4C"/>
<path d="M464.226 368.879C465.761 368.07 468.251 368.07 469.786 368.879C471.321 369.688 471.321 370.999 469.786 371.808C468.251 372.617 465.761 372.617 464.226 371.808C462.69 370.999 462.69 369.688 464.226 368.879ZM464.525 371.65C465.893 372.37 468.118 372.37 469.486 371.65C470.853 370.929 470.853 369.757 469.486 369.037C468.118 368.317 465.893 368.317 464.525 369.037C463.158 369.757 463.158 370.929 464.525 371.65Z" fill="#8A8A8A"/>
<path d="M467.007 368.23C469.789 368.23 470.578 369.743 470.512 370.4C470.466 370.853 470.144 371.305 469.487 371.651C468.119 372.371 465.893 372.371 464.525 371.651C463.833 371.286 463.5 370.806 463.499 370.326C463.499 369.787 464.224 368.23 467.007 368.23Z" fill="#77CB7B"/>
<path d="M467.063 367.533L467.146 367.641L467.098 367.739L466.765 367.672C464.252 367.83 463.356 366.12 463.356 366.12L463.405 366.022C464.256 365.61 465.274 365.438 467.063 367.533Z" fill="#77CB7B"/>
<path d="M469.785 362.327L469.919 362.415C469.919 362.415 470.125 365.058 466.952 366.448L466.598 366.739L466.464 366.651L466.484 366.466C467.073 362.794 468.44 362.362 469.785 362.327Z" fill="#77CB7B"/>
<path d="M464.301 362.354C466.761 364.474 467.399 367.491 467.539 369.428C467.539 369.428 467.559 369.51 467.562 369.598C467.619 369.674 467.589 369.764 467.472 369.826C467.314 369.909 467.058 369.909 466.9 369.826C466.8 369.773 466.764 369.7 466.79 369.632C466.763 369.571 466.743 369.495 466.737 369.396C466.649 368.131 465.966 364.783 463.757 362.88C463.598 362.743 463.591 362.514 463.741 362.369C463.891 362.224 464.142 362.217 464.301 362.354Z" fill="#55BE5A"/>
<path d="M460.876 362.612C460.876 362.612 460.923 362.471 461.039 362.268C461.375 361.68 462.061 361.477 462.771 361.455C462.481 361.075 462.52 360.624 463.445 360.188C464.518 359.681 465.007 360.075 465.208 360.619C465.874 360.165 466.598 359.89 467.147 360.23C467.234 360.284 467.269 360.272 467.269 360.272C467.269 360.272 467.187 360.36 467.295 360.38C467.301 360.839 466.867 361.293 466.531 361.504C467.08 361.523 467.599 361.7 467.599 361.7C467.599 361.7 467.731 361.889 467.397 362.285C466.912 362.844 466.327 363.189 465.706 363.123C465.609 363.659 465.159 363.978 464.152 364.142C463.249 364.244 463.182 363.936 463.182 363.936C463.182 363.936 463.22 363.954 463.223 363.857C462.537 364.321 461.751 364.45 461.208 364.093C461.057 363.991 460.994 363.927 460.959 363.854C460.817 363.557 461.258 363.389 461.778 363.05C461.586 363.048 461.415 363.03 461.277 362.991C461.043 362.929 460.876 362.612 460.876 362.612Z" fill="#00369A"/>
<path d="M464.285 361.682C464.978 361.492 465.021 361.878 464.87 362.066C464.4 362.655 462.32 364.824 461.158 364.062C459.996 363.299 463.593 361.873 464.285 361.682Z" fill="#0047CC"/>
<path d="M464.896 361.674C465.309 361.897 464.788 362.283 464.497 362.372C463.585 362.649 460.154 363.468 460.946 362.082C461.738 360.696 464.483 361.45 464.896 361.674Z" fill="#0047CC"/>
<path d="M463.352 360.001C465.362 359.052 465.324 361.26 465.179 361.701C465.034 362.142 464.375 362.246 464.167 362.179C463.515 361.967 461.342 360.95 463.352 360.001Z" fill="#0047CC"/>
<path d="M467.054 360.043C468.25 360.784 464.67 362.247 463.978 362.445C463.286 362.643 463.23 362.261 463.375 362.072C463.831 361.481 465.859 359.303 467.054 360.043Z" fill="#0047CC"/>
<path d="M464.318 361.487C465.224 361.324 468.555 360.95 467.372 362.316C466.189 363.681 464.012 362.474 463.722 362.174C463.433 361.875 464.029 361.539 464.318 361.487Z" fill="#0047CC"/>
<path d="M465.349 361.5C465.611 361.953 466.231 363.803 464.126 364.146C462.022 364.489 463.836 362.103 464.289 361.673C464.743 361.243 465.265 361.355 465.349 361.5Z" fill="#0047CC"/>
<path d="M463.734 361.347C464.449 361.022 465.217 361.054 465.45 361.419C465.683 361.785 465.293 362.344 464.578 362.669C463.863 362.994 463.095 362.962 462.862 362.597C462.629 362.232 463.019 361.672 463.734 361.347Z" fill="white"/>
<path d="M70.1847 323.885L79.541 329.323V331L70.1847 325.562V323.885Z" fill="#8A8A8A"/>
<path d="M88.6437 313.157L96.5569 317.756C97.4499 318.275 98 319.235 98 320.273L79.5413 331.001C79.5413 329.963 78.9912 329.004 78.0982 328.485L70.185 323.886L88.6437 313.157Z" fill="#E0E0E0"/>
<path d="M71.7485 326.483V298.704L90.3384 287.899V314.169L92.4655 315.39L94.1367 283.959L92.4655 283L68.9998 296.639V329.463L70.6711 330.422L71.7485 326.483Z" fill="#8A8A8A"/>
<path d="M73.4199 327.442V299.663L92.0096 288.858V315.128L94.1367 316.349V283.959L70.6711 297.598V330.422L74.6088 328.133L73.4199 327.442Z" fill="#E0E0E0"/>
<path d="M73.4204 325.765L70.6716 328.912V330.422L74.6094 328.133L73.4204 327.442V325.765Z" fill="#8A8A8A"/>
<path d="M90.8457 289.535V314.461L73.4192 324.59V299.664L90.8457 289.535Z" fill="#F0F0F0"/>
<path d="M73.42 299.664V322.666L80.4598 318.577L81.2085 318.139L81.9324 317.719L82.135 317.602L82.681 317.286L83.6075 316.745L89.1914 313.501V290.495L88.0416 291.166L83.6075 293.743L82.681 294.28L82.135 294.597L81.9324 294.717L81.2085 295.138L80.4598 295.571L73.42 299.664Z" fill="#8A8A8A"/>
<path d="M73.4195 299.663V321.329L73.6139 321.216L80.4593 317.235L81.208 316.802L81.9319 316.382L82.1344 316.261L82.6804 315.945L83.6069 315.407L88.041 312.83V291.165L83.6069 293.742L82.6804 294.28L82.1344 294.596L81.9319 294.717L81.208 295.137L80.4593 295.57L73.4195 299.663Z" fill="#B6CEFB"/>
<path opacity="0.3" d="M73.4193 313.65V321.328L80.4592 317.235L81.2078 316.802L81.9317 316.382L82.1344 316.261L82.6804 315.944L83.6069 315.407L88.041 312.83L82.0725 309.361C81.3735 308.957 80.7984 309.361 80.7984 309.361L73.4193 313.65Z" fill="#E0E0E0"/>
<path d="M81.2092 295.137V318.139L81.9331 317.718L82.1356 317.602L82.6816 317.285V294.279L82.1356 294.596L81.9331 294.717L81.2092 295.137Z" fill="#4C4C4C"/>
<path d="M82.0763 294.655V317.661L82.6223 317.345L83.5488 316.803V293.802L82.6223 294.339L82.0763 294.655Z" fill="#F0F0F0"/>
<path d="M80.461 295.57V318.576L81.2097 318.139L81.9336 317.718V294.717L81.2097 295.137L80.461 295.57Z" fill="#F0F0F0"/>
<path d="M80.459 318.576L79.3059 317.906V296.241L80.459 295.57V318.576Z" fill="#8A8A8A"/>
<path d="M80.8482 304.993C81.3901 305.438 81.3198 305.384 81.2081 306.534C81.1253 307.366 81.2701 308.124 81.5142 308.482C81.5308 308.507 81.5472 308.532 81.5639 308.549H81.568C81.6135 308.607 81.6631 308.645 81.7169 308.67C81.8451 308.728 81.9857 308.695 82.1347 308.541C82.7261 307.924 82.5151 305.738 82.4036 304.568C82.3869 304.402 82.3332 304.243 82.2463 304.106C82.2009 304.031 82.1471 303.96 82.085 303.898C81.8079 303.615 81.3942 303.465 80.9971 303.54C80.7613 303.585 80.3105 304.551 80.8482 304.993Z" fill="#4C4C4C"/>
<path d="M81.5142 308.482C81.5308 308.507 81.5472 308.532 81.5639 308.549H81.568C81.6094 308.574 81.6631 308.615 81.7169 308.67C81.8451 308.728 81.9857 308.695 82.1347 308.541C82.7261 307.924 82.5151 305.738 82.4036 304.568C82.3869 304.402 82.3332 304.243 82.2463 304.106C82.2215 303.989 82.1594 303.919 82.085 303.898C81.8575 303.827 81.4811 304.218 81.4603 305.08C81.4397 306.134 81.3197 308.087 81.5142 308.482Z" fill="#8A8A8A"/>
<path d="M82.8287 303.842C83.3706 304.288 83.3003 304.234 83.1885 305.383C83.1058 306.216 83.2506 306.974 83.4946 307.332C83.5113 307.357 83.5278 307.382 83.5443 307.398H83.5485C83.5939 307.457 83.6436 307.494 83.6973 307.519C83.8255 307.578 83.9661 307.544 84.1151 307.39C84.7066 306.774 84.4956 304.588 84.384 303.418C84.3674 303.251 84.3137 303.093 84.2269 302.956C84.1813 302.881 84.1276 302.81 84.0655 302.747C83.7885 302.464 83.3748 302.314 82.9777 302.389C82.7418 302.435 82.2911 303.401 82.8287 303.842Z" fill="#4C4C4C"/>
<path d="M83.4946 307.332C83.5113 307.357 83.5278 307.382 83.5443 307.398H83.5485C83.5899 307.423 83.6436 307.465 83.6973 307.519C83.8255 307.578 83.9661 307.544 84.1151 307.39C84.7066 306.774 84.4956 304.588 84.384 303.418C84.3674 303.251 84.3137 303.093 84.2269 302.956C84.2021 302.839 84.14 302.768 84.0655 302.747C83.838 302.677 83.4617 303.068 83.4409 303.93C83.4202 304.983 83.3003 306.936 83.4946 307.332Z" fill="#8A8A8A"/>
<path opacity="0.3" d="M73.4197 321.328V322.003L79.8887 318.243V295.903L79.3055 296.241V317.906L73.4197 321.328Z" fill="white"/>
<path opacity="0.3" d="M83.6082 315.408V316.084L88.6445 313.157V290.815L88.0423 291.166V312.83L83.6082 315.408Z" fill="#8A8A8A"/>
<path opacity="0.7" d="M78.5643 307.079C78.647 307.362 79.193 307.537 79.3047 306.804V303.036C78.8869 302.853 78.5439 303.284 78.4942 303.797C78.4281 304.421 78.4775 306.796 78.5643 307.079Z" fill="#8A8A8A"/>
<path d="M80.5211 321.717C77.214 321.717 76.793 319.638 76.793 319.638C76.793 319.638 77.5896 323.988 77.5892 324.004C77.5742 324.462 77.8674 324.923 78.4687 325.272C79.6421 325.954 81.5448 325.954 82.7182 325.272C83.3081 324.929 83.6013 324.48 83.5983 324.031C83.5982 324.015 84.394 319.614 84.394 319.614C84.394 319.614 83.8281 321.717 80.5211 321.717Z" fill="#4C4C4C"/>
<path d="M83.2812 318.071C81.7969 317.208 79.3904 317.208 77.9064 318.071C76.4218 318.933 76.4218 320.332 77.9064 321.195C79.3904 322.058 81.7969 322.058 83.2812 321.195C84.7654 320.332 84.7654 318.933 83.2812 318.071ZM82.9913 321.026C81.6694 321.794 79.5184 321.794 78.1962 321.026C76.8744 320.258 76.8744 319.008 78.1962 318.239C79.5184 317.471 81.6693 317.471 82.9913 318.239C84.3131 319.008 84.3131 320.258 82.9913 321.026Z" fill="#8A8A8A"/>
<path d="M80.5933 317.379C77.9031 317.379 77.1407 318.992 77.2048 319.693C77.2491 320.177 77.56 320.658 78.195 321.027C79.5178 321.796 81.6695 321.796 82.9919 321.027C83.6614 320.638 83.9833 320.126 83.9835 319.614C83.9837 319.039 83.2834 317.379 80.5933 317.379Z" fill="#77CB7B"/>
<path d="M80.54 316.634L80.459 316.75L80.5063 316.854L80.828 316.783C83.257 316.952 84.1228 315.127 84.1228 315.127L84.0754 315.023C83.2533 314.583 82.2692 314.4 80.54 316.634Z" fill="#77CB7B"/>
<path d="M77.9072 311.081L77.778 311.175C77.778 311.175 77.5792 313.994 80.6467 315.476L80.9886 315.787L81.1178 315.693L81.0986 315.496C80.5294 311.579 79.208 311.118 77.9072 311.081Z" fill="#77CB7B"/>
<path d="M83.2087 311.111C80.8301 313.372 80.2141 316.59 80.078 318.657C80.078 318.657 80.0594 318.743 80.0563 318.837C80.0014 318.919 80.0302 319.015 80.1435 319.081C80.2961 319.169 80.5436 319.169 80.6962 319.081C80.793 319.025 80.8279 318.946 80.8021 318.874C80.8286 318.809 80.8475 318.728 80.8541 318.622C80.9391 317.273 81.5994 313.701 83.7346 311.672C83.8883 311.526 83.8953 311.282 83.7501 311.127C83.6049 310.972 83.3625 310.965 83.2087 311.111Z" fill="#55BE5A"/>
<path d="M86.5203 311.386C86.5203 311.386 86.4745 311.235 86.3623 311.019C86.0379 310.392 85.3749 310.176 84.688 310.152C84.9689 309.746 84.9312 309.265 84.0372 308.8C82.9994 308.259 82.5267 308.68 82.3327 309.26C81.6883 308.776 80.9889 308.483 80.4586 308.845C80.3739 308.903 80.34 308.89 80.34 308.89C80.34 308.89 80.4195 308.984 80.3152 309.005C80.309 309.495 80.7289 309.979 81.054 310.205C80.5225 310.225 80.0209 310.413 80.0209 310.413C80.0209 310.413 79.8933 310.614 80.2166 311.037C80.6856 311.634 81.2508 312.001 81.8509 311.931C81.9448 312.503 82.3803 312.842 83.3538 313.018C84.2261 313.127 84.291 312.798 84.291 312.798C84.291 312.798 84.2543 312.818 84.251 312.714C84.9142 313.209 85.6743 313.346 86.1992 312.966C86.345 312.857 86.4063 312.788 86.44 312.711C86.5774 312.394 86.1511 312.215 85.6477 311.854C85.8333 311.851 85.9988 311.832 86.1321 311.791C86.3585 311.724 86.5203 311.386 86.5203 311.386Z" fill="#00369A"/>
<path d="M83.224 310.394C82.5546 310.191 82.513 310.603 82.6584 310.803C83.1136 311.432 85.1239 313.745 86.2471 312.932C87.3704 312.118 83.8934 310.597 83.224 310.394Z" fill="#0047CC"/>
<path d="M82.6345 310.384C82.2353 310.623 82.7385 311.034 83.02 311.129C83.901 311.424 87.2177 312.298 86.4521 310.82C85.6863 309.341 83.0336 310.146 82.6345 310.384Z" fill="#0047CC"/>
<path d="M84.1261 308.601C82.1832 307.589 82.2203 309.944 82.3602 310.414C82.5001 310.885 83.1371 310.996 83.3385 310.924C83.9688 310.698 86.0689 309.612 84.1261 308.601Z" fill="#0047CC"/>
<path d="M80.5488 308.645C79.3929 309.435 82.8542 310.995 83.523 311.207C84.1921 311.418 84.2459 311.01 84.1051 310.809C83.6644 310.179 81.7046 307.856 80.5488 308.645Z" fill="#0047CC"/>
<path d="M83.193 310.185C82.3176 310.011 79.0971 309.613 80.2408 311.069C81.3846 312.525 83.4891 311.237 83.7689 310.918C84.0486 310.599 83.4726 310.24 83.193 310.185Z" fill="#0047CC"/>
<path d="M82.1959 310.199C81.9425 310.682 81.3432 312.656 83.3778 313.021C85.4123 313.387 83.6589 310.842 83.2204 310.383C82.7819 309.925 82.2768 310.045 82.1959 310.199Z" fill="#0047CC"/>
<path d="M83.7575 310.036C83.0666 309.689 82.3237 309.724 82.0984 310.113C81.873 310.502 82.2505 311.099 82.9414 311.446C83.6324 311.793 84.3752 311.758 84.6006 311.369C84.8259 310.979 84.4485 310.383 83.7575 310.036Z" fill="white"/>
<path d="M618.111 478.58V410.972L621 409.305V476.913L618.111 478.58Z" fill="#5A6357"/>
<path d="M621 409.315L524.555 353.632L521.666 355.299L618.112 410.983L621 409.315Z" fill="#707A6D"/>
<path d="M521.696 534.269L425.25 478.586V481.921L521.696 537.604V534.269Z" fill="#4C4C4C"/>
<path d="M521.695 534.269L618.141 478.586V481.921L521.695 537.604V534.269Z" fill="#BBBBBB"/>
<path d="M521.696 534.261L425.25 478.579L521.693 422.897L618.139 478.58L521.696 534.261Z" fill="white"/>
<path d="M435.148 484.293L434.115 483.697L530.558 428.016L531.591 428.612L435.148 484.293Z" fill="#F0F0F0"/>
<path d="M444.859 489.9L443.826 489.304L540.269 433.622L541.302 434.219L444.859 489.9Z" fill="#F0F0F0"/>
<path d="M454.568 495.505L453.535 494.908L549.978 439.227L551.011 439.823L454.568 495.505Z" fill="#F0F0F0"/>
<path d="M464.279 501.112L463.246 500.515L559.689 444.834L560.722 445.43L464.279 501.112Z" fill="#F0F0F0"/>
<path d="M473.988 506.718L472.955 506.121L569.398 450.44L570.431 451.036L473.988 506.718Z" fill="#F0F0F0"/>
<path d="M483.699 512.324L482.666 511.728L579.109 456.047L580.142 456.643L483.699 512.324Z" fill="#F0F0F0"/>
<path d="M493.408 517.93L492.375 517.333L588.818 461.652L589.851 462.249L493.408 517.93Z" fill="#F0F0F0"/>
<path d="M503.119 523.536L502.086 522.94L598.528 467.259L599.562 467.855L503.119 523.536Z" fill="#F0F0F0"/>
<path d="M512.83 529.143L511.797 528.547L608.24 472.865L609.273 473.462L512.83 529.143Z" fill="#F0F0F0"/>
<path d="M618.112 478.58L521.666 422.897V355.289L618.112 410.972V478.58Z" fill="#BECDBA"/>
<path d="M422.332 409.315L521.666 351.964L524.555 353.631L425.221 410.982L422.332 409.315Z" fill="#707A6D"/>
<path d="M425.221 478.579V410.971L422.332 409.304V476.912L425.221 478.579Z" fill="#4C4C4C"/>
<path d="M425.221 478.58L521.666 422.897V355.289L425.221 410.972V478.58Z" fill="#ACBBA8"/>
<path d="M475.939 427.107V397.012L495.811 385.307L496 437L497.5 438L499.871 381.039L498.085 380L473.001 394.775V451.043L474.787 451.877L475.939 427.107Z" fill="#8A8A8A"/>
<path d="M477.726 428.145V398.051L497.597 386.345V438.114L499.871 436.029L499.871 381.038L474.787 395.813V452.085L477.726 450V428.145Z" fill="#E0E0E0"/>
<path d="M496.352 387.079V437.906L477.723 451.251V398.052L496.352 387.079Z" fill="#F0F0F0"/>
<path d="M481.314 423.237C481.893 423.719 481.818 423.661 481.699 424.906C481.61 425.808 481.765 426.629 482.026 427.017C482.044 427.044 482.061 427.071 482.079 427.089H482.083C482.132 427.152 482.185 427.193 482.243 427.22C482.38 427.283 482.53 427.247 482.689 427.08C483.321 426.412 483.096 424.044 482.977 422.777C482.959 422.596 482.901 422.425 482.809 422.276C482.76 422.195 482.702 422.118 482.636 422.05C482.34 421.744 481.898 421.581 481.473 421.662C481.221 421.712 480.739 422.758 481.314 423.237Z" fill="#4C4C4C"/>
<path d="M482.026 427.017C482.044 427.044 482.061 427.071 482.079 427.089H482.083C482.128 427.117 482.185 427.162 482.243 427.22C482.38 427.284 482.53 427.247 482.689 427.08C483.321 426.413 483.096 424.045 482.977 422.777C482.959 422.597 482.901 422.425 482.809 422.276C482.782 422.15 482.716 422.073 482.636 422.051C482.393 421.974 481.991 422.398 481.968 423.332C481.946 424.473 481.818 426.589 482.026 427.017Z" fill="#8A8A8A"/>
<g clip-path="url(#clip4_12955_714040)">
<path d="M507.454 425.165C507.468 424.581 507.829 424.025 508.552 423.607C510.181 422.667 513.025 422.785 514.906 423.871C515.942 424.469 516.468 425.236 516.461 425.962H516.461V427.687C516.459 428.188 516.201 428.67 515.68 429.063L515.214 432.059C515.21 432.488 514.948 432.896 514.419 433.202C513.241 433.882 511.185 433.797 509.825 433.011C509.104 432.596 508.724 432.067 508.701 431.56L508.7 431.56L508.236 428.452C507.705 427.965 507.441 427.422 507.454 426.901H507.454V425.227C507.453 425.209 507.453 425.192 507.454 425.174V425.165H507.454Z" fill="#4C4C4C"/>
<path d="M507.758 425.227C507.758 425.209 507.758 425.192 507.758 425.174V425.165H507.758C507.772 424.581 508.134 424.025 508.857 423.607C510.485 422.667 513.33 422.785 515.21 423.871C516.246 424.469 516.773 425.236 516.765 425.962L516.766 425.962V427.687H516.765C516.763 428.282 516.401 428.85 515.666 429.274C514.038 430.214 511.193 430.096 509.313 429.011C508.268 428.407 507.741 427.632 507.758 426.901H507.758V425.227Z" fill="#8A8A8A"/>
<path d="M509.313 427.275C511.194 428.361 514.038 428.479 515.666 427.539C517.295 426.598 517.091 424.956 515.21 423.871C513.33 422.785 510.485 422.667 508.857 423.607C507.229 424.548 507.433 426.19 509.313 427.275Z" fill="#C6C6C6"/>
<path d="M509.865 426.958C511.394 427.841 513.706 427.937 515.03 427.172C516.354 426.408 516.188 425.073 514.659 424.19C513.13 423.307 510.818 423.212 509.494 423.976C508.17 424.74 508.336 426.076 509.865 426.958Z" fill="#4C4C4C"/>
<path d="M509.494 425.457C510.818 424.693 513.131 424.789 514.659 425.672C515.136 425.947 515.48 426.266 515.688 426.597C515.539 426.809 515.321 427.004 515.03 427.172C513.706 427.936 511.394 427.841 509.865 426.958C509.389 426.683 509.045 426.364 508.837 426.032C508.985 425.82 509.204 425.625 509.494 425.457Z" fill="#8A8A8A"/>
<path d="M514.859 420.203C513.992 423.299 514.211 427.077 513.952 427.181C513.658 427.3 512.716 427.243 512.521 426.545C512.521 426.545 513.051 422.633 513.898 419.702L514.859 420.203Z" fill="#55BE5A"/>
<path d="M509.853 417.216C510.72 420.311 510.982 426.359 511.241 426.463C511.535 426.581 512.478 426.525 512.672 425.827C512.672 425.827 511.595 420.056 510.979 416.715L509.853 417.216Z" fill="#2B9E31"/>
<path d="M505.063 421.17C505.983 421.069 506.72 421.117 506.496 420.472C506.272 419.828 504.723 419.748 503.721 420.2C503.607 420.252 503.494 420.311 503.383 420.374C503.045 419.38 502.889 418.238 503.085 416.961C503.42 414.779 505.304 412.948 507.061 413.514C508.818 414.08 509.155 416.275 509.155 416.275C509.155 416.275 510.538 414.538 512.343 414.92C514.117 415.295 514.847 417.74 514.119 419.778C513.895 419.349 513.554 418.782 513.13 418.36C512.349 417.585 510.87 417.118 510.435 417.643C509.999 418.168 510.707 418.382 511.533 418.799C512.237 419.154 513.242 419.805 513.547 420.987C513.284 421.431 512.985 421.825 512.663 422.174C512.547 421.931 512.412 421.687 512.255 421.471C511.61 420.58 510.226 419.879 509.711 420.327C509.196 420.775 509.86 421.099 510.608 421.645C511.007 421.935 511.504 422.36 511.846 422.934C509.614 424.719 506.866 424.874 506.866 424.874C506.866 424.874 504.978 423.647 503.841 421.446C504.274 421.284 504.708 421.209 505.063 421.17ZM509.295 423.347C509.837 423.644 510.064 423.439 509.933 423.048C509.829 422.734 509.546 422.396 509.335 422.175C509.145 421.976 508.906 421.827 508.64 421.759C508.453 421.711 508.258 421.7 508.167 421.818C507.967 422.081 508.752 423.051 509.295 423.347Z" fill="#55BE5A"/>
<path d="M514.001 416.651C515.673 415.869 517.414 417.248 517.414 417.248C517.414 417.248 517.245 415.034 518.827 414.084C520.382 413.152 522.581 414.445 523.435 416.434C522.979 416.272 522.343 416.089 521.745 416.069C520.646 416.033 519.245 416.697 519.283 417.378C519.321 418.06 519.985 417.734 520.874 417.477C521.632 417.258 522.811 417.051 523.839 417.709C523.949 418.214 523.998 418.705 524 419.18C523.749 419.081 523.484 418.995 523.222 418.943C522.143 418.729 520.652 419.158 520.58 419.836C520.508 420.515 521.215 420.301 522.134 420.191C522.624 420.133 523.277 420.105 523.919 420.293C523.499 423.12 521.591 425.104 521.591 425.104C521.591 425.104 516.255 426.034 513.435 421.882C512.195 420.056 512.329 417.432 514.001 416.651ZM515.795 422.157C516.09 422.306 516.898 421.355 517.09 420.767C517.281 420.179 517.038 419.994 516.677 420.195C516.388 420.356 516.108 420.696 515.93 420.944C515.769 421.167 515.668 421.43 515.65 421.704C515.637 421.897 515.662 422.09 515.795 422.157Z" fill="#2B9E31"/>
</g>
<path d="M423.164 591.533L326.719 535.85V539.185L423.164 594.868V591.533Z" fill="#F0F0F0"/>
<path d="M423.166 591.533L522 534.001V537.501L423.166 594.868V591.533Z" fill="#BBBBBB"/>
<path d="M423.166 591.526L326.721 535.843L424.999 478L521.999 534L423.166 591.526Z" fill="white"/>
<path d="M336.619 541.558L335.586 540.961L434.498 483.5L435.531 484.096L336.619 541.558Z" fill="#F0F0F0"/>
<path d="M346.33 547.164L345.297 546.568L444.499 489L445.532 489.596L346.33 547.164Z" fill="#F0F0F0"/>
<path d="M356.039 552.77L355.006 552.174L453.998 494.5L455.031 495.096L356.039 552.77Z" fill="#F0F0F0"/>
<path d="M368.498 556.5L367.465 555.904L463.908 500.223L464.941 500.819L368.498 556.5Z" fill="#F0F0F0"/>
<path d="M375.459 563.983L374.426 563.387L473.464 505.904L474.497 506.5L375.459 563.983Z" fill="#F0F0F0"/>
<path d="M385.17 569.589L384.137 568.992L483.465 511.404L484.498 512L385.17 569.589Z" fill="#F0F0F0"/>
<path d="M394.879 575.196L393.846 574.599L492.997 517L494.03 517.596L394.879 575.196Z" fill="#F0F0F0"/>
<path d="M404.59 580.801L403.557 580.205L502.498 522.5L503.531 523.096L404.59 580.801Z" fill="#F0F0F0"/>
<path d="M414.301 586.408L413.268 585.812L512.466 528.404L513.499 529L414.301 586.408Z" fill="#F0F0F0"/>
<path d="M323.803 466.579L423.137 409.229L426.026 410.896L326.691 468.247L323.803 466.579Z" fill="#707A6D"/>
<path d="M326.691 535.845V468.237L323.803 466.569V534.178L326.691 535.845Z" fill="#5A6357"/>
<path d="M326.691 535.845L426.499 477.609V410.001L326.691 468.237V535.845Z" fill="#ACBBA8"/>
<path d="M384.009 453.312L384.006 453.309C384.004 453.307 384.002 453.306 383.999 453.304L383.576 453.011L383.576 453.011C383.559 452.996 383.534 452.996 383.506 453.015C383.454 453.051 383.412 453.139 383.412 453.212C383.412 453.244 383.421 453.267 383.435 453.28L383.435 453.281L383.436 453.282C383.438 453.284 383.441 453.286 383.444 453.287L383.868 453.58L383.868 453.579C383.885 453.594 383.909 453.595 383.937 453.575C383.989 453.539 384.031 453.451 384.031 453.379C384.031 453.348 384.022 453.326 384.009 453.313L384.009 453.312Z" fill="#4C4C4C"/>
<path d="M375.156 464.46L375.311 464.628L383.849 453.575L392.388 455.222L392.542 454.883L383.849 453.207L375.156 464.46Z" fill="#E0E0E0"/>
<path d="M384.03 453.047C383.859 453.156 383.721 453.422 383.721 453.641C383.721 453.859 383.859 453.948 384.03 453.838C384.201 453.729 384.339 453.463 384.339 453.245C384.339 453.026 384.201 452.938 384.03 453.047Z" fill="white"/>
<path d="M375.111 478.182L392.037 468.858V454.412L375.111 463.735V478.182Z" fill="#F0F0F0"/>
<path d="M384.665 462.994C384.101 463.305 383.643 464.061 383.643 464.684C383.643 465.306 384.101 465.559 384.665 465.247C385.23 464.936 385.688 464.179 385.688 463.557C385.688 462.935 385.23 462.682 384.665 462.994Z" fill="#C6C6C6"/>
<path d="M375.707 476.672L383.724 472.256L385.546 468.766L382.187 464.481L375.707 476.672Z" fill="#E0E0E0"/>
<path d="M385.547 468.766L386.908 470.502L391.076 468.207L387.801 464.448L385.547 468.766Z" fill="#C6C6C6"/>
<path d="M383.725 472.256L386.908 470.503L385.546 468.767L383.725 472.256Z" fill="#C6C6C6"/>
<path d="M374 463.504L375.016 464.08L391.187 455.173V455.431C391.626 455.214 392.06 455.029 392.582 454.895C392.707 454.863 392.83 454.826 392.952 454.787L393 453.917L392.203 453.478L374 463.504Z" fill="#4C4C4C"/>
<path d="M374 478.56L374.797 478.999L375.016 476.865V464.08L374 463.504V478.56Z" fill="#333333"/>
<path d="M391.188 467.958L392.203 468.534L392.934 455.142C392.295 455.307 391.748 455.526 391.188 455.799V467.958Z" fill="#C6C6C6"/>
<path d="M375.016 476.866L374.797 479L392.203 468.534L391.187 467.958L375.016 476.866Z" fill="#E0E0E0"/>
<path d="M374.797 479L393 468.973V453.917L374.797 463.944V479ZM375.813 464.52L391.984 455.612V468.398L375.813 477.305V464.52Z" fill="#8A8A8A"/>
<path d="M583.775 433.329L574.096 438.427V440L583.775 434.902V433.329Z" fill="#8A8A8A"/>
<path d="M564.679 423.272L556.493 427.584C555.569 428.071 555 428.97 555 429.943L574.095 440.001C574.095 439.028 574.664 438.128 575.588 437.642L583.774 433.33L564.679 423.272Z" fill="#E0E0E0"/>
<path d="M582.156 435.765V409.722L562.925 399.593V424.221L560.725 425.365L558.996 395.899L560.725 395L585 407.786V438.559L583.271 439.458L582.156 435.765Z" fill="#8A8A8A"/>
<path d="M580.427 436.664V410.621L561.197 400.491V425.12L558.996 426.264V395.898L583.271 408.685V439.457L579.197 437.312L580.427 436.664Z" fill="#E0E0E0"/>
<path d="M580.427 435.092L583.271 438.042V439.458L579.197 437.312L580.427 436.664V435.092Z" fill="#8A8A8A"/>
<path d="M562.4 401.126V424.494L580.428 433.99V410.621L562.4 401.126Z" fill="#F0F0F0"/>
<path d="M580.427 410.622V432.186L573.144 428.353L572.37 427.943L571.621 427.549L571.411 427.439L570.846 427.143L569.888 426.635L564.111 423.594V402.026L565.301 402.655L569.888 405.071L570.846 405.575L571.411 405.872L571.621 405.985L572.37 406.379L573.144 406.785L580.427 410.622Z" fill="#8A8A8A"/>
<path d="M580.427 410.622V430.933L580.225 430.827L573.144 427.095L572.369 426.689L571.621 426.295L571.411 426.182L570.846 425.885L569.888 425.381L565.301 422.965V402.654L569.888 405.071L570.846 405.574L571.411 405.871L571.621 405.984L572.369 406.378L573.144 406.784L580.427 410.622Z" fill="#B6CEFB"/>
<path opacity="0.3" d="M580.427 423.734V430.932L573.144 427.095L572.37 426.689L571.621 426.295L571.411 426.182L570.846 425.885L569.888 425.381L565.301 422.965L571.475 419.713C572.198 419.335 572.793 419.713 572.793 419.713L580.427 423.734Z" fill="#E0E0E0"/>
<path d="M572.371 406.378V427.942L571.622 427.548L571.412 427.439L570.848 427.142V405.574L571.412 405.871L571.622 405.984L572.371 406.378Z" fill="#4C4C4C"/>
<path d="M571.472 405.927V427.495L570.908 427.198L569.949 426.691V405.127L570.908 405.631L571.472 405.927Z" fill="#F0F0F0"/>
<path d="M573.144 406.785V428.352L572.37 427.943L571.621 427.548V405.984L572.37 406.379L573.144 406.785Z" fill="#F0F0F0"/>
<path d="M573.146 428.352L574.339 427.724V407.413L573.146 406.784V428.352Z" fill="#8A8A8A"/>
<path d="M572.743 415.619C572.183 416.036 572.255 415.985 572.371 417.063C572.456 417.844 572.307 418.554 572.054 418.89C572.037 418.913 572.02 418.937 572.003 418.952H571.998C571.951 419.007 571.9 419.042 571.844 419.066C571.712 419.12 571.566 419.089 571.412 418.945C570.8 418.367 571.019 416.317 571.134 415.22C571.151 415.064 571.207 414.916 571.297 414.787C571.344 414.717 571.399 414.651 571.464 414.592C571.75 414.327 572.178 414.186 572.589 414.256C572.833 414.299 573.299 415.205 572.743 415.619Z" fill="#4C4C4C"/>
<path d="M572.054 418.89C572.037 418.913 572.02 418.936 572.003 418.952H571.998C571.956 418.975 571.9 419.014 571.844 419.065C571.712 419.12 571.566 419.089 571.412 418.944C570.8 418.367 571.019 416.317 571.134 415.22C571.151 415.064 571.207 414.916 571.297 414.787C571.322 414.678 571.387 414.611 571.464 414.592C571.699 414.525 572.088 414.892 572.11 415.7C572.131 416.688 572.255 418.519 572.054 418.89Z" fill="#8A8A8A"/>
<path d="M570.694 414.539C570.134 414.957 570.206 414.906 570.322 415.984C570.408 416.765 570.258 417.475 570.005 417.811C569.988 417.834 569.971 417.858 569.954 417.873H569.95C569.903 417.928 569.851 417.963 569.796 417.986C569.663 418.041 569.518 418.01 569.363 417.865C568.752 417.288 568.97 415.238 569.085 414.141C569.102 413.985 569.158 413.837 569.248 413.708C569.295 413.638 569.351 413.571 569.415 413.513C569.701 413.247 570.129 413.107 570.54 413.177C570.784 413.22 571.25 414.126 570.694 414.539Z" fill="#4C4C4C"/>
<path d="M570.005 417.81C569.988 417.834 569.971 417.857 569.954 417.873H569.95C569.907 417.896 569.851 417.935 569.796 417.986C569.663 418.041 569.518 418.01 569.363 417.865C568.752 417.287 568.97 415.238 569.085 414.141C569.102 413.985 569.158 413.837 569.248 413.708C569.273 413.598 569.338 413.532 569.415 413.513C569.65 413.446 570.039 413.813 570.061 414.621C570.082 415.609 570.206 417.44 570.005 417.81Z" fill="#8A8A8A"/>
<path opacity="0.3" d="M580.428 430.933V431.565L573.736 428.04V407.097L574.34 407.413V427.724L580.428 430.933Z" fill="white"/>
<path opacity="0.3" d="M569.888 425.383V426.017L564.678 423.272V402.327L565.301 402.655V422.966L569.888 425.383Z" fill="#8A8A8A"/>
<path opacity="0.7" d="M575.106 417.575C575.02 417.84 574.455 418.004 574.34 417.317V413.784C574.772 413.613 575.127 414.017 575.178 414.497C575.247 415.083 575.196 417.309 575.106 417.575Z" fill="#8A8A8A"/>
<path d="M573.081 431.297C576.502 431.297 576.938 429.348 576.938 429.348C576.938 429.348 576.113 433.427 576.114 433.441C576.129 433.871 575.826 434.303 575.204 434.631C573.99 435.27 572.022 435.27 570.808 434.631C570.198 434.309 569.894 433.888 569.897 433.466C569.898 433.452 569.074 429.326 569.074 429.326C569.074 429.326 569.66 431.297 573.081 431.297Z" fill="#4C4C4C"/>
<path d="M570.226 427.879C571.761 427.07 574.251 427.07 575.786 427.879C577.321 428.688 577.321 429.999 575.786 430.808C574.251 431.617 571.761 431.617 570.226 430.808C568.69 429.999 568.69 428.688 570.226 427.879ZM570.525 430.65C571.893 431.37 574.118 431.37 575.486 430.65C576.853 429.929 576.853 428.757 575.486 428.037C574.118 427.317 571.893 427.317 570.525 428.037C569.158 428.757 569.158 429.929 570.525 430.65Z" fill="#8A8A8A"/>
<path d="M573.007 427.23C575.789 427.23 576.578 428.743 576.512 429.4C576.466 429.853 576.144 430.305 575.487 430.651C574.119 431.371 571.893 431.371 570.525 430.651C569.833 430.286 569.5 429.806 569.499 429.326C569.499 428.787 570.224 427.23 573.007 427.23Z" fill="#77CB7B"/>
<path d="M573.063 426.533L573.146 426.641L573.098 426.739L572.765 426.672C570.252 426.83 569.356 425.12 569.356 425.12L569.405 425.022C570.256 424.61 571.274 424.438 573.063 426.533Z" fill="#77CB7B"/>
<path d="M575.785 421.327L575.919 421.415C575.919 421.415 576.125 424.058 572.952 425.448L572.598 425.739L572.464 425.651L572.484 425.466C573.073 421.794 574.44 421.362 575.785 421.327Z" fill="#77CB7B"/>
<path d="M570.301 421.354C572.761 423.474 573.399 426.491 573.539 428.428C573.539 428.428 573.559 428.51 573.562 428.598C573.619 428.674 573.589 428.764 573.472 428.826C573.314 428.909 573.058 428.909 572.9 428.826C572.8 428.773 572.764 428.7 572.79 428.632C572.763 428.571 572.743 428.495 572.737 428.396C572.649 427.131 571.966 423.783 569.757 421.88C569.598 421.743 569.591 421.514 569.741 421.369C569.891 421.224 570.142 421.217 570.301 421.354Z" fill="#55BE5A"/>
<path d="M566.876 421.612C566.876 421.612 566.923 421.471 567.039 421.268C567.375 420.68 568.061 420.477 568.771 420.455C568.481 420.075 568.52 419.624 569.445 419.188C570.518 418.681 571.007 419.075 571.208 419.619C571.874 419.165 572.598 418.89 573.147 419.23C573.234 419.284 573.269 419.272 573.269 419.272C573.269 419.272 573.187 419.36 573.295 419.38C573.301 419.839 572.867 420.293 572.531 420.504C573.08 420.523 573.599 420.7 573.599 420.7C573.599 420.7 573.731 420.889 573.397 421.285C572.912 421.844 572.327 422.189 571.706 422.123C571.609 422.659 571.159 422.978 570.152 423.142C569.249 423.244 569.182 422.936 569.182 422.936C569.182 422.936 569.22 422.954 569.223 422.857C568.537 423.321 567.751 423.45 567.208 423.093C567.057 422.991 566.994 422.927 566.959 422.854C566.817 422.557 567.258 422.389 567.778 422.05C567.586 422.048 567.415 422.03 567.277 421.991C567.043 421.929 566.876 421.612 566.876 421.612Z" fill="#00369A"/>
<path d="M570.285 420.682C570.978 420.492 571.021 420.878 570.87 421.066C570.4 421.655 568.32 423.824 567.158 423.062C565.996 422.299 569.593 420.873 570.285 420.682Z" fill="#0047CC"/>
<path d="M570.896 420.674C571.309 420.897 570.788 421.283 570.497 421.372C569.585 421.649 566.154 422.468 566.946 421.082C567.738 419.696 570.483 420.45 570.896 420.674Z" fill="#0047CC"/>
<path d="M569.352 419.001C571.362 418.052 571.324 420.26 571.179 420.701C571.034 421.142 570.375 421.246 570.167 421.179C569.515 420.967 567.342 419.95 569.352 419.001Z" fill="#0047CC"/>
<path d="M573.054 419.043C574.25 419.784 570.67 421.247 569.978 421.445C569.286 421.643 569.23 421.261 569.375 421.072C569.831 420.481 571.859 418.303 573.054 419.043Z" fill="#0047CC"/>
<path d="M570.318 420.487C571.224 420.324 574.555 419.95 573.372 421.316C572.189 422.681 570.012 421.474 569.722 421.174C569.433 420.875 570.029 420.539 570.318 420.487Z" fill="#0047CC"/>
<path d="M571.349 420.5C571.611 420.953 572.231 422.803 570.126 423.146C568.022 423.489 569.836 421.103 570.289 420.673C570.743 420.243 571.265 420.355 571.349 420.5Z" fill="#0047CC"/>
<path d="M569.734 420.347C570.449 420.022 571.217 420.054 571.45 420.419C571.683 420.785 571.293 421.344 570.578 421.669C569.863 421.994 569.095 421.962 568.862 421.597C568.629 421.232 569.019 420.672 569.734 420.347Z" fill="white"/>
<defs>
<clipPath id="clip0_12955_714040">
<rect width="21" height="21" fill="white" transform="matrix(-1 0 0 1 331 302)"/>
</clipPath>
<clipPath id="clip1_12955_714040">
<rect width="21" height="21" fill="white" transform="matrix(-1 0 0 1 428 358)"/>
</clipPath>
<clipPath id="clip2_12955_714040">
<rect width="21" height="21" fill="white" transform="matrix(-1 0 0 1 232 359)"/>
</clipPath>
<clipPath id="clip3_12955_714040">
<rect width="21" height="21" fill="white" transform="translate(328 421)"/>
</clipPath>
<clipPath id="clip4_12955_714040">
<rect width="21" height="21" fill="white" transform="matrix(-1 0 0 1 524 413)"/>
</clipPath>
</defs>
</svg>
