<svg width="654" height="674" viewBox="0 0 654 674" fill="none" xmlns="http://www.w3.org/2000/svg">
<path d="M384.357 335.159V254.446L387.806 252.455V333.169L384.357 335.159Z" fill="#8A8A8A"/>
<path d="M387.806 252.468L272.665 185.991L269.217 187.982L384.358 254.459L387.806 252.468Z" fill="#707A6D"/>
<path d="M269.25 401.642L154.109 335.165V339.147L269.25 405.624V401.642Z" fill="#4C4C4C"/>
<path d="M269.25 401.642L384.391 335.165V339.147L269.25 405.624V401.642Z" fill="#8A8A8A"/>
<path d="M269.252 401.635L154.111 335.159L269.249 268.685L384.39 335.161L269.252 401.635Z" fill="white"/>
<path d="M165.928 341.981L164.695 341.269L279.832 274.795L281.066 275.507L165.928 341.981Z" fill="#F0F0F0"/>
<path d="M177.52 348.673L176.287 347.961L291.425 281.486L292.658 282.198L177.52 348.673Z" fill="#F0F0F0"/>
<path d="M189.114 355.367L187.881 354.655L303.019 288.18L304.252 288.892L189.114 355.367Z" fill="#F0F0F0"/>
<path d="M200.706 362.06L199.473 361.347L314.61 294.873L315.844 295.585L200.706 362.06Z" fill="#F0F0F0"/>
<path d="M212.298 368.752L211.064 368.04L326.202 301.565L327.435 302.277L212.298 368.752Z" fill="#F0F0F0"/>
<path d="M223.892 375.445L222.658 374.733L337.796 308.259L339.029 308.971L223.892 375.445Z" fill="#F0F0F0"/>
<path d="M235.483 382.138L234.25 381.426L349.388 314.951L350.621 315.663L235.483 382.138Z" fill="#F0F0F0"/>
<path d="M247.075 388.831L245.842 388.119L360.979 321.645L362.212 322.356L247.075 388.831Z" fill="#F0F0F0"/>
<path d="M258.667 395.524L257.434 394.813L372.571 328.338L373.805 329.05L258.667 395.524Z" fill="#F0F0F0"/>
<path d="M384.358 335.159L269.217 268.682V187.969L384.358 254.445V335.159Z" fill="#BECDBA"/>
<path d="M150.627 252.468L269.216 184L272.665 185.991L154.076 254.458L150.627 252.468Z" fill="#707A6D"/>
<path d="M154.076 335.159V254.446L150.627 252.455V333.169L154.076 335.159Z" fill="#4C4C4C"/>
<path d="M154.076 335.159L269.217 268.682V187.969L154.076 254.445V335.159Z" fill="#ACBBA8"/>
<path d="M229.063 235.359L229.059 235.357C229.056 235.355 229.054 235.353 229.051 235.351L228.583 235.013L228.583 235.013C228.564 234.995 228.537 234.995 228.506 235.018C228.449 235.059 228.402 235.161 228.402 235.244C228.402 235.282 228.412 235.309 228.428 235.324L228.427 235.324L228.429 235.325C228.431 235.327 228.434 235.329 228.437 235.331L228.906 235.67L228.906 235.669C228.925 235.686 228.952 235.686 228.983 235.664C229.04 235.622 229.086 235.521 229.086 235.437C229.086 235.401 229.076 235.376 229.062 235.361L229.063 235.359Z" fill="#4C4C4C"/>
<path d="M219.279 248.224L219.45 248.417L228.887 235.664L238.325 237.564L238.496 237.174L228.887 235.239L219.279 248.224Z" fill="#E0E0E0"/>
<path d="M229.086 235.054C228.897 235.18 228.744 235.487 228.744 235.739C228.744 235.991 228.897 236.094 229.086 235.967C229.275 235.841 229.428 235.535 229.428 235.282C229.428 235.03 229.275 234.928 229.086 235.054Z" fill="white"/>
<path d="M219.229 264.056L237.936 253.299V236.63L219.229 247.387V264.056Z" fill="#F0F0F0"/>
<path d="M229.789 246.531C229.164 246.89 228.658 247.763 228.658 248.481C228.658 249.199 229.164 249.49 229.789 249.131C230.413 248.772 230.919 247.899 230.919 247.181C230.919 246.463 230.413 246.172 229.789 246.531Z" fill="#C6C6C6"/>
<path d="M219.887 262.314L228.747 257.218L230.761 253.192L227.049 248.248L219.887 262.314Z" fill="#E0E0E0"/>
<path d="M230.762 253.191L232.266 255.195L236.873 252.546L233.253 248.209L230.762 253.191Z" fill="#C6C6C6"/>
<path d="M228.748 257.218L232.266 255.195L230.762 253.191L228.748 257.218Z" fill="#C6C6C6"/>
<path d="M218 247.121L219.123 247.786L236.996 237.508V237.805C237.482 237.556 237.961 237.342 238.538 237.187C238.676 237.15 238.812 237.108 238.947 237.063L239 236.058L238.119 235.552L218 247.121Z" fill="#4C4C4C"/>
<path d="M218 264.494L218.881 265L219.123 262.538V247.785L218 247.121V264.494Z" fill="#333333"/>
<path d="M236.996 252.26L238.119 252.924L238.926 237.472C238.221 237.663 237.616 237.915 236.996 238.23V252.26Z" fill="#C6C6C6"/>
<path d="M219.123 262.538L218.881 265L238.119 252.924L236.996 252.26L219.123 262.538Z" fill="#E0E0E0"/>
<path d="M218.881 265L239 253.43V236.058L218.881 247.627V265ZM220.004 248.291L237.877 238.013V252.766L220.004 263.044V248.291Z" fill="#8A8A8A"/>
<path d="M266.73 403.524V322.81L270.179 320.819V401.533L266.73 403.524Z" fill="#8A8A8A"/>
<path d="M270.179 320.832L155.038 254.355L151.59 256.346L266.731 322.823L270.179 320.832Z" fill="#707A6D"/>
<path d="M151.623 470.006L36.4824 403.529V407.511L151.623 473.988V470.006Z" fill="#F0F0F0"/>
<path d="M151.623 470.006L266.764 403.529V407.511L151.623 473.988V470.006Z" fill="#8A8A8A"/>
<path d="M151.625 469.999L36.4844 403.522L151.622 337.048L266.763 403.524L151.625 469.999Z" fill="white"/>
<path d="M48.3012 410.346L47.0684 409.634L162.206 343.159L163.439 343.871L48.3012 410.346Z" fill="#F0F0F0"/>
<path d="M59.8935 417.038L58.6602 416.326L173.798 349.852L175.031 350.564L59.8935 417.038Z" fill="#F0F0F0"/>
<path d="M71.4853 423.731L70.252 423.019L185.39 356.544L186.623 357.256L71.4853 423.731Z" fill="#F0F0F0"/>
<path d="M83.079 430.424L81.8457 429.712L196.983 363.237L198.217 363.949L83.079 430.424Z" fill="#F0F0F0"/>
<path d="M94.6708 437.117L93.4375 436.405L208.575 369.931L209.808 370.642L94.6708 437.117Z" fill="#F0F0F0"/>
<path d="M106.265 443.809L105.031 443.097L220.169 376.623L221.402 377.335L106.265 443.809Z" fill="#F0F0F0"/>
<path d="M117.856 450.502L116.623 449.79L231.761 383.315L232.994 384.028L117.856 450.502Z" fill="#F0F0F0"/>
<path d="M129.448 457.196L128.215 456.484L243.352 390.01L244.585 390.721L129.448 457.196Z" fill="#F0F0F0"/>
<path d="M141.04 463.889L139.807 463.177L254.944 396.702L256.178 397.414L141.04 463.889Z" fill="#F0F0F0"/>
<path d="M266.731 403.524L151.59 337.048V256.334L266.731 322.81V403.524Z" fill="#BECDBA"/>
<path d="M33 320.832L151.589 252.364L155.038 254.355L36.4486 322.823L33 320.832Z" fill="#707A6D"/>
<path d="M36.4486 403.524V322.81L33 320.819V401.533L36.4486 403.524Z" fill="#5A6357"/>
<path d="M36.4492 403.524L151.59 337.048V256.334L36.4492 322.81V403.524Z" fill="#ACBBA8"/>
<path d="M195.937 305.359L195.941 305.357C195.944 305.355 195.946 305.353 195.949 305.351L196.417 305.013L196.417 305.013C196.436 304.995 196.463 304.995 196.494 305.018C196.551 305.059 196.598 305.161 196.598 305.244C196.598 305.282 196.588 305.309 196.572 305.324L196.573 305.324L196.571 305.325C196.569 305.327 196.566 305.329 196.563 305.331L196.094 305.67L196.094 305.669C196.075 305.686 196.048 305.686 196.017 305.664C195.96 305.622 195.914 305.521 195.914 305.437C195.914 305.401 195.924 305.376 195.938 305.361L195.937 305.359Z" fill="#4C4C4C"/>
<path d="M205.721 318.224L205.55 318.417L196.113 305.664L186.675 307.564L186.504 307.174L196.113 305.239L205.721 318.224Z" fill="#E0E0E0"/>
<path d="M195.914 305.054C196.103 305.18 196.256 305.487 196.256 305.739C196.256 305.991 196.103 306.094 195.914 305.967C195.725 305.841 195.572 305.535 195.572 305.282C195.572 305.03 195.725 304.928 195.914 305.054Z" fill="white"/>
<path d="M205.771 334.056L187.064 323.299V306.63L205.771 317.387V334.056Z" fill="#F0F0F0"/>
<path d="M195.211 316.531C195.836 316.89 196.342 317.763 196.342 318.481C196.342 319.199 195.836 319.49 195.211 319.131C194.587 318.772 194.081 317.899 194.081 317.181C194.081 316.463 194.587 316.172 195.211 316.531Z" fill="#C6C6C6"/>
<path d="M205.113 332.314L196.253 327.218L194.239 323.192L197.951 318.248L205.113 332.314Z" fill="#E0E0E0"/>
<path d="M194.238 323.191L192.734 325.195L188.127 322.546L191.747 318.209L194.238 323.191Z" fill="#C6C6C6"/>
<path d="M196.252 327.218L192.734 325.195L194.238 323.191L196.252 327.218Z" fill="#C6C6C6"/>
<path d="M207 317.121L205.877 317.786L188.004 307.508V307.805C187.518 307.556 187.039 307.342 186.462 307.187C186.324 307.15 186.188 307.108 186.053 307.063L186 306.058L186.881 305.552L207 317.121Z" fill="#4C4C4C"/>
<path d="M207 334.494L206.119 335L205.877 332.538V317.785L207 317.121V334.494Z" fill="#333333"/>
<path d="M188.004 322.26L186.881 322.924L186.074 307.472C186.779 307.663 187.384 307.915 188.004 308.23V322.26Z" fill="#C6C6C6"/>
<path d="M205.877 332.538L206.119 335L186.881 322.924L188.004 322.26L205.877 332.538Z" fill="#E0E0E0"/>
<path d="M206.119 335L186 323.43V306.058L206.119 317.627V335ZM204.996 318.291L187.123 308.013V322.766L204.996 333.044V318.291Z" fill="#8A8A8A"/>
<path d="M501.053 402.56V321.846L504.501 319.855V400.569L501.053 402.56Z" fill="#8A8A8A"/>
<path d="M504.502 319.869L389.361 253.392L385.912 255.382L501.053 321.859L504.502 319.869Z" fill="#707A6D"/>
<path d="M385.946 469.043L270.805 402.566V406.548L385.946 473.025V469.043Z" fill="#4C4C4C"/>
<path d="M385.945 469.043L501.086 402.566V406.548L385.945 473.025V469.043Z" fill="#8A8A8A"/>
<path d="M385.948 469.035L270.807 402.558L385.944 336.084L501.085 402.56L385.948 469.035Z" fill="white"/>
<path d="M282.623 409.381L281.391 408.669L396.528 342.194L397.761 342.906L282.623 409.381Z" fill="#F0F0F0"/>
<path d="M294.216 416.074L292.982 415.363L408.12 348.888L409.353 349.6L294.216 416.074Z" fill="#F0F0F0"/>
<path d="M305.808 422.766L304.574 422.054L419.712 355.579L420.945 356.291L305.808 422.766Z" fill="#F0F0F0"/>
<path d="M317.401 429.459L316.168 428.747L431.306 362.272L432.539 362.985L317.401 429.459Z" fill="#F0F0F0"/>
<path d="M328.993 436.152L327.76 435.44L442.897 368.966L444.13 369.677L328.993 436.152Z" fill="#F0F0F0"/>
<path d="M340.585 442.846L339.352 442.134L454.489 375.659L455.723 376.371L340.585 442.846Z" fill="#F0F0F0"/>
<path d="M352.179 449.538L350.945 448.825L466.083 382.351L467.316 383.063L352.179 449.538Z" fill="#F0F0F0"/>
<path d="M363.77 456.23L362.537 455.518L477.674 389.044L478.908 389.755L363.77 456.23Z" fill="#F0F0F0"/>
<path d="M375.362 462.924L374.129 462.212L489.267 395.737L490.5 396.449L375.362 462.924Z" fill="#F0F0F0"/>
<path d="M501.053 402.56L385.912 336.084V255.37L501.053 321.847V402.56Z" fill="#BECDBA"/>
<path d="M267.322 319.868L385.912 251.4L389.36 253.391L270.771 321.859L267.322 319.868Z" fill="#707A6D"/>
<path d="M270.771 402.56V321.846L267.322 319.855V400.569L270.771 402.56Z" fill="#4C4C4C"/>
<path d="M270.771 402.56L385.912 336.084V255.37L270.771 321.847V402.56Z" fill="#ACBBA8"/>
<path d="M320.222 349.636V316.648L342.017 303.818L342.225 360.481L343.87 361.577L346.471 299.139L344.511 298L317 314.196V375.874L318.959 376.788L320.222 349.636Z" fill="#8A8A8A"/>
<path d="M322.182 350.775V317.787L343.977 304.956V361.703L346.471 359.417L346.471 299.139L318.959 315.335V377.017L322.182 374.731V350.775Z" fill="#E0E0E0"/>
<path d="M342.613 305.76V361.474L322.182 376.102V317.787L342.613 305.76Z" fill="#F0F0F0"/>
<path d="M326.118 345.395C326.754 345.924 326.671 345.86 326.54 347.224C326.443 348.213 326.613 349.113 326.899 349.539C326.919 349.568 326.938 349.598 326.957 349.618H326.962C327.015 349.687 327.074 349.731 327.137 349.761C327.287 349.83 327.452 349.791 327.626 349.608C328.32 348.876 328.073 346.28 327.942 344.891C327.922 344.693 327.859 344.505 327.757 344.342C327.704 344.253 327.641 344.169 327.568 344.094C327.243 343.758 326.758 343.58 326.293 343.669C326.016 343.723 325.488 344.871 326.118 345.395Z" fill="#4C4C4C"/>
<path d="M326.899 349.538C326.919 349.567 326.938 349.597 326.957 349.617H326.962C327.011 349.646 327.074 349.696 327.137 349.76C327.287 349.829 327.452 349.79 327.626 349.607C328.32 348.875 328.073 346.279 327.942 344.89C327.922 344.692 327.859 344.504 327.757 344.341C327.728 344.202 327.656 344.118 327.568 344.094C327.302 344.01 326.86 344.474 326.836 345.498C326.812 346.749 326.671 349.068 326.899 349.538Z" fill="#8A8A8A"/>
<g clip-path="url(#clip0_12955_714044)">
<path d="M355.879 350.324C355.894 349.684 356.29 349.075 357.082 348.618C358.866 347.588 361.981 347.717 364.041 348.906C365.175 349.562 365.752 350.402 365.744 351.197H365.744V353.086C365.742 353.635 365.459 354.163 364.889 354.593L364.378 357.875C364.374 358.344 364.088 358.791 363.508 359.126C362.218 359.871 359.965 359.778 358.476 358.918C357.687 358.462 357.271 357.883 357.246 357.328L357.244 357.328L356.736 353.924C356.155 353.39 355.866 352.796 355.879 352.225H355.879V350.392C355.879 350.373 355.879 350.353 355.879 350.334V350.324H355.879Z" fill="#4C4C4C"/>
<path d="M356.213 350.392C356.213 350.372 356.213 350.353 356.213 350.334V350.324H356.213C356.228 349.684 356.624 349.075 357.416 348.618C359.2 347.588 362.315 347.717 364.374 348.906C365.509 349.562 366.086 350.402 366.078 351.196L366.078 351.197V353.086H366.078C366.075 353.738 365.679 354.359 364.874 354.824C363.09 355.854 359.975 355.725 357.916 354.536C356.771 353.875 356.194 353.026 356.213 352.225H356.213V350.392Z" fill="#8A8A8A"/>
<path d="M357.914 352.635C359.973 353.824 363.089 353.954 364.872 352.924C366.656 351.894 366.432 350.095 364.373 348.906C362.313 347.717 359.198 347.588 357.414 348.618C355.631 349.648 355.855 351.446 357.914 352.635Z" fill="#C6C6C6"/>
<path d="M358.518 352.287C360.193 353.254 362.725 353.359 364.175 352.522C365.625 351.685 365.443 350.222 363.769 349.256C362.095 348.289 359.562 348.184 358.112 349.021C356.662 349.858 356.844 351.321 358.518 352.287Z" fill="#4C4C4C"/>
<path d="M358.113 350.644C359.563 349.807 362.096 349.912 363.77 350.879C364.292 351.18 364.669 351.529 364.896 351.893C364.734 352.125 364.495 352.339 364.177 352.522C362.727 353.359 360.194 353.254 358.52 352.288C357.998 351.986 357.621 351.637 357.393 351.273C357.556 351.042 357.795 350.828 358.113 350.644Z" fill="#8A8A8A"/>
<path d="M363.99 344.889C363.04 348.279 363.28 352.418 362.997 352.531C362.675 352.661 361.642 352.599 361.429 351.835C361.429 351.835 362.009 347.549 362.937 344.34L363.99 344.889Z" fill="#55BE5A"/>
<path d="M358.506 341.617C359.456 345.007 359.743 351.631 360.026 351.745C360.349 351.875 361.381 351.813 361.594 351.048C361.594 351.048 360.414 344.728 359.739 341.068L358.506 341.617Z" fill="#2B9E31"/>
<path d="M353.259 345.948C354.267 345.837 355.075 345.89 354.829 345.184C354.584 344.478 352.887 344.39 351.79 344.886C351.665 344.943 351.541 345.007 351.42 345.077C351.049 343.988 350.879 342.736 351.094 341.338C351.46 338.949 353.524 336.943 355.448 337.563C357.372 338.183 357.741 340.587 357.741 340.587C357.741 340.587 359.256 338.685 361.234 339.103C363.177 339.514 363.976 342.191 363.178 344.424C362.933 343.953 362.559 343.333 362.095 342.871C361.24 342.022 359.62 341.51 359.143 342.085C358.666 342.661 359.441 342.894 360.346 343.351C361.117 343.74 362.218 344.453 362.552 345.747C362.263 346.234 361.936 346.666 361.584 347.048C361.457 346.781 361.308 346.515 361.136 346.277C360.43 345.301 358.915 344.534 358.351 345.025C357.787 345.515 358.514 345.871 359.333 346.468C359.77 346.786 360.314 347.251 360.689 347.88C358.244 349.835 355.234 350.005 355.234 350.005C355.234 350.005 353.167 348.661 351.921 346.25C352.396 346.072 352.871 345.991 353.259 345.948ZM357.894 348.333C358.488 348.658 358.737 348.433 358.594 348.005C358.479 347.661 358.169 347.291 357.939 347.049C357.731 346.831 357.469 346.668 357.177 346.593C356.972 346.541 356.759 346.529 356.66 346.658C356.44 346.946 357.3 348.008 357.894 348.333Z" fill="#55BE5A"/>
<path d="M363.049 340.999C364.88 340.143 366.787 341.652 366.787 341.652C366.787 341.652 366.601 339.228 368.335 338.188C370.038 337.166 372.445 338.583 373.382 340.762C372.882 340.584 372.185 340.384 371.531 340.362C370.327 340.322 368.792 341.049 368.834 341.796C368.876 342.542 369.603 342.185 370.576 341.904C371.406 341.664 372.698 341.437 373.824 342.158C373.944 342.711 373.998 343.249 374 343.769C373.725 343.66 373.435 343.566 373.148 343.509C371.966 343.275 370.334 343.745 370.254 344.488C370.175 345.231 370.95 344.997 371.957 344.877C372.493 344.813 373.208 344.783 373.911 344.988C373.451 348.084 371.362 350.258 371.362 350.258C371.362 350.258 365.517 351.276 362.429 346.729C361.071 344.729 361.217 341.854 363.049 340.999ZM365.014 347.03C365.337 347.193 366.222 346.151 366.432 345.507C366.641 344.864 366.375 344.661 365.98 344.88C365.663 345.056 365.357 345.43 365.162 345.701C364.986 345.945 364.874 346.233 364.854 346.533C364.841 346.745 364.868 346.956 365.014 347.03Z" fill="#2B9E31"/>
</g>
<path d="M383.426 470.924V390.21L386.874 388.22V468.933L383.426 470.924Z" fill="#8A8A8A"/>
<path d="M386.875 388.233L271.734 321.756L268.285 323.747L383.427 390.224L386.875 388.233Z" fill="#707A6D"/>
<path d="M268.319 537.407L150.5 469.019V473L268.319 541.389V537.407Z" fill="#F0F0F0"/>
<path d="M268.318 537.407L383.459 470.93V474.912L268.318 541.388V537.407Z" fill="#8A8A8A"/>
<path d="M268.321 537.4L153.18 470.924L268.317 404.449L383.458 470.926L268.321 537.4Z" fill="white"/>
<path d="M164.996 477.746L163.764 477.034L278.901 410.56L280.134 411.272L164.996 477.746Z" fill="#F0F0F0"/>
<path d="M176.589 484.439L175.355 483.728L290.493 417.253L291.726 417.965L176.589 484.439Z" fill="#F0F0F0"/>
<path d="M188.181 491.132L186.947 490.42L302.085 423.945L303.318 424.657L188.181 491.132Z" fill="#F0F0F0"/>
<path d="M199.774 497.825L198.541 497.112L313.679 430.638L314.912 431.35L199.774 497.825Z" fill="#F0F0F0"/>
<path d="M211.366 504.518L210.133 503.805L325.27 437.331L326.503 438.043L211.366 504.518Z" fill="#F0F0F0"/>
<path d="M222.96 511.211L221.727 510.499L336.864 444.024L338.098 444.736L222.96 511.211Z" fill="#F0F0F0"/>
<path d="M234.552 517.905L233.318 517.192L348.456 450.718L349.689 451.43L234.552 517.905Z" fill="#F0F0F0"/>
<path d="M246.143 524.597L244.91 523.885L360.047 457.41L361.281 458.122L246.143 524.597Z" fill="#F0F0F0"/>
<path d="M257.735 531.289L256.502 530.577L371.64 464.103L372.873 464.815L257.735 531.289Z" fill="#F0F0F0"/>
<path d="M383.426 470.924L268.285 404.448V323.734L383.426 390.211V470.924Z" fill="#BECDBA"/>
<path d="M149.695 388.232L268.285 319.765L271.733 321.755L153.144 390.223L149.695 388.232Z" fill="#707A6D"/>
<path d="M153.144 470.925V390.211L149.695 388.221V468.934L153.144 470.925Z" fill="#5A6357"/>
<path d="M153.145 470.924L268.285 404.448V323.734L153.145 390.211V470.924Z" fill="#ACBBA8"/>
<g clip-path="url(#clip1_12955_714044)">
<path d="M235.879 420.324C235.894 419.684 236.29 419.075 237.082 418.618C238.866 417.588 241.981 417.717 244.041 418.906C245.175 419.562 245.752 420.402 245.744 421.197H245.744V423.086C245.742 423.635 245.459 424.163 244.889 424.593L244.378 427.875C244.374 428.344 244.088 428.791 243.508 429.126C242.218 429.871 239.965 429.778 238.476 428.918C237.687 428.462 237.271 427.883 237.246 427.328L237.244 427.328L236.736 423.924C236.155 423.39 235.866 422.796 235.879 422.225H235.879V420.392C235.879 420.373 235.879 420.353 235.879 420.334V420.324H235.879Z" fill="#4C4C4C"/>
<path d="M236.213 420.392C236.213 420.372 236.213 420.353 236.213 420.334V420.324H236.213C236.228 419.684 236.624 419.075 237.416 418.618C239.2 417.588 242.315 417.717 244.374 418.906C245.509 419.562 246.086 420.402 246.078 421.196L246.078 421.197V423.086H246.078C246.075 423.738 245.679 424.359 244.874 424.824C243.09 425.854 239.975 425.725 237.916 424.536C236.771 423.875 236.194 423.026 236.213 422.225H236.213V420.392Z" fill="#8A8A8A"/>
<path d="M237.914 422.635C239.973 423.824 243.089 423.954 244.872 422.924C246.656 421.894 246.432 420.095 244.373 418.906C242.313 417.717 239.198 417.588 237.414 418.618C235.631 419.648 235.855 421.446 237.914 422.635Z" fill="#C6C6C6"/>
<path d="M238.518 422.287C240.193 423.254 242.725 423.359 244.175 422.522C245.625 421.685 245.443 420.222 243.769 419.256C242.095 418.289 239.562 418.184 238.112 419.021C236.662 419.858 236.844 421.321 238.518 422.287Z" fill="#4C4C4C"/>
<path d="M238.113 420.644C239.563 419.807 242.096 419.912 243.77 420.879C244.292 421.18 244.669 421.529 244.896 421.893C244.734 422.125 244.495 422.339 244.177 422.522C242.727 423.359 240.194 423.254 238.52 422.288C237.998 421.986 237.621 421.637 237.393 421.273C237.556 421.042 237.795 420.828 238.113 420.644Z" fill="#8A8A8A"/>
<path d="M243.99 414.889C243.04 418.279 243.28 422.418 242.997 422.531C242.675 422.661 241.642 422.599 241.429 421.835C241.429 421.835 242.009 417.549 242.937 414.34L243.99 414.889Z" fill="#55BE5A"/>
<path d="M238.506 411.617C239.456 415.007 239.743 421.631 240.026 421.745C240.349 421.875 241.381 421.813 241.594 421.048C241.594 421.048 240.414 414.728 239.739 411.068L238.506 411.617Z" fill="#2B9E31"/>
<path d="M233.259 415.948C234.267 415.837 235.075 415.89 234.829 415.184C234.584 414.478 232.887 414.39 231.79 414.886C231.665 414.943 231.541 415.007 231.42 415.077C231.049 413.988 230.879 412.736 231.094 411.338C231.46 408.949 233.524 406.943 235.448 407.563C237.372 408.183 237.741 410.587 237.741 410.587C237.741 410.587 239.256 408.685 241.234 409.103C243.177 409.514 243.976 412.191 243.178 414.424C242.933 413.953 242.559 413.333 242.095 412.871C241.24 412.022 239.62 411.51 239.143 412.085C238.666 412.661 239.441 412.894 240.346 413.351C241.117 413.74 242.218 414.453 242.552 415.747C242.263 416.234 241.936 416.666 241.584 417.048C241.457 416.781 241.308 416.515 241.136 416.277C240.43 415.301 238.915 414.534 238.351 415.025C237.787 415.515 238.514 415.871 239.333 416.468C239.77 416.786 240.314 417.251 240.689 417.88C238.244 419.835 235.234 420.005 235.234 420.005C235.234 420.005 233.167 418.661 231.921 416.25C232.396 416.072 232.871 415.991 233.259 415.948ZM237.894 418.333C238.488 418.658 238.737 418.433 238.594 418.005C238.479 417.661 238.169 417.291 237.939 417.049C237.731 416.831 237.469 416.668 237.177 416.593C236.972 416.541 236.759 416.529 236.66 416.658C236.44 416.946 237.3 418.008 237.894 418.333Z" fill="#55BE5A"/>
<path d="M243.049 410.999C244.88 410.143 246.787 411.652 246.787 411.652C246.787 411.652 246.601 409.228 248.335 408.188C250.038 407.166 252.445 408.583 253.382 410.762C252.882 410.584 252.185 410.384 251.531 410.362C250.327 410.322 248.792 411.049 248.834 411.796C248.876 412.542 249.603 412.185 250.576 411.904C251.406 411.664 252.698 411.437 253.824 412.158C253.944 412.711 253.998 413.249 254 413.769C253.725 413.66 253.435 413.566 253.148 413.509C251.966 413.275 250.334 413.745 250.254 414.488C250.175 415.231 250.95 414.997 251.957 414.877C252.493 414.813 253.208 414.783 253.911 414.988C253.451 418.084 251.362 420.258 251.362 420.258C251.362 420.258 245.517 421.276 242.429 416.729C241.071 414.729 241.217 411.854 243.049 410.999ZM245.014 417.03C245.337 417.193 246.222 416.151 246.432 415.507C246.641 414.864 246.375 414.661 245.98 414.88C245.663 415.056 245.357 415.43 245.162 415.701C244.986 415.945 244.874 416.233 244.854 416.533C244.841 416.745 244.868 416.956 245.014 417.03Z" fill="#2B9E31"/>
</g>
<path d="M325.778 412.636V379.648L303.983 366.818L303.775 423.481L302.13 424.577L299.529 362.139L301.489 361L329 377.196V438.874L327.041 439.788L325.778 412.636Z" fill="#8A8A8A"/>
<path d="M323.818 413.775V380.787L302.023 367.956V424.703L299.529 422.417L299.529 362.139L327.041 378.335V440.017L323.818 437.731V413.775Z" fill="#E0E0E0"/>
<path d="M303.387 368.76V424.474L323.818 439.102V380.787L303.387 368.76Z" fill="#F0F0F0"/>
<path d="M319.882 408.395C319.246 408.924 319.329 408.86 319.46 410.224C319.557 411.213 319.387 412.113 319.101 412.539C319.081 412.568 319.062 412.598 319.043 412.618H319.038C318.985 412.687 318.926 412.731 318.863 412.761C318.713 412.83 318.548 412.791 318.374 412.608C317.68 411.876 317.927 409.28 318.058 407.891C318.078 407.693 318.141 407.505 318.243 407.342C318.296 407.253 318.359 407.169 318.432 407.094C318.757 406.758 319.242 406.58 319.707 406.669C319.984 406.723 320.512 407.871 319.882 408.395Z" fill="#4C4C4C"/>
<path d="M319.101 412.538C319.081 412.567 319.062 412.597 319.043 412.617H319.038C318.989 412.646 318.926 412.696 318.863 412.76C318.713 412.829 318.548 412.79 318.374 412.607C317.68 411.875 317.927 409.279 318.058 407.89C318.078 407.692 318.141 407.504 318.243 407.341C318.272 407.202 318.344 407.118 318.432 407.094C318.698 407.01 319.14 407.474 319.164 408.498C319.188 409.749 319.329 412.068 319.101 412.538Z" fill="#8A8A8A"/>
<path d="M202.222 418.636V385.648L224.017 372.818L224.225 429.481L225.87 430.577L228.471 368.139L226.511 367L199 383.196V444.874L200.959 445.788L202.222 418.636Z" fill="#8A8A8A"/>
<path d="M204.182 419.775V386.787L225.977 373.956V430.703L228.471 428.417L228.471 368.139L200.959 384.335V446.017L204.182 443.731V419.775Z" fill="#E0E0E0"/>
<path d="M224.613 374.76V430.474L204.182 445.102V386.787L224.613 374.76Z" fill="#F0F0F0"/>
<path d="M208.118 414.395C208.754 414.924 208.671 414.86 208.54 416.224C208.443 417.213 208.613 418.113 208.899 418.539C208.919 418.568 208.938 418.598 208.957 418.618H208.962C209.015 418.687 209.074 418.731 209.137 418.761C209.287 418.83 209.452 418.791 209.626 418.608C210.32 417.876 210.073 415.28 209.942 413.891C209.922 413.693 209.859 413.505 209.757 413.342C209.704 413.253 209.641 413.169 209.568 413.094C209.243 412.758 208.758 412.58 208.293 412.669C208.016 412.723 207.488 413.871 208.118 414.395Z" fill="#4C4C4C"/>
<path d="M208.899 418.538C208.919 418.567 208.938 418.597 208.957 418.617H208.962C209.011 418.646 209.074 418.696 209.137 418.76C209.287 418.829 209.452 418.79 209.626 418.607C210.32 417.875 210.073 415.279 209.942 413.89C209.922 413.692 209.859 413.504 209.757 413.341C209.728 413.202 209.656 413.118 209.568 413.094C209.302 413.01 208.86 413.474 208.836 414.498C208.812 415.749 208.671 418.068 208.899 418.538Z" fill="#8A8A8A"/>
<path d="M330.61 277.402L319.641 283.973V286L330.61 279.429V277.402Z" fill="#8A8A8A"/>
<path d="M308.969 264.439L299.692 269.997C298.645 270.624 298 271.783 298 273.037L319.641 286.001C319.641 284.746 320.286 283.587 321.333 282.96L330.611 277.403L308.969 264.439Z" fill="#E0E0E0"/>
<path d="M328.778 280.542V246.975L306.983 233.92V265.663L304.489 267.138L302.529 229.159L304.489 228L332 244.48V284.143L330.041 285.302L328.778 280.542Z" fill="#8A8A8A"/>
<path d="M326.818 281.7V248.134L305.023 235.078V266.821L302.529 268.296V229.158L330.041 245.638V285.301L325.424 282.535L326.818 281.7Z" fill="#E0E0E0"/>
<path d="M326.818 279.675L330.041 283.478V285.302L325.424 282.537L326.818 281.702V279.675Z" fill="#8A8A8A"/>
<path d="M306.387 235.896V266.016L326.818 278.254V248.135L306.387 235.896Z" fill="#F0F0F0"/>
<path d="M326.817 248.135V275.928L318.563 270.988L317.685 270.459L316.837 269.951L316.599 269.81L315.959 269.428L314.873 268.774L308.326 264.854V237.056L309.674 237.866L314.873 240.98L315.959 241.629L316.599 242.012L316.837 242.158L317.685 242.666L318.563 243.189L326.817 248.135Z" fill="#8A8A8A"/>
<path d="M326.818 248.134V274.313L326.59 274.177L318.565 269.367L317.687 268.844L316.838 268.335L316.601 268.189L315.961 267.807L314.874 267.158L309.676 264.044V237.865L314.874 240.98L315.961 241.629L316.601 242.011L316.838 242.157L317.687 242.665L318.565 243.188L326.818 248.134Z" fill="#B6CEFB"/>
<path opacity="0.3" d="M326.819 265.035V274.313L318.565 269.367L317.687 268.844L316.838 268.336L316.601 268.19L315.961 267.807L314.874 267.158L309.676 264.044L316.673 259.853C317.493 259.365 318.167 259.853 318.167 259.853L326.819 265.035Z" fill="#E0E0E0"/>
<path d="M317.687 242.665V270.459L316.839 269.951L316.601 269.81L315.961 269.427V241.629L316.601 242.011L316.839 242.157L317.687 242.665Z" fill="#4C4C4C"/>
<path d="M316.67 242.083V269.882L316.03 269.499L314.943 268.845V241.052L316.03 241.701L316.67 242.083Z" fill="#F0F0F0"/>
<path d="M318.564 243.19V270.988L317.687 270.46L316.838 269.952V242.158L317.687 242.666L318.564 243.19Z" fill="#F0F0F0"/>
<path d="M318.564 270.987L319.916 270.177V243.999L318.564 243.188V270.987Z" fill="#8A8A8A"/>
<path d="M318.108 254.575C317.473 255.113 317.555 255.048 317.686 256.437C317.783 257.443 317.614 258.359 317.328 258.791C317.308 258.821 317.289 258.852 317.269 258.872H317.264C317.211 258.942 317.153 258.987 317.09 259.018C316.94 259.088 316.775 259.048 316.6 258.862C315.907 258.117 316.154 255.476 316.285 254.062C316.304 253.861 316.367 253.669 316.469 253.503C316.522 253.413 316.586 253.327 316.658 253.252C316.983 252.91 317.468 252.728 317.934 252.819C318.21 252.874 318.739 254.042 318.108 254.575Z" fill="#4C4C4C"/>
<path d="M317.328 258.792C317.308 258.822 317.289 258.852 317.269 258.872H317.264C317.216 258.902 317.153 258.953 317.09 259.018C316.94 259.088 316.775 259.048 316.6 258.862C315.907 258.117 316.154 255.476 316.285 254.062C316.304 253.861 316.367 253.67 316.469 253.504C316.498 253.363 316.571 253.277 316.658 253.252C316.925 253.166 317.366 253.639 317.391 254.681C317.415 255.954 317.555 258.313 317.328 258.792Z" fill="#8A8A8A"/>
<path d="M315.786 253.184C315.151 253.723 315.233 253.657 315.364 255.046C315.461 256.052 315.291 256.968 315.005 257.401C314.986 257.431 314.966 257.461 314.947 257.481H314.942C314.889 257.552 314.831 257.597 314.768 257.627C314.617 257.698 314.452 257.657 314.278 257.471C313.584 256.727 313.832 254.085 313.963 252.671C313.982 252.47 314.045 252.279 314.147 252.113C314.2 252.022 314.263 251.937 314.336 251.861C314.661 251.519 315.146 251.338 315.611 251.428C315.888 251.484 316.416 252.651 315.786 253.184Z" fill="#4C4C4C"/>
<path d="M315.005 257.401C314.986 257.431 314.966 257.461 314.947 257.481H314.942C314.894 257.512 314.831 257.562 314.768 257.627C314.617 257.698 314.452 257.658 314.278 257.471C313.584 256.727 313.832 254.085 313.963 252.671C313.982 252.47 314.045 252.279 314.147 252.113C314.176 251.972 314.249 251.887 314.336 251.861C314.603 251.776 315.044 252.249 315.068 253.29C315.093 254.563 315.233 256.923 315.005 257.401Z" fill="#8A8A8A"/>
<path opacity="0.3" d="M326.819 274.314V275.129L319.234 270.585V243.592L319.918 243.999V270.178L326.819 274.314Z" fill="white"/>
<path opacity="0.3" d="M314.873 267.159V267.976L308.969 264.44V237.443L309.675 237.867V264.045L314.873 267.159Z" fill="#8A8A8A"/>
<path opacity="0.7" d="M320.786 257.096C320.689 257.439 320.049 257.65 319.918 256.764V252.211C320.408 251.99 320.81 252.511 320.868 253.13C320.946 253.885 320.888 256.754 320.786 257.096Z" fill="#8A8A8A"/>
<path d="M318.492 274.782C322.37 274.782 322.863 272.27 322.863 272.27C322.863 272.27 321.929 277.526 321.93 277.545C321.947 278.099 321.604 278.656 320.899 279.078C319.523 279.902 317.292 279.902 315.916 279.078C315.225 278.664 314.881 278.12 314.885 277.578C314.885 277.559 313.952 272.241 313.952 272.241C313.952 272.241 314.615 274.782 318.492 274.782Z" fill="#4C4C4C"/>
<path d="M315.256 270.376C316.997 269.334 319.818 269.334 321.558 270.376C323.298 271.419 323.298 273.109 321.558 274.151C319.818 275.194 316.997 275.194 315.256 274.151C313.516 273.109 313.516 271.419 315.256 270.376ZM315.596 273.948C317.146 274.876 319.668 274.876 321.218 273.948C322.768 273.019 322.768 271.509 321.218 270.58C319.668 269.652 317.146 269.652 315.596 270.58C314.047 271.509 314.047 273.019 315.596 273.948Z" fill="#8A8A8A"/>
<path d="M318.408 269.541C321.562 269.541 322.456 271.49 322.38 272.338C322.329 272.922 321.964 273.504 321.22 273.95C319.669 274.878 317.146 274.878 315.596 273.95C314.811 273.479 314.433 272.86 314.433 272.242C314.433 271.547 315.254 269.541 318.408 269.541Z" fill="#77CB7B"/>
<path d="M318.47 268.642L318.564 268.781L318.509 268.907L318.132 268.821C315.284 269.025 314.269 266.821 314.269 266.821L314.324 266.694C315.288 266.163 316.442 265.942 318.47 268.642Z" fill="#77CB7B"/>
<path d="M321.556 261.932L321.708 262.045C321.708 262.045 321.941 265.451 318.345 267.243L317.944 267.618L317.792 267.504L317.815 267.267C318.482 262.534 320.031 261.976 321.556 261.932Z" fill="#77CB7B"/>
<path d="M315.341 261.968C318.129 264.7 318.852 268.588 319.011 271.085C319.011 271.085 319.033 271.19 319.037 271.304C319.101 271.402 319.067 271.518 318.935 271.598C318.756 271.705 318.465 271.705 318.286 271.598C318.173 271.53 318.132 271.435 318.162 271.348C318.131 271.27 318.109 271.171 318.101 271.044C318.002 269.413 317.228 265.097 314.724 262.645C314.544 262.469 314.536 262.174 314.706 261.987C314.876 261.8 315.16 261.791 315.341 261.968Z" fill="#55BE5A"/>
<path d="M311.458 262.299C311.458 262.299 311.512 262.117 311.644 261.855C312.024 261.098 312.801 260.837 313.607 260.808C313.277 260.318 313.321 259.737 314.37 259.174C315.586 258.521 316.14 259.029 316.368 259.73C317.123 259.145 317.943 258.791 318.565 259.229C318.665 259.299 318.704 259.283 318.704 259.283C318.704 259.283 318.611 259.396 318.733 259.422C318.741 260.014 318.248 260.599 317.867 260.872C318.49 260.896 319.078 261.124 319.078 261.124C319.078 261.124 319.228 261.367 318.849 261.877C318.299 262.599 317.636 263.042 316.933 262.958C316.823 263.649 316.312 264.059 315.171 264.271C314.148 264.402 314.072 264.005 314.072 264.005C314.072 264.005 314.115 264.029 314.119 263.904C313.341 264.502 312.45 264.668 311.835 264.208C311.664 264.077 311.592 263.993 311.553 263.9C311.391 263.517 311.891 263.3 312.481 262.864C312.264 262.861 312.07 262.838 311.913 262.788C311.648 262.707 311.458 262.299 311.458 262.299Z" fill="#00369A"/>
<path d="M315.321 261.1C316.106 260.855 316.155 261.353 315.984 261.595C315.45 262.355 313.093 265.15 311.777 264.167C310.46 263.184 314.536 261.346 315.321 261.1Z" fill="#0047CC"/>
<path d="M316.012 261.09C316.48 261.378 315.89 261.875 315.56 261.989C314.527 262.346 310.638 263.402 311.536 261.616C312.434 259.83 315.544 260.802 316.012 261.09Z" fill="#0047CC"/>
<path d="M314.263 258.934C316.541 257.711 316.497 260.557 316.333 261.125C316.169 261.694 315.422 261.828 315.186 261.741C314.447 261.468 311.985 260.157 314.263 258.934Z" fill="#0047CC"/>
<path d="M318.46 258.989C319.815 259.943 315.757 261.828 314.973 262.084C314.188 262.339 314.125 261.846 314.29 261.603C314.807 260.842 317.105 258.034 318.46 258.989Z" fill="#0047CC"/>
<path d="M315.358 260.849C316.384 260.639 320.16 260.158 318.819 261.917C317.478 263.677 315.011 262.121 314.683 261.735C314.355 261.349 315.03 260.916 315.358 260.849Z" fill="#0047CC"/>
<path d="M316.527 260.866C316.824 261.45 317.527 263.834 315.141 264.276C312.756 264.718 314.812 261.642 315.326 261.088C315.84 260.534 316.432 260.679 316.527 260.866Z" fill="#0047CC"/>
<path d="M314.697 260.669C315.507 260.25 316.378 260.292 316.642 260.762C316.907 261.232 316.464 261.954 315.654 262.373C314.844 262.792 313.973 262.75 313.709 262.279C313.445 261.809 313.887 261.088 314.697 260.669Z" fill="white"/>
<path d="M447.569 343.847L436.277 350.078V352L447.569 345.769V343.847Z" fill="#8A8A8A"/>
<path d="M425.292 331.555L415.742 336.825C414.664 337.419 414 338.518 414 339.708L436.278 352.001C436.278 350.811 436.942 349.712 438.019 349.117L447.57 343.848L425.292 331.555Z" fill="#E0E0E0"/>
<path d="M445.682 346.824V314.994L423.246 302.613V332.715L420.679 334.113L418.662 298.099L420.679 297L449 312.628V350.239L446.983 351.338L445.682 346.824Z" fill="#8A8A8A"/>
<path d="M443.665 347.923V316.093L421.229 303.712V333.813L418.662 335.212V298.099L446.983 313.726V351.337L442.23 348.715L443.665 347.923Z" fill="#E0E0E0"/>
<path d="M443.665 346.002L446.983 349.608V351.338L442.23 348.716L443.665 347.924V346.002Z" fill="#8A8A8A"/>
<path d="M422.635 304.488V333.05L443.667 344.655V316.094L422.635 304.488Z" fill="#F0F0F0"/>
<path d="M443.665 316.094V342.45L435.169 337.765L434.265 337.264L433.392 336.782L433.147 336.648L432.488 336.286L431.37 335.665L424.631 331.949V305.588L426.019 306.356L431.37 309.309L432.488 309.925L433.147 310.288L433.392 310.426L434.265 310.908L435.169 311.404L443.665 316.094Z" fill="#8A8A8A"/>
<path d="M443.666 316.093V340.918L443.432 340.789L435.17 336.228L434.266 335.732L433.393 335.25L433.148 335.111L432.489 334.749L431.371 334.133L426.02 331.18V306.355L431.371 309.309L432.489 309.924L433.148 310.287L433.393 310.425L434.266 310.907L435.17 311.403L443.666 316.093Z" fill="#B6CEFB"/>
<path opacity="0.3" d="M443.666 332.12V340.918L435.17 336.228L434.266 335.732L433.393 335.25L433.148 335.112L432.489 334.749L431.371 334.134L426.02 331.18L433.223 327.206C434.067 326.743 434.761 327.206 434.761 327.206L443.666 332.12Z" fill="#E0E0E0"/>
<path d="M434.265 310.907V337.263L433.392 336.781L433.147 336.647L432.488 336.284V309.924L433.147 310.286L433.392 310.425L434.265 310.907Z" fill="#4C4C4C"/>
<path d="M433.219 310.355V336.716L432.56 336.353L431.441 335.733V309.377L432.56 309.992L433.219 310.355Z" fill="#F0F0F0"/>
<path d="M435.168 311.404V337.765L434.264 337.264L433.391 336.782V310.426L434.264 310.908L435.168 311.404Z" fill="#F0F0F0"/>
<path d="M435.17 337.764L436.562 336.996V312.172L435.17 311.403V337.764Z" fill="#8A8A8A"/>
<path d="M434.7 322.201C434.046 322.711 434.13 322.649 434.265 323.966C434.365 324.92 434.19 325.789 433.896 326.199C433.876 326.228 433.856 326.256 433.836 326.275H433.831C433.776 326.342 433.716 326.385 433.651 326.414C433.497 326.481 433.327 326.442 433.147 326.266C432.433 325.56 432.688 323.055 432.822 321.714C432.843 321.523 432.907 321.342 433.012 321.185C433.067 321.099 433.132 321.018 433.207 320.946C433.541 320.622 434.041 320.45 434.52 320.536C434.804 320.588 435.349 321.695 434.7 322.201Z" fill="#4C4C4C"/>
<path d="M433.896 326.199C433.876 326.227 433.856 326.256 433.836 326.275H433.831C433.781 326.304 433.716 326.351 433.651 326.414C433.497 326.48 433.327 326.442 433.147 326.266C432.433 325.56 432.688 323.055 432.822 321.714C432.843 321.523 432.907 321.342 433.012 321.184C433.042 321.051 433.117 320.97 433.207 320.946C433.482 320.865 433.936 321.313 433.961 322.301C433.986 323.508 434.131 325.746 433.896 326.199Z" fill="#8A8A8A"/>
<path d="M432.309 320.881C431.655 321.392 431.74 321.33 431.875 322.647C431.975 323.601 431.8 324.469 431.505 324.88C431.485 324.908 431.465 324.937 431.445 324.956H431.44C431.385 325.023 431.325 325.066 431.261 325.094C431.106 325.161 430.936 325.123 430.756 324.946C430.043 324.24 430.297 321.736 430.432 320.395C430.452 320.204 430.517 320.023 430.621 319.865C430.676 319.779 430.741 319.698 430.816 319.627C431.151 319.302 431.65 319.13 432.129 319.216C432.414 319.269 432.958 320.376 432.309 320.881Z" fill="#4C4C4C"/>
<path d="M431.505 324.879C431.485 324.908 431.465 324.937 431.445 324.956H431.44C431.39 324.984 431.325 325.032 431.261 325.094C431.106 325.161 430.936 325.123 430.756 324.946C430.043 324.24 430.297 321.735 430.432 320.395C430.452 320.204 430.517 320.023 430.621 319.865C430.651 319.731 430.726 319.65 430.816 319.627C431.091 319.545 431.545 319.994 431.57 320.982C431.595 322.189 431.74 324.426 431.505 324.879Z" fill="#8A8A8A"/>
<path opacity="0.3" d="M443.667 340.918V341.691L435.859 337.383V311.785L436.563 312.172V336.996L443.667 340.918Z" fill="white"/>
<path opacity="0.3" d="M431.369 334.134V334.909L425.291 331.555V305.955L426.018 306.356V331.181L431.369 334.134Z" fill="#8A8A8A"/>
<path opacity="0.7" d="M437.456 324.591C437.356 324.916 436.697 325.116 436.562 324.276V319.958C437.067 319.748 437.481 320.243 437.541 320.83C437.62 321.545 437.561 324.267 437.456 324.591Z" fill="#8A8A8A"/>
<path d="M435.094 341.363C439.086 341.363 439.594 338.981 439.594 338.981C439.594 338.981 438.632 343.966 438.633 343.984C438.651 344.509 438.297 345.037 437.571 345.437C436.155 346.219 433.859 346.219 432.443 345.437C431.731 345.044 431.377 344.529 431.38 344.014C431.381 343.997 430.42 338.954 430.42 338.954C430.42 338.954 431.103 341.363 435.094 341.363Z" fill="#4C4C4C"/>
<path d="M431.763 337.186C433.555 336.197 436.459 336.197 438.25 337.186C440.042 338.174 440.042 339.777 438.25 340.765C436.459 341.754 433.555 341.754 431.763 340.765C429.972 339.777 429.972 338.174 431.763 337.186ZM432.113 340.572C433.708 341.452 436.304 341.452 437.9 340.572C439.496 339.692 439.496 338.259 437.9 337.379C436.304 336.499 433.708 336.499 432.113 337.379C430.518 338.259 430.518 339.692 432.113 340.572Z" fill="#8A8A8A"/>
<path d="M435.006 336.393C438.252 336.393 439.173 338.241 439.095 339.045C439.042 339.598 438.667 340.15 437.9 340.573C436.304 341.454 433.707 341.454 432.111 340.573C431.303 340.127 430.914 339.54 430.914 338.954C430.914 338.295 431.759 336.393 435.006 336.393Z" fill="#77CB7B"/>
<path d="M435.072 335.54L435.17 335.673L435.113 335.792L434.725 335.71C431.793 335.904 430.748 333.814 430.748 333.814L430.805 333.694C431.797 333.19 432.985 332.98 435.072 335.54Z" fill="#77CB7B"/>
<path d="M438.249 329.177L438.405 329.285C438.405 329.285 438.645 332.514 434.943 334.213L434.53 334.569L434.374 334.461L434.397 334.236C435.084 329.748 436.679 329.219 438.249 329.177Z" fill="#77CB7B"/>
<path d="M431.85 329.211C434.721 331.802 435.464 335.489 435.629 337.857C435.629 337.857 435.651 337.956 435.655 338.064C435.721 338.158 435.686 338.268 435.55 338.343C435.366 338.445 435.067 338.445 434.883 338.343C434.766 338.279 434.724 338.189 434.755 338.106C434.723 338.032 434.7 337.939 434.692 337.818C434.589 336.272 433.793 332.179 431.216 329.854C431.03 329.686 431.022 329.407 431.197 329.229C431.372 329.052 431.665 329.044 431.85 329.211Z" fill="#55BE5A"/>
<path d="M427.854 329.526C427.854 329.526 427.91 329.353 428.045 329.105C428.437 328.388 429.237 328.139 430.066 328.112C429.727 327.648 429.772 327.096 430.851 326.563C432.104 325.944 432.674 326.425 432.909 327.09C433.686 326.535 434.53 326.2 435.17 326.615C435.273 326.681 435.313 326.666 435.313 326.666C435.313 326.666 435.217 326.773 435.343 326.798C435.351 327.359 434.844 327.914 434.452 328.172C435.093 328.196 435.699 328.411 435.699 328.411C435.699 328.411 435.853 328.642 435.462 329.126C434.896 329.81 434.214 330.231 433.49 330.151C433.377 330.806 432.851 331.195 431.676 331.396C430.623 331.521 430.545 331.144 430.545 331.144C430.545 331.144 430.589 331.167 430.593 331.048C429.793 331.615 428.876 331.772 428.242 331.337C428.066 331.212 427.992 331.133 427.951 331.044C427.786 330.681 428.3 330.476 428.908 330.062C428.684 330.059 428.484 330.037 428.323 329.99C428.05 329.913 427.854 329.526 427.854 329.526Z" fill="#00369A"/>
<path d="M431.83 328.389C432.638 328.156 432.688 328.628 432.513 328.858C431.964 329.578 429.537 332.229 428.182 331.297C426.826 330.365 431.022 328.622 431.83 328.389Z" fill="#0047CC"/>
<path d="M432.542 328.378C433.024 328.652 432.416 329.123 432.077 329.231C431.013 329.57 427.01 330.571 427.934 328.877C428.859 327.183 432.06 328.105 432.542 328.378Z" fill="#0047CC"/>
<path d="M430.743 326.334C433.088 325.175 433.043 327.873 432.874 328.412C432.705 328.952 431.936 329.079 431.693 328.996C430.933 328.738 428.398 327.494 430.743 326.334Z" fill="#0047CC"/>
<path d="M435.061 326.386C436.456 327.291 432.279 329.078 431.471 329.321C430.664 329.563 430.599 329.096 430.769 328.865C431.301 328.143 433.666 325.481 435.061 326.386Z" fill="#0047CC"/>
<path d="M431.869 328.15C432.925 327.951 436.812 327.494 435.432 329.163C434.051 330.832 431.511 329.356 431.174 328.99C430.836 328.624 431.531 328.213 431.869 328.15Z" fill="#0047CC"/>
<path d="M433.072 328.166C433.378 328.72 434.101 330.981 431.646 331.4C429.19 331.82 431.306 328.903 431.835 328.378C432.365 327.852 432.974 327.99 433.072 328.166Z" fill="#0047CC"/>
<path d="M431.188 327.979C432.022 327.582 432.919 327.621 433.191 328.067C433.463 328.514 433.007 329.197 432.173 329.595C431.34 329.992 430.443 329.952 430.171 329.506C429.899 329.06 430.355 328.376 431.188 327.979Z" fill="white"/>
<path d="M77.4305 350.551L88.7227 357.008V359L77.4305 352.543V350.551Z" fill="#8A8A8A"/>
<path d="M99.7079 337.812L109.258 343.273C110.336 343.889 111 345.028 111 346.261L88.7223 359.001C88.7223 357.768 88.0584 356.629 86.9806 356.013L77.4302 350.551L99.7079 337.812Z" fill="#E0E0E0"/>
<path d="M79.3177 353.636V320.648L101.754 307.818V339.013L104.321 340.463L106.338 303.139L104.321 302L76.0002 318.196V357.175L78.0173 358.314L79.3177 353.636Z" fill="#8A8A8A"/>
<path d="M81.3348 354.775V321.787L103.771 308.956V340.152L106.338 341.602V303.139L78.0173 319.335V358.313L82.7698 355.596L81.3348 354.775Z" fill="#E0E0E0"/>
<path d="M81.3346 352.783L78.017 356.52V358.314L82.7695 355.596L81.3346 354.775V352.783Z" fill="#8A8A8A"/>
<path d="M102.365 309.76V339.36L81.3332 351.387V321.787L102.365 309.76Z" fill="#F0F0F0"/>
<path d="M81.3347 321.789V349.103L89.831 344.247L90.7346 343.728L91.6083 343.229L91.8528 343.09L92.5117 342.714L93.6299 342.072L100.369 338.22V310.9L98.9814 311.697L93.6299 314.757L92.5117 315.395L91.8528 315.771L91.6083 315.914L90.7346 316.414L89.831 316.928L81.3347 321.789Z" fill="#8A8A8A"/>
<path d="M81.3338 321.787V347.514L81.5684 347.381L89.8301 342.654L90.7337 342.14L91.6073 341.64L91.8518 341.497L92.5108 341.121L93.629 340.483L98.9805 337.422V311.695L93.629 314.756L92.5108 315.394L91.8518 315.77L91.6073 315.913L90.7337 316.412L89.8301 316.927L81.3338 321.787Z" fill="#B6CEFB"/>
<path opacity="0.3" d="M81.3335 338.397V347.515L89.83 342.654L90.7335 342.14L91.6072 341.641L91.8518 341.497L92.5108 341.122L93.629 340.484L98.9805 337.423L91.777 333.304C90.9334 332.824 90.2394 333.304 90.2394 333.304L81.3335 338.397Z" fill="#E0E0E0"/>
<path d="M90.7346 316.412V343.726L91.6083 343.227L91.8528 343.089L92.5117 342.713V315.394L91.8528 315.769L91.6083 315.913L90.7346 316.412Z" fill="#4C4C4C"/>
<path d="M91.7815 315.841V343.16L92.4404 342.784L93.5586 342.142V314.827L92.4404 315.465L91.7815 315.841Z" fill="#F0F0F0"/>
<path d="M89.8321 316.928V344.247L90.7357 343.728L91.6094 343.228V315.914L90.7357 316.413L89.8321 316.928Z" fill="#F0F0F0"/>
<path d="M89.8301 344.246L88.4384 343.45V317.723L89.8301 316.927V344.246Z" fill="#8A8A8A"/>
<path d="M90.3004 328.117C90.9544 328.646 90.8696 328.581 90.7347 329.946C90.6348 330.935 90.8096 331.835 91.1041 332.26C91.1242 332.29 91.144 332.319 91.1641 332.339H91.1691C91.2239 332.409 91.2839 332.453 91.3487 332.483C91.5035 332.552 91.6732 332.512 91.853 332.329C92.5668 331.598 92.3122 329.002 92.1775 327.612C92.1575 327.414 92.0926 327.227 91.9878 327.063C91.9329 326.974 91.8679 326.89 91.793 326.816C91.4586 326.48 90.9594 326.302 90.4801 326.391C90.1955 326.445 89.6514 327.592 90.3004 328.117Z" fill="#4C4C4C"/>
<path d="M91.1041 332.26C91.1242 332.29 91.144 332.32 91.1641 332.339H91.1691C91.2191 332.369 91.2839 332.419 91.3488 332.483C91.5035 332.552 91.6732 332.512 91.853 332.33C92.5668 331.598 92.3122 329.002 92.1775 327.612C92.1575 327.415 92.0926 327.227 91.9878 327.064C91.9578 326.925 91.8829 326.841 91.793 326.816C91.5184 326.732 91.0642 327.197 91.0392 328.221C91.0142 329.471 90.8695 331.79 91.1041 332.26Z" fill="#8A8A8A"/>
<path d="M92.691 326.75C93.345 327.279 93.2602 327.215 93.1253 328.58C93.0254 329.569 93.2002 330.469 93.4947 330.894C93.5148 330.924 93.5348 330.953 93.5547 330.973H93.5597C93.6146 331.042 93.6745 331.087 93.7394 331.117C93.8941 331.186 94.0638 331.146 94.2436 330.963C94.9574 330.232 94.7028 327.636 94.5682 326.246C94.5481 326.048 94.4832 325.86 94.3785 325.697C94.3235 325.608 94.2587 325.524 94.1838 325.45C93.8493 325.114 93.3501 324.936 92.8708 325.025C92.5862 325.079 92.0422 326.226 92.691 326.75Z" fill="#4C4C4C"/>
<path d="M93.4947 330.894C93.5148 330.924 93.5348 330.954 93.5547 330.973H93.5597C93.6097 331.003 93.6745 331.052 93.7394 331.117C93.8941 331.186 94.0638 331.146 94.2436 330.963C94.9574 330.232 94.7028 327.636 94.5682 326.246C94.5481 326.048 94.4832 325.86 94.3785 325.697C94.3486 325.559 94.2737 325.475 94.1838 325.45C93.9092 325.366 93.455 325.831 93.4299 326.854C93.4048 328.105 93.2602 330.424 93.4947 330.894Z" fill="#8A8A8A"/>
<path opacity="0.3" d="M81.3332 347.516V348.317L89.1406 343.851V317.323L88.4368 317.724V343.451L81.3332 347.516Z" fill="white"/>
<path opacity="0.3" d="M93.6306 340.484V341.287L99.709 337.811V311.28L98.9821 311.696V337.423L93.6306 340.484Z" fill="#8A8A8A"/>
<path opacity="0.7" d="M87.5439 330.594C87.6438 330.931 88.3027 331.138 88.4375 330.268V325.793C87.9333 325.576 87.5193 326.088 87.4594 326.696C87.3796 327.438 87.4391 330.258 87.5439 330.594Z" fill="#8A8A8A"/>
<path d="M89.9057 347.975C85.9144 347.975 85.4062 345.506 85.4062 345.506C85.4062 345.506 86.3677 350.673 86.3672 350.691C86.3491 351.235 86.703 351.782 87.4287 352.198C88.8449 353.007 91.1413 353.007 92.5574 352.198C93.2693 351.79 93.6233 351.256 93.6196 350.723C93.6195 350.704 94.5799 345.479 94.5799 345.479C94.5799 345.479 93.897 347.975 89.9057 347.975Z" fill="#4C4C4C"/>
<path d="M93.2369 343.646C91.4455 342.622 88.541 342.622 86.75 343.646C84.9583 344.671 84.9583 346.331 86.75 347.356C88.541 348.381 91.4455 348.381 93.2369 347.356C95.0282 346.331 95.0282 344.671 93.2369 343.646ZM92.8869 347.156C91.2916 348.068 88.6956 348.068 87.0997 347.156C85.5045 346.243 85.5045 344.759 87.0997 343.846C88.6956 342.934 91.2915 342.934 92.8869 343.846C94.4823 344.759 94.4823 346.243 92.8869 347.156Z" fill="#8A8A8A"/>
<path d="M89.9944 342.824C86.7476 342.824 85.8274 344.74 85.9048 345.573C85.9582 346.147 86.3335 346.718 87.0999 347.157C88.6963 348.069 91.2931 348.069 92.8892 347.157C93.6972 346.695 94.0858 346.086 94.086 345.479C94.0862 344.795 93.241 342.824 89.9944 342.824Z" fill="#77CB7B"/>
<path d="M89.9278 341.941L89.8301 342.078L89.8872 342.202L90.2755 342.117C93.207 342.318 94.2519 340.152 94.2519 340.152L94.1948 340.027C93.2026 339.505 92.0149 339.288 89.9278 341.941Z" fill="#77CB7B"/>
<path d="M86.7509 335.347L86.595 335.459C86.595 335.459 86.355 338.805 90.0572 340.566L90.4698 340.935L90.6258 340.823L90.6025 340.59C89.9156 335.938 88.3208 335.391 86.7509 335.347Z" fill="#77CB7B"/>
<path d="M93.1498 335.382C90.279 338.066 89.5356 341.888 89.3713 344.342C89.3713 344.342 89.3488 344.445 89.3451 344.557C89.2788 344.653 89.3135 344.768 89.4503 344.846C89.6345 344.951 89.9332 344.951 90.1174 344.846C90.2342 344.779 90.2764 344.686 90.2452 344.6C90.2772 344.523 90.3 344.426 90.308 344.301C90.4105 342.699 91.2074 338.457 93.7844 336.047C93.97 335.874 93.9784 335.584 93.8032 335.4C93.6279 335.216 93.3353 335.208 93.1498 335.382Z" fill="#55BE5A"/>
<path d="M97.1456 335.708C97.1456 335.708 97.0903 335.529 96.9548 335.271C96.5634 334.528 95.7631 334.271 94.9342 334.243C95.2732 333.761 95.2276 333.19 94.1487 332.637C92.8962 331.995 92.3257 332.494 92.0915 333.183C91.3138 332.608 90.4697 332.26 89.8296 332.691C89.7274 332.759 89.6866 332.743 89.6866 332.743C89.6866 332.743 89.7825 332.855 89.6566 332.881C89.6491 333.462 90.1559 334.037 90.5483 334.305C89.9068 334.329 89.3015 334.553 89.3015 334.553C89.3015 334.553 89.1474 334.792 89.5376 335.293C90.1036 336.002 90.7857 336.438 91.51 336.355C91.6233 337.034 92.1489 337.437 93.3239 337.645C94.3767 337.775 94.455 337.385 94.455 337.385C94.455 337.385 94.4107 337.408 94.4067 337.285C95.2071 337.873 96.1245 338.036 96.758 337.584C96.9339 337.455 97.008 337.373 97.0486 337.281C97.2145 336.905 96.6999 336.692 96.0924 336.263C96.3164 336.26 96.5162 336.238 96.6771 336.188C96.9503 336.109 97.1456 335.708 97.1456 335.708Z" fill="#00369A"/>
<path d="M93.1697 334.53C92.3618 334.289 92.3116 334.778 92.4871 335.016C93.0364 335.763 95.4627 338.51 96.8183 337.544C98.1739 336.578 93.9776 334.771 93.1697 334.53Z" fill="#0047CC"/>
<path d="M92.4581 334.518C91.9763 334.802 92.5837 335.29 92.9234 335.402C93.9867 335.753 97.9896 336.791 97.0656 335.035C96.1414 333.28 92.9397 334.235 92.4581 334.518Z" fill="#0047CC"/>
<path d="M94.2572 332.4C91.9123 331.199 91.9571 333.995 92.126 334.554C92.2948 335.113 93.0637 335.245 93.3067 335.159C94.0674 334.891 96.602 333.602 94.2572 332.4Z" fill="#0047CC"/>
<path d="M89.9391 332.454C88.544 333.392 92.7214 335.245 93.5287 335.496C94.3361 335.747 94.4011 335.262 94.2312 335.023C93.6993 334.276 91.3341 331.516 89.9391 332.454Z" fill="#0047CC"/>
<path d="M93.1313 334.282C92.0748 334.075 88.188 333.602 89.5684 335.332C90.9488 337.061 93.4887 335.532 93.8264 335.152C94.164 334.773 93.4688 334.347 93.1313 334.282Z" fill="#0047CC"/>
<path d="M91.928 334.299C91.6222 334.873 90.8989 337.217 93.3544 337.651C95.8099 338.085 93.6938 335.062 93.1645 334.518C92.6353 333.973 92.0257 334.116 91.928 334.299Z" fill="#0047CC"/>
<path d="M93.8115 334.105C92.9777 333.693 92.0811 333.734 91.8092 334.197C91.5372 334.659 91.9928 335.368 92.8266 335.78C93.6605 336.191 94.5571 336.15 94.829 335.688C95.101 335.225 94.6454 334.517 93.8115 334.105Z" fill="white"/>
<path d="M617.357 470.159V389.446L620.806 387.455V468.169L617.357 470.159Z" fill="#5A6357"/>
<path d="M620.806 387.468L505.665 320.991L502.217 322.982L617.358 389.459L620.806 387.468Z" fill="#707A6D"/>
<path d="M502.25 536.643L387.109 470.166V474.148L502.25 540.624V536.643Z" fill="#4C4C4C"/>
<path d="M502.25 536.643L617.391 470.166V474.148L502.25 540.624V536.643Z" fill="#BBBBBB"/>
<path d="M502.252 536.634L387.111 470.158L502.249 403.684L617.39 470.16L502.252 536.634Z" fill="white"/>
<path d="M398.928 476.98L397.695 476.268L512.832 409.794L514.066 410.506L398.928 476.98Z" fill="#F0F0F0"/>
<path d="M410.52 483.674L409.287 482.962L524.425 416.487L525.658 417.199L410.52 483.674Z" fill="#F0F0F0"/>
<path d="M422.112 490.366L420.879 489.654L536.017 423.179L537.25 423.891L422.112 490.366Z" fill="#F0F0F0"/>
<path d="M433.706 497.059L432.473 496.346L547.61 429.872L548.844 430.584L433.706 497.059Z" fill="#F0F0F0"/>
<path d="M445.298 503.752L444.064 503.04L559.202 436.565L560.435 437.277L445.298 503.752Z" fill="#F0F0F0"/>
<path d="M456.89 510.445L455.656 509.733L570.794 443.259L572.027 443.971L456.89 510.445Z" fill="#F0F0F0"/>
<path d="M468.483 517.137L467.25 516.425L582.388 449.95L583.621 450.662L468.483 517.137Z" fill="#F0F0F0"/>
<path d="M480.075 523.83L478.842 523.118L593.979 456.644L595.212 457.355L480.075 523.83Z" fill="#F0F0F0"/>
<path d="M491.667 530.523L490.434 529.812L605.571 463.337L606.805 464.049L491.667 530.523Z" fill="#F0F0F0"/>
<path d="M617.358 470.16L502.217 403.683V322.97L617.358 389.446V470.16Z" fill="#BECDBA"/>
<path d="M383.627 387.468L502.216 319L505.665 320.991L387.076 389.458L383.627 387.468Z" fill="#707A6D"/>
<path d="M387.076 470.159V389.446L383.627 387.455V468.169L387.076 470.159Z" fill="#4C4C4C"/>
<path d="M387.076 470.16L502.217 403.683V322.97L387.076 389.446V470.16Z" fill="#ACBBA8"/>
<path d="M436.222 417.636V384.648L458.017 371.818L458.225 428.481L459.87 429.577L462.471 367.139L460.511 366L433 382.196V443.874L434.959 444.788L436.222 417.636Z" fill="#8A8A8A"/>
<path d="M438.182 418.775V385.787L459.977 372.956V429.703L462.471 427.417L462.471 367.139L434.959 383.335V445.017L438.182 442.731V418.775Z" fill="#E0E0E0"/>
<path d="M458.613 373.76V429.474L438.182 444.102V385.787L458.613 373.76Z" fill="#F0F0F0"/>
<path d="M442.118 413.395C442.754 413.924 442.671 413.86 442.54 415.224C442.443 416.213 442.613 417.113 442.899 417.539C442.919 417.568 442.938 417.598 442.957 417.618H442.962C443.015 417.687 443.074 417.731 443.137 417.761C443.287 417.83 443.452 417.791 443.626 417.608C444.32 416.876 444.073 414.28 443.942 412.891C443.922 412.693 443.859 412.505 443.757 412.342C443.704 412.253 443.641 412.169 443.568 412.094C443.243 411.758 442.758 411.58 442.293 411.669C442.016 411.723 441.488 412.871 442.118 413.395Z" fill="#4C4C4C"/>
<path d="M442.899 417.538C442.919 417.567 442.938 417.597 442.957 417.617H442.962C443.011 417.646 443.074 417.696 443.137 417.76C443.287 417.829 443.452 417.79 443.626 417.607C444.32 416.875 444.073 414.279 443.942 412.89C443.922 412.692 443.859 412.504 443.757 412.341C443.728 412.202 443.656 412.118 443.568 412.094C443.302 412.01 442.86 412.474 442.836 413.498C442.812 414.749 442.671 417.068 442.899 417.538Z" fill="#8A8A8A"/>
<g clip-path="url(#clip2_12955_714044)">
<path d="M471.879 420.324C471.894 419.684 472.29 419.075 473.082 418.618C474.866 417.588 477.981 417.717 480.041 418.906C481.175 419.562 481.752 420.402 481.744 421.197H481.744V423.086C481.742 423.635 481.459 424.163 480.889 424.593L480.378 427.875C480.374 428.344 480.088 428.791 479.508 429.126C478.218 429.871 475.965 429.778 474.476 428.918C473.687 428.462 473.271 427.883 473.246 427.328L473.244 427.328L472.736 423.924C472.155 423.39 471.866 422.796 471.879 422.225H471.879V420.392C471.879 420.373 471.879 420.353 471.879 420.334V420.324H471.879Z" fill="#4C4C4C"/>
<path d="M472.213 420.392C472.213 420.372 472.213 420.353 472.213 420.334V420.324H472.213C472.228 419.684 472.624 419.075 473.416 418.618C475.2 417.588 478.315 417.717 480.374 418.906C481.509 419.562 482.086 420.402 482.078 421.196L482.078 421.197V423.086H482.078C482.075 423.738 481.679 424.359 480.874 424.824C479.09 425.854 475.975 425.725 473.916 424.536C472.771 423.875 472.194 423.026 472.213 422.225H472.213V420.392Z" fill="#8A8A8A"/>
<path d="M473.914 422.635C475.973 423.824 479.089 423.954 480.872 422.924C482.656 421.894 482.432 420.095 480.373 418.906C478.313 417.717 475.198 417.588 473.414 418.618C471.631 419.648 471.855 421.446 473.914 422.635Z" fill="#C6C6C6"/>
<path d="M474.518 422.287C476.193 423.254 478.725 423.359 480.175 422.522C481.625 421.685 481.443 420.222 479.769 419.256C478.095 418.289 475.562 418.184 474.112 419.021C472.662 419.858 472.844 421.321 474.518 422.287Z" fill="#4C4C4C"/>
<path d="M474.113 420.644C475.563 419.807 478.096 419.912 479.77 420.879C480.292 421.18 480.669 421.529 480.896 421.893C480.734 422.125 480.495 422.339 480.177 422.522C478.727 423.359 476.194 423.254 474.52 422.288C473.998 421.986 473.621 421.637 473.393 421.273C473.556 421.042 473.795 420.828 474.113 420.644Z" fill="#8A8A8A"/>
<path d="M479.99 414.889C479.04 418.279 479.28 422.418 478.997 422.531C478.675 422.661 477.642 422.599 477.429 421.835C477.429 421.835 478.009 417.549 478.937 414.34L479.99 414.889Z" fill="#55BE5A"/>
<path d="M474.506 411.617C475.456 415.007 475.743 421.631 476.026 421.745C476.349 421.875 477.381 421.813 477.594 421.048C477.594 421.048 476.414 414.728 475.739 411.068L474.506 411.617Z" fill="#2B9E31"/>
<path d="M469.259 415.948C470.267 415.837 471.075 415.89 470.829 415.184C470.584 414.478 468.887 414.39 467.79 414.886C467.665 414.943 467.541 415.007 467.42 415.077C467.049 413.988 466.879 412.736 467.094 411.338C467.46 408.949 469.524 406.943 471.448 407.563C473.372 408.183 473.741 410.587 473.741 410.587C473.741 410.587 475.256 408.685 477.234 409.103C479.177 409.514 479.976 412.191 479.178 414.424C478.933 413.953 478.559 413.333 478.095 412.871C477.24 412.022 475.62 411.51 475.143 412.085C474.666 412.661 475.441 412.894 476.346 413.351C477.117 413.74 478.218 414.453 478.552 415.747C478.263 416.234 477.936 416.666 477.584 417.048C477.457 416.781 477.308 416.515 477.136 416.277C476.43 415.301 474.915 414.534 474.351 415.025C473.787 415.515 474.514 415.871 475.333 416.468C475.77 416.786 476.314 417.251 476.689 417.88C474.244 419.835 471.234 420.005 471.234 420.005C471.234 420.005 469.167 418.661 467.921 416.25C468.396 416.072 468.871 415.991 469.259 415.948ZM473.894 418.333C474.488 418.658 474.737 418.433 474.594 418.005C474.479 417.661 474.169 417.291 473.939 417.049C473.731 416.831 473.469 416.668 473.177 416.593C472.972 416.541 472.759 416.529 472.66 416.658C472.44 416.946 473.3 418.008 473.894 418.333Z" fill="#55BE5A"/>
<path d="M479.049 410.999C480.88 410.143 482.787 411.652 482.787 411.652C482.787 411.652 482.601 409.228 484.335 408.188C486.038 407.166 488.445 408.583 489.382 410.762C488.882 410.584 488.185 410.384 487.531 410.362C486.327 410.322 484.792 411.049 484.834 411.796C484.876 412.542 485.603 412.185 486.576 411.904C487.406 411.664 488.698 411.437 489.824 412.158C489.944 412.711 489.998 413.249 490 413.769C489.725 413.66 489.435 413.566 489.148 413.509C487.966 413.275 486.334 413.745 486.254 414.488C486.175 415.231 486.95 414.997 487.957 414.877C488.493 414.813 489.208 414.783 489.911 414.988C489.451 418.084 487.362 420.258 487.362 420.258C487.362 420.258 481.517 421.276 478.429 416.729C477.071 414.729 477.217 411.854 479.049 410.999ZM481.014 417.03C481.337 417.193 482.222 416.151 482.432 415.507C482.641 414.864 482.375 414.661 481.98 414.88C481.663 415.056 481.357 415.43 481.162 415.701C480.986 415.945 480.874 416.233 480.854 416.533C480.841 416.745 480.868 416.956 481.014 417.03Z" fill="#2B9E31"/>
</g>
<path d="M499.73 538.524V457.81L503.179 455.819V536.533L499.73 538.524Z" fill="#5A6357"/>
<path d="M503.179 455.832L388.038 389.355L384.59 391.346L499.731 457.823L503.179 455.832Z" fill="#707A6D"/>
<path d="M384.623 605.007L267.5 537V540.982L384.623 608.988V605.007Z" fill="#F0F0F0"/>
<path d="M384.623 605.007L503.5 536V539.982L384.623 608.988V605.007Z" fill="#BBBBBB"/>
<path d="M384.625 605L269.484 538.523L384.622 472.049L499.763 538.525L384.625 605Z" fill="white"/>
<path d="M281.301 545.346L280.068 544.634L395.206 478.159L396.439 478.871L281.301 545.346Z" fill="#F0F0F0"/>
<path d="M292.893 552.039L291.66 551.327L406.798 484.853L408.031 485.565L292.893 552.039Z" fill="#F0F0F0"/>
<path d="M304.485 558.732L303.252 558.02L418.39 491.545L419.623 492.257L304.485 558.732Z" fill="#F0F0F0"/>
<path d="M316.079 565.424L314.846 564.712L429.983 498.237L431.217 498.949L316.079 565.424Z" fill="#F0F0F0"/>
<path d="M327.671 572.117L326.438 571.405L441.575 504.931L442.808 505.642L327.671 572.117Z" fill="#F0F0F0"/>
<path d="M339.265 578.81L338.031 578.098L453.169 511.624L454.402 512.336L339.265 578.81Z" fill="#F0F0F0"/>
<path d="M350.856 585.504L349.623 584.792L464.761 518.317L465.994 519.029L350.856 585.504Z" fill="#F0F0F0"/>
<path d="M362.448 592.196L361.215 591.484L476.352 525.01L477.585 525.721L362.448 592.196Z" fill="#F0F0F0"/>
<path d="M374.04 598.889L372.807 598.177L487.944 531.702L489.178 532.414L374.04 598.889Z" fill="#F0F0F0"/>
<path d="M499.731 538.524L384.59 472.048V391.334L499.731 457.81V538.524Z" fill="#BECDBA"/>
<path d="M266 455.832L384.589 387.364L388.038 389.355L269.449 457.823L266 455.832Z" fill="#707A6D"/>
<path d="M269.449 538.525V457.811L266 455.82V536.534L269.449 538.525Z" fill="#4C4C4C"/>
<path d="M269.449 538.524L384.59 472.048V391.334L269.449 457.81V538.524Z" fill="#ACBBA8"/>
<path d="M336.118 441.407L336.113 441.404C336.111 441.402 336.108 441.4 336.105 441.398L335.593 441.014L335.593 441.014C335.572 440.994 335.542 440.994 335.508 441.02C335.445 441.067 335.395 441.182 335.395 441.277C335.395 441.319 335.405 441.35 335.422 441.367L335.422 441.367L335.423 441.368C335.426 441.371 335.43 441.373 335.433 441.375L335.946 441.759L335.946 441.758C335.967 441.777 335.997 441.778 336.03 441.752C336.093 441.705 336.143 441.59 336.143 441.495C336.143 441.454 336.133 441.427 336.117 441.409L336.118 441.407Z" fill="#4C4C4C"/>
<path d="M325.4 455.986L325.588 456.206L335.924 441.752L346.259 443.905L346.447 443.463L335.924 441.271L325.4 455.986Z" fill="#E0E0E0"/>
<path d="M336.142 441.061C335.935 441.204 335.768 441.552 335.768 441.838C335.768 442.123 335.935 442.239 336.142 442.096C336.349 441.953 336.516 441.606 336.516 441.32C336.516 441.034 336.349 440.918 336.142 441.061Z" fill="white"/>
<path d="M325.346 473.93L345.835 461.738V442.847L325.346 455.039V473.93Z" fill="#F0F0F0"/>
<path d="M336.912 454.068C336.228 454.475 335.674 455.464 335.674 456.278C335.674 457.092 336.228 457.422 336.912 457.015C337.596 456.608 338.15 455.618 338.15 454.805C338.15 453.991 337.596 453.661 336.912 454.068Z" fill="#C6C6C6"/>
<path d="M326.064 471.956L335.769 466.181L337.974 461.618L333.909 456.015L326.064 471.956Z" fill="#E0E0E0"/>
<path d="M337.975 461.617L339.622 463.888L344.668 460.886L340.703 455.971L337.975 461.617Z" fill="#C6C6C6"/>
<path d="M335.77 466.181L339.623 463.888L337.975 461.617L335.77 466.181Z" fill="#C6C6C6"/>
<path d="M324 454.737L325.23 455.49L344.805 443.842V444.179C345.337 443.896 345.862 443.654 346.494 443.479C346.645 443.437 346.794 443.388 346.942 443.337L347 442.199L346.035 441.625L324 454.737Z" fill="#4C4C4C"/>
<path d="M324 474.426L324.965 475.001L325.23 472.21V455.49L324 454.737V474.426Z" fill="#333333"/>
<path d="M344.805 460.562L346.034 461.315L346.918 443.802C346.146 444.019 345.483 444.304 344.805 444.661V460.562Z" fill="#C6C6C6"/>
<path d="M325.23 472.209L324.965 475L346.035 461.314L344.805 460.561L325.23 472.209Z" fill="#E0E0E0"/>
<path d="M324.965 475L347 461.888V442.199L324.965 455.311V475ZM326.194 456.064L345.77 444.416V461.135L326.194 472.784V456.064Z" fill="#8A8A8A"/>
<path d="M441.778 480.636V447.648L419.983 434.818L419.775 491.481L418.13 492.577L415.529 430.139L417.489 429L445 445.196V506.874L443.041 507.788L441.778 480.636Z" fill="#8A8A8A"/>
<path d="M439.818 481.775V448.787L418.023 435.956V492.703L415.529 490.417L415.529 430.139L443.041 446.335V508.017L439.818 505.731V481.775Z" fill="#E0E0E0"/>
<path d="M419.387 436.76V492.474L439.818 507.102V448.787L419.387 436.76Z" fill="#F0F0F0"/>
<path d="M435.882 476.395C435.246 476.924 435.329 476.86 435.46 478.224C435.557 479.213 435.387 480.113 435.101 480.539C435.081 480.568 435.062 480.598 435.043 480.618H435.038C434.985 480.687 434.926 480.731 434.863 480.761C434.713 480.83 434.548 480.791 434.374 480.608C433.68 479.876 433.927 477.28 434.058 475.891C434.078 475.693 434.141 475.505 434.243 475.342C434.296 475.253 434.359 475.169 434.432 475.094C434.757 474.758 435.242 474.58 435.707 474.669C435.984 474.723 436.512 475.871 435.882 476.395Z" fill="#4C4C4C"/>
<path d="M435.101 480.538C435.081 480.567 435.062 480.597 435.043 480.617H435.038C434.989 480.646 434.926 480.696 434.863 480.76C434.713 480.829 434.548 480.79 434.374 480.607C433.68 479.875 433.927 477.279 434.058 475.89C434.078 475.692 434.141 475.504 434.243 475.341C434.272 475.202 434.344 475.118 434.432 475.094C434.698 475.01 435.14 475.474 435.164 476.498C435.188 477.749 435.329 480.068 435.101 480.538Z" fill="#8A8A8A"/>
<g clip-path="url(#clip3_12955_714044)">
<path d="M453.121 508.324C453.106 507.684 452.71 507.075 451.918 506.618C450.134 505.588 447.019 505.717 444.959 506.906C443.825 507.562 443.248 508.402 443.256 509.197H443.256V511.086C443.258 511.635 443.541 512.163 444.111 512.593L444.622 515.875C444.626 516.344 444.912 516.791 445.492 517.126C446.782 517.871 449.035 517.778 450.524 516.918C451.313 516.462 451.729 515.883 451.754 515.328L451.756 515.328L452.264 511.924C452.845 511.39 453.134 510.796 453.121 510.225H453.121V508.392C453.121 508.373 453.121 508.353 453.121 508.334V508.324H453.121Z" fill="#4C4C4C"/>
<path d="M452.787 508.392C452.787 508.372 452.787 508.353 452.787 508.334V508.324H452.787C452.772 507.684 452.376 507.075 451.584 506.618C449.8 505.588 446.685 505.717 444.626 506.906C443.491 507.562 442.914 508.402 442.922 509.196L442.922 509.197V511.086H442.922C442.925 511.738 443.321 512.359 444.126 512.824C445.91 513.854 449.025 513.725 451.084 512.536C452.229 511.875 452.806 511.026 452.787 510.225H452.787V508.392Z" fill="#8A8A8A"/>
<path d="M451.086 510.635C449.027 511.824 445.911 511.954 444.128 510.924C442.344 509.894 442.568 508.095 444.627 506.906C446.687 505.717 449.802 505.588 451.586 506.618C453.369 507.648 453.145 509.446 451.086 510.635Z" fill="#C6C6C6"/>
<path d="M450.482 510.287C448.807 511.254 446.275 511.359 444.825 510.522C443.375 509.685 443.557 508.222 445.231 507.256C446.905 506.289 449.438 506.184 450.888 507.021C452.338 507.858 452.156 509.321 450.482 510.287Z" fill="#4C4C4C"/>
<path d="M450.887 508.644C449.437 507.807 446.904 507.912 445.23 508.879C444.708 509.18 444.331 509.529 444.104 509.893C444.266 510.125 444.505 510.339 444.823 510.522C446.273 511.359 448.806 511.254 450.48 510.288C451.002 509.986 451.379 509.637 451.607 509.273C451.444 509.042 451.205 508.828 450.887 508.644Z" fill="#8A8A8A"/>
<path d="M445.01 502.889C445.96 506.279 445.72 510.418 446.003 510.531C446.325 510.661 447.358 510.599 447.571 509.835C447.571 509.835 446.991 505.549 446.063 502.34L445.01 502.889Z" fill="#55BE5A"/>
<path d="M450.494 499.617C449.544 503.007 449.257 509.631 448.974 509.745C448.651 509.875 447.619 509.813 447.406 509.048C447.406 509.048 448.586 502.728 449.261 499.068L450.494 499.617Z" fill="#2B9E31"/>
<path d="M455.741 503.948C454.733 503.837 453.925 503.89 454.171 503.184C454.416 502.478 456.113 502.39 457.21 502.886C457.335 502.943 457.459 503.007 457.58 503.077C457.951 501.988 458.121 500.736 457.906 499.338C457.54 496.949 455.476 494.943 453.552 495.563C451.628 496.183 451.259 498.587 451.259 498.587C451.259 498.587 449.744 496.685 447.766 497.103C445.823 497.514 445.024 500.191 445.822 502.424C446.067 501.953 446.441 501.333 446.905 500.871C447.76 500.022 449.38 499.51 449.857 500.085C450.334 500.661 449.559 500.894 448.654 501.351C447.883 501.74 446.782 502.453 446.448 503.747C446.737 504.234 447.064 504.666 447.416 505.048C447.543 504.781 447.692 504.515 447.864 504.277C448.57 503.301 450.085 502.534 450.649 503.025C451.213 503.515 450.486 503.871 449.667 504.468C449.23 504.786 448.686 505.251 448.311 505.88C450.756 507.835 453.766 508.005 453.766 508.005C453.766 508.005 455.833 506.661 457.079 504.25C456.604 504.072 456.129 503.991 455.741 503.948ZM451.106 506.333C450.512 506.658 450.263 506.433 450.406 506.005C450.521 505.661 450.831 505.291 451.061 505.049C451.269 504.831 451.531 504.668 451.823 504.593C452.028 504.541 452.241 504.529 452.34 504.658C452.56 504.946 451.7 506.008 451.106 506.333Z" fill="#55BE5A"/>
<path d="M445.951 498.999C444.12 498.143 442.213 499.652 442.213 499.652C442.213 499.652 442.399 497.228 440.665 496.188C438.962 495.166 436.555 496.583 435.618 498.762C436.118 498.584 436.815 498.384 437.469 498.362C438.673 498.322 440.208 499.049 440.166 499.796C440.124 500.542 439.397 500.185 438.424 499.904C437.594 499.664 436.302 499.437 435.176 500.158C435.056 500.711 435.002 501.249 435 501.769C435.275 501.66 435.565 501.566 435.852 501.509C437.034 501.275 438.666 501.745 438.746 502.488C438.825 503.231 438.05 502.997 437.043 502.877C436.507 502.813 435.792 502.783 435.089 502.988C435.549 506.084 437.638 508.258 437.638 508.258C437.638 508.258 443.483 509.276 446.571 504.729C447.929 502.729 447.783 499.854 445.951 498.999ZM443.986 505.03C443.663 505.193 442.778 504.151 442.568 503.507C442.359 502.864 442.625 502.661 443.02 502.88C443.337 503.056 443.643 503.43 443.838 503.701C444.014 503.945 444.126 504.233 444.146 504.533C444.159 504.745 444.132 504.956 443.986 505.03Z" fill="#2B9E31"/>
</g>
<path d="M563.874 411.446L552.582 417.677V419.599L563.874 413.368V411.446Z" fill="#8A8A8A"/>
<path d="M541.597 399.154L532.046 404.424C530.969 405.019 530.305 406.118 530.305 407.307L552.582 419.6C552.582 418.411 553.246 417.312 554.324 416.717L563.874 411.447L541.597 399.154Z" fill="#E0E0E0"/>
<path d="M561.987 414.424V382.594L539.551 370.213V400.314L536.984 401.713L534.967 365.699L536.984 364.6L565.304 380.227V417.838L563.287 418.937L561.987 414.424Z" fill="#8A8A8A"/>
<path d="M559.97 415.523V383.692L537.534 371.312V401.413L534.967 402.812V365.698L563.287 381.326V418.937L558.535 416.314L559.97 415.523Z" fill="#E0E0E0"/>
<path d="M559.97 413.602L563.288 417.208V418.938L558.535 416.316L559.97 415.524V413.602Z" fill="#8A8A8A"/>
<path d="M538.939 372.088V400.649L559.971 412.255V383.694L538.939 372.088Z" fill="#F0F0F0"/>
<path d="M559.97 383.694V410.05L551.474 405.364L550.57 404.863L549.696 404.381L549.452 404.248L548.793 403.885L547.675 403.265L540.936 399.548V373.188L542.323 373.956L547.675 376.909L548.793 377.525L549.452 377.887L549.696 378.026L550.57 378.507L551.474 379.004L559.97 383.694Z" fill="#8A8A8A"/>
<path d="M559.971 383.693V408.517L559.736 408.389L551.475 403.827L550.571 403.331L549.697 402.849L549.453 402.711L548.794 402.348L547.676 401.733L542.324 398.779V373.955L547.676 376.908L548.794 377.524L549.453 377.886L549.697 378.025L550.571 378.507L551.475 379.003L559.971 383.693Z" fill="#B6CEFB"/>
<path opacity="0.3" d="M559.971 399.72V408.518L551.475 403.828L550.571 403.331L549.697 402.85L549.453 402.711L548.794 402.349L547.676 401.733L542.324 398.78L549.528 394.805C550.371 394.342 551.065 394.805 551.065 394.805L559.971 399.72Z" fill="#E0E0E0"/>
<path d="M550.57 378.506V404.862L549.696 404.38L549.452 404.247L548.793 403.884V377.523L549.452 377.886L549.696 378.024L550.57 378.506Z" fill="#4C4C4C"/>
<path d="M549.523 377.955V404.315L548.864 403.953L547.746 403.333V376.977L548.864 377.592L549.523 377.955Z" fill="#F0F0F0"/>
<path d="M551.473 379.003V405.364L550.569 404.863L549.695 404.381V378.025L550.569 378.507L551.473 379.003Z" fill="#F0F0F0"/>
<path d="M551.475 405.364L552.866 404.596V379.771L551.475 379.003V405.364Z" fill="#8A8A8A"/>
<path d="M551.004 389.8C550.35 390.311 550.435 390.249 550.57 391.566C550.67 392.52 550.495 393.388 550.201 393.799C550.18 393.827 550.161 393.856 550.141 393.875H550.136C550.081 393.942 550.021 393.985 549.956 394.013C549.801 394.08 549.632 394.042 549.452 393.865C548.738 393.159 548.992 390.655 549.127 389.314C549.147 389.123 549.212 388.942 549.317 388.784C549.372 388.698 549.437 388.617 549.512 388.546C549.846 388.221 550.345 388.049 550.825 388.135C551.109 388.188 551.653 389.295 551.004 389.8Z" fill="#4C4C4C"/>
<path d="M550.201 393.798C550.18 393.827 550.161 393.856 550.141 393.875H550.136C550.086 393.903 550.021 393.951 549.956 394.013C549.801 394.08 549.632 394.042 549.452 393.865C548.738 393.159 548.992 390.654 549.127 389.314C549.147 389.123 549.212 388.941 549.317 388.784C549.347 388.65 549.422 388.569 549.512 388.545C549.786 388.464 550.24 388.913 550.266 389.9C550.29 391.107 550.435 393.345 550.201 393.798Z" fill="#8A8A8A"/>
<path d="M548.614 388.481C547.96 388.991 548.044 388.93 548.179 390.246C548.279 391.201 548.104 392.069 547.81 392.479C547.79 392.508 547.77 392.537 547.75 392.556H547.745C547.69 392.622 547.63 392.665 547.565 392.694C547.411 392.761 547.241 392.723 547.061 392.546C546.347 391.84 546.602 389.335 546.737 387.994C546.757 387.803 546.821 387.622 546.926 387.465C546.981 387.379 547.046 387.298 547.121 387.226C547.455 386.902 547.955 386.73 548.434 386.816C548.719 386.868 549.263 387.975 548.614 388.481Z" fill="#4C4C4C"/>
<path d="M547.81 392.479C547.79 392.508 547.77 392.536 547.75 392.555H547.745C547.695 392.584 547.63 392.632 547.565 392.694C547.411 392.761 547.241 392.722 547.061 392.546C546.347 391.84 546.602 389.335 546.737 387.994C546.757 387.803 546.821 387.622 546.926 387.465C546.956 387.331 547.031 387.25 547.121 387.226C547.395 387.145 547.85 387.594 547.875 388.581C547.9 389.788 548.044 392.026 547.81 392.479Z" fill="#8A8A8A"/>
<path opacity="0.3" d="M559.971 408.518V409.291L552.164 404.982V379.385L552.868 379.771V404.596L559.971 408.518Z" fill="white"/>
<path opacity="0.3" d="M547.674 401.734V402.509L541.596 399.154V373.555L542.323 373.956V398.78L547.674 401.734Z" fill="#8A8A8A"/>
<path opacity="0.7" d="M553.761 392.191C553.661 392.515 553.002 392.716 552.867 391.876V387.558C553.371 387.348 553.785 387.843 553.845 388.429C553.925 389.145 553.866 391.866 553.761 392.191Z" fill="#8A8A8A"/>
<path d="M551.399 408.963C555.39 408.963 555.898 406.581 555.898 406.581C555.898 406.581 554.937 411.566 554.937 411.583C554.956 412.108 554.602 412.636 553.876 413.037C552.46 413.818 550.163 413.818 548.747 413.037C548.035 412.644 547.681 412.129 547.685 411.614C547.685 411.596 546.725 406.554 546.725 406.554C546.725 406.554 547.408 408.963 551.399 408.963Z" fill="#4C4C4C"/>
<path d="M548.068 404.785C549.859 403.797 552.764 403.797 554.555 404.785C556.346 405.774 556.346 407.376 554.555 408.365C552.764 409.354 549.859 409.354 548.068 408.365C546.277 407.376 546.277 405.774 548.068 404.785ZM548.418 408.172C550.013 409.052 552.609 409.052 554.205 408.172C555.8 407.291 555.8 405.859 554.205 404.978C552.609 404.098 550.013 404.098 548.418 404.978C546.822 405.859 546.822 407.291 548.418 408.172Z" fill="#8A8A8A"/>
<path d="M551.31 403.992C554.557 403.992 555.477 405.841 555.4 406.644C555.346 407.198 554.971 407.75 554.205 408.173C552.608 409.053 550.012 409.053 548.415 408.173C547.607 407.727 547.219 407.14 547.219 406.554C547.219 405.894 548.064 403.992 551.31 403.992Z" fill="#77CB7B"/>
<path d="M551.377 403.14L551.475 403.272L551.417 403.392L551.029 403.31C548.098 403.503 547.053 401.413 547.053 401.413L547.11 401.293C548.102 400.79 549.29 400.58 551.377 403.14Z" fill="#77CB7B"/>
<path d="M554.554 396.776L554.71 396.884C554.71 396.884 554.95 400.114 551.247 401.813L550.835 402.169L550.679 402.061L550.702 401.836C551.389 397.347 552.984 396.819 554.554 396.776Z" fill="#77CB7B"/>
<path d="M548.155 396.811C551.026 399.401 551.769 403.089 551.933 405.457C551.933 405.457 551.956 405.556 551.96 405.664C552.026 405.757 551.991 405.867 551.854 405.943C551.67 406.045 551.371 406.045 551.187 405.943C551.071 405.878 551.028 405.789 551.06 405.706C551.028 405.632 551.005 405.538 550.997 405.417C550.894 403.871 550.097 399.779 547.52 397.453C547.335 397.286 547.326 397.006 547.502 396.829C547.677 396.652 547.969 396.644 548.155 396.811Z" fill="#55BE5A"/>
<path d="M544.159 397.126C544.159 397.126 544.214 396.953 544.35 396.705C544.741 395.987 545.542 395.739 546.371 395.712C546.031 395.247 546.077 394.696 547.156 394.163C548.408 393.543 548.979 394.025 549.213 394.69C549.991 394.135 550.835 393.799 551.475 394.214C551.577 394.281 551.618 394.265 551.618 394.265C551.618 394.265 551.522 394.373 551.648 394.398C551.656 394.959 551.149 395.513 550.756 395.772C551.398 395.795 552.003 396.011 552.003 396.011C552.003 396.011 552.157 396.242 551.767 396.726C551.201 397.41 550.519 397.83 549.795 397.751C549.681 398.406 549.156 398.795 547.981 398.995C546.928 399.12 546.85 398.744 546.85 398.744C546.85 398.744 546.894 398.766 546.898 398.648C546.098 399.215 545.18 399.372 544.547 398.936C544.371 398.811 544.297 398.732 544.256 398.643C544.09 398.281 544.605 398.075 545.212 397.661C544.988 397.659 544.788 397.637 544.628 397.59C544.354 397.513 544.159 397.126 544.159 397.126Z" fill="#00369A"/>
<path d="M548.135 395.989C548.943 395.756 548.993 396.228 548.818 396.458C548.268 397.178 545.842 399.829 544.486 398.897C543.131 397.965 547.327 396.222 548.135 395.989Z" fill="#0047CC"/>
<path d="M548.847 395.978C549.328 396.251 548.721 396.723 548.381 396.831C547.318 397.169 543.315 398.17 544.239 396.477C545.163 394.783 548.365 395.705 548.847 395.978Z" fill="#0047CC"/>
<path d="M547.047 393.934C549.392 392.775 549.348 395.473 549.179 396.012C549.01 396.551 548.241 396.678 547.998 396.596C547.237 396.337 544.703 395.093 547.047 393.934Z" fill="#0047CC"/>
<path d="M551.366 393.985C552.761 394.89 548.583 396.678 547.776 396.92C546.969 397.163 546.904 396.695 547.073 396.465C547.605 395.743 549.971 393.08 551.366 393.985Z" fill="#0047CC"/>
<path d="M548.173 395.75C549.23 395.551 553.117 395.094 551.736 396.763C550.356 398.431 547.816 396.956 547.478 396.59C547.141 396.224 547.836 395.813 548.173 395.75Z" fill="#0047CC"/>
<path d="M549.377 395.766C549.682 396.32 550.406 398.581 547.95 399C545.495 399.419 547.611 396.503 548.14 395.977C548.669 395.452 549.279 395.589 549.377 395.766Z" fill="#0047CC"/>
<path d="M547.493 395.579C548.327 395.181 549.224 395.221 549.495 395.667C549.768 396.113 549.312 396.797 548.478 397.194C547.644 397.592 546.748 397.552 546.476 397.106C546.204 396.66 546.659 395.976 547.493 395.579Z" fill="white"/>
<defs>
<clipPath id="clip0_12955_714044">
<rect width="23" height="23" fill="white" transform="matrix(-1 0 0 1 374 337)"/>
</clipPath>
<clipPath id="clip1_12955_714044">
<rect width="23" height="23" fill="white" transform="matrix(-1 0 0 1 254 407)"/>
</clipPath>
<clipPath id="clip2_12955_714044">
<rect width="23" height="23" fill="white" transform="matrix(-1 0 0 1 490 407)"/>
</clipPath>
<clipPath id="clip3_12955_714044">
<rect width="23" height="23" fill="white" transform="translate(435 495)"/>
</clipPath>
</defs>
</svg>
