<svg width="654" height="674" viewBox="0 0 654 674" fill="none" xmlns="http://www.w3.org/2000/svg">
<path d="M612.74 499.128V298.823L621.298 293.883V494.187L612.74 499.128Z" fill="#5A6357"/>
<path d="M621.3 293.914L335.558 128.939L327 133.88L612.743 298.854L621.3 293.914Z" fill="#707A6D"/>
<path d="M327.084 664.117L41.3418 499.143V509.025L327.084 673.997V664.117Z" fill="#F0F0F0"/>
<path d="M327.082 664.117L612.824 499.143V509.025L327.082 673.997V664.117Z" fill="#BBBBBB"/>
<path d="M327.087 664.097L41.3457 499.124L327.08 334.156L612.821 499.129L327.087 664.097Z" fill="white"/>
<path d="M70.6727 516.055L67.6133 514.288L353.346 349.32L356.407 351.087L70.6727 516.055Z" fill="#F0F0F0"/>
<path d="M99.4435 532.664L96.3828 530.899L382.117 365.93L385.176 367.697L99.4435 532.664Z" fill="#F0F0F0"/>
<path d="M128.209 549.275L125.148 547.508L410.882 382.539L413.943 384.306L128.209 549.275Z" fill="#F0F0F0"/>
<path d="M156.979 565.884L153.918 564.116L439.652 399.148L442.713 400.916L156.979 565.884Z" fill="#F0F0F0"/>
<path d="M185.748 582.494L182.688 580.727L468.42 415.76L471.481 417.526L185.748 582.494Z" fill="#F0F0F0"/>
<path d="M214.516 599.102L211.455 597.335L497.189 432.367L500.25 434.134L214.516 599.102Z" fill="#F0F0F0"/>
<path d="M243.283 615.713L240.223 613.944L525.957 448.977L529.017 450.744L243.283 615.713Z" fill="#F0F0F0"/>
<path d="M272.055 632.323L268.994 630.555L554.727 465.588L557.787 467.354L272.055 632.323Z" fill="#F0F0F0"/>
<path d="M300.822 648.93L297.762 647.164L583.496 482.195L586.556 483.962L300.822 648.93Z" fill="#F0F0F0"/>
<path d="M612.742 499.127L327 334.154V133.85L612.742 298.822V499.127Z" fill="#BECDBA"/>
<path d="M32.6992 293.914L326.999 124L335.557 128.94L41.2575 298.855L32.6992 293.914Z" fill="#707A6D"/>
<path d="M41.2575 499.128V298.823L32.6992 293.883V494.187L41.2575 499.128Z" fill="#5A6357"/>
<path d="M41.2578 499.127L327 334.154V133.85L41.2578 298.822V499.127Z" fill="#ACBBA8"/>
<path d="M401.133 223.887L401.142 223.88C401.148 223.875 401.154 223.87 401.161 223.866L402.297 223.031L402.297 223.031C402.343 222.988 402.41 222.988 402.485 223.043C402.624 223.146 402.736 223.397 402.736 223.602C402.736 223.695 402.713 223.761 402.675 223.798L402.676 223.799L402.672 223.801C402.666 223.808 402.659 223.813 402.651 223.817L401.514 224.652L401.512 224.649C401.466 224.691 401.402 224.692 401.327 224.637C401.189 224.534 401.076 224.284 401.076 224.078C401.076 223.989 401.1 223.929 401.135 223.89L401.133 223.887Z" fill="#4C4C4C"/>
<path d="M424.895 255.617L424.479 256.095L401.561 224.636L378.642 229.323L378.227 228.36L401.561 223.589L424.895 255.617Z" fill="#E0E0E0"/>
<path d="M401.076 223.133C401.535 223.444 401.906 224.201 401.906 224.823C401.906 225.445 401.535 225.697 401.076 225.386C400.618 225.075 400.246 224.319 400.246 223.697C400.246 223.074 400.618 222.822 401.076 223.133Z" fill="white"/>
<path d="M425.016 294.671L379.584 268.136V227.02L425.016 253.555V294.671Z" fill="#F0F0F0"/>
<path d="M399.37 251.442C400.886 252.327 402.115 254.481 402.115 256.253C402.115 258.024 400.886 258.742 399.37 257.856C397.854 256.971 396.624 254.817 396.624 253.046C396.624 251.274 397.853 250.556 399.37 251.442Z" fill="#C6C6C6"/>
<path d="M423.42 290.374L401.901 277.806L397.011 267.874L406.026 255.679L423.42 290.374Z" fill="#E0E0E0"/>
<path d="M397.01 267.872L393.356 272.814L382.169 266.28L390.959 255.583L397.01 267.872Z" fill="#C6C6C6"/>
<path d="M401.9 277.805L393.357 272.815L397.01 267.873L401.9 277.805Z" fill="#C6C6C6"/>
<path d="M428 252.897L425.274 254.536L381.867 229.184V229.918C380.687 229.302 379.524 228.776 378.122 228.394C377.787 228.303 377.456 228.197 377.128 228.086L377.001 225.609L379.14 224.359L428 252.897Z" fill="#4C4C4C"/>
<path d="M428 295.75L425.861 297L425.274 290.926V254.536L428 252.897V295.75Z" fill="#333333"/>
<path d="M381.867 265.574L379.141 267.213L377.18 229.097C378.893 229.569 380.363 230.19 381.867 230.967V265.574Z" fill="#C6C6C6"/>
<path d="M425.274 290.926L425.861 296.999L379.141 267.212L381.867 265.573L425.274 290.926Z" fill="#E0E0E0"/>
<path d="M425.859 297L376.999 268.462V225.609L425.859 254.147V297ZM423.133 255.786L379.726 230.433V266.823L423.133 292.176V255.786Z" fill="#8A8A8A"/>
<path d="M139.057 377.132V294.635L193.545 262.549L194.063 411.333L198.208 409.354L204.678 250.848L199.779 248L131.001 288.503V442.747L135.899 445.033L139.057 377.132Z" fill="#8A8A8A"/>
<path d="M143.956 379.978V297.481L198.443 265.395V409.353L204.678 405.394L204.678 250.846L135.899 291.348V444.99L143.956 439.887V379.978Z" fill="#F0F0F0"/>
<path d="M195.031 267.403V411.331L143.953 440.038V297.482L195.031 267.403Z" fill="white"/>
<path d="M153.796 366.524C155.384 367.847 155.178 367.686 154.85 371.099C154.608 373.572 155.032 375.823 155.748 376.886C155.796 376.96 155.844 377.034 155.893 377.084H155.905C156.039 377.257 156.184 377.368 156.342 377.443C156.717 377.616 157.13 377.517 157.566 377.059C159.3 375.229 158.681 368.738 158.354 365.263C158.306 364.768 158.148 364.298 157.894 363.89C157.76 363.667 157.603 363.457 157.421 363.272C156.608 362.431 155.396 361.986 154.232 362.208C153.541 362.344 152.22 365.213 153.796 366.524Z" fill="#4C4C4C"/>
<path d="M155.748 376.889C155.796 376.963 155.844 377.037 155.893 377.086H155.905C156.027 377.161 156.184 377.284 156.342 377.445C156.717 377.618 157.13 377.519 157.566 377.062C159.3 375.232 158.681 368.74 158.354 365.265C158.306 364.77 158.148 364.3 157.894 363.892C157.821 363.546 157.639 363.336 157.421 363.274C156.754 363.064 155.651 364.226 155.59 366.786C155.529 369.914 155.178 375.714 155.748 376.889Z" fill="#8A8A8A"/>
<path d="M555.527 385.654L528.104 401.968V407.001L555.527 390.687V385.654Z" fill="#8A8A8A"/>
<path d="M501.424 353.471L478.23 367.268C475.612 368.825 474 371.703 474 374.817L528.103 407.002C528.103 403.887 529.715 401.01 532.333 399.453L555.527 385.656L501.424 353.471Z" fill="white"/>
<path d="M550.943 393.449V310.111L496.455 277.697V356.507L490.221 360.17L485.322 265.877L490.221 263L558.999 303.916V402.389L554.101 405.266L550.943 393.449Z" fill="#C7C7C7"/>
<path d="M546.044 396.326V312.987L491.557 280.573V359.383L485.322 363.046V265.876L554.101 306.792V405.265L542.559 398.399L546.044 396.326Z" fill="white"/>
<path d="M546.047 391.295L554.104 400.736V405.267L542.562 398.401L546.047 396.328V391.295Z" fill="#8A8A8A"/>
<path d="M494.969 282.604V357.383L546.047 387.769V312.99L494.969 282.604Z" fill="#F0F0F0"/>
<path d="M546.045 312.991V381.996L525.411 369.729L523.217 368.417L521.095 367.156L520.501 366.806L518.901 365.857L516.185 364.233L499.818 354.502V285.484L503.189 287.496L516.185 295.228L518.901 296.84L520.501 297.789L521.095 298.151L523.217 299.413L525.411 300.712L546.045 312.991Z" fill="#8A8A8A"/>
<path d="M546.044 312.99V377.985L545.474 377.647L525.41 365.705L523.215 364.406L521.094 363.144L520.5 362.782L518.9 361.833L516.184 360.221L503.188 352.489V287.494L516.184 295.226L518.9 296.838L520.5 297.787L521.094 298.149L523.215 299.411L525.41 300.71L546.044 312.99Z" fill="#B6CEFB"/>
<path opacity="0.3" d="M546.044 354.949V377.984L525.41 365.705L523.216 364.405L521.094 363.144L520.5 362.781L518.9 361.832L516.184 360.221L503.188 352.488L520.682 342.083C522.73 340.871 524.416 342.083 524.416 342.083L546.044 354.949Z" fill="#E0E0E0"/>
<path d="M523.218 299.41V368.415L521.096 367.153L520.503 366.804L518.902 365.854V296.837L520.503 297.786L521.096 298.149L523.218 299.41Z" fill="#4C4C4C"/>
<path d="M520.671 297.966V366.984L519.071 366.034L516.355 364.41V295.405L519.071 297.017L520.671 297.966Z" fill="#F0F0F0"/>
<path d="M525.41 300.711V369.728L523.216 368.417L521.094 367.155V298.15L523.216 299.412L525.41 300.711Z" fill="#F0F0F0"/>
<path d="M525.412 369.727L528.792 367.716V302.721L525.412 300.71V369.727Z" fill="#8A8A8A"/>
<path d="M524.271 328.979C522.683 330.316 522.888 330.154 523.216 333.602C523.459 336.1 523.034 338.373 522.319 339.448C522.27 339.522 522.222 339.597 522.173 339.648H522.161C522.028 339.822 521.882 339.935 521.725 340.01C521.349 340.185 520.937 340.085 520.5 339.623C518.767 337.774 519.385 331.216 519.712 327.706C519.761 327.206 519.918 326.731 520.173 326.319C520.306 326.094 520.464 325.882 520.646 325.694C521.458 324.845 522.67 324.395 523.834 324.62C524.525 324.757 525.847 327.655 524.271 328.979Z" fill="#4C4C4C"/>
<path d="M522.319 339.448C522.27 339.522 522.222 339.597 522.173 339.648H522.161C522.04 339.722 521.882 339.847 521.725 340.01C521.349 340.185 520.937 340.085 520.5 339.623C518.767 337.774 519.385 331.216 519.712 327.706C519.761 327.206 519.918 326.731 520.173 326.319C520.246 325.969 520.428 325.757 520.646 325.694C521.313 325.482 522.416 326.656 522.477 329.242C522.537 332.402 522.889 338.261 522.319 339.448Z" fill="#8A8A8A"/>
<path d="M518.466 325.526C516.878 326.863 517.084 326.701 517.411 330.148C517.654 332.647 517.229 334.92 516.514 335.994C516.465 336.069 516.417 336.145 516.369 336.194H516.356C516.223 336.369 516.078 336.482 515.92 336.557C515.544 336.732 515.132 336.632 514.696 336.17C512.962 334.321 513.58 327.763 513.907 324.252C513.956 323.753 514.114 323.278 514.368 322.866C514.501 322.641 514.659 322.429 514.841 322.241C515.653 321.392 516.865 320.942 518.029 321.167C518.721 321.304 520.042 324.202 518.466 325.526Z" fill="#4C4C4C"/>
<path d="M516.514 335.994C516.465 336.069 516.417 336.145 516.369 336.194H516.356C516.235 336.269 516.078 336.394 515.92 336.557C515.544 336.732 515.132 336.632 514.696 336.17C512.962 334.321 513.58 327.763 513.907 324.252C513.956 323.753 514.114 323.278 514.368 322.866C514.441 322.516 514.623 322.304 514.841 322.241C515.508 322.029 516.611 323.203 516.672 325.789C516.732 328.949 517.084 334.808 516.514 335.994Z" fill="#8A8A8A"/>
<path opacity="0.3" d="M546.047 377.985V380.009L527.086 368.729V301.71L528.795 302.722V367.717L546.047 377.985Z" fill="white"/>
<path opacity="0.3" d="M516.184 360.223V362.252L501.422 353.47V286.445L503.187 287.496V352.49L516.184 360.223Z" fill="#8A8A8A"/>
<path opacity="0.7" d="M530.965 335.239C530.723 336.088 529.122 336.613 528.795 334.414V323.109C530.019 322.56 531.025 323.854 531.17 325.391C531.364 327.264 531.219 334.389 530.965 335.239Z" fill="#8A8A8A"/>
<path d="M525.231 379.148C534.924 379.148 536.158 372.911 536.158 372.911C536.158 372.911 533.823 385.963 533.824 386.009C533.868 387.384 533.009 388.766 531.247 389.815C527.807 391.861 522.23 391.861 518.791 389.815C517.062 388.786 516.203 387.437 516.211 386.09C516.212 386.043 513.879 372.841 513.879 372.841C513.879 372.841 515.538 379.148 525.231 379.148Z" fill="#4C4C4C"/>
<path d="M517.141 368.211C521.492 365.624 528.545 365.624 532.895 368.211C537.246 370.799 537.246 374.995 532.895 377.584C528.545 380.172 521.492 380.172 517.141 377.584C512.791 374.995 512.791 370.799 517.141 368.211ZM517.991 377.078C521.865 379.382 528.17 379.382 532.045 377.078C535.92 374.773 535.92 371.023 532.045 368.717C528.17 366.412 521.865 366.412 517.991 368.717C514.116 371.023 514.116 374.773 517.991 377.078Z" fill="#8A8A8A"/>
<path d="M525.018 366.137C532.904 366.137 535.138 370.976 534.95 373.08C534.82 374.53 533.909 375.975 532.048 377.082C528.171 379.388 521.864 379.388 517.988 377.082C516.026 375.915 515.082 374.377 515.082 372.843C515.081 371.117 517.134 366.137 525.018 366.137Z" fill="#77CB7B"/>
<path d="M525.177 363.904L525.414 364.25L525.275 364.564L524.332 364.349C517.213 364.856 514.675 359.383 514.675 359.383L514.814 359.069C517.224 357.75 520.108 357.201 525.177 363.904Z" fill="#77CB7B"/>
<path d="M532.893 347.244L533.272 347.527C533.272 347.527 533.854 355.982 524.863 360.43L523.861 361.362L523.482 361.08L523.539 360.49C525.207 348.739 529.08 347.355 532.893 347.244Z" fill="#77CB7B"/>
<path d="M517.353 347.334C524.325 354.116 526.13 363.771 526.529 369.971C526.529 369.971 526.584 370.23 526.593 370.513C526.754 370.757 526.669 371.046 526.337 371.243C525.89 371.509 525.164 371.509 524.717 371.243C524.434 371.075 524.331 370.84 524.407 370.622C524.329 370.428 524.274 370.184 524.254 369.867C524.005 365.819 522.07 355.104 515.812 349.016C515.361 348.577 515.34 347.846 515.766 347.381C516.192 346.917 516.902 346.896 517.353 347.334Z" fill="#55BE5A"/>
<path d="M507.649 348.157C507.649 348.157 507.783 347.706 508.112 347.056C509.063 345.177 511.006 344.527 513.019 344.457C512.196 343.239 512.307 341.796 514.927 340.4C517.969 338.778 519.354 340.039 519.923 341.78C521.812 340.328 523.862 339.448 525.416 340.535C525.664 340.709 525.763 340.669 525.763 340.669C525.763 340.669 525.53 340.951 525.836 341.015C525.854 342.485 524.624 343.936 523.671 344.614C525.229 344.674 526.699 345.239 526.699 345.239C526.699 345.239 527.073 345.843 526.125 347.11C524.751 348.902 523.094 350.003 521.335 349.794C521.06 351.509 519.783 352.527 516.93 353.053C514.373 353.38 514.183 352.394 514.183 352.394C514.183 352.394 514.29 352.453 514.3 352.143C512.356 353.627 510.129 354.039 508.59 352.898C508.163 352.571 507.983 352.364 507.884 352.132C507.481 351.182 508.731 350.644 510.206 349.561C509.662 349.554 509.177 349.496 508.787 349.372C508.123 349.172 507.649 348.157 507.649 348.157Z" fill="#00369A"/>
<path d="M517.307 345.181C519.269 344.572 519.391 345.808 518.965 346.41C517.631 348.295 511.739 355.236 508.446 352.795C505.154 350.355 515.345 345.791 517.307 345.181Z" fill="#0047CC"/>
<path d="M519.035 345.153C520.204 345.869 518.73 347.103 517.905 347.386C515.322 348.273 505.601 350.894 507.845 346.459C510.089 342.024 517.865 344.438 519.035 345.153Z" fill="#0047CC"/>
<path d="M514.664 339.802C520.358 336.766 520.25 343.831 519.839 345.242C519.429 346.654 517.562 346.987 516.972 346.771C515.125 346.094 508.969 342.837 514.664 339.802Z" fill="#0047CC"/>
<path d="M525.151 339.937C528.539 342.306 518.394 346.987 516.433 347.622C514.473 348.256 514.315 347.032 514.727 346.428C516.019 344.539 521.763 337.567 525.151 339.937Z" fill="#0047CC"/>
<path d="M517.399 344.555C519.965 344.034 529.404 342.839 526.052 347.208C522.7 351.576 516.531 347.713 515.711 346.755C514.891 345.797 516.58 344.721 517.399 344.555Z" fill="#0047CC"/>
<path d="M520.32 344.598C521.063 346.048 522.82 351.968 516.856 353.065C510.893 354.162 516.032 346.526 517.318 345.151C518.603 343.775 520.083 344.135 520.32 344.598Z" fill="#0047CC"/>
<path d="M515.745 344.109C517.77 343.068 519.947 343.172 520.608 344.34C521.268 345.508 520.162 347.299 518.137 348.339C516.112 349.379 513.934 349.275 513.274 348.107C512.613 346.939 513.72 345.149 515.745 344.109Z" fill="white"/>
<path d="M230.636 378.972C230.682 377.053 231.869 375.226 234.245 373.854C239.596 370.765 248.942 371.152 255.12 374.719C258.524 376.685 260.255 379.206 260.229 381.59H260.23V387.259C260.223 388.906 259.376 390.488 257.666 391.779L256.132 401.624C256.12 403.032 255.261 404.374 253.521 405.379C249.652 407.613 242.894 407.333 238.427 404.753C236.059 403.387 234.81 401.648 234.735 399.984L234.731 399.983L233.206 389.773C231.462 388.171 230.595 386.387 230.635 384.675H230.635V379.176C230.634 379.118 230.634 379.06 230.635 379.002V378.972H230.636Z" fill="#4C4C4C"/>
<path d="M231.637 379.176C231.636 379.117 231.636 379.059 231.637 379.001V378.972H231.637C231.683 377.053 232.871 375.226 235.247 373.854C240.597 370.765 249.943 371.152 256.121 374.719C259.526 376.685 261.257 379.205 261.231 381.589L261.232 381.59V387.259H261.232C261.223 389.214 260.036 391.078 257.62 392.473C252.269 395.562 242.924 395.174 236.746 391.608C233.312 389.625 231.58 387.077 231.637 384.675H231.637V379.176Z" fill="#8A8A8A"/>
<path d="M236.744 385.906C242.922 389.473 252.268 389.861 257.619 386.771C262.969 383.682 262.298 378.286 256.12 374.719C249.942 371.152 240.595 370.765 235.245 373.854C229.895 376.943 230.566 382.339 236.744 385.906Z" fill="#C6C6C6"/>
<path d="M238.557 384.863C243.58 387.763 251.178 388.078 255.528 385.567C259.878 383.055 259.332 378.668 254.31 375.768C249.287 372.868 241.689 372.553 237.338 375.065C232.988 377.576 233.534 381.963 238.557 384.863Z" fill="#4C4C4C"/>
<path d="M237.338 379.933C241.688 377.421 249.286 377.736 254.309 380.636C255.874 381.54 257.005 382.588 257.688 383.679C257.2 384.374 256.482 385.016 255.528 385.566C251.178 388.078 243.579 387.763 238.557 384.863C236.991 383.959 235.861 382.911 235.178 381.82C235.666 381.125 236.384 380.484 237.338 379.933Z" fill="#8A8A8A"/>
<path d="M254.969 362.666C252.119 372.836 252.838 385.253 251.989 385.594C251.022 385.983 247.925 385.797 247.286 383.504C247.286 383.504 249.026 370.648 251.809 361.02L254.969 362.666Z" fill="#55BE5A"/>
<path d="M238.517 352.853C241.367 363.022 242.227 382.895 243.077 383.236C244.044 383.625 247.141 383.439 247.779 381.146C247.779 381.146 244.24 362.184 242.217 351.206L238.517 352.853Z" fill="#2B9E31"/>
<path d="M222.78 365.844C225.803 365.511 228.227 365.669 227.49 363.552C226.753 361.433 221.664 361.171 218.371 362.658C217.996 362.828 217.626 363.021 217.263 363.23C216.15 359.964 215.639 356.209 216.283 352.015C217.383 344.846 223.575 338.828 229.346 340.689C235.119 342.55 236.225 349.76 236.225 349.76C236.225 349.76 240.769 344.054 246.703 345.309C252.532 346.542 254.929 354.573 252.537 361.272C251.802 359.86 250.68 357.998 249.286 356.613C246.722 354.066 241.863 352.53 240.431 354.256C238.999 355.982 241.325 356.682 244.04 358.053C246.352 359.221 249.656 361.36 250.658 365.242C249.792 366.703 248.811 367.997 247.753 369.144C247.373 368.343 246.927 367.545 246.411 366.832C244.293 363.904 239.746 361.602 238.055 363.074C236.362 364.545 238.544 365.612 241.001 367.404C242.311 368.359 243.943 369.753 245.07 371.641C237.734 377.505 228.705 378.014 228.705 378.014C228.705 378.014 222.503 373.982 218.766 366.75C220.19 366.217 221.615 365.973 222.78 365.844ZM236.685 372.999C238.467 373.973 239.213 373.3 238.784 372.014C238.44 370.984 237.51 369.873 236.818 369.147C236.195 368.493 235.41 368.004 234.534 367.78C233.919 367.623 233.279 367.587 232.982 367.975C232.322 368.837 234.903 372.024 236.685 372.999Z" fill="#55BE5A"/>
<path d="M252.146 350.995C257.64 348.428 263.36 352.956 263.36 352.956C263.36 352.956 262.804 345.683 268.004 342.563C273.113 339.498 280.336 343.749 283.145 350.285C281.646 349.75 279.556 349.15 277.592 349.084C273.98 348.965 269.375 351.147 269.501 353.386C269.628 355.625 271.808 354.554 274.729 353.711C277.218 352.992 281.094 352.31 284.471 354.472C284.832 356.131 284.994 357.747 285 359.307C284.176 358.979 283.306 358.697 282.443 358.527C278.898 357.824 274.001 359.233 273.763 361.463C273.525 363.693 275.85 362.989 278.87 362.629C280.48 362.437 282.624 362.347 284.734 362.963C283.354 372.252 277.086 378.772 277.086 378.772C277.086 378.772 259.552 381.827 250.288 368.185C246.213 362.185 246.651 353.562 252.146 350.995ZM258.042 369.089C259.011 369.578 261.666 366.452 262.295 364.521C262.924 362.59 262.124 361.981 260.94 362.64C259.99 363.168 259.071 364.288 258.485 365.101C257.957 365.835 257.622 366.697 257.563 367.599C257.522 368.233 257.605 368.868 258.042 369.089Z" fill="#2B9E31"/>
</svg>
