<svg width="654" height="674" viewBox="0 0 654 674" fill="none" xmlns="http://www.w3.org/2000/svg">
<path d="M420.75 435.945V301.416L426.498 298.098V432.627L420.75 435.945Z" fill="#8A8A8A"/>
<path d="M426.499 298.119L234.588 187.318L228.84 190.636L420.752 301.437L426.499 298.119Z" fill="#707A6D"/>
<path d="M233.5 549.363L36.9844 435.955V442.592L233.5 556V549.363Z" fill="#F0F0F0"/>
<path d="M228.895 546.756L420.806 435.955V442.592L228.895 553.392V546.756Z" fill="#8A8A8A"/>
<path d="M228.897 546.743L36.9863 435.944L228.892 325.147L420.803 435.947L228.897 546.743Z" fill="white"/>
<path d="M56.6837 447.316L54.6289 446.129L246.534 335.333L248.589 336.52L56.6837 447.316Z" fill="#F0F0F0"/>
<path d="M76.0068 458.47L73.9512 457.284L265.857 346.487L267.912 347.674L76.0068 458.47Z" fill="#F0F0F0"/>
<path d="M95.3271 469.626L93.2715 468.44L285.177 357.643L287.233 358.829L95.3271 469.626Z" fill="#F0F0F0"/>
<path d="M114.649 480.783L112.594 479.595L304.5 368.799L306.555 369.986L114.649 480.783Z" fill="#F0F0F0"/>
<path d="M133.972 491.937L131.916 490.75L323.821 379.954L325.877 381.14L133.972 491.937Z" fill="#F0F0F0"/>
<path d="M153.292 503.092L151.236 501.906L343.142 391.109L345.198 392.296L153.292 503.092Z" fill="#F0F0F0"/>
<path d="M172.614 514.249L170.559 513.061L362.464 402.265L364.52 403.451L172.614 514.249Z" fill="#F0F0F0"/>
<path d="M191.937 525.403L189.881 524.216L381.786 413.42L383.841 414.606L191.937 525.403Z" fill="#F0F0F0"/>
<path d="M211.257 536.558L209.201 535.372L401.107 424.575L403.163 425.762L211.257 536.558Z" fill="#F0F0F0"/>
<path d="M420.751 435.945L228.84 325.146V190.616L420.751 301.416V435.945Z" fill="#BECDBA"/>
<path d="M31.1797 298.119L228.839 184L234.587 187.318L36.9276 301.437L31.1797 298.119Z" fill="#707A6D"/>
<path d="M36.9276 435.945V301.416L31.1797 298.098V432.627L36.9276 435.945Z" fill="#5A6357"/>
<path d="M36.9277 435.945L228.839 325.146V190.616L36.9277 301.416V435.945Z" fill="#ACBBA8"/>
<path d="M130.277 286.503L130.272 286.499C130.268 286.496 130.265 286.494 130.261 286.492L129.615 286.018L129.615 286.018C129.589 285.993 129.551 285.993 129.508 286.025C129.429 286.083 129.365 286.225 129.365 286.342C129.365 286.394 129.379 286.432 129.4 286.453L129.4 286.453L129.402 286.455C129.405 286.458 129.409 286.461 129.414 286.464L130.06 286.937L130.061 286.936C130.087 286.96 130.124 286.961 130.166 286.929C130.245 286.871 130.309 286.729 130.309 286.612C130.309 286.561 130.296 286.527 130.276 286.505L130.277 286.503Z" fill="#4C4C4C"/>
<path d="M116.766 304.513L117.002 304.784L130.034 286.929L143.066 289.589L143.302 289.043L130.034 286.335L116.766 304.513Z" fill="#E0E0E0"/>
<path d="M130.31 286.076C130.049 286.252 129.838 286.682 129.838 287.035C129.838 287.388 130.049 287.531 130.31 287.354C130.571 287.178 130.782 286.748 130.782 286.395C130.782 286.042 130.571 285.899 130.31 286.076Z" fill="white"/>
<path d="M116.697 326.678L142.531 311.618V288.281L116.697 303.342V326.678Z" fill="#F0F0F0"/>
<path d="M131.28 302.143C130.418 302.646 129.719 303.868 129.719 304.874C129.719 305.879 130.418 306.286 131.28 305.784C132.142 305.281 132.841 304.058 132.841 303.053C132.841 302.048 132.142 301.64 131.28 302.143Z" fill="#C6C6C6"/>
<path d="M117.604 324.24L129.84 317.106L132.62 311.469L127.494 304.548L117.604 324.24Z" fill="#E0E0E0"/>
<path d="M132.621 311.468L134.699 314.273L141.06 310.564L136.062 304.493L132.621 311.468Z" fill="#C6C6C6"/>
<path d="M129.84 317.106L134.698 314.274L132.621 311.469L129.84 317.106Z" fill="#C6C6C6"/>
<path d="M115 302.969L116.55 303.899L141.233 289.51V289.927C141.903 289.577 142.565 289.278 143.362 289.061C143.553 289.01 143.741 288.95 143.927 288.887L144 287.481L142.783 286.771L115 302.969Z" fill="#4C4C4C"/>
<path d="M115 327.291L116.217 328L116.55 324.553V303.899L115 302.969V327.291Z" fill="#333333"/>
<path d="M141.232 310.163L142.783 311.094L143.898 289.46C142.924 289.728 142.088 290.081 141.232 290.521V310.163Z" fill="#C6C6C6"/>
<path d="M116.551 324.552L116.217 328L142.783 311.093L141.233 310.163L116.551 324.552Z" fill="#E0E0E0"/>
<path d="M116.217 327.999L144 311.802V287.48L116.217 303.678V327.999ZM117.767 304.608L142.449 290.218V310.872L117.767 325.262V304.608Z" fill="#8A8A8A"/>
<path d="M615.252 548.286V413.757L621 410.438V544.968L615.252 548.286Z" fill="#5A6357"/>
<path d="M621.001 410.46L429.09 299.659L423.342 302.977L615.254 413.778L621.001 410.46Z" fill="#707A6D"/>
<path d="M423.397 659.097L228.5 546.5V553.137L423.397 665.733V659.097Z" fill="#F0F0F0"/>
<path d="M423.396 659.097L615.308 548.296V554.933L423.396 665.733V659.097Z" fill="#BBBBBB"/>
<path d="M423.399 659.084L231.488 548.285L423.394 437.488L615.305 548.288L423.399 659.084Z" fill="white"/>
<path d="M251.186 559.657L249.131 558.47L441.036 447.674L443.091 448.861L251.186 559.657Z" fill="#F0F0F0"/>
<path d="M270.509 570.811L268.453 569.625L460.359 458.828L462.414 460.015L270.509 570.811Z" fill="#F0F0F0"/>
<path d="M289.829 581.967L287.773 580.78L479.679 469.983L481.735 471.17L289.829 581.967Z" fill="#F0F0F0"/>
<path d="M309.151 593.124L307.096 591.936L499.002 481.14L501.057 482.326L309.151 593.124Z" fill="#F0F0F0"/>
<path d="M328.474 604.278L326.418 603.091L518.323 492.295L520.379 493.481L328.474 604.278Z" fill="#F0F0F0"/>
<path d="M347.794 615.433L345.738 614.246L537.644 503.45L539.7 504.637L347.794 615.433Z" fill="#F0F0F0"/>
<path d="M367.116 626.589L365.061 625.402L556.966 514.605L559.022 515.792L367.116 626.589Z" fill="#F0F0F0"/>
<path d="M386.438 637.744L384.383 636.557L576.288 525.761L578.343 526.947L386.438 637.744Z" fill="#F0F0F0"/>
<path d="M405.759 648.899L403.703 647.713L595.609 536.916L597.665 538.103L405.759 648.899Z" fill="#F0F0F0"/>
<path d="M615.253 548.286L423.342 437.486V302.957L615.253 413.757V548.286Z" fill="#BECDBA"/>
<path d="M225.682 410.459L423.341 296.341L429.089 299.659L231.43 413.778L225.682 410.459Z" fill="#707A6D"/>
<path d="M231.43 548.286V413.757L225.682 410.438V544.968L231.43 548.286Z" fill="#5A6357"/>
<path d="M231.43 548.286L423.341 437.486V302.957L231.43 413.757V548.286Z" fill="#ACBBA8"/>
<path d="M320.213 458.343V405.099L355.47 384.39L355.806 475.846L358.467 477.615L362.674 376.838L359.504 375L315 401.141V500.691L318.17 502.167L320.213 458.343Z" fill="#8A8A8A"/>
<path d="M323.383 460.18V406.936L358.64 386.227V477.818L362.674 474.129L362.674 376.837L318.17 402.978V502.535L323.383 498.846V460.18Z" fill="#E0E0E0"/>
<path d="M356.432 387.525V477.45L323.381 501.06V406.938L356.432 387.525Z" fill="#F0F0F0"/>
<path d="M329.75 451.497C330.777 452.351 330.644 452.247 330.432 454.45C330.275 456.046 330.55 457.498 331.013 458.185C331.044 458.233 331.075 458.28 331.107 458.313H331.115C331.201 458.424 331.295 458.496 331.397 458.544C331.64 458.656 331.907 458.592 332.189 458.297C333.311 457.115 332.911 452.926 332.699 450.683C332.668 450.364 332.566 450.06 332.401 449.797C332.315 449.653 332.213 449.518 332.095 449.398C331.57 448.855 330.785 448.568 330.032 448.712C329.585 448.799 328.73 450.651 329.75 451.497Z" fill="#4C4C4C"/>
<path d="M331.013 458.184C331.044 458.232 331.075 458.28 331.107 458.312H331.115C331.193 458.36 331.295 458.44 331.397 458.543C331.64 458.655 331.907 458.591 332.189 458.296C333.311 457.115 332.911 452.925 332.699 450.682C332.668 450.363 332.566 450.06 332.401 449.797C332.354 449.573 332.236 449.437 332.095 449.397C331.664 449.262 330.95 450.012 330.911 451.664C330.871 453.683 330.644 457.426 331.013 458.184Z" fill="#8A8A8A"/>
<g clip-path="url(#clip0_12955_714068)">
<path d="M376 463.117C376.022 462.199 376.59 461.325 377.727 460.669C380.285 459.192 384.755 459.377 387.71 461.083C389.338 462.023 390.166 463.229 390.154 464.369H390.154V467.08C390.151 467.868 389.745 468.624 388.928 469.242L388.194 473.951C388.188 474.624 387.778 475.266 386.945 475.747C385.095 476.815 381.863 476.681 379.726 475.447C378.594 474.794 377.997 473.962 377.961 473.166L377.959 473.166L377.229 468.283C376.396 467.517 375.981 466.663 376 465.845H376V463.214C375.999 463.187 375.999 463.159 376 463.131V463.117H376Z" fill="#4C4C4C"/>
<path d="M376.478 463.214C376.478 463.186 376.478 463.159 376.478 463.131V463.117H376.479C376.5 462.199 377.068 461.325 378.205 460.669C380.764 459.192 385.234 459.377 388.188 461.083C389.817 462.023 390.645 463.229 390.632 464.369L390.633 464.369V467.08H390.633C390.629 468.015 390.061 468.907 388.905 469.574C386.346 471.051 381.876 470.866 378.922 469.16C377.279 468.212 376.451 466.993 376.479 465.844H376.478V463.214Z" fill="#8A8A8A"/>
<path d="M378.922 466.433C381.877 468.139 386.346 468.325 388.905 466.847C391.464 465.37 391.143 462.789 388.189 461.083C385.234 459.377 380.764 459.192 378.205 460.669C375.646 462.147 375.967 464.727 378.922 466.433Z" fill="#C6C6C6"/>
<path d="M379.787 465.935C382.19 467.322 385.824 467.472 387.904 466.271C389.985 465.07 389.723 462.972 387.321 461.585C384.919 460.198 381.285 460.047 379.205 461.248C377.124 462.45 377.385 464.548 379.787 465.935Z" fill="#4C4C4C"/>
<path d="M379.205 463.577C381.285 462.375 384.919 462.526 387.322 463.913C388.07 464.345 388.611 464.847 388.938 465.368C388.704 465.701 388.361 466.007 387.904 466.271C385.824 467.472 382.19 467.321 379.788 465.934C379.039 465.502 378.499 465.001 378.172 464.479C378.405 464.147 378.749 463.84 379.205 463.577Z" fill="#8A8A8A"/>
<path d="M387.637 455.319C386.274 460.183 386.618 466.121 386.211 466.284C385.749 466.47 384.268 466.381 383.962 465.285C383.962 465.285 384.795 459.136 386.125 454.531L387.637 455.319Z" fill="#55BE5A"/>
<path d="M379.769 450.625C381.132 455.489 381.544 464.993 381.95 465.157C382.413 465.342 383.894 465.254 384.199 464.157C384.199 464.157 382.507 455.088 381.539 449.838L379.769 450.625Z" fill="#2B9E31"/>
<path d="M372.243 456.839C373.689 456.679 374.849 456.755 374.496 455.742C374.144 454.729 371.71 454.604 370.135 455.315C369.955 455.396 369.778 455.489 369.605 455.588C369.073 454.026 368.828 452.23 369.136 450.225C369.662 446.796 372.623 443.918 375.384 444.808C378.144 445.698 378.674 449.146 378.674 449.146C378.674 449.146 380.847 446.417 383.685 447.017C386.473 447.607 387.619 451.448 386.475 454.652C386.124 453.977 385.587 453.086 384.92 452.423C383.694 451.206 381.37 450.471 380.685 451.296C380 452.122 381.113 452.457 382.411 453.112C383.517 453.671 385.097 454.694 385.576 456.551C385.162 457.249 384.693 457.868 384.187 458.417C384.005 458.034 383.792 457.652 383.545 457.311C382.532 455.911 380.358 454.81 379.549 455.513C378.739 456.217 379.783 456.727 380.958 457.585C381.584 458.041 382.365 458.708 382.904 459.611C379.396 462.415 375.077 462.659 375.077 462.659C375.077 462.659 372.111 460.73 370.324 457.272C371.005 457.017 371.686 456.9 372.243 456.839ZM378.894 460.26C379.746 460.726 380.103 460.404 379.898 459.79C379.733 459.297 379.288 458.766 378.957 458.418C378.659 458.105 378.284 457.872 377.865 457.765C377.571 457.689 377.265 457.672 377.123 457.857C376.807 458.27 378.041 459.794 378.894 460.26Z" fill="#55BE5A"/>
<path d="M386.287 449.737C388.915 448.509 391.65 450.675 391.65 450.675C391.65 450.675 391.384 447.196 393.871 445.704C396.315 444.238 399.77 446.271 401.113 449.397C400.396 449.142 399.396 448.854 398.457 448.823C396.729 448.766 394.527 449.81 394.588 450.881C394.648 451.951 395.691 451.439 397.088 451.036C398.278 450.692 400.132 450.366 401.747 451.4C401.92 452.193 401.997 452.966 402 453.712C401.606 453.555 401.19 453.421 400.777 453.339C399.082 453.003 396.74 453.677 396.626 454.743C396.512 455.81 397.624 455.473 399.068 455.301C399.838 455.209 400.864 455.166 401.873 455.461C401.213 459.903 398.215 463.021 398.215 463.021C398.215 463.021 389.829 464.483 385.399 457.958C383.45 455.088 383.659 450.964 386.287 449.737ZM389.107 458.39C389.571 458.625 390.84 457.13 391.141 456.206C391.442 455.282 391.059 454.991 390.493 455.306C390.039 455.559 389.599 456.094 389.319 456.484C389.066 456.834 388.906 457.247 388.878 457.678C388.858 457.981 388.898 458.285 389.107 458.39Z" fill="#2B9E31"/>
</g>
<path d="M330.631 338.918L311.918 349.681V353.001L330.631 342.238V338.918Z" fill="#8A8A8A"/>
<path d="M293.713 317.686L277.886 326.788C276.1 327.815 275 329.714 275 331.768L311.917 353.001C311.917 350.947 313.018 349.048 314.804 348.021L330.63 338.919L293.713 317.686Z" fill="#E0E0E0"/>
<path d="M327.501 344.06V289.08L290.321 267.696V319.689L286.067 322.105L282.725 259.898L286.067 258L332.998 284.993V349.958L329.656 351.856L327.501 344.06Z" fill="#8A8A8A"/>
<path d="M324.158 345.958V290.978L286.979 269.594V321.586L282.725 324.002V259.897L329.656 286.891V351.855L321.78 347.326L324.158 345.958Z" fill="#E0E0E0"/>
<path d="M324.161 342.639L329.659 348.867V351.856L321.783 347.326L324.161 345.959V342.639Z" fill="#8A8A8A"/>
<path d="M289.309 270.934V320.267L324.162 340.313V290.98L289.309 270.934Z" fill="#F0F0F0"/>
<path d="M324.16 290.98V336.504L310.08 328.411L308.583 327.546L307.135 326.713L306.73 326.483L305.638 325.856L303.785 324.785L292.617 318.365V272.833L294.917 274.16L303.785 279.261L305.638 280.324L306.73 280.951L307.135 281.19L308.583 282.022L310.08 282.879L324.16 290.98Z" fill="#8A8A8A"/>
<path d="M324.159 290.979V333.858L323.77 333.635L310.08 325.757L308.582 324.9L307.134 324.067L306.729 323.828L305.637 323.202L303.784 322.139L294.916 317.038V274.159L303.784 279.26L305.637 280.323L306.729 280.95L307.134 281.189L308.582 282.021L310.08 282.878L324.159 290.979Z" fill="#B6CEFB"/>
<path opacity="0.3" d="M324.16 318.661V333.858L310.08 325.757L308.582 324.9L307.135 324.067L306.729 323.828L305.637 323.202L303.784 322.139L294.916 317.038L306.853 310.173C308.251 309.373 309.401 310.173 309.401 310.173L324.16 318.661Z" fill="#E0E0E0"/>
<path d="M308.584 282.021V327.545L307.136 326.712L306.731 326.482L305.639 325.855V280.323L306.731 280.95L307.136 281.189L308.584 282.021Z" fill="#4C4C4C"/>
<path d="M306.847 281.067V326.6L305.755 325.973L303.902 324.902V279.378L305.755 280.441L306.847 281.067Z" fill="#F0F0F0"/>
<path d="M310.08 282.879V328.411L308.583 327.546L307.135 326.713V281.189L308.583 282.022L310.08 282.879Z" fill="#F0F0F0"/>
<path d="M310.082 328.41L312.388 327.084V284.205L310.082 282.878V328.41Z" fill="#8A8A8A"/>
<path d="M309.302 301.528C308.218 302.41 308.358 302.303 308.582 304.578C308.747 306.226 308.458 307.726 307.97 308.434C307.936 308.484 307.904 308.533 307.87 308.566H307.862C307.771 308.682 307.672 308.756 307.564 308.805C307.308 308.921 307.027 308.855 306.729 308.55C305.546 307.33 305.968 303.004 306.191 300.688C306.224 300.358 306.332 300.045 306.505 299.773C306.596 299.625 306.704 299.485 306.828 299.361C307.382 298.801 308.21 298.504 309.004 298.652C309.475 298.743 310.377 300.655 309.302 301.528Z" fill="#4C4C4C"/>
<path d="M307.97 308.434C307.936 308.484 307.904 308.533 307.87 308.566H307.862C307.779 308.616 307.672 308.698 307.564 308.805C307.308 308.921 307.027 308.854 306.729 308.55C305.546 307.33 305.968 303.004 306.191 300.688C306.224 300.358 306.332 300.045 306.505 299.773C306.555 299.542 306.679 299.402 306.828 299.361C307.283 299.221 308.036 299.995 308.077 301.701C308.119 303.786 308.359 307.651 307.97 308.434Z" fill="#8A8A8A"/>
<path d="M305.341 299.25C304.257 300.132 304.397 300.025 304.621 302.299C304.786 303.947 304.497 305.447 304.009 306.156C303.976 306.205 303.942 306.255 303.909 306.288H303.901C303.81 306.403 303.711 306.477 303.603 306.527C303.347 306.642 303.066 306.576 302.768 306.271C301.585 305.052 302.007 300.725 302.23 298.409C302.263 298.08 302.371 297.767 302.544 297.495C302.635 297.346 302.743 297.206 302.867 297.083C303.421 296.522 304.248 296.226 305.043 296.374C305.514 296.464 306.416 298.376 305.341 299.25Z" fill="#4C4C4C"/>
<path d="M304.009 306.156C303.976 306.205 303.942 306.255 303.909 306.288H303.901C303.818 306.337 303.711 306.42 303.603 306.527C303.347 306.642 303.066 306.576 302.768 306.271C301.585 305.052 302.007 300.725 302.23 298.409C302.263 298.08 302.371 297.767 302.544 297.495C302.594 297.264 302.718 297.124 302.867 297.083C303.322 296.942 304.075 297.717 304.116 299.423C304.158 301.508 304.397 305.373 304.009 306.156Z" fill="#8A8A8A"/>
<path opacity="0.3" d="M324.161 333.859V335.194L311.223 327.752V283.538L312.389 284.206V327.084L324.161 333.859Z" fill="white"/>
<path opacity="0.3" d="M303.784 322.14V323.479L293.711 317.686V273.468L294.915 274.161V317.039L303.784 322.14Z" fill="#8A8A8A"/>
<path opacity="0.7" d="M313.87 305.657C313.704 306.218 312.612 306.564 312.389 305.113V297.655C313.224 297.293 313.91 298.147 314.01 299.161C314.142 300.397 314.043 305.097 313.87 305.657Z" fill="#8A8A8A"/>
<path d="M309.958 334.626C316.572 334.626 317.414 330.511 317.414 330.511C317.414 330.511 315.821 339.122 315.822 339.152C315.852 340.059 315.265 340.971 314.063 341.663C311.716 343.013 307.91 343.013 305.564 341.663C304.384 340.985 303.797 340.094 303.803 339.205C303.804 339.175 302.212 330.465 302.212 330.465C302.212 330.465 303.344 334.626 309.958 334.626Z" fill="#4C4C4C"/>
<path d="M304.438 327.41C307.406 325.703 312.219 325.703 315.187 327.41C318.156 329.118 318.156 331.886 315.187 333.593C312.219 335.301 307.406 335.301 304.438 333.593C301.469 331.886 301.469 329.118 304.438 327.41ZM305.017 333.26C307.661 334.78 311.963 334.78 314.608 333.26C317.251 331.739 317.251 329.265 314.608 327.744C311.963 326.223 307.661 326.223 305.017 327.744C302.374 329.265 302.374 331.739 305.017 333.26Z" fill="#8A8A8A"/>
<path d="M309.813 326.041C315.194 326.041 316.719 329.234 316.59 330.622C316.502 331.578 315.88 332.531 314.61 333.262C311.964 334.783 307.661 334.783 305.016 333.262C303.677 332.492 303.033 331.477 303.033 330.465C303.033 329.326 304.433 326.041 309.813 326.041Z" fill="#77CB7B"/>
<path d="M309.92 324.568L310.082 324.797L309.987 325.004L309.344 324.862C304.486 325.196 302.754 321.586 302.754 321.586L302.849 321.379C304.493 320.509 306.462 320.146 309.92 324.568Z" fill="#77CB7B"/>
<path d="M315.186 313.577L315.444 313.764C315.444 313.764 315.842 319.342 309.707 322.276L309.023 322.891L308.764 322.705L308.803 322.316C309.941 314.563 312.584 313.65 315.186 313.577Z" fill="#77CB7B"/>
<path d="M304.583 313.637C309.34 318.111 310.572 324.481 310.844 328.571C310.844 328.571 310.881 328.742 310.887 328.928C310.997 329.09 310.94 329.28 310.713 329.41C310.408 329.586 309.913 329.586 309.608 329.41C309.414 329.299 309.344 329.144 309.396 329.001C309.343 328.872 309.305 328.711 309.292 328.502C309.122 325.832 307.801 318.763 303.531 314.746C303.223 314.457 303.209 313.974 303.5 313.668C303.79 313.361 304.275 313.348 304.583 313.637Z" fill="#55BE5A"/>
<path d="M297.961 314.18C297.961 314.18 298.053 313.882 298.277 313.453C298.926 312.214 300.252 311.785 301.626 311.739C301.064 310.936 301.14 309.984 302.928 309.062C305.003 307.992 305.949 308.824 306.337 309.973C307.625 309.015 309.024 308.435 310.085 309.152C310.254 309.266 310.322 309.24 310.322 309.24C310.322 309.24 310.163 309.426 310.372 309.469C310.384 310.438 309.544 311.395 308.894 311.842C309.957 311.883 310.96 312.255 310.96 312.255C310.96 312.255 311.215 312.653 310.569 313.489C309.631 314.671 308.5 315.398 307.3 315.26C307.112 316.392 306.241 317.063 304.294 317.41C302.55 317.626 302.42 316.976 302.42 316.976C302.42 316.976 302.493 317.014 302.5 316.81C301.174 317.789 299.653 318.06 298.603 317.308C298.312 317.092 298.189 316.956 298.122 316.802C297.847 316.175 298.7 315.821 299.706 315.106C299.335 315.101 299.004 315.064 298.738 314.982C298.285 314.849 297.961 314.18 297.961 314.18Z" fill="#00369A"/>
<path d="M304.552 312.217C305.891 311.815 305.974 312.63 305.683 313.028C304.773 314.271 300.752 318.85 298.506 317.24C296.259 315.63 303.213 312.619 304.552 312.217Z" fill="#0047CC"/>
<path d="M305.731 312.198C306.529 312.671 305.523 313.485 304.96 313.672C303.198 314.256 296.565 315.985 298.096 313.06C299.627 310.134 304.933 311.726 305.731 312.198Z" fill="#0047CC"/>
<path d="M302.746 308.668C306.632 306.665 306.558 311.326 306.278 312.257C305.998 313.188 304.724 313.408 304.321 313.265C303.06 312.819 298.86 310.67 302.746 308.668Z" fill="#0047CC"/>
<path d="M309.904 308.757C312.216 310.32 305.294 313.408 303.956 313.827C302.618 314.245 302.51 313.438 302.792 313.039C303.673 311.793 307.593 307.194 309.904 308.757Z" fill="#0047CC"/>
<path d="M304.614 311.804C306.365 311.46 312.806 310.672 310.518 313.554C308.231 316.436 304.022 313.887 303.462 313.255C302.903 312.623 304.055 311.914 304.614 311.804Z" fill="#0047CC"/>
<path d="M306.608 311.832C307.115 312.788 308.314 316.694 304.244 317.418C300.175 318.141 303.682 313.104 304.559 312.196C305.436 311.288 306.446 311.526 306.608 311.832Z" fill="#0047CC"/>
<path d="M303.485 311.509C304.867 310.823 306.353 310.891 306.803 311.662C307.254 312.433 306.499 313.614 305.117 314.3C303.735 314.986 302.25 314.918 301.799 314.147C301.348 313.376 302.103 312.195 303.485 311.509Z" fill="white"/>
<path d="M525.631 451.918L506.918 462.681V466.001L525.631 455.238V451.918Z" fill="#8A8A8A"/>
<path d="M488.713 430.686L472.886 439.788C471.1 440.815 470 442.714 470 444.768L506.917 466.001C506.917 463.947 508.018 462.048 509.804 461.021L525.63 451.919L488.713 430.686Z" fill="#E0E0E0"/>
<path d="M522.501 457.06V402.08L485.321 380.696V432.689L481.067 435.105L477.725 372.898L481.067 371L527.998 397.993V462.958L524.656 464.856L522.501 457.06Z" fill="#8A8A8A"/>
<path d="M519.158 458.958V403.978L481.979 382.594V434.586L477.725 437.002V372.897L524.656 399.891V464.855L516.78 460.326L519.158 458.958Z" fill="#E0E0E0"/>
<path d="M519.161 455.639L524.659 461.867V464.856L516.783 460.326L519.161 458.959V455.639Z" fill="#8A8A8A"/>
<path d="M484.309 383.934V433.267L519.162 453.313V403.98L484.309 383.934Z" fill="#F0F0F0"/>
<path d="M519.16 403.98V449.504L505.08 441.411L503.583 440.546L502.135 439.713L501.73 439.483L500.638 438.856L498.785 437.785L487.617 431.365V385.833L489.917 387.16L498.785 392.261L500.638 393.324L501.73 393.951L502.135 394.19L503.583 395.022L505.08 395.879L519.16 403.98Z" fill="#8A8A8A"/>
<path d="M519.159 403.979V446.858L518.77 446.635L505.08 438.757L503.582 437.9L502.134 437.067L501.729 436.828L500.637 436.202L498.784 435.139L489.916 430.038V387.159L498.784 392.26L500.637 393.323L501.729 393.95L502.134 394.189L503.582 395.021L505.08 395.878L519.159 403.979Z" fill="#B6CEFB"/>
<path opacity="0.3" d="M519.16 431.661V446.858L505.08 438.757L503.582 437.9L502.135 437.067L501.729 436.828L500.637 436.202L498.784 435.139L489.916 430.038L501.853 423.173C503.251 422.373 504.401 423.173 504.401 423.173L519.16 431.661Z" fill="#E0E0E0"/>
<path d="M503.584 395.021V440.545L502.136 439.712L501.731 439.482L500.639 438.855V393.323L501.731 393.95L502.136 394.189L503.584 395.021Z" fill="#4C4C4C"/>
<path d="M501.847 394.067V439.6L500.755 438.973L498.902 437.902V392.378L500.755 393.441L501.847 394.067Z" fill="#F0F0F0"/>
<path d="M505.08 395.879V441.411L503.583 440.546L502.135 439.713V394.189L503.583 395.022L505.08 395.879Z" fill="#F0F0F0"/>
<path d="M505.082 441.41L507.388 440.084V397.205L505.082 395.878V441.41Z" fill="#8A8A8A"/>
<path d="M504.302 414.528C503.218 415.41 503.358 415.303 503.582 417.578C503.747 419.226 503.458 420.726 502.97 421.434C502.936 421.484 502.904 421.533 502.87 421.566H502.862C502.771 421.682 502.672 421.756 502.564 421.805C502.308 421.921 502.027 421.855 501.729 421.55C500.546 420.33 500.968 416.004 501.191 413.688C501.224 413.358 501.332 413.045 501.505 412.773C501.596 412.625 501.704 412.485 501.828 412.361C502.382 411.801 503.21 411.504 504.004 411.652C504.475 411.743 505.377 413.655 504.302 414.528Z" fill="#4C4C4C"/>
<path d="M502.97 421.434C502.936 421.484 502.904 421.533 502.87 421.566H502.862C502.779 421.616 502.672 421.698 502.564 421.805C502.308 421.921 502.027 421.854 501.729 421.55C500.546 420.33 500.968 416.004 501.191 413.688C501.224 413.358 501.332 413.045 501.505 412.773C501.555 412.542 501.679 412.402 501.828 412.361C502.283 412.221 503.036 412.995 503.077 414.701C503.119 416.786 503.359 420.651 502.97 421.434Z" fill="#8A8A8A"/>
<path d="M500.341 412.25C499.257 413.132 499.397 413.025 499.621 415.299C499.786 416.947 499.497 418.447 499.009 419.156C498.976 419.205 498.942 419.255 498.909 419.288H498.901C498.81 419.403 498.711 419.477 498.603 419.527C498.347 419.642 498.066 419.576 497.768 419.271C496.585 418.052 497.007 413.725 497.23 411.409C497.263 411.08 497.371 410.767 497.544 410.495C497.635 410.346 497.743 410.206 497.867 410.083C498.421 409.522 499.248 409.226 500.043 409.374C500.514 409.464 501.416 411.376 500.341 412.25Z" fill="#4C4C4C"/>
<path d="M499.009 419.156C498.976 419.205 498.942 419.255 498.909 419.288H498.901C498.818 419.337 498.711 419.42 498.603 419.527C498.347 419.642 498.066 419.576 497.768 419.271C496.585 418.052 497.007 413.725 497.23 411.409C497.263 411.08 497.371 410.767 497.544 410.495C497.594 410.264 497.718 410.124 497.867 410.083C498.322 409.942 499.075 410.717 499.116 412.423C499.158 414.508 499.397 418.373 499.009 419.156Z" fill="#8A8A8A"/>
<path opacity="0.3" d="M519.161 446.859V448.194L506.223 440.752V396.538L507.389 397.206V440.084L519.161 446.859Z" fill="white"/>
<path opacity="0.3" d="M498.784 435.14V436.479L488.711 430.686V386.468L489.915 387.161V430.039L498.784 435.14Z" fill="#8A8A8A"/>
<path opacity="0.7" d="M508.87 418.657C508.704 419.218 507.612 419.564 507.389 418.113V410.655C508.224 410.293 508.91 411.147 509.01 412.161C509.142 413.397 509.043 418.097 508.87 418.657Z" fill="#8A8A8A"/>
<path d="M504.958 447.626C511.572 447.626 512.414 443.511 512.414 443.511C512.414 443.511 510.821 452.122 510.822 452.152C510.852 453.059 510.265 453.971 509.063 454.663C506.716 456.013 502.91 456.013 500.564 454.663C499.384 453.985 498.797 453.094 498.803 452.205C498.804 452.175 497.212 443.465 497.212 443.465C497.212 443.465 498.344 447.626 504.958 447.626Z" fill="#4C4C4C"/>
<path d="M499.438 440.41C502.406 438.703 507.219 438.703 510.187 440.41C513.156 442.118 513.156 444.886 510.187 446.593C507.219 448.301 502.406 448.301 499.438 446.593C496.469 444.886 496.469 442.118 499.438 440.41ZM500.017 446.26C502.661 447.78 506.963 447.78 509.608 446.26C512.251 444.739 512.251 442.265 509.608 440.744C506.963 439.223 502.661 439.223 500.017 440.744C497.374 442.265 497.374 444.739 500.017 446.26Z" fill="#8A8A8A"/>
<path d="M504.813 439.041C510.194 439.041 511.719 442.234 511.59 443.622C511.502 444.578 510.88 445.531 509.61 446.262C506.964 447.783 502.661 447.783 500.016 446.262C498.677 445.492 498.033 444.477 498.033 443.465C498.033 442.326 499.433 439.041 504.813 439.041Z" fill="#77CB7B"/>
<path d="M504.92 437.568L505.082 437.797L504.987 438.004L504.344 437.862C499.486 438.196 497.754 434.586 497.754 434.586L497.849 434.379C499.493 433.509 501.462 433.146 504.92 437.568Z" fill="#77CB7B"/>
<path d="M510.186 426.577L510.444 426.764C510.444 426.764 510.842 432.342 504.707 435.276L504.023 435.891L503.764 435.705L503.803 435.316C504.941 427.563 507.584 426.65 510.186 426.577Z" fill="#77CB7B"/>
<path d="M499.583 426.637C504.34 431.111 505.572 437.481 505.844 441.571C505.844 441.571 505.881 441.742 505.887 441.928C505.997 442.09 505.94 442.28 505.713 442.41C505.408 442.586 504.913 442.586 504.608 442.41C504.414 442.299 504.344 442.144 504.396 442.001C504.343 441.872 504.305 441.711 504.292 441.502C504.122 438.832 502.801 431.763 498.531 427.746C498.223 427.457 498.209 426.974 498.5 426.668C498.79 426.361 499.275 426.348 499.583 426.637Z" fill="#55BE5A"/>
<path d="M492.961 427.18C492.961 427.18 493.053 426.882 493.277 426.453C493.926 425.214 495.252 424.785 496.626 424.739C496.064 423.936 496.14 422.984 497.928 422.062C500.003 420.992 500.949 421.824 501.337 422.973C502.625 422.015 504.024 421.435 505.085 422.152C505.254 422.266 505.322 422.24 505.322 422.24C505.322 422.24 505.163 422.426 505.372 422.469C505.384 423.438 504.544 424.395 503.894 424.842C504.957 424.883 505.96 425.255 505.96 425.255C505.96 425.255 506.215 425.653 505.569 426.489C504.631 427.671 503.5 428.398 502.3 428.26C502.112 429.392 501.241 430.063 499.294 430.41C497.55 430.626 497.42 429.976 497.42 429.976C497.42 429.976 497.493 430.014 497.5 429.81C496.174 430.789 494.653 431.06 493.603 430.308C493.312 430.092 493.189 429.956 493.122 429.802C492.847 429.175 493.7 428.821 494.706 428.106C494.335 428.101 494.004 428.064 493.738 427.982C493.285 427.849 492.961 427.18 492.961 427.18Z" fill="#00369A"/>
<path d="M499.552 425.217C500.891 424.815 500.974 425.63 500.683 426.028C499.773 427.271 495.752 431.85 493.506 430.24C491.259 428.63 498.213 425.619 499.552 425.217Z" fill="#0047CC"/>
<path d="M500.731 425.198C501.529 425.671 500.523 426.485 499.96 426.672C498.198 427.256 491.565 428.985 493.096 426.06C494.627 423.134 499.933 424.726 500.731 425.198Z" fill="#0047CC"/>
<path d="M497.746 421.668C501.632 419.665 501.558 424.326 501.278 425.257C500.998 426.188 499.724 426.408 499.321 426.265C498.06 425.819 493.86 423.67 497.746 421.668Z" fill="#0047CC"/>
<path d="M504.904 421.757C507.216 423.32 500.294 426.408 498.956 426.827C497.618 427.245 497.51 426.438 497.792 426.039C498.673 424.793 502.593 420.194 504.904 421.757Z" fill="#0047CC"/>
<path d="M499.614 424.804C501.365 424.46 507.806 423.672 505.518 426.554C503.231 429.436 499.022 426.887 498.462 426.255C497.903 425.623 499.055 424.914 499.614 424.804Z" fill="#0047CC"/>
<path d="M501.608 424.832C502.115 425.788 503.314 429.694 499.244 430.418C495.175 431.141 498.682 426.104 499.559 425.196C500.436 424.288 501.446 424.526 501.608 424.832Z" fill="#0047CC"/>
<path d="M498.485 424.509C499.867 423.823 501.353 423.891 501.803 424.662C502.254 425.433 501.499 426.614 500.117 427.3C498.735 427.986 497.25 427.918 496.799 427.147C496.348 426.376 497.103 425.195 498.485 424.509Z" fill="white"/>
<defs>
<clipPath id="clip0_12955_714068">
<rect width="33" height="33" fill="white" transform="matrix(-1 0 0 1 402 444)"/>
</clipPath>
</defs>
</svg>
