<svg width="654" height="674" viewBox="0 0 654 674" fill="none" xmlns="http://www.w3.org/2000/svg">
<path d="M470.658 373.152V272.151L474.974 269.66V370.661L470.658 373.152Z" fill="#8A8A8A"/>
<path d="M474.973 269.678L330.892 186.492L326.576 188.983L470.658 272.169L474.973 269.678Z" fill="#707A6D"/>
<path d="M326.618 456.346L182.537 373.16V378.143L326.618 461.328V456.346Z" fill="#4C4C4C"/>
<path d="M326.619 456.346L470.7 373.16V378.143L326.619 461.328V456.346Z" fill="#8A8A8A"/>
<path d="M326.62 456.337L182.539 373.151L326.616 289.969L470.698 373.154L326.62 456.337Z" fill="white"/>
<path d="M197.326 381.689L195.783 380.798L339.86 297.615L341.403 298.506L197.326 381.689Z" fill="#F0F0F0"/>
<path d="M211.832 390.064L210.289 389.173L354.366 305.99L355.909 306.881L211.832 390.064Z" fill="#F0F0F0"/>
<path d="M226.338 398.438L224.795 397.547L368.872 314.363L370.416 315.254L226.338 398.438Z" fill="#F0F0F0"/>
<path d="M240.844 406.815L239.301 405.923L383.378 322.74L384.921 323.631L240.844 406.815Z" fill="#F0F0F0"/>
<path d="M255.352 415.189L253.809 414.298L397.885 331.115L399.429 332.006L255.352 415.189Z" fill="#F0F0F0"/>
<path d="M269.858 423.564L268.314 422.673L412.392 339.49L413.935 340.381L269.858 423.564Z" fill="#F0F0F0"/>
<path d="M284.364 431.94L282.82 431.048L426.898 347.865L428.441 348.756L284.364 431.94Z" fill="#F0F0F0"/>
<path d="M298.87 440.314L297.326 439.423L441.403 356.24L442.946 357.131L298.87 440.314Z" fill="#F0F0F0"/>
<path d="M313.375 448.691L311.832 447.8L455.909 364.617L457.453 365.508L313.375 448.691Z" fill="#F0F0F0"/>
<path d="M470.657 373.153L326.576 289.968V188.967L470.657 272.152V373.153Z" fill="#BECDBA"/>
<path d="M178.18 269.677L326.576 184L330.892 186.491L182.495 272.168L178.18 269.677Z" fill="#707A6D"/>
<path d="M182.495 373.152V272.151L178.18 269.66V370.661L182.495 373.152Z" fill="#4C4C4C"/>
<path d="M182.494 373.153L326.575 289.968V188.967L182.494 272.152V373.153Z" fill="#ACBBA8"/>
<path d="M390.285 284.476L376.734 292.519V295L390.285 286.957V284.476Z" fill="#8A8A8A"/>
<path d="M363.551 268.607L352.09 275.41C350.797 276.178 350 277.597 350 279.132L376.733 295.001C376.733 293.466 377.53 292.047 378.823 291.279L390.284 284.476L363.551 268.607Z" fill="white"/>
<path d="M388.018 288.319V247.229L361.095 231.246V270.104L358.014 271.91L355.594 225.419L358.014 224L391.999 244.174V292.726L389.578 294.145L388.018 288.319Z" fill="#C7C7C7"/>
<path d="M385.597 289.737V248.646L358.674 232.665V271.522L355.594 273.328V225.418L389.578 245.592V294.144L383.875 290.759L385.597 289.737Z" fill="white"/>
<path d="M385.599 287.257L389.58 291.912V294.146L383.877 290.76L385.599 289.738V287.257Z" fill="#8A8A8A"/>
<path d="M360.361 233.666V270.536L385.6 285.518V248.648L360.361 233.666Z" fill="#F0F0F0"/>
<path d="M385.599 248.648V282.672L375.404 276.623L374.319 275.977L373.271 275.354L372.977 275.182L372.187 274.714L370.845 273.913L362.758 269.115V235.086L364.423 236.078L370.845 239.89L372.187 240.685L372.977 241.153L373.271 241.331L374.319 241.953L375.404 242.594L385.599 248.648Z" fill="#8A8A8A"/>
<path d="M385.598 248.648V280.694L385.316 280.528L375.402 274.639L374.318 273.999L373.27 273.377L372.976 273.198L372.185 272.73L370.844 271.936L364.422 268.123V236.077L370.844 239.89L372.185 240.684L372.976 241.152L373.27 241.331L374.318 241.953L375.402 242.593L385.598 248.648Z" fill="#B6CEFB"/>
<path opacity="0.3" d="M385.598 269.336V280.694L375.402 274.639L374.318 273.999L373.27 273.376L372.976 273.198L372.185 272.73L370.844 271.935L364.422 268.123L373.066 262.992C374.078 262.395 374.911 262.992 374.911 262.992L385.598 269.336Z" fill="#E0E0E0"/>
<path d="M374.32 241.952V275.975L373.272 275.353L372.978 275.181L372.188 274.713V240.684L372.978 241.152L373.272 241.33L374.32 241.952Z" fill="#4C4C4C"/>
<path d="M373.062 241.24V275.27L372.271 274.801L370.93 274.001V239.978L372.271 240.772L373.062 241.24Z" fill="#F0F0F0"/>
<path d="M375.402 242.594V276.623L374.318 275.976L373.27 275.354V241.331L374.318 241.953L375.402 242.594Z" fill="#F0F0F0"/>
<path d="M375.404 276.622L377.074 275.631V243.585L375.404 242.593V276.622Z" fill="#8A8A8A"/>
<path d="M374.839 256.531C374.054 257.19 374.156 257.11 374.318 258.81C374.437 260.042 374.228 261.163 373.874 261.693C373.85 261.73 373.826 261.767 373.802 261.791H373.796C373.73 261.877 373.659 261.933 373.581 261.97C373.395 262.056 373.191 262.007 372.976 261.779C372.119 260.868 372.425 257.634 372.586 255.903C372.61 255.657 372.688 255.423 372.814 255.22C372.88 255.109 372.958 255.004 373.048 254.912C373.449 254.493 374.048 254.271 374.623 254.382C374.965 254.449 375.618 255.878 374.839 256.531Z" fill="#4C4C4C"/>
<path d="M373.874 261.693C373.85 261.729 373.826 261.766 373.802 261.791H373.796C373.736 261.828 373.659 261.89 373.581 261.97C373.395 262.056 373.191 262.007 372.976 261.779C372.119 260.867 372.425 257.634 372.586 255.903C372.61 255.657 372.688 255.423 372.814 255.219C372.85 255.047 372.94 254.942 373.048 254.911C373.377 254.807 373.922 255.386 373.952 256.661C373.982 258.219 374.156 261.107 373.874 261.693Z" fill="#8A8A8A"/>
<path d="M371.972 254.829C371.187 255.488 371.289 255.408 371.45 257.108C371.57 258.34 371.361 259.461 371.007 259.991C370.983 260.027 370.959 260.065 370.935 260.089H370.929C370.863 260.175 370.791 260.231 370.714 260.268C370.528 260.354 370.324 260.305 370.108 260.077C369.252 259.165 369.557 255.932 369.719 254.201C369.743 253.955 369.821 253.721 369.947 253.517C370.013 253.406 370.09 253.302 370.18 253.209C370.582 252.791 371.181 252.569 371.756 252.68C372.097 252.747 372.75 254.176 371.972 254.829Z" fill="#4C4C4C"/>
<path d="M371.007 259.99C370.983 260.027 370.959 260.064 370.935 260.089H370.929C370.869 260.126 370.791 260.187 370.714 260.268C370.528 260.354 370.324 260.305 370.108 260.077C369.252 259.165 369.557 255.932 369.719 254.201C369.743 253.954 369.821 253.72 369.947 253.517C369.982 253.345 370.072 253.24 370.18 253.209C370.51 253.105 371.055 253.684 371.085 254.959C371.115 256.517 371.289 259.405 371.007 259.99Z" fill="#8A8A8A"/>
<path opacity="0.3" d="M385.599 280.694V281.692L376.23 276.13V243.086L377.075 243.585V275.631L385.599 280.694Z" fill="white"/>
<path opacity="0.3" d="M370.845 271.936V272.936L363.551 268.607V235.56L364.423 236.078V268.123L370.845 271.936Z" fill="#8A8A8A"/>
<path opacity="0.7" d="M378.147 259.617C378.027 260.036 377.236 260.295 377.074 259.211V253.637C377.679 253.366 378.176 254.004 378.248 254.762C378.344 255.685 378.272 259.198 378.147 259.617Z" fill="#8A8A8A"/>
<path d="M375.314 281.268C380.103 281.268 380.713 278.193 380.713 278.193C380.713 278.193 379.559 284.628 379.56 284.651C379.581 285.329 379.157 286.01 378.286 286.528C376.587 287.536 373.831 287.536 372.131 286.528C371.277 286.02 370.852 285.355 370.857 284.691C370.857 284.668 369.705 278.158 369.705 278.158C369.705 278.158 370.524 281.268 375.314 281.268Z" fill="#4C4C4C"/>
<path d="M371.316 275.876C373.466 274.6 376.951 274.6 379.1 275.876C381.25 277.152 381.25 279.221 379.1 280.497C376.951 281.773 373.466 281.773 371.316 280.497C369.167 279.221 369.167 277.152 371.316 275.876ZM371.736 280.247C373.651 281.384 376.766 281.384 378.681 280.247C380.595 279.111 380.595 277.262 378.681 276.125C376.766 274.989 373.651 274.989 371.736 276.125C369.822 277.262 369.822 279.111 371.736 280.247Z" fill="#8A8A8A"/>
<path d="M375.208 274.853C379.104 274.853 380.209 277.239 380.116 278.276C380.052 278.991 379.601 279.703 378.682 280.249C376.766 281.386 373.65 281.386 371.735 280.249C370.765 279.674 370.299 278.915 370.298 278.159C370.298 277.308 371.312 274.853 375.208 274.853Z" fill="#77CB7B"/>
<path d="M375.287 273.751L375.404 273.922L375.336 274.076L374.87 273.97C371.352 274.22 370.098 271.522 370.098 271.522L370.167 271.367C371.357 270.717 372.783 270.446 375.287 273.751Z" fill="#77CB7B"/>
<path d="M379.1 265.537L379.287 265.676C379.287 265.676 379.575 269.845 375.132 272.038L374.637 272.498L374.45 272.359L374.478 272.068C375.302 266.274 377.216 265.592 379.1 265.537Z" fill="#77CB7B"/>
<path d="M371.423 265.581C374.868 268.925 375.76 273.686 375.957 276.743C375.957 276.743 375.984 276.87 375.988 277.01C376.068 277.13 376.026 277.273 375.862 277.37C375.641 277.501 375.283 277.501 375.061 277.37C374.921 277.287 374.871 277.171 374.908 277.064C374.87 276.968 374.842 276.848 374.833 276.691C374.71 274.696 373.753 269.412 370.661 266.411C370.438 266.194 370.428 265.834 370.639 265.605C370.849 265.376 371.2 265.365 371.423 265.581Z" fill="#55BE5A"/>
<path d="M366.627 265.988C366.627 265.988 366.694 265.765 366.856 265.445C367.326 264.518 368.286 264.198 369.281 264.163C368.874 263.563 368.929 262.851 370.224 262.163C371.726 261.363 372.411 261.985 372.692 262.843C373.625 262.127 374.638 261.694 375.406 262.23C375.529 262.315 375.578 262.296 375.578 262.296C375.578 262.296 375.463 262.435 375.614 262.467C375.623 263.191 375.015 263.906 374.544 264.241C375.314 264.271 376.04 264.549 376.04 264.549C376.04 264.549 376.225 264.847 375.757 265.472C375.078 266.355 374.259 266.898 373.39 266.795C373.254 267.64 372.623 268.143 371.213 268.401C369.95 268.563 369.856 268.077 369.856 268.077C369.856 268.077 369.909 268.106 369.914 267.953C368.953 268.685 367.853 268.888 367.092 268.325C366.881 268.164 366.792 268.062 366.744 267.947C366.545 267.479 367.162 267.214 367.891 266.68C367.622 266.676 367.383 266.648 367.189 266.587C366.862 266.488 366.627 265.988 366.627 265.988Z" fill="#00369A"/>
<path d="M371.4 264.521C372.369 264.22 372.43 264.829 372.219 265.126C371.56 266.056 368.648 269.478 367.022 268.275C365.395 267.072 370.43 264.821 371.4 264.521Z" fill="#0047CC"/>
<path d="M372.254 264.507C372.832 264.86 372.104 265.468 371.696 265.608C370.42 266.045 365.616 267.337 366.725 265.151C367.834 262.964 371.676 264.154 372.254 264.507Z" fill="#0047CC"/>
<path d="M370.094 261.868C372.908 260.371 372.854 263.854 372.651 264.55C372.449 265.246 371.526 265.411 371.234 265.304C370.321 264.97 367.28 263.365 370.094 261.868Z" fill="#0047CC"/>
<path d="M375.276 261.935C376.95 263.103 371.937 265.411 370.968 265.724C369.999 266.036 369.921 265.433 370.125 265.135C370.764 264.204 373.602 260.767 375.276 261.935Z" fill="#0047CC"/>
<path d="M371.445 264.211C372.713 263.954 377.377 263.365 375.721 265.519C374.064 267.673 371.016 265.768 370.611 265.296C370.206 264.823 371.04 264.293 371.445 264.211Z" fill="#0047CC"/>
<path d="M372.889 264.232C373.256 264.947 374.124 267.866 371.177 268.407C368.23 268.948 370.77 265.183 371.405 264.505C372.04 263.826 372.772 264.004 372.889 264.232Z" fill="#0047CC"/>
<path d="M370.628 263.991C371.628 263.478 372.704 263.53 373.031 264.105C373.357 264.681 372.81 265.564 371.81 266.077C370.809 266.59 369.733 266.539 369.407 265.963C369.08 265.387 369.627 264.504 370.628 263.991Z" fill="white"/>
<path d="M277.277 247.503L277.272 247.499C277.268 247.496 277.265 247.494 277.261 247.492L276.615 247.018L276.615 247.018C276.589 246.993 276.551 246.993 276.508 247.025C276.429 247.083 276.365 247.225 276.365 247.342C276.365 247.394 276.379 247.432 276.4 247.453L276.4 247.453L276.402 247.455C276.405 247.458 276.409 247.461 276.414 247.464L277.06 247.937L277.061 247.936C277.087 247.96 277.124 247.961 277.166 247.929C277.245 247.871 277.309 247.729 277.309 247.612C277.309 247.561 277.296 247.527 277.276 247.505L277.277 247.503Z" fill="#4C4C4C"/>
<path d="M263.766 265.513L264.002 265.784L277.034 247.929L290.066 250.589L290.302 250.043L277.034 247.335L263.766 265.513Z" fill="#E0E0E0"/>
<path d="M277.31 247.076C277.049 247.252 276.838 247.682 276.838 248.035C276.838 248.388 277.049 248.531 277.31 248.354C277.571 248.178 277.782 247.748 277.782 247.395C277.782 247.042 277.571 246.899 277.31 247.076Z" fill="white"/>
<path d="M263.697 287.678L289.531 272.618V249.281L263.697 264.342V287.678Z" fill="#F0F0F0"/>
<path d="M278.28 263.143C277.418 263.646 276.719 264.868 276.719 265.874C276.719 266.879 277.418 267.286 278.28 266.784C279.142 266.281 279.841 265.058 279.841 264.053C279.841 263.048 279.142 262.64 278.28 263.143Z" fill="#C6C6C6"/>
<path d="M264.604 285.24L276.84 278.106L279.62 272.469L274.494 265.548L264.604 285.24Z" fill="#E0E0E0"/>
<path d="M279.621 272.468L281.699 275.273L288.06 271.564L283.062 265.493L279.621 272.468Z" fill="#C6C6C6"/>
<path d="M276.84 278.106L281.698 275.274L279.621 272.469L276.84 278.106Z" fill="#C6C6C6"/>
<path d="M262 263.969L263.55 264.899L288.233 250.51V250.927C288.903 250.577 289.565 250.278 290.362 250.061C290.553 250.01 290.741 249.95 290.927 249.887L291 248.481L289.783 247.771L262 263.969Z" fill="#4C4C4C"/>
<path d="M262 288.291L263.217 289L263.55 285.553V264.899L262 263.969V288.291Z" fill="#333333"/>
<path d="M288.232 271.163L289.783 272.094L290.898 250.46C289.924 250.728 289.088 251.081 288.232 251.521V271.163Z" fill="#C6C6C6"/>
<path d="M263.551 285.552L263.217 289L289.783 272.093L288.233 271.163L263.551 285.552Z" fill="#E0E0E0"/>
<path d="M263.217 288.999L291 272.802V248.48L263.217 264.678V288.999ZM264.767 265.608L289.449 251.218V271.872L264.767 286.262V265.608Z" fill="#8A8A8A"/>
<path d="M325.479 457.484V356.483L329.794 353.992V454.993L325.479 457.484Z" fill="#8A8A8A"/>
<path d="M329.793 354.01L185.712 270.824L181.396 273.315L325.478 356.501L329.793 354.01Z" fill="#707A6D"/>
<path d="M185 542.517L37.3574 457.492V462.475L185 547.499V542.517Z" fill="#F0F0F0"/>
<path d="M184.5 542.5L37.3594 457.483L181.437 374.301L329.577 458.817L184.5 542.5Z" fill="white"/>
<path d="M52.1462 466.023L50.6035 465.132L194.68 381.949L196.223 382.84L52.1462 466.023Z" fill="#F0F0F0"/>
<path d="M66.6527 474.398L65.1094 473.507L209.187 390.324L210.729 391.215L66.6527 474.398Z" fill="#F0F0F0"/>
<path d="M81.1586 482.773L79.6152 481.882L223.693 398.699L225.236 399.59L81.1586 482.773Z" fill="#F0F0F0"/>
<path d="M95.6644 491.149L94.1211 490.257L238.198 407.074L239.742 407.965L95.6644 491.149Z" fill="#F0F0F0"/>
<path d="M110.172 499.523L108.629 498.632L252.706 415.449L254.249 416.34L110.172 499.523Z" fill="#F0F0F0"/>
<path d="M124.678 507.898L123.135 507.007L267.212 423.824L268.755 424.715L124.678 507.898Z" fill="#F0F0F0"/>
<path d="M139.184 516.274L137.641 515.382L281.718 432.199L283.261 433.09L139.184 516.274Z" fill="#F0F0F0"/>
<path d="M153.69 524.65L152.146 523.759L296.223 440.576L297.766 441.467L153.69 524.65Z" fill="#F0F0F0"/>
<path d="M168.196 533.023L166.652 532.132L310.73 448.949L312.273 449.84L168.196 533.023Z" fill="#F0F0F0"/>
<path d="M184.541 541.074L182.998 540.183L327.075 457L328.619 457.891L184.541 541.074Z" fill="#F0F0F0"/>
<path d="M333.5 461.5L181.396 374.3V273.299L333.5 360.499V461.5Z" fill="#BECDBA"/>
<path d="M33 354.009L181.397 268.332L185.712 270.823L37.3154 356.5L33 354.009Z" fill="#707A6D"/>
<path d="M37.3154 457.484V356.483L33 353.992V454.993L37.3154 457.484Z" fill="#5A6357"/>
<path d="M37.3145 457.485L181.396 374.3V273.299L37.3145 356.484V457.485Z" fill="#ACBBA8"/>
<path d="M91.7151 388.476L105.266 396.519V399L91.7151 390.957V388.476Z" fill="#8A8A8A"/>
<path d="M118.449 372.607L129.91 379.41C131.203 380.178 132 381.597 132 383.132L105.267 399.001C105.267 397.466 104.47 396.047 103.177 395.279L91.7162 388.476L118.449 372.607Z" fill="white"/>
<path d="M93.982 392.319V351.229L120.905 335.246V374.104L123.986 375.91L126.406 329.419L123.986 328L90.0011 348.174V396.726L92.4215 398.145L93.982 392.319Z" fill="#C7C7C7"/>
<path d="M96.4026 393.737V352.646L123.326 336.665V375.522L126.406 377.328V329.418L92.4215 349.592V398.144L98.1245 394.759L96.4026 393.737Z" fill="white"/>
<path d="M96.4011 391.257L92.42 395.912V398.146L98.123 394.76L96.4011 393.738V391.257Z" fill="#8A8A8A"/>
<path d="M121.639 337.666V374.536L96.4002 389.518V352.648L121.639 337.666Z" fill="#F0F0F0"/>
<path d="M96.4009 352.648V386.672L106.596 380.623L107.681 379.977L108.729 379.354L109.023 379.182L109.813 378.714L111.155 377.913L119.242 373.115V339.086L117.577 340.078L111.155 343.89L109.813 344.685L109.023 345.153L108.729 345.331L107.681 345.953L106.596 346.594L96.4009 352.648Z" fill="#8A8A8A"/>
<path d="M96.4021 352.648V384.694L96.6837 384.528L106.598 378.639L107.682 377.999L108.73 377.377L109.024 377.198L109.815 376.73L111.156 375.936L117.578 372.123V340.077L111.156 343.89L109.815 344.684L109.024 345.152L108.73 345.331L107.682 345.953L106.598 346.593L96.4021 352.648Z" fill="#B6CEFB"/>
<path opacity="0.3" d="M96.4018 373.336V384.694L106.598 378.639L107.682 377.999L108.73 377.376L109.024 377.198L109.815 376.73L111.156 375.935L117.578 372.123L108.934 366.992C107.922 366.395 107.089 366.992 107.089 366.992L96.4018 373.336Z" fill="#E0E0E0"/>
<path d="M107.68 345.952V379.975L108.728 379.353L109.022 379.181L109.812 378.713V344.684L109.022 345.152L108.728 345.33L107.68 345.952Z" fill="#4C4C4C"/>
<path d="M108.938 345.24V379.27L109.729 378.801L111.07 378.001V343.978L109.729 344.772L108.938 345.24Z" fill="#F0F0F0"/>
<path d="M106.598 346.594V380.623L107.682 379.976L108.73 379.354V345.331L107.682 345.953L106.598 346.594Z" fill="#F0F0F0"/>
<path d="M106.596 380.622L104.926 379.631V347.585L106.596 346.593V380.622Z" fill="#8A8A8A"/>
<path d="M107.161 360.531C107.946 361.19 107.844 361.11 107.682 362.81C107.563 364.042 107.772 365.163 108.126 365.693C108.15 365.73 108.174 365.767 108.198 365.791H108.204C108.27 365.877 108.341 365.933 108.419 365.97C108.605 366.056 108.809 366.007 109.024 365.779C109.881 364.868 109.575 361.634 109.414 359.903C109.39 359.657 109.312 359.423 109.186 359.22C109.12 359.109 109.042 359.004 108.952 358.912C108.551 358.493 107.952 358.271 107.377 358.382C107.035 358.449 106.382 359.878 107.161 360.531Z" fill="#4C4C4C"/>
<path d="M108.126 365.693C108.15 365.729 108.174 365.766 108.198 365.791H108.204C108.264 365.828 108.341 365.89 108.419 365.97C108.605 366.056 108.809 366.007 109.024 365.779C109.881 364.867 109.575 361.634 109.414 359.903C109.39 359.657 109.312 359.423 109.186 359.219C109.15 359.047 109.06 358.942 108.952 358.911C108.623 358.807 108.078 359.386 108.048 360.661C108.018 362.219 107.844 365.107 108.126 365.693Z" fill="#8A8A8A"/>
<path d="M110.028 358.829C110.813 359.488 110.711 359.408 110.55 361.108C110.43 362.34 110.639 363.461 110.993 363.991C111.017 364.027 111.041 364.065 111.065 364.089H111.071C111.137 364.175 111.209 364.231 111.286 364.268C111.472 364.354 111.676 364.305 111.892 364.077C112.748 363.165 112.443 359.932 112.281 358.201C112.257 357.955 112.179 357.721 112.053 357.517C111.987 357.406 111.91 357.302 111.82 357.209C111.418 356.791 110.819 356.569 110.244 356.68C109.903 356.747 109.25 358.176 110.028 358.829Z" fill="#4C4C4C"/>
<path d="M110.993 363.99C111.017 364.027 111.041 364.064 111.065 364.089H111.071C111.131 364.126 111.209 364.187 111.286 364.268C111.472 364.354 111.676 364.305 111.892 364.077C112.748 363.165 112.443 359.932 112.281 358.201C112.257 357.954 112.179 357.72 112.053 357.517C112.018 357.345 111.928 357.24 111.82 357.209C111.49 357.105 110.945 357.684 110.915 358.959C110.885 360.517 110.711 363.405 110.993 363.99Z" fill="#8A8A8A"/>
<path opacity="0.3" d="M96.4006 384.694V385.692L105.77 380.13V347.086L104.925 347.585V379.631L96.4006 384.694Z" fill="white"/>
<path opacity="0.3" d="M111.155 375.936V376.936L118.449 372.607V339.56L117.577 340.078V372.123L111.155 375.936Z" fill="#8A8A8A"/>
<path opacity="0.7" d="M103.853 363.617C103.973 364.036 104.764 364.295 104.926 363.211V357.637C104.321 357.366 103.824 358.004 103.752 358.762C103.656 359.685 103.728 363.198 103.853 363.617Z" fill="#8A8A8A"/>
<path d="M106.686 385.268C101.897 385.268 101.287 382.193 101.287 382.193C101.287 382.193 102.441 388.628 102.44 388.651C102.419 389.329 102.843 390.01 103.714 390.528C105.413 391.536 108.169 391.536 109.869 390.528C110.723 390.02 111.148 389.355 111.143 388.691C111.143 388.668 112.295 382.158 112.295 382.158C112.295 382.158 111.476 385.268 106.686 385.268Z" fill="#4C4C4C"/>
<path d="M110.684 379.876C108.534 378.6 105.049 378.6 102.9 379.876C100.75 381.152 100.75 383.221 102.9 384.497C105.049 385.773 108.534 385.773 110.684 384.497C112.833 383.221 112.833 381.152 110.684 379.876ZM110.264 384.247C108.349 385.384 105.234 385.384 103.319 384.247C101.405 383.111 101.405 381.262 103.319 380.125C105.234 378.989 108.349 378.989 110.264 380.125C112.178 381.262 112.178 383.111 110.264 384.247Z" fill="#8A8A8A"/>
<path d="M106.792 378.853C102.896 378.853 101.791 381.239 101.884 382.276C101.948 382.991 102.399 383.703 103.318 384.249C105.234 385.386 108.35 385.386 110.265 384.249C111.235 383.674 111.701 382.915 111.702 382.159C111.702 381.308 110.688 378.853 106.792 378.853Z" fill="#77CB7B"/>
<path d="M106.713 377.751L106.596 377.922L106.664 378.076L107.13 377.97C110.648 378.22 111.902 375.522 111.902 375.522L111.833 375.367C110.643 374.717 109.217 374.446 106.713 377.751Z" fill="#77CB7B"/>
<path d="M102.9 369.537L102.713 369.676C102.713 369.676 102.425 373.845 106.868 376.038L107.363 376.498L107.55 376.359L107.522 376.068C106.698 370.274 104.784 369.592 102.9 369.537Z" fill="#77CB7B"/>
<path d="M110.577 369.581C107.132 372.925 106.24 377.686 106.043 380.743C106.043 380.743 106.016 380.87 106.012 381.01C105.932 381.13 105.974 381.273 106.138 381.37C106.359 381.501 106.717 381.501 106.939 381.37C107.079 381.287 107.129 381.171 107.092 381.064C107.13 380.968 107.158 380.848 107.167 380.691C107.29 378.696 108.247 373.412 111.339 370.411C111.562 370.194 111.572 369.834 111.361 369.605C111.151 369.376 110.8 369.365 110.577 369.581Z" fill="#55BE5A"/>
<path d="M115.373 369.988C115.373 369.988 115.306 369.765 115.144 369.445C114.674 368.518 113.714 368.198 112.719 368.163C113.126 367.563 113.071 366.851 111.776 366.163C110.274 365.363 109.589 365.985 109.308 366.843C108.375 366.127 107.362 365.694 106.594 366.23C106.471 366.315 106.422 366.296 106.422 366.296C106.422 366.296 106.537 366.435 106.386 366.467C106.377 367.191 106.985 367.906 107.456 368.241C106.686 368.271 105.96 368.549 105.96 368.549C105.96 368.549 105.775 368.847 106.243 369.472C106.922 370.355 107.741 370.898 108.61 370.795C108.746 371.64 109.377 372.143 110.787 372.401C112.05 372.563 112.144 372.077 112.144 372.077C112.144 372.077 112.091 372.106 112.086 371.953C113.047 372.685 114.147 372.888 114.908 372.325C115.119 372.164 115.208 372.062 115.256 371.947C115.455 371.479 114.838 371.214 114.109 370.68C114.378 370.676 114.617 370.648 114.811 370.587C115.138 370.488 115.373 369.988 115.373 369.988Z" fill="#00369A"/>
<path d="M110.6 368.521C109.631 368.22 109.57 368.829 109.781 369.126C110.44 370.056 113.352 373.478 114.978 372.275C116.605 371.072 111.57 368.821 110.6 368.521Z" fill="#0047CC"/>
<path d="M109.746 368.507C109.168 368.86 109.896 369.468 110.304 369.608C111.58 370.045 116.384 371.337 115.275 369.151C114.166 366.964 110.324 368.154 109.746 368.507Z" fill="#0047CC"/>
<path d="M111.906 365.868C109.092 364.371 109.146 367.854 109.349 368.55C109.551 369.246 110.474 369.411 110.766 369.304C111.679 368.97 114.72 367.365 111.906 365.868Z" fill="#0047CC"/>
<path d="M106.724 365.935C105.05 367.103 110.063 369.411 111.032 369.724C112.001 370.036 112.079 369.433 111.875 369.135C111.236 368.204 108.398 364.767 106.724 365.935Z" fill="#0047CC"/>
<path d="M110.555 368.211C109.287 367.954 104.623 367.365 106.279 369.519C107.936 371.673 110.984 369.768 111.389 369.296C111.794 368.823 110.96 368.293 110.555 368.211Z" fill="#0047CC"/>
<path d="M109.111 368.232C108.744 368.947 107.876 371.866 110.823 372.407C113.77 372.948 111.23 369.183 110.595 368.505C109.96 367.826 109.228 368.004 109.111 368.232Z" fill="#0047CC"/>
<path d="M111.372 367.991C110.372 367.478 109.296 367.53 108.969 368.105C108.643 368.681 109.19 369.564 110.19 370.077C111.191 370.59 112.267 370.539 112.593 369.963C112.92 369.387 112.373 368.504 111.372 367.991Z" fill="white"/>
<path d="M243.723 338.503L243.728 338.499C243.732 338.496 243.735 338.494 243.739 338.492L244.385 338.018L244.385 338.018C244.411 337.993 244.449 337.993 244.492 338.025C244.571 338.083 244.635 338.225 244.635 338.342C244.635 338.394 244.621 338.432 244.6 338.453L244.6 338.453L244.598 338.455C244.595 338.458 244.591 338.461 244.586 338.464L243.94 338.937L243.939 338.936C243.913 338.96 243.876 338.961 243.834 338.929C243.755 338.871 243.691 338.729 243.691 338.612C243.691 338.561 243.704 338.527 243.724 338.505L243.723 338.503Z" fill="#4C4C4C"/>
<path d="M257.234 356.513L256.998 356.784L243.966 338.929L230.934 341.589L230.698 341.043L243.966 338.335L257.234 356.513Z" fill="#E0E0E0"/>
<path d="M243.69 338.076C243.951 338.252 244.162 338.682 244.162 339.035C244.162 339.388 243.951 339.531 243.69 339.354C243.429 339.178 243.218 338.748 243.218 338.395C243.218 338.042 243.429 337.899 243.69 338.076Z" fill="white"/>
<path d="M257.303 378.678L231.469 363.618V340.281L257.303 355.342V378.678Z" fill="#F0F0F0"/>
<path d="M242.72 354.143C243.582 354.646 244.281 355.868 244.281 356.874C244.281 357.879 243.582 358.286 242.72 357.784C241.858 357.281 241.159 356.058 241.159 355.053C241.159 354.048 241.858 353.64 242.72 354.143Z" fill="#C6C6C6"/>
<path d="M256.396 376.24L244.16 369.106L241.38 363.469L246.506 356.548L256.396 376.24Z" fill="#E0E0E0"/>
<path d="M241.379 363.468L239.301 366.273L232.94 362.564L237.938 356.493L241.379 363.468Z" fill="#C6C6C6"/>
<path d="M244.16 369.106L239.302 366.274L241.379 363.469L244.16 369.106Z" fill="#C6C6C6"/>
<path d="M259 354.969L257.45 355.899L232.767 341.51V341.927C232.097 341.577 231.435 341.278 230.638 341.061C230.447 341.01 230.259 340.95 230.073 340.887L230 339.481L231.217 338.771L259 354.969Z" fill="#4C4C4C"/>
<path d="M259 379.291L257.783 380L257.45 376.553V355.899L259 354.969V379.291Z" fill="#333333"/>
<path d="M232.768 362.163L231.217 363.094L230.102 341.46C231.076 341.728 231.912 342.081 232.768 342.521V362.163Z" fill="#C6C6C6"/>
<path d="M257.449 376.552L257.783 380L231.217 363.093L232.767 362.163L257.449 376.552Z" fill="#E0E0E0"/>
<path d="M257.783 379.999L230 363.802V339.48L257.783 355.678V379.999ZM256.233 356.608L231.551 342.218V362.872L256.233 377.262V356.608Z" fill="#8A8A8A"/>
<path d="M616.686 457.494V356.493L621.001 354.002V455.003L616.686 457.494Z" fill="#5A6357"/>
<path d="M621 354.018L476.919 270.832L472.604 273.323L616.685 356.509L621 354.018Z" fill="#707A6D"/>
<path d="M472.646 540.69L328.564 457.504V462.487L472.646 545.672V540.69Z" fill="#4C4C4C"/>
<path d="M472.646 540.69L616.728 457.504V462.487L472.646 545.672V540.69Z" fill="#BBBBBB"/>
<path d="M472.648 540.678L328.566 457.493L472.644 374.311L616.725 457.496L472.648 540.678Z" fill="white"/>
<path d="M343.353 466.031L341.811 465.14L485.887 381.957L487.431 382.848L343.353 466.031Z" fill="#F0F0F0"/>
<path d="M357.86 474.406L356.316 473.515L500.394 390.332L501.936 391.223L357.86 474.406Z" fill="#F0F0F0"/>
<path d="M372.366 482.781L370.822 481.89L514.9 398.707L516.443 399.598L372.366 482.781Z" fill="#F0F0F0"/>
<path d="M386.871 491.156L385.328 490.265L529.405 407.082L530.949 407.973L386.871 491.156Z" fill="#F0F0F0"/>
<path d="M401.377 499.531L399.834 498.64L543.911 415.457L545.454 416.347L401.377 499.531Z" fill="#F0F0F0"/>
<path d="M415.885 507.906L414.342 507.015L558.419 423.832L559.962 424.723L415.885 507.906Z" fill="#F0F0F0"/>
<path d="M430.391 516.281L428.848 515.39L572.925 432.207L574.468 433.098L430.391 516.281Z" fill="#F0F0F0"/>
<path d="M444.897 524.656L443.354 523.765L587.43 440.582L588.973 441.472L444.897 524.656Z" fill="#F0F0F0"/>
<path d="M459.403 533.033L457.859 532.142L601.937 448.959L603.48 449.85L459.403 533.033Z" fill="#F0F0F0"/>
<path d="M616.685 457.495L472.604 374.309V273.309L616.685 356.494V457.495Z" fill="#BECDBA"/>
<path d="M324.207 354.019L472.604 268.342L476.919 270.833L328.522 356.51L324.207 354.019Z" fill="#707A6D"/>
<path d="M328.521 457.495L472.603 374.309V273.309L328.521 356.494V457.495Z" fill="#ACBBA8"/>
<path d="M408.077 379.225V337.556L435.641 321.348L435.904 396.5L438.001 395.5L441.273 315.439L438.795 314L404.001 334.458V412.367L406.48 413.522L408.077 379.225Z" fill="#8A8A8A"/>
<path d="M410.555 380.662V338.993L438.119 322.786V395.5L441.273 393.5L441.273 315.438L406.48 335.895V413.5L410.555 410.923V380.662Z" fill="#F0F0F0"/>
<path d="M436.393 323.801V396.499L410.553 410.999V338.994L436.393 323.801Z" fill="white"/>
<path d="M415.531 373.867C416.334 374.535 416.23 374.454 416.064 376.178C415.942 377.427 416.156 378.564 416.518 379.101C416.543 379.138 416.567 379.176 416.592 379.201H416.598C416.666 379.288 416.739 379.344 416.819 379.382C417.009 379.469 417.217 379.419 417.438 379.188C418.315 378.264 418.003 374.985 417.837 373.23C417.812 372.98 417.733 372.743 417.604 372.536C417.537 372.424 417.457 372.318 417.365 372.224C416.954 371.799 416.34 371.575 415.752 371.687C415.402 371.755 414.734 373.205 415.531 373.867Z" fill="#4C4C4C"/>
<path d="M416.518 379.102C416.543 379.139 416.567 379.177 416.592 379.202H416.598C416.66 379.239 416.739 379.302 416.819 379.383C417.009 379.47 417.217 379.42 417.438 379.189C418.315 378.265 418.003 374.986 417.837 373.231C417.812 372.981 417.733 372.743 417.604 372.537C417.567 372.363 417.475 372.256 417.365 372.225C417.027 372.119 416.469 372.706 416.439 373.999C416.408 375.579 416.23 378.508 416.518 379.102Z" fill="#8A8A8A"/>
<g clip-path="url(#clip0_12955_714064)">
<path d="M451 383.117C451.022 382.199 451.59 381.325 452.727 380.669C455.285 379.192 459.755 379.377 462.71 381.083C464.338 382.023 465.166 383.229 465.154 384.369H465.154V387.08C465.151 387.868 464.745 388.624 463.928 389.242L463.194 393.951C463.188 394.624 462.778 395.266 461.945 395.747C460.095 396.815 456.863 396.681 454.726 395.447C453.594 394.794 452.997 393.962 452.961 393.166L452.959 393.166L452.229 388.283C451.396 387.517 450.981 386.663 451 385.845H451V383.214C450.999 383.187 450.999 383.159 451 383.131V383.117H451Z" fill="#4C4C4C"/>
<path d="M451.478 383.214C451.478 383.186 451.478 383.159 451.478 383.131V383.117H451.479C451.5 382.199 452.068 381.325 453.205 380.669C455.764 379.192 460.234 379.377 463.188 381.083C464.817 382.023 465.645 383.229 465.632 384.369L465.633 384.369V387.08H465.633C465.629 388.015 465.061 388.907 463.905 389.574C461.346 391.051 456.876 390.866 453.922 389.16C452.279 388.212 451.451 386.993 451.479 385.844H451.478V383.214Z" fill="#8A8A8A"/>
<path d="M453.922 386.433C456.877 388.139 461.346 388.325 463.905 386.847C466.464 385.37 466.143 382.789 463.189 381.083C460.234 379.377 455.764 379.192 453.205 380.669C450.646 382.147 450.967 384.727 453.922 386.433Z" fill="#C6C6C6"/>
<path d="M454.787 385.935C457.19 387.322 460.824 387.472 462.904 386.271C464.985 385.07 464.723 382.972 462.321 381.585C459.919 380.198 456.285 380.047 454.205 381.248C452.124 382.45 452.385 384.548 454.787 385.935Z" fill="#4C4C4C"/>
<path d="M454.205 383.577C456.285 382.375 459.919 382.526 462.322 383.913C463.07 384.345 463.611 384.847 463.938 385.368C463.704 385.701 463.361 386.007 462.904 386.271C460.824 387.472 457.19 387.321 454.788 385.934C454.039 385.502 453.499 385.001 453.172 384.479C453.405 384.147 453.749 383.84 454.205 383.577Z" fill="#8A8A8A"/>
<path d="M462.637 375.319C461.274 380.183 461.618 386.121 461.211 386.284C460.749 386.47 459.268 386.381 458.962 385.285C458.962 385.285 459.795 379.136 461.125 374.531L462.637 375.319Z" fill="#55BE5A"/>
<path d="M454.769 370.625C456.132 375.489 456.544 384.993 456.95 385.157C457.413 385.342 458.894 385.254 459.199 384.157C459.199 384.157 457.507 375.088 456.539 369.838L454.769 370.625Z" fill="#2B9E31"/>
<path d="M447.243 376.839C448.689 376.679 449.849 376.755 449.496 375.742C449.144 374.729 446.71 374.604 445.135 375.315C444.955 375.396 444.778 375.489 444.605 375.588C444.073 374.026 443.828 372.23 444.136 370.225C444.662 366.796 447.623 363.918 450.384 364.808C453.144 365.698 453.674 369.146 453.674 369.146C453.674 369.146 455.847 366.417 458.685 367.017C461.473 367.607 462.619 371.448 461.475 374.652C461.124 373.977 460.587 373.086 459.92 372.423C458.694 371.206 456.37 370.471 455.685 371.296C455 372.122 456.113 372.457 457.411 373.112C458.517 373.671 460.097 374.694 460.576 376.551C460.162 377.249 459.693 377.868 459.187 378.417C459.005 378.034 458.792 377.652 458.545 377.311C457.532 375.911 455.358 374.81 454.549 375.513C453.739 376.217 454.783 376.727 455.958 377.585C456.584 378.041 457.365 378.708 457.904 379.611C454.396 382.415 450.077 382.659 450.077 382.659C450.077 382.659 447.111 380.73 445.324 377.272C446.005 377.017 446.686 376.9 447.243 376.839ZM453.894 380.26C454.746 380.726 455.103 380.404 454.898 379.79C454.733 379.297 454.288 378.766 453.957 378.418C453.659 378.105 453.284 377.872 452.865 377.765C452.571 377.689 452.265 377.672 452.123 377.857C451.807 378.27 453.041 379.794 453.894 380.26Z" fill="#55BE5A"/>
<path d="M461.287 369.737C463.915 368.509 466.65 370.675 466.65 370.675C466.65 370.675 466.384 367.196 468.871 365.704C471.315 364.238 474.77 366.271 476.113 369.397C475.396 369.142 474.396 368.854 473.457 368.823C471.729 368.766 469.527 369.81 469.588 370.881C469.648 371.951 470.691 371.439 472.088 371.036C473.278 370.692 475.132 370.366 476.747 371.4C476.92 372.193 476.997 372.966 477 373.712C476.606 373.555 476.19 373.421 475.777 373.339C474.082 373.003 471.74 373.677 471.626 374.743C471.512 375.81 472.624 375.473 474.068 375.301C474.838 375.209 475.864 375.166 476.873 375.461C476.213 379.903 473.215 383.021 473.215 383.021C473.215 383.021 464.829 384.483 460.399 377.958C458.45 375.088 458.659 370.964 461.287 369.737ZM464.107 378.39C464.571 378.625 465.84 377.13 466.141 376.206C466.442 375.282 466.059 374.991 465.493 375.306C465.039 375.559 464.599 376.094 464.319 376.484C464.066 376.834 463.906 377.247 463.878 377.678C463.858 377.981 463.898 378.285 464.107 378.39Z" fill="#2B9E31"/>
</g>
<path d="M564.285 384.476L550.734 392.519V395L564.285 386.957V384.476Z" fill="#8A8A8A"/>
<path d="M537.551 368.607L526.09 375.41C524.797 376.178 524 377.597 524 379.132L550.733 395.001C550.733 393.466 551.53 392.047 552.823 391.279L564.284 384.476L537.551 368.607Z" fill="white"/>
<path d="M562.018 388.319V347.229L535.095 331.246V370.104L532.014 371.91L529.594 325.419L532.014 324L565.999 344.174V392.726L563.578 394.145L562.018 388.319Z" fill="#C7C7C7"/>
<path d="M559.597 389.737V348.646L532.674 332.665V371.522L529.594 373.328V325.418L563.578 345.592V394.144L557.875 390.759L559.597 389.737Z" fill="white"/>
<path d="M559.599 387.257L563.58 391.912V394.146L557.877 390.76L559.599 389.738V387.257Z" fill="#8A8A8A"/>
<path d="M534.361 333.666V370.536L559.6 385.518V348.648L534.361 333.666Z" fill="#F0F0F0"/>
<path d="M559.599 348.648V382.672L549.404 376.623L548.319 375.977L547.271 375.354L546.977 375.182L546.187 374.714L544.845 373.913L536.758 369.115V335.086L538.423 336.078L544.845 339.89L546.187 340.685L546.977 341.153L547.271 341.331L548.319 341.953L549.404 342.594L559.599 348.648Z" fill="#8A8A8A"/>
<path d="M559.598 348.648V380.694L559.316 380.528L549.402 374.639L548.318 373.999L547.27 373.377L546.976 373.198L546.185 372.73L544.844 371.936L538.422 368.123V336.077L544.844 339.89L546.185 340.684L546.976 341.152L547.27 341.331L548.318 341.953L549.402 342.593L559.598 348.648Z" fill="#B6CEFB"/>
<path opacity="0.3" d="M559.598 369.336V380.694L549.402 374.639L548.318 373.999L547.27 373.376L546.976 373.198L546.185 372.73L544.844 371.935L538.422 368.123L547.066 362.992C548.078 362.395 548.911 362.992 548.911 362.992L559.598 369.336Z" fill="#E0E0E0"/>
<path d="M548.32 341.952V375.975L547.272 375.353L546.978 375.181L546.188 374.713V340.684L546.978 341.152L547.272 341.33L548.32 341.952Z" fill="#4C4C4C"/>
<path d="M547.062 341.24V375.27L546.271 374.801L544.93 374.001V339.978L546.271 340.772L547.062 341.24Z" fill="#F0F0F0"/>
<path d="M549.402 342.594V376.623L548.318 375.976L547.27 375.354V341.331L548.318 341.953L549.402 342.594Z" fill="#F0F0F0"/>
<path d="M549.404 376.622L551.074 375.631V343.585L549.404 342.593V376.622Z" fill="#8A8A8A"/>
<path d="M548.839 356.531C548.054 357.19 548.156 357.11 548.318 358.81C548.437 360.042 548.228 361.163 547.874 361.693C547.85 361.73 547.826 361.767 547.802 361.791H547.796C547.73 361.877 547.659 361.933 547.581 361.97C547.395 362.056 547.191 362.007 546.976 361.779C546.119 360.868 546.425 357.634 546.586 355.903C546.61 355.657 546.688 355.423 546.814 355.22C546.88 355.109 546.958 355.004 547.048 354.912C547.449 354.493 548.048 354.271 548.623 354.382C548.965 354.449 549.618 355.878 548.839 356.531Z" fill="#4C4C4C"/>
<path d="M547.874 361.693C547.85 361.729 547.826 361.766 547.802 361.791H547.796C547.736 361.828 547.659 361.89 547.581 361.97C547.395 362.056 547.191 362.007 546.976 361.779C546.119 360.867 546.425 357.634 546.586 355.903C546.61 355.657 546.688 355.423 546.814 355.219C546.85 355.047 546.94 354.942 547.048 354.911C547.377 354.807 547.922 355.386 547.952 356.661C547.982 358.219 548.156 361.107 547.874 361.693Z" fill="#8A8A8A"/>
<path d="M545.972 354.829C545.187 355.488 545.289 355.408 545.45 357.108C545.57 358.34 545.361 359.461 545.007 359.991C544.983 360.027 544.959 360.065 544.935 360.089H544.929C544.863 360.175 544.791 360.231 544.714 360.268C544.528 360.354 544.324 360.305 544.108 360.077C543.252 359.165 543.557 355.932 543.719 354.201C543.743 353.955 543.821 353.721 543.947 353.517C544.013 353.406 544.09 353.302 544.18 353.209C544.582 352.791 545.181 352.569 545.756 352.68C546.097 352.747 546.75 354.176 545.972 354.829Z" fill="#4C4C4C"/>
<path d="M545.007 359.99C544.983 360.027 544.959 360.064 544.935 360.089H544.929C544.869 360.126 544.791 360.187 544.714 360.268C544.528 360.354 544.324 360.305 544.108 360.077C543.252 359.165 543.557 355.932 543.719 354.201C543.743 353.954 543.821 353.72 543.947 353.517C543.982 353.345 544.072 353.24 544.18 353.209C544.51 353.105 545.055 353.684 545.085 354.959C545.115 356.517 545.289 359.405 545.007 359.99Z" fill="#8A8A8A"/>
<path opacity="0.3" d="M559.599 380.694V381.692L550.23 376.13V343.086L551.075 343.585V375.631L559.599 380.694Z" fill="white"/>
<path opacity="0.3" d="M544.845 371.936V372.936L537.551 368.607V335.56L538.423 336.078V368.123L544.845 371.936Z" fill="#8A8A8A"/>
<path opacity="0.7" d="M552.147 359.617C552.027 360.036 551.236 360.295 551.074 359.211V353.637C551.679 353.366 552.176 354.004 552.248 354.762C552.344 355.685 552.272 359.198 552.147 359.617Z" fill="#8A8A8A"/>
<path d="M549.314 381.268C554.103 381.268 554.713 378.193 554.713 378.193C554.713 378.193 553.559 384.628 553.56 384.651C553.581 385.329 553.157 386.01 552.286 386.528C550.587 387.536 547.831 387.536 546.131 386.528C545.277 386.02 544.852 385.355 544.857 384.691C544.857 384.668 543.705 378.158 543.705 378.158C543.705 378.158 544.524 381.268 549.314 381.268Z" fill="#4C4C4C"/>
<path d="M545.316 375.876C547.466 374.6 550.951 374.6 553.1 375.876C555.25 377.152 555.25 379.221 553.1 380.497C550.951 381.773 547.466 381.773 545.316 380.497C543.167 379.221 543.167 377.152 545.316 375.876ZM545.736 380.247C547.651 381.384 550.766 381.384 552.681 380.247C554.595 379.111 554.595 377.262 552.681 376.125C550.766 374.989 547.651 374.989 545.736 376.125C543.822 377.262 543.822 379.111 545.736 380.247Z" fill="#8A8A8A"/>
<path d="M549.208 374.853C553.104 374.853 554.209 377.239 554.116 378.276C554.052 378.991 553.601 379.703 552.682 380.249C550.766 381.386 547.65 381.386 545.735 380.249C544.765 379.674 544.299 378.915 544.298 378.159C544.298 377.308 545.312 374.853 549.208 374.853Z" fill="#77CB7B"/>
<path d="M549.287 373.751L549.404 373.922L549.336 374.076L548.87 373.97C545.352 374.22 544.098 371.522 544.098 371.522L544.167 371.367C545.357 370.717 546.783 370.446 549.287 373.751Z" fill="#77CB7B"/>
<path d="M553.1 365.537L553.287 365.676C553.287 365.676 553.575 369.845 549.132 372.038L548.637 372.498L548.45 372.359L548.478 372.068C549.302 366.274 551.216 365.592 553.1 365.537Z" fill="#77CB7B"/>
<path d="M545.423 365.581C548.868 368.925 549.76 373.686 549.957 376.743C549.957 376.743 549.984 376.87 549.988 377.01C550.068 377.13 550.026 377.273 549.862 377.37C549.641 377.501 549.283 377.501 549.061 377.37C548.921 377.287 548.871 377.171 548.908 377.064C548.87 376.968 548.842 376.848 548.833 376.691C548.71 374.696 547.753 369.412 544.661 366.411C544.438 366.194 544.428 365.834 544.639 365.605C544.849 365.376 545.2 365.365 545.423 365.581Z" fill="#55BE5A"/>
<path d="M540.627 365.988C540.627 365.988 540.694 365.765 540.856 365.445C541.326 364.518 542.286 364.198 543.281 364.163C542.874 363.563 542.929 362.851 544.224 362.163C545.726 361.363 546.411 361.985 546.692 362.843C547.625 362.127 548.638 361.694 549.406 362.23C549.529 362.315 549.578 362.296 549.578 362.296C549.578 362.296 549.463 362.435 549.614 362.467C549.623 363.191 549.015 363.906 548.544 364.241C549.314 364.271 550.04 364.549 550.04 364.549C550.04 364.549 550.225 364.847 549.757 365.472C549.078 366.355 548.259 366.898 547.39 366.795C547.254 367.64 546.623 368.143 545.213 368.401C543.95 368.563 543.856 368.077 543.856 368.077C543.856 368.077 543.909 368.106 543.914 367.953C542.953 368.685 541.853 368.888 541.092 368.325C540.881 368.164 540.792 368.062 540.744 367.947C540.545 367.479 541.162 367.214 541.891 366.68C541.622 366.676 541.383 366.648 541.189 366.587C540.862 366.488 540.627 365.988 540.627 365.988Z" fill="#00369A"/>
<path d="M545.4 364.521C546.369 364.22 546.43 364.829 546.219 365.126C545.56 366.056 542.648 369.478 541.022 368.275C539.395 367.072 544.43 364.821 545.4 364.521Z" fill="#0047CC"/>
<path d="M546.254 364.507C546.832 364.86 546.104 365.468 545.696 365.608C544.42 366.045 539.616 367.337 540.725 365.151C541.834 362.964 545.676 364.154 546.254 364.507Z" fill="#0047CC"/>
<path d="M544.094 361.868C546.908 360.371 546.854 363.854 546.651 364.55C546.449 365.246 545.526 365.411 545.234 365.304C544.321 364.97 541.28 363.365 544.094 361.868Z" fill="#0047CC"/>
<path d="M549.276 361.935C550.95 363.103 545.937 365.411 544.968 365.724C543.999 366.036 543.921 365.433 544.125 365.135C544.764 364.204 547.602 360.767 549.276 361.935Z" fill="#0047CC"/>
<path d="M545.445 364.211C546.713 363.954 551.377 363.365 549.721 365.519C548.064 367.673 545.016 365.768 544.611 365.296C544.206 364.823 545.04 364.293 545.445 364.211Z" fill="#0047CC"/>
<path d="M546.889 364.232C547.256 364.947 548.124 367.866 545.177 368.407C542.23 368.948 544.77 365.183 545.405 364.505C546.04 363.826 546.772 364.004 546.889 364.232Z" fill="#0047CC"/>
<path d="M544.628 363.991C545.628 363.478 546.704 363.53 547.031 364.105C547.357 364.681 546.81 365.564 545.81 366.077C544.809 366.59 543.733 366.539 543.407 365.963C543.08 365.387 543.627 364.504 544.628 363.991Z" fill="white"/>
<path d="M471.504 541.828V440.827L475.819 438.336V539.337L471.504 541.828Z" fill="#5A6357"/>
<path d="M475.821 438.352L328.501 353L324.186 355.491L471.507 440.843L475.821 438.352Z" fill="#707A6D"/>
<path d="M327.466 625.022L183.385 541.836V546.819L327.466 630.004V625.022Z" fill="#F0F0F0"/>
<path d="M327.465 625.021L472.999 541V545.983L327.465 630.003V625.021Z" fill="#BBBBBB"/>
<path d="M327.468 625.012L183.387 541.827L327.464 458.645L471.545 541.83L327.468 625.012Z" fill="white"/>
<path d="M198.174 550.365L196.631 549.474L340.708 466.291L342.251 467.182L198.174 550.365Z" fill="#F0F0F0"/>
<path d="M212.68 558.74L211.137 557.849L355.214 474.666L356.757 475.557L212.68 558.74Z" fill="#F0F0F0"/>
<path d="M227.186 567.115L225.643 566.224L369.72 483.041L371.263 483.932L227.186 567.115Z" fill="#F0F0F0"/>
<path d="M241.692 575.49L240.148 574.599L384.226 491.416L385.769 492.307L241.692 575.49Z" fill="#F0F0F0"/>
<path d="M256.2 583.865L254.656 582.974L398.733 499.791L400.276 500.681L256.2 583.865Z" fill="#F0F0F0"/>
<path d="M270.705 592.242L269.162 591.351L413.239 508.168L414.783 509.059L270.705 592.242Z" fill="#F0F0F0"/>
<path d="M285.211 600.615L283.668 599.724L427.745 516.541L429.289 517.432L285.211 600.615Z" fill="#F0F0F0"/>
<path d="M299.717 608.992L298.174 608.101L442.25 524.918L443.794 525.808L299.717 608.992Z" fill="#F0F0F0"/>
<path d="M314.223 617.367L312.68 616.476L456.757 533.293L458.3 534.184L314.223 617.367Z" fill="#F0F0F0"/>
<path d="M471.505 541.829L327.424 458.643V357.643L471.505 440.828V541.829Z" fill="#BECDBA"/>
<path d="M406.923 473.225V431.556L379.359 415.348L379.096 490.5L376.999 489.5L373.727 409.439L376.205 408L410.999 428.458V506.367L408.52 507.522L406.923 473.225Z" fill="#8A8A8A"/>
<path d="M404.445 474.662V432.993L376.881 416.786V489.5L373.727 487.5L373.727 409.438L408.52 429.895V507.5L404.445 504.923V474.662Z" fill="#F0F0F0"/>
<path d="M378.607 417.801V490.499L404.447 504.999V432.994L378.607 417.801Z" fill="white"/>
<path d="M399.469 467.867C398.666 468.535 398.77 468.454 398.936 470.178C399.058 471.427 398.844 472.564 398.482 473.101C398.457 473.138 398.433 473.176 398.408 473.201H398.402C398.334 473.288 398.261 473.344 398.181 473.382C397.991 473.469 397.783 473.419 397.562 473.188C396.685 472.264 396.997 468.985 397.163 467.23C397.188 466.98 397.267 466.743 397.396 466.536C397.463 466.424 397.543 466.318 397.635 466.224C398.046 465.799 398.66 465.575 399.248 465.687C399.598 465.755 400.266 467.205 399.469 467.867Z" fill="#4C4C4C"/>
<path d="M398.482 473.102C398.457 473.139 398.433 473.177 398.408 473.202H398.402C398.34 473.239 398.261 473.302 398.181 473.383C397.991 473.47 397.783 473.42 397.562 473.189C396.685 472.265 396.997 468.986 397.163 467.231C397.188 466.981 397.267 466.743 397.396 466.537C397.433 466.363 397.525 466.256 397.635 466.225C397.973 466.119 398.531 466.706 398.561 467.999C398.592 469.579 398.77 472.508 398.482 473.102Z" fill="#8A8A8A"/>
<g clip-path="url(#clip1_12955_714064)">
<path d="M362 476.117C361.978 475.199 361.41 474.325 360.273 473.669C357.715 472.192 353.245 472.377 350.29 474.083C348.662 475.023 347.834 476.229 347.846 477.369H347.846V480.08C347.849 480.868 348.255 481.624 349.072 482.242L349.806 486.951C349.812 487.624 350.222 488.266 351.055 488.747C352.905 489.815 356.137 489.681 358.274 488.447C359.406 487.794 360.003 486.962 360.039 486.166L360.041 486.166L360.771 481.283C361.604 480.517 362.019 479.663 362 478.845H362V476.214C362.001 476.187 362.001 476.159 362 476.131V476.117H362Z" fill="#4C4C4C"/>
<path d="M361.522 476.214C361.522 476.186 361.522 476.159 361.522 476.131V476.117H361.521C361.5 475.199 360.932 474.325 359.795 473.669C357.236 472.192 352.766 472.377 349.812 474.083C348.183 475.023 347.355 476.229 347.368 477.369L347.367 477.369V480.08H347.367C347.371 481.015 347.939 481.907 349.095 482.574C351.654 484.051 356.124 483.866 359.078 482.16C360.721 481.212 361.549 479.993 361.521 478.844H361.522V476.214Z" fill="#8A8A8A"/>
<path d="M359.078 479.433C356.123 481.139 351.654 481.325 349.095 479.847C346.536 478.37 346.857 475.789 349.811 474.083C352.766 472.377 357.236 472.192 359.795 473.669C362.354 475.147 362.033 477.727 359.078 479.433Z" fill="#C6C6C6"/>
<path d="M358.213 478.935C355.81 480.322 352.176 480.472 350.096 479.271C348.015 478.07 348.277 475.972 350.679 474.585C353.081 473.198 356.715 473.047 358.795 474.248C360.876 475.45 360.615 477.548 358.213 478.935Z" fill="#4C4C4C"/>
<path d="M358.795 476.577C356.715 475.375 353.081 475.526 350.678 476.913C349.93 477.345 349.389 477.847 349.062 478.368C349.296 478.701 349.639 479.007 350.096 479.271C352.176 480.472 355.81 480.321 358.212 478.934C358.961 478.502 359.501 478.001 359.828 477.479C359.595 477.147 359.251 476.84 358.795 476.577Z" fill="#8A8A8A"/>
<path d="M350.363 468.319C351.726 473.183 351.382 479.121 351.789 479.284C352.251 479.47 353.732 479.381 354.038 478.285C354.038 478.285 353.205 472.136 351.875 467.531L350.363 468.319Z" fill="#55BE5A"/>
<path d="M358.231 463.625C356.868 468.489 356.456 477.993 356.05 478.157C355.587 478.342 354.106 478.254 353.801 477.157C353.801 477.157 355.493 468.088 356.461 462.838L358.231 463.625Z" fill="#2B9E31"/>
<path d="M365.757 469.839C364.311 469.679 363.151 469.755 363.504 468.742C363.856 467.729 366.29 467.604 367.865 468.315C368.045 468.396 368.222 468.489 368.395 468.588C368.927 467.026 369.172 465.23 368.864 463.225C368.338 459.796 365.377 456.918 362.616 457.808C359.856 458.698 359.326 462.146 359.326 462.146C359.326 462.146 357.153 459.417 354.315 460.017C351.527 460.607 350.381 464.448 351.525 467.652C351.876 466.977 352.413 466.086 353.08 465.423C354.306 464.206 356.63 463.471 357.315 464.296C358 465.122 356.887 465.457 355.589 466.112C354.483 466.671 352.903 467.694 352.424 469.551C352.838 470.249 353.307 470.868 353.813 471.417C353.995 471.034 354.208 470.652 354.455 470.311C355.468 468.911 357.642 467.81 358.451 468.513C359.261 469.217 358.217 469.727 357.042 470.585C356.416 471.041 355.635 471.708 355.096 472.611C358.604 475.415 362.923 475.659 362.923 475.659C362.923 475.659 365.889 473.73 367.676 470.272C366.995 470.017 366.314 469.9 365.757 469.839ZM359.106 473.26C358.254 473.726 357.897 473.404 358.102 472.79C358.267 472.297 358.712 471.766 359.043 471.418C359.341 471.105 359.716 470.872 360.135 470.765C360.429 470.689 360.735 470.672 360.877 470.857C361.193 471.27 359.959 472.794 359.106 473.26Z" fill="#55BE5A"/>
<path d="M351.713 462.737C349.085 461.509 346.35 463.675 346.35 463.675C346.35 463.675 346.616 460.196 344.129 458.704C341.685 457.238 338.23 459.271 336.887 462.397C337.604 462.142 338.604 461.854 339.543 461.823C341.271 461.766 343.473 462.81 343.412 463.881C343.352 464.951 342.309 464.439 340.912 464.036C339.722 463.692 337.868 463.366 336.253 464.4C336.08 465.193 336.003 465.966 336 466.712C336.394 466.555 336.81 466.421 337.223 466.339C338.918 466.003 341.26 466.677 341.374 467.743C341.488 468.81 340.376 468.473 338.932 468.301C338.162 468.209 337.136 468.166 336.127 468.461C336.787 472.903 339.785 476.021 339.785 476.021C339.785 476.021 348.171 477.483 352.601 470.958C354.55 468.088 354.341 463.964 351.713 462.737ZM348.893 471.39C348.429 471.625 347.16 470.13 346.859 469.206C346.558 468.282 346.941 467.991 347.507 468.306C347.961 468.559 348.401 469.094 348.681 469.484C348.934 469.834 349.094 470.247 349.122 470.678C349.142 470.981 349.102 471.285 348.893 471.39Z" fill="#2B9E31"/>
</g>
<defs>
<clipPath id="clip0_12955_714064">
<rect width="33" height="33" fill="white" transform="matrix(-1 0 0 1 477 364)"/>
</clipPath>
<clipPath id="clip1_12955_714064">
<rect width="33" height="33" fill="white" transform="translate(336 457)"/>
</clipPath>
</defs>
</svg>
