<svg width="654" height="674" viewBox="0 0 654 674" fill="none" xmlns="http://www.w3.org/2000/svg">
<path d="M471.17 372.508V271.852L475.471 269.369V370.025L471.17 372.508Z" fill="#8A8A8A"/>
<path d="M475.471 269.386L331.881 186.483L327.58 188.966L471.171 271.868L475.471 269.386Z" fill="#707A6D"/>
<path d="M327.623 455.417L184.033 372.515V377.481L327.623 460.382V455.417Z" fill="#4C4C4C"/>
<path d="M327.621 455.417L471.211 372.515V377.481L327.621 460.382V455.417Z" fill="#8A8A8A"/>
<path d="M327.625 455.409L184.035 372.507L327.621 289.608L471.211 372.51L327.625 455.409Z" fill="white"/>
<path d="M198.772 381.015L197.234 380.127L340.82 297.229L342.358 298.117L198.772 381.015Z" fill="#F0F0F0"/>
<path d="M213.229 389.361L211.691 388.474L355.277 305.574L356.815 306.462L213.229 389.361Z" fill="#F0F0F0"/>
<path d="M227.685 397.708L226.146 396.821L369.733 313.921L371.271 314.809L227.685 397.708Z" fill="#F0F0F0"/>
<path d="M242.142 406.055L240.604 405.167L384.19 322.268L385.728 323.156L242.142 406.055Z" fill="#F0F0F0"/>
<path d="M256.599 414.401L255.061 413.513L398.646 330.614L400.184 331.502L256.599 414.401Z" fill="#F0F0F0"/>
<path d="M271.056 422.748L269.518 421.86L413.104 338.961L414.642 339.849L271.056 422.748Z" fill="#F0F0F0"/>
<path d="M285.513 431.094L283.975 430.206L427.561 347.307L429.099 348.195L285.513 431.094Z" fill="#F0F0F0"/>
<path d="M299.97 439.442L298.432 438.554L442.017 355.655L443.555 356.543L299.97 439.442Z" fill="#F0F0F0"/>
<path d="M314.427 447.787L312.889 446.9L456.475 364L458.013 364.888L314.427 447.787Z" fill="#F0F0F0"/>
<path d="M471.17 372.508L327.58 289.607V188.95L471.17 271.852V372.508Z" fill="#BECDBA"/>
<path d="M179.689 269.385L327.58 184L331.881 186.483L183.99 271.867L179.689 269.385Z" fill="#707A6D"/>
<path d="M183.99 372.508V271.852L179.689 269.369V370.025L183.99 372.508Z" fill="#4C4C4C"/>
<path d="M183.99 372.508L327.58 289.607V188.95L183.99 271.852V372.508Z" fill="#ACBBA8"/>
<path d="M403.285 299.327L389.734 307.484V310L403.285 301.843V299.327Z" fill="#8A8A8A"/>
<path d="M376.551 283.235L365.09 290.134C363.797 290.913 363 292.351 363 293.908L389.733 310.001C389.733 308.444 390.53 307.005 391.823 306.227L403.284 299.328L376.551 283.235Z" fill="#E0E0E0"/>
<path d="M401.018 303.225V261.556L374.095 245.348V284.754L371.014 286.585L368.594 239.439L371.014 238L404.999 258.458V307.694L402.578 309.133L401.018 303.225Z" fill="#8A8A8A"/>
<path d="M398.597 304.662V262.993L371.674 246.786V286.191L368.594 288.022V239.438L402.578 259.895V309.132L396.875 305.699L398.597 304.662Z" fill="#E0E0E0"/>
<path d="M398.599 302.147L402.58 306.868V309.133L396.877 305.7L398.599 304.664V302.147Z" fill="#8A8A8A"/>
<path d="M373.361 247.802V285.191L398.6 300.384V262.995L373.361 247.802Z" fill="#F0F0F0"/>
<path d="M398.599 262.996V297.498L388.404 291.365L387.319 290.709L386.271 290.078L385.977 289.903L385.187 289.428L383.845 288.616L375.758 283.751V249.242L377.423 250.248L383.845 254.114L385.187 254.92L385.977 255.395L386.271 255.576L387.319 256.206L388.404 256.856L398.599 262.996Z" fill="#8A8A8A"/>
<path d="M398.598 262.995V295.492L398.316 295.324L388.402 289.353L387.318 288.703L386.27 288.072L385.976 287.891L385.185 287.416L383.844 286.611L377.422 282.744V250.247L383.844 254.113L385.185 254.919L385.976 255.394L386.27 255.575L387.318 256.205L388.402 256.855L398.598 262.995Z" fill="#B6CEFB"/>
<path opacity="0.3" d="M398.598 283.975V295.492L388.402 289.353L387.318 288.703L386.27 288.072L385.976 287.891L385.185 287.417L383.844 286.611L377.422 282.745L386.066 277.542C387.078 276.936 387.911 277.542 387.911 277.542L398.598 283.975Z" fill="#E0E0E0"/>
<path d="M387.32 256.206V290.708L386.272 290.077L385.978 289.902L385.188 289.427V254.919L385.978 255.394L386.272 255.575L387.32 256.206Z" fill="#4C4C4C"/>
<path d="M386.062 255.483V289.991L385.271 289.516L383.93 288.705V254.202L385.271 255.008L386.062 255.483Z" fill="#F0F0F0"/>
<path d="M388.402 256.856V291.364L387.318 290.708L386.27 290.077V255.575L387.318 256.206L388.402 256.856Z" fill="#F0F0F0"/>
<path d="M388.404 291.363L390.074 290.358V257.86L388.404 256.854V291.363Z" fill="#8A8A8A"/>
<path d="M387.839 270.99C387.054 271.658 387.156 271.577 387.318 273.301C387.437 274.55 387.228 275.687 386.874 276.224C386.85 276.261 386.826 276.299 386.802 276.324H386.796C386.73 276.411 386.659 276.467 386.581 276.505C386.395 276.592 386.191 276.542 385.976 276.311C385.119 275.387 385.425 272.108 385.586 270.353C385.61 270.103 385.688 269.866 385.814 269.659C385.88 269.547 385.958 269.441 386.048 269.347C386.449 268.923 387.048 268.698 387.623 268.81C387.965 268.879 388.618 270.328 387.839 270.99Z" fill="#4C4C4C"/>
<path d="M386.874 276.224C386.85 276.261 386.826 276.299 386.802 276.324H386.796C386.736 276.361 386.659 276.424 386.581 276.505C386.395 276.592 386.191 276.542 385.976 276.311C385.119 275.387 385.425 272.108 385.586 270.353C385.61 270.103 385.688 269.866 385.814 269.659C385.85 269.485 385.94 269.379 386.048 269.347C386.377 269.241 386.922 269.828 386.952 271.121C386.982 272.701 387.156 275.63 386.874 276.224Z" fill="#8A8A8A"/>
<path d="M384.972 269.263C384.187 269.931 384.289 269.85 384.45 271.574C384.57 272.823 384.361 273.96 384.007 274.497C383.983 274.535 383.959 274.572 383.935 274.597H383.929C383.863 274.685 383.791 274.741 383.714 274.778C383.528 274.866 383.324 274.816 383.108 274.585C382.252 273.66 382.557 270.381 382.719 268.626C382.743 268.376 382.821 268.139 382.947 267.933C383.013 267.82 383.09 267.714 383.18 267.621C383.582 267.196 384.181 266.971 384.756 267.083C385.097 267.152 385.75 268.601 384.972 269.263Z" fill="#4C4C4C"/>
<path d="M384.007 274.497C383.983 274.535 383.959 274.572 383.935 274.597H383.929C383.869 274.635 383.791 274.697 383.714 274.778C383.528 274.866 383.324 274.816 383.108 274.585C382.252 273.66 382.557 270.381 382.719 268.626C382.743 268.376 382.821 268.139 382.947 267.933C382.982 267.758 383.072 267.652 383.18 267.621C383.51 267.514 384.055 268.102 384.085 269.395C384.115 270.975 384.289 273.904 384.007 274.497Z" fill="#8A8A8A"/>
<path opacity="0.3" d="M398.599 295.493V296.505L389.23 290.865V257.355L390.075 257.861V290.359L398.599 295.493Z" fill="white"/>
<path opacity="0.3" d="M383.845 286.611V287.626L376.551 283.235V249.723L377.423 250.248V282.745L383.845 286.611Z" fill="#8A8A8A"/>
<path opacity="0.7" d="M391.147 274.119C391.027 274.544 390.236 274.806 390.074 273.707V268.055C390.679 267.78 391.176 268.427 391.248 269.195C391.344 270.132 391.272 273.695 391.147 274.119Z" fill="#8A8A8A"/>
<path d="M388.314 296.074C393.103 296.074 393.713 292.956 393.713 292.956C393.713 292.956 392.559 299.482 392.56 299.505C392.581 300.192 392.157 300.884 391.286 301.408C389.587 302.431 386.831 302.431 385.131 301.408C384.277 300.894 383.852 300.219 383.857 299.545C383.857 299.522 382.705 292.921 382.705 292.921C382.705 292.921 383.524 296.074 388.314 296.074Z" fill="#4C4C4C"/>
<path d="M384.316 290.606C386.466 289.312 389.951 289.312 392.1 290.606C394.25 291.9 394.25 293.998 392.1 295.292C389.951 296.586 386.466 296.586 384.316 295.292C382.167 293.998 382.167 291.9 384.316 290.606ZM384.736 295.039C386.651 296.192 389.766 296.192 391.681 295.039C393.595 293.887 393.595 292.012 391.681 290.859C389.766 289.707 386.651 289.707 384.736 290.859C382.822 292.012 382.822 293.887 384.736 295.039Z" fill="#8A8A8A"/>
<path d="M388.208 289.568C392.104 289.568 393.209 291.988 393.116 293.04C393.052 293.765 392.601 294.487 391.682 295.041C389.766 296.194 386.65 296.194 384.735 295.041C383.765 294.457 383.299 293.688 383.298 292.922C383.298 292.058 384.312 289.568 388.208 289.568Z" fill="#77CB7B"/>
<path d="M388.287 288.453L388.404 288.626L388.336 288.782L387.87 288.675C384.352 288.928 383.098 286.192 383.098 286.192L383.167 286.035C384.357 285.376 385.783 285.101 388.287 288.453Z" fill="#77CB7B"/>
<path d="M392.1 280.122L392.287 280.263C392.287 280.263 392.575 284.491 388.132 286.715L387.637 287.181L387.45 287.04L387.478 286.745C388.302 280.87 390.216 280.178 392.1 280.122Z" fill="#77CB7B"/>
<path d="M384.423 280.168C387.868 283.559 388.76 288.386 388.957 291.486C388.957 291.486 388.984 291.616 388.988 291.757C389.068 291.879 389.026 292.023 388.862 292.122C388.641 292.255 388.283 292.255 388.061 292.122C387.921 292.038 387.871 291.92 387.908 291.812C387.87 291.714 387.842 291.592 387.833 291.434C387.71 289.41 386.753 284.052 383.661 281.008C383.438 280.789 383.428 280.423 383.639 280.191C383.849 279.959 384.2 279.948 384.423 280.168Z" fill="#55BE5A"/>
<path d="M379.627 280.579C379.627 280.579 379.694 280.353 379.856 280.028C380.326 279.089 381.286 278.764 382.281 278.729C381.874 278.12 381.929 277.399 383.224 276.7C384.726 275.889 385.411 276.52 385.692 277.39C386.625 276.664 387.638 276.225 388.406 276.768C388.529 276.855 388.578 276.835 388.578 276.835C388.578 276.835 388.463 276.976 388.614 277.008C388.623 277.743 388.015 278.468 387.544 278.807C388.314 278.838 389.04 279.12 389.04 279.12C389.04 279.12 389.225 279.422 388.757 280.056C388.078 280.951 387.259 281.502 386.39 281.397C386.254 282.255 385.623 282.764 384.213 283.027C382.95 283.191 382.856 282.698 382.856 282.698C382.856 282.698 382.909 282.727 382.914 282.572C381.953 283.314 380.853 283.52 380.092 282.95C379.881 282.786 379.792 282.683 379.744 282.566C379.545 282.091 380.162 281.823 380.891 281.281C380.622 281.277 380.383 281.249 380.189 281.187C379.862 281.086 379.627 280.579 379.627 280.579Z" fill="#00369A"/>
<path d="M384.4 279.091C385.369 278.786 385.43 279.404 385.219 279.705C384.56 280.648 381.648 284.118 380.022 282.898C378.395 281.678 383.43 279.396 384.4 279.091Z" fill="#0047CC"/>
<path d="M385.254 279.078C385.832 279.436 385.104 280.052 384.696 280.194C383.42 280.637 378.616 281.948 379.725 279.73C380.834 277.513 384.676 278.72 385.254 279.078Z" fill="#0047CC"/>
<path d="M383.094 276.401C385.908 274.884 385.854 278.416 385.651 279.122C385.449 279.828 384.526 279.994 384.234 279.886C383.321 279.547 380.28 277.919 383.094 276.401Z" fill="#0047CC"/>
<path d="M388.276 276.469C389.95 277.654 384.937 279.994 383.968 280.312C382.999 280.629 382.921 280.017 383.125 279.715C383.764 278.77 386.602 275.285 388.276 276.469Z" fill="#0047CC"/>
<path d="M384.445 278.778C385.713 278.518 390.377 277.92 388.721 280.105C387.064 282.289 384.016 280.358 383.611 279.878C383.206 279.399 384.04 278.862 384.445 278.778Z" fill="#0047CC"/>
<path d="M385.889 278.8C386.256 279.525 387.124 282.485 384.177 283.033C381.23 283.582 383.77 279.764 384.405 279.076C385.04 278.388 385.772 278.568 385.889 278.8Z" fill="#0047CC"/>
<path d="M383.628 278.555C384.628 278.035 385.704 278.087 386.031 278.671C386.357 279.255 385.81 280.15 384.81 280.67C383.809 281.19 382.733 281.138 382.407 280.554C382.08 279.97 382.627 279.075 383.628 278.555Z" fill="white"/>
<path d="M279.277 247.503L279.272 247.499C279.268 247.496 279.265 247.494 279.261 247.492L278.615 247.018L278.615 247.018C278.589 246.993 278.551 246.993 278.508 247.025C278.429 247.083 278.365 247.225 278.365 247.342C278.365 247.394 278.379 247.432 278.4 247.453L278.4 247.453L278.402 247.455C278.405 247.458 278.409 247.461 278.414 247.464L279.06 247.937L279.061 247.936C279.087 247.96 279.124 247.961 279.166 247.929C279.245 247.871 279.309 247.729 279.309 247.612C279.309 247.561 279.296 247.527 279.276 247.505L279.277 247.503Z" fill="#4C4C4C"/>
<path d="M265.766 265.513L266.002 265.784L279.034 247.929L292.066 250.589L292.302 250.043L279.034 247.335L265.766 265.513Z" fill="#E0E0E0"/>
<path d="M279.31 247.076C279.049 247.252 278.838 247.682 278.838 248.035C278.838 248.388 279.049 248.531 279.31 248.354C279.571 248.178 279.782 247.748 279.782 247.395C279.782 247.042 279.571 246.899 279.31 247.076Z" fill="white"/>
<path d="M265.697 287.678L291.531 272.618V249.281L265.697 264.342V287.678Z" fill="#F0F0F0"/>
<path d="M280.28 263.143C279.418 263.646 278.719 264.868 278.719 265.874C278.719 266.879 279.418 267.286 280.28 266.784C281.142 266.281 281.841 265.058 281.841 264.053C281.841 263.048 281.142 262.64 280.28 263.143Z" fill="#C6C6C6"/>
<path d="M266.604 285.24L278.84 278.106L281.62 272.469L276.494 265.548L266.604 285.24Z" fill="#E0E0E0"/>
<path d="M281.621 272.468L283.699 275.273L290.06 271.564L285.062 265.493L281.621 272.468Z" fill="#C6C6C6"/>
<path d="M278.84 278.106L283.698 275.274L281.621 272.469L278.84 278.106Z" fill="#C6C6C6"/>
<path d="M264 263.969L265.55 264.899L290.233 250.51V250.927C290.903 250.577 291.565 250.278 292.362 250.061C292.553 250.01 292.741 249.95 292.927 249.887L293 248.481L291.783 247.771L264 263.969Z" fill="#4C4C4C"/>
<path d="M264 288.291L265.217 289L265.55 285.553V264.899L264 263.969V288.291Z" fill="#333333"/>
<path d="M290.232 271.163L291.783 272.094L292.898 250.46C291.924 250.728 291.088 251.081 290.232 251.521V271.163Z" fill="#C6C6C6"/>
<path d="M265.551 285.552L265.217 289L291.783 272.093L290.233 271.163L265.551 285.552Z" fill="#E0E0E0"/>
<path d="M265.217 288.999L293 272.802V248.48L265.217 264.678V288.999ZM266.767 265.608L291.449 251.218V271.872L266.767 286.262V265.608Z" fill="#8A8A8A"/>
<path d="M324.48 457.764V357.108L328.781 354.625V455.281L324.48 457.764Z" fill="#8A8A8A"/>
<path d="M328.781 354.641L185.191 271.738L180.891 274.221L324.481 357.123L328.781 354.641Z" fill="#707A6D"/>
<path d="M180.934 540.674L37.3438 457.771V462.737L180.934 545.639V540.674Z" fill="#F0F0F0"/>
<path d="M180.934 540.674L324.524 457.771V462.737L180.934 545.639V540.674Z" fill="#8A8A8A"/>
<path d="M180.936 540.664L37.3457 457.762L180.932 374.863L324.522 457.765L180.936 540.664Z" fill="white"/>
<path d="M52.0823 466.271L50.5449 465.383L194.13 382.484L195.668 383.372L52.0823 466.271Z" fill="#F0F0F0"/>
<path d="M66.54 474.617L65.002 473.73L208.588 390.83L210.125 391.718L66.54 474.617Z" fill="#F0F0F0"/>
<path d="M80.9951 482.963L79.457 482.075L223.043 399.176L224.581 400.064L80.9951 482.963Z" fill="#F0F0F0"/>
<path d="M95.4521 491.311L93.9141 490.422L237.5 407.523L239.038 408.411L95.4521 491.311Z" fill="#F0F0F0"/>
<path d="M109.909 499.657L108.371 498.769L251.956 415.87L253.495 416.757L109.909 499.657Z" fill="#F0F0F0"/>
<path d="M124.366 508.004L122.828 507.116L266.414 424.217L267.952 425.105L124.366 508.004Z" fill="#F0F0F0"/>
<path d="M138.823 516.35L137.285 515.461L280.871 432.562L282.409 433.451L138.823 516.35Z" fill="#F0F0F0"/>
<path d="M153.28 524.697L151.742 523.809L295.328 440.91L296.866 441.798L153.28 524.697Z" fill="#F0F0F0"/>
<path d="M167.735 533.044L166.197 532.156L309.783 449.257L311.321 450.145L167.735 533.044Z" fill="#F0F0F0"/>
<path d="M324.481 457.764L180.891 374.862V274.206L324.481 357.108V457.764Z" fill="#BECDBA"/>
<path d="M33 354.641L180.891 269.256L185.191 271.738L37.3007 357.123L33 354.641Z" fill="#707A6D"/>
<path d="M37.3007 457.763V357.107L33 354.624V455.28L37.3007 457.763Z" fill="#5A6357"/>
<path d="M37.3008 457.764L180.891 374.862V274.206L37.3008 357.108V457.764Z" fill="#ACBBA8"/>
<path d="M243.723 339.503L243.728 339.499C243.732 339.496 243.735 339.494 243.739 339.492L244.385 339.018L244.385 339.018C244.411 338.993 244.449 338.993 244.492 339.025C244.571 339.083 244.635 339.225 244.635 339.342C244.635 339.394 244.621 339.432 244.6 339.453L244.6 339.453L244.598 339.455C244.595 339.458 244.591 339.461 244.586 339.464L243.94 339.937L243.939 339.936C243.913 339.96 243.876 339.961 243.834 339.929C243.755 339.871 243.691 339.729 243.691 339.612C243.691 339.561 243.704 339.527 243.724 339.505L243.723 339.503Z" fill="#4C4C4C"/>
<path d="M257.234 357.513L256.998 357.784L243.966 339.929L230.934 342.589L230.698 342.043L243.966 339.335L257.234 357.513Z" fill="#E0E0E0"/>
<path d="M243.69 339.076C243.951 339.252 244.162 339.682 244.162 340.035C244.162 340.388 243.951 340.531 243.69 340.354C243.429 340.178 243.218 339.748 243.218 339.395C243.218 339.042 243.429 338.899 243.69 339.076Z" fill="white"/>
<path d="M257.303 379.678L231.469 364.618V341.281L257.303 356.342V379.678Z" fill="#F0F0F0"/>
<path d="M242.72 355.143C243.582 355.646 244.281 356.868 244.281 357.874C244.281 358.879 243.582 359.286 242.72 358.784C241.858 358.281 241.159 357.058 241.159 356.053C241.159 355.048 241.858 354.64 242.72 355.143Z" fill="#C6C6C6"/>
<path d="M256.396 377.24L244.16 370.106L241.38 364.469L246.506 357.548L256.396 377.24Z" fill="#E0E0E0"/>
<path d="M241.379 364.468L239.301 367.273L232.94 363.564L237.938 357.493L241.379 364.468Z" fill="#C6C6C6"/>
<path d="M244.16 370.106L239.302 367.274L241.379 364.469L244.16 370.106Z" fill="#C6C6C6"/>
<path d="M259 355.969L257.45 356.899L232.767 342.51V342.927C232.097 342.577 231.435 342.278 230.638 342.061C230.447 342.01 230.259 341.95 230.073 341.887L230 340.481L231.217 339.771L259 355.969Z" fill="#4C4C4C"/>
<path d="M259 380.291L257.783 381L257.45 377.553V356.899L259 355.969V380.291Z" fill="#333333"/>
<path d="M232.768 363.163L231.217 364.094L230.102 342.46C231.076 342.728 231.912 343.081 232.768 343.521V363.163Z" fill="#C6C6C6"/>
<path d="M257.449 377.552L257.783 381L231.217 364.093L232.767 363.163L257.449 377.552Z" fill="#E0E0E0"/>
<path d="M257.783 380.999L230 364.802V340.48L257.783 356.678V380.999ZM256.233 357.608L231.551 343.218V363.872L256.233 378.262V357.608Z" fill="#8A8A8A"/>
<path d="M616.699 456.562V355.905L621 353.423V454.079L616.699 456.562Z" fill="#5A6357"/>
<path d="M621 353.439L477.41 270.537L473.109 273.02L616.7 355.922L621 353.439Z" fill="#707A6D"/>
<path d="M473.152 539.473L329.562 456.57V461.536L473.152 544.438V539.473Z" fill="#4C4C4C"/>
<path d="M473.152 539.473L616.742 456.57V461.536L473.152 544.438V539.473Z" fill="#BBBBBB"/>
<path d="M473.154 539.463L329.564 456.561L473.15 373.662L616.74 456.564L473.154 539.463Z" fill="white"/>
<path d="M344.301 465.069L342.764 464.181L486.349 381.282L487.887 382.17L344.301 465.069Z" fill="#F0F0F0"/>
<path d="M358.759 473.416L357.221 472.529L500.807 389.629L502.344 390.517L358.759 473.416Z" fill="#F0F0F0"/>
<path d="M373.214 481.762L371.676 480.874L515.262 397.975L516.8 398.863L373.214 481.762Z" fill="#F0F0F0"/>
<path d="M387.671 490.109L386.133 489.22L529.719 406.321L531.257 407.209L387.671 490.109Z" fill="#F0F0F0"/>
<path d="M402.128 498.456L400.59 497.568L544.175 414.669L545.713 415.556L402.128 498.456Z" fill="#F0F0F0"/>
<path d="M416.585 506.803L415.047 505.915L558.633 423.016L560.171 423.904L416.585 506.803Z" fill="#F0F0F0"/>
<path d="M431.042 515.149L429.504 514.26L573.09 431.361L574.628 432.249L431.042 515.149Z" fill="#F0F0F0"/>
<path d="M445.499 523.495L443.961 522.607L587.546 439.708L589.084 440.595L445.499 523.495Z" fill="#F0F0F0"/>
<path d="M459.954 531.842L458.416 530.954L602.002 448.055L603.54 448.943L459.954 531.842Z" fill="#F0F0F0"/>
<path d="M616.699 456.563L473.109 373.661V273.005L616.699 355.906V456.563Z" fill="#BECDBA"/>
<path d="M325.219 353.439L473.109 268.054L477.41 270.536L329.519 355.921L325.219 353.439Z" fill="#707A6D"/>
<path d="M329.519 456.563V355.906L325.219 353.424V454.08L329.519 456.563Z" fill="#4C4C4C"/>
<path d="M329.52 456.563L473.11 373.661V273.005L329.52 355.906V456.563Z" fill="#ACBBA8"/>
<path d="M409.077 382.225V340.556L436.641 324.348L436.904 395.923L438.985 397.308L442.273 318.439L439.795 317L405.001 337.458V415.367L407.48 416.522L409.077 382.225Z" fill="#8A8A8A"/>
<path d="M411.555 383.662V341.993L439.119 325.786V397.466L442.273 394.579L442.273 318.438L407.48 338.895V416.81L411.555 413.923V383.662Z" fill="#E0E0E0"/>
<path d="M437.393 326.802V397.177L411.553 415.655V341.995L437.393 326.802Z" fill="#F0F0F0"/>
<path d="M416.531 376.867C417.334 377.535 417.23 377.454 417.064 379.178C416.942 380.427 417.156 381.564 417.518 382.101C417.543 382.138 417.567 382.176 417.592 382.201H417.598C417.666 382.288 417.739 382.344 417.819 382.382C418.009 382.469 418.217 382.419 418.438 382.188C419.315 381.264 419.003 377.985 418.837 376.23C418.812 375.98 418.733 375.743 418.604 375.536C418.537 375.424 418.457 375.318 418.365 375.224C417.954 374.799 417.34 374.575 416.752 374.687C416.402 374.755 415.734 376.205 416.531 376.867Z" fill="#4C4C4C"/>
<path d="M417.518 382.101C417.543 382.138 417.567 382.176 417.592 382.201H417.598C417.66 382.238 417.739 382.301 417.819 382.382C418.009 382.469 418.217 382.419 418.438 382.188C419.315 381.264 419.003 377.985 418.837 376.23C418.812 375.98 418.733 375.743 418.604 375.536C418.567 375.362 418.475 375.255 418.365 375.224C418.027 375.118 417.469 375.705 417.439 376.998C417.408 378.578 417.23 381.507 417.518 382.101Z" fill="#8A8A8A"/>
<g clip-path="url(#clip0_12955_714052)">
<path d="M455 379.117C455.022 378.199 455.59 377.325 456.727 376.669C459.285 375.192 463.755 375.377 466.71 377.083C468.338 378.023 469.166 379.229 469.154 380.369H469.154V383.08C469.151 383.868 468.745 384.624 467.928 385.242L467.194 389.951C467.188 390.624 466.778 391.266 465.945 391.747C464.095 392.815 460.863 392.681 458.726 391.447C457.594 390.794 456.997 389.962 456.961 389.166L456.959 389.166L456.229 384.283C455.396 383.517 454.981 382.663 455 381.845H455V379.214C454.999 379.187 454.999 379.159 455 379.131V379.117H455Z" fill="#4C4C4C"/>
<path d="M455.478 379.214C455.478 379.186 455.478 379.159 455.478 379.131V379.117H455.479C455.5 378.199 456.068 377.325 457.205 376.669C459.764 375.192 464.234 375.377 467.188 377.083C468.817 378.023 469.645 379.229 469.632 380.369L469.633 380.369V383.08H469.633C469.629 384.015 469.061 384.907 467.905 385.574C465.346 387.051 460.876 386.866 457.922 385.16C456.279 384.212 455.451 382.993 455.479 381.844H455.478V379.214Z" fill="#8A8A8A"/>
<path d="M457.922 382.433C460.877 384.139 465.346 384.325 467.905 382.847C470.464 381.37 470.143 378.789 467.189 377.083C464.234 375.377 459.764 375.192 457.205 376.669C454.646 378.147 454.967 380.727 457.922 382.433Z" fill="#C6C6C6"/>
<path d="M458.787 381.935C461.19 383.322 464.824 383.472 466.904 382.271C468.985 381.07 468.723 378.972 466.321 377.585C463.919 376.198 460.285 376.047 458.205 377.248C456.124 378.45 456.385 380.548 458.787 381.935Z" fill="#4C4C4C"/>
<path d="M458.205 379.577C460.285 378.375 463.919 378.526 466.322 379.913C467.07 380.345 467.611 380.847 467.938 381.368C467.704 381.701 467.361 382.007 466.904 382.271C464.824 383.472 461.19 383.321 458.788 381.934C458.039 381.502 457.499 381.001 457.172 380.479C457.405 380.147 457.749 379.84 458.205 379.577Z" fill="#8A8A8A"/>
<path d="M466.637 371.319C465.274 376.183 465.618 382.121 465.211 382.284C464.749 382.47 463.268 382.381 462.962 381.285C462.962 381.285 463.795 375.136 465.125 370.531L466.637 371.319Z" fill="#55BE5A"/>
<path d="M458.769 366.625C460.132 371.489 460.544 380.993 460.95 381.157C461.413 381.342 462.894 381.254 463.199 380.157C463.199 380.157 461.507 371.088 460.539 365.838L458.769 366.625Z" fill="#2B9E31"/>
<path d="M451.243 372.839C452.689 372.679 453.849 372.755 453.496 371.742C453.144 370.729 450.71 370.604 449.135 371.315C448.955 371.396 448.778 371.489 448.605 371.588C448.073 370.026 447.828 368.23 448.136 366.225C448.662 362.796 451.623 359.918 454.384 360.808C457.144 361.698 457.674 365.146 457.674 365.146C457.674 365.146 459.847 362.417 462.685 363.017C465.473 363.607 466.619 367.448 465.475 370.652C465.124 369.977 464.587 369.086 463.92 368.423C462.694 367.206 460.37 366.471 459.685 367.296C459 368.122 460.113 368.457 461.411 369.112C462.517 369.671 464.097 370.694 464.576 372.551C464.162 373.249 463.693 373.868 463.187 374.417C463.005 374.034 462.792 373.652 462.545 373.311C461.532 371.911 459.358 370.81 458.549 371.513C457.739 372.217 458.783 372.727 459.958 373.585C460.584 374.041 461.365 374.708 461.904 375.611C458.396 378.415 454.077 378.659 454.077 378.659C454.077 378.659 451.111 376.73 449.324 373.272C450.005 373.017 450.686 372.9 451.243 372.839ZM457.894 376.26C458.746 376.726 459.103 376.404 458.898 375.79C458.733 375.297 458.288 374.766 457.957 374.418C457.659 374.105 457.284 373.872 456.865 373.765C456.571 373.689 456.265 373.672 456.123 373.857C455.807 374.27 457.041 375.794 457.894 376.26Z" fill="#55BE5A"/>
<path d="M465.287 365.737C467.915 364.509 470.65 366.675 470.65 366.675C470.65 366.675 470.384 363.196 472.871 361.704C475.315 360.238 478.77 362.271 480.113 365.397C479.396 365.142 478.396 364.854 477.457 364.823C475.729 364.766 473.527 365.81 473.588 366.881C473.648 367.951 474.691 367.439 476.088 367.036C477.278 366.692 479.132 366.366 480.747 367.4C480.92 368.193 480.997 368.966 481 369.712C480.606 369.555 480.19 369.421 479.777 369.339C478.082 369.003 475.74 369.677 475.626 370.743C475.512 371.81 476.624 371.473 478.068 371.301C478.838 371.209 479.864 371.166 480.873 371.461C480.213 375.903 477.215 379.021 477.215 379.021C477.215 379.021 468.829 380.483 464.399 373.958C462.45 371.088 462.659 366.964 465.287 365.737ZM468.107 374.39C468.571 374.625 469.84 373.13 470.141 372.206C470.442 371.282 470.059 370.991 469.493 371.306C469.039 371.559 468.599 372.094 468.319 372.484C468.066 372.834 467.906 373.247 467.878 373.678C467.858 373.981 467.898 374.285 468.107 374.39Z" fill="#2B9E31"/>
</g>
<path d="M470.01 541.818V441.161L474.31 438.679V539.335L470.01 541.818Z" fill="#5A6357"/>
<path d="M474.311 438.695L330.721 355.793L326.42 358.276L470.011 441.178L474.311 438.695Z" fill="#707A6D"/>
<path d="M326.463 624.728L179.5 539.534V544.5L326.463 629.693V624.728Z" fill="#F0F0F0"/>
<path d="M326.463 624.728L475.5 538.034V543L326.463 629.693V624.728Z" fill="#BBBBBB"/>
<path d="M326.465 624.718L182.875 541.817L326.461 458.918L470.051 541.82L326.465 624.718Z" fill="white"/>
<path d="M197.612 550.325L196.074 549.437L339.66 466.538L341.198 467.426L197.612 550.325Z" fill="#F0F0F0"/>
<path d="M212.069 558.672L210.531 557.784L354.117 474.885L355.655 475.773L212.069 558.672Z" fill="#F0F0F0"/>
<path d="M226.524 567.018L224.986 566.13L368.572 483.23L370.11 484.118L226.524 567.018Z" fill="#F0F0F0"/>
<path d="M240.981 575.365L239.443 574.476L383.029 491.577L384.567 492.465L240.981 575.365Z" fill="#F0F0F0"/>
<path d="M255.438 583.711L253.9 582.823L397.486 499.924L399.024 500.811L255.438 583.711Z" fill="#F0F0F0"/>
<path d="M269.895 592.057L268.357 591.169L411.943 508.271L413.482 509.159L269.895 592.057Z" fill="#F0F0F0"/>
<path d="M284.353 600.405L282.814 599.516L426.4 516.617L427.939 517.505L284.353 600.405Z" fill="#F0F0F0"/>
<path d="M298.81 608.751L297.271 607.863L440.857 524.964L442.395 525.851L298.81 608.751Z" fill="#F0F0F0"/>
<path d="M313.265 617.097L311.727 616.21L455.313 533.311L456.851 534.199L313.265 617.097Z" fill="#F0F0F0"/>
<path d="M470.01 541.819L326.42 458.917V358.261L470.01 441.162V541.819Z" fill="#BECDBA"/>
<path d="M178.529 438.694L326.42 353.31L330.721 355.792L182.83 441.177L178.529 438.694Z" fill="#707A6D"/>
<path d="M182.83 541.818V441.161L178.529 438.679V539.335L182.83 541.818Z" fill="#5A6357"/>
<path d="M182.83 541.819L326.42 458.917V358.261L182.83 441.162V541.819Z" fill="#ACBBA8"/>
<g clip-path="url(#clip1_12955_714052)">
<path d="M292 477.117C292.022 476.199 292.59 475.325 293.727 474.669C296.285 473.192 300.755 473.377 303.71 475.083C305.338 476.023 306.166 477.229 306.154 478.369H306.154V481.08C306.151 481.868 305.745 482.624 304.928 483.242L304.194 487.951C304.188 488.624 303.778 489.266 302.945 489.747C301.095 490.815 297.863 490.681 295.726 489.447C294.594 488.794 293.997 487.962 293.961 487.166L293.959 487.166L293.229 482.283C292.396 481.517 291.981 480.663 292 479.845H292V477.214C291.999 477.187 291.999 477.159 292 477.131V477.117H292Z" fill="#4C4C4C"/>
<path d="M292.478 477.214C292.478 477.186 292.478 477.159 292.478 477.131V477.117H292.479C292.5 476.199 293.068 475.325 294.205 474.669C296.764 473.192 301.234 473.377 304.188 475.083C305.817 476.023 306.645 477.229 306.632 478.369L306.633 478.369V481.08H306.633C306.629 482.015 306.061 482.907 304.905 483.574C302.346 485.051 297.876 484.866 294.922 483.16C293.279 482.212 292.451 480.993 292.479 479.844H292.478V477.214Z" fill="#8A8A8A"/>
<path d="M294.922 480.433C297.877 482.139 302.346 482.325 304.905 480.847C307.464 479.37 307.143 476.789 304.189 475.083C301.234 473.377 296.764 473.192 294.205 474.669C291.646 476.147 291.967 478.727 294.922 480.433Z" fill="#C6C6C6"/>
<path d="M295.787 479.935C298.19 481.322 301.824 481.472 303.904 480.271C305.985 479.07 305.723 476.972 303.321 475.585C300.919 474.198 297.285 474.047 295.205 475.248C293.124 476.45 293.385 478.548 295.787 479.935Z" fill="#4C4C4C"/>
<path d="M295.205 477.577C297.285 476.375 300.919 476.526 303.322 477.913C304.07 478.345 304.611 478.847 304.938 479.368C304.704 479.701 304.361 480.007 303.904 480.271C301.824 481.472 298.19 481.321 295.788 479.934C295.039 479.502 294.499 479.001 294.172 478.479C294.405 478.147 294.749 477.84 295.205 477.577Z" fill="#8A8A8A"/>
<path d="M303.637 469.319C302.274 474.183 302.618 480.121 302.211 480.284C301.749 480.47 300.268 480.381 299.962 479.285C299.962 479.285 300.795 473.136 302.125 468.531L303.637 469.319Z" fill="#55BE5A"/>
<path d="M295.769 464.625C297.132 469.489 297.544 478.993 297.95 479.157C298.413 479.342 299.894 479.254 300.199 478.157C300.199 478.157 298.507 469.088 297.539 463.838L295.769 464.625Z" fill="#2B9E31"/>
<path d="M288.243 470.839C289.689 470.679 290.849 470.755 290.496 469.742C290.144 468.729 287.71 468.604 286.135 469.315C285.955 469.396 285.778 469.489 285.605 469.588C285.073 468.026 284.828 466.23 285.136 464.225C285.662 460.796 288.623 457.918 291.384 458.808C294.144 459.698 294.674 463.146 294.674 463.146C294.674 463.146 296.847 460.417 299.685 461.017C302.473 461.607 303.619 465.448 302.475 468.652C302.124 467.977 301.587 467.086 300.92 466.423C299.694 465.206 297.37 464.471 296.685 465.296C296 466.122 297.113 466.457 298.411 467.112C299.517 467.671 301.097 468.694 301.576 470.551C301.162 471.249 300.693 471.868 300.187 472.417C300.005 472.034 299.792 471.652 299.545 471.311C298.532 469.911 296.358 468.81 295.549 469.513C294.739 470.217 295.783 470.727 296.958 471.585C297.584 472.041 298.365 472.708 298.904 473.611C295.396 476.415 291.077 476.659 291.077 476.659C291.077 476.659 288.111 474.73 286.324 471.272C287.005 471.017 287.686 470.9 288.243 470.839ZM294.894 474.26C295.746 474.726 296.103 474.404 295.898 473.79C295.733 473.297 295.288 472.766 294.957 472.418C294.659 472.105 294.284 471.872 293.865 471.765C293.571 471.689 293.265 471.672 293.123 471.857C292.807 472.27 294.041 473.794 294.894 474.26Z" fill="#55BE5A"/>
<path d="M302.287 463.737C304.915 462.509 307.65 464.675 307.65 464.675C307.65 464.675 307.384 461.196 309.871 459.704C312.315 458.238 315.77 460.271 317.113 463.397C316.396 463.142 315.396 462.854 314.457 462.823C312.729 462.766 310.527 463.81 310.588 464.881C310.648 465.951 311.691 465.439 313.088 465.036C314.278 464.692 316.132 464.366 317.747 465.4C317.92 466.193 317.997 466.966 318 467.712C317.606 467.555 317.19 467.421 316.777 467.339C315.082 467.003 312.74 467.677 312.626 468.743C312.512 469.81 313.624 469.473 315.068 469.301C315.838 469.209 316.864 469.166 317.873 469.461C317.213 473.903 314.215 477.021 314.215 477.021C314.215 477.021 305.829 478.483 301.399 471.958C299.45 469.088 299.659 464.964 302.287 463.737ZM305.107 472.39C305.571 472.625 306.84 471.13 307.141 470.206C307.442 469.282 307.059 468.991 306.493 469.306C306.039 469.559 305.599 470.094 305.319 470.484C305.066 470.834 304.906 471.247 304.878 471.678C304.858 471.981 304.898 472.285 305.107 472.39Z" fill="#2B9E31"/>
</g>
<path d="M402.923 471.225V429.556L375.359 413.348L375.096 484.923L373.015 486.308L369.727 407.439L372.205 406L406.999 426.458V504.367L404.52 505.522L402.923 471.225Z" fill="#8A8A8A"/>
<path d="M400.445 472.662V430.993L372.881 414.786V486.466L369.727 483.579L369.727 407.438L404.52 427.895V505.81L400.445 502.923V472.662Z" fill="#E0E0E0"/>
<path d="M374.607 415.802V486.177L400.447 504.655V430.995L374.607 415.802Z" fill="#F0F0F0"/>
<path d="M395.469 465.867C394.666 466.535 394.77 466.454 394.936 468.178C395.058 469.427 394.844 470.564 394.482 471.101C394.457 471.138 394.433 471.176 394.408 471.201H394.402C394.334 471.288 394.261 471.344 394.181 471.382C393.991 471.469 393.783 471.419 393.562 471.188C392.685 470.264 392.997 466.985 393.163 465.23C393.188 464.98 393.267 464.743 393.396 464.536C393.463 464.424 393.543 464.318 393.635 464.224C394.046 463.799 394.66 463.575 395.248 463.687C395.598 463.755 396.266 465.205 395.469 465.867Z" fill="#4C4C4C"/>
<path d="M394.482 471.101C394.457 471.138 394.433 471.176 394.408 471.201H394.402C394.34 471.238 394.261 471.301 394.181 471.382C393.991 471.469 393.783 471.419 393.562 471.188C392.685 470.264 392.997 466.985 393.163 465.23C393.188 464.98 393.267 464.743 393.396 464.536C393.433 464.362 393.525 464.255 393.635 464.224C393.973 464.118 394.531 464.705 394.561 465.998C394.592 467.578 394.77 470.507 394.482 471.101Z" fill="#8A8A8A"/>
<g clip-path="url(#clip2_12955_714052)">
<path d="M419 507.117C418.978 506.199 418.41 505.325 417.273 504.669C414.715 503.192 410.245 503.377 407.29 505.083C405.662 506.023 404.834 507.229 404.846 508.369H404.846V511.08C404.849 511.868 405.255 512.624 406.072 513.242L406.806 517.951C406.812 518.624 407.222 519.266 408.055 519.747C409.905 520.815 413.137 520.681 415.274 519.447C416.406 518.794 417.003 517.962 417.039 517.166L417.041 517.166L417.771 512.283C418.604 511.517 419.019 510.663 419 509.845H419V507.214C419.001 507.187 419.001 507.159 419 507.131V507.117H419Z" fill="#4C4C4C"/>
<path d="M418.522 507.214C418.522 507.186 418.522 507.159 418.522 507.131V507.117H418.521C418.5 506.199 417.932 505.325 416.795 504.669C414.236 503.192 409.766 503.377 406.812 505.083C405.183 506.023 404.355 507.229 404.368 508.369L404.367 508.369V511.08H404.367C404.371 512.015 404.939 512.907 406.095 513.574C408.654 515.051 413.124 514.866 416.078 513.16C417.721 512.212 418.549 510.993 418.521 509.844H418.522V507.214Z" fill="#8A8A8A"/>
<path d="M416.078 510.433C413.123 512.139 408.654 512.325 406.095 510.847C403.536 509.37 403.857 506.789 406.811 505.083C409.766 503.377 414.236 503.192 416.795 504.669C419.354 506.147 419.033 508.727 416.078 510.433Z" fill="#C6C6C6"/>
<path d="M415.213 509.935C412.81 511.322 409.176 511.472 407.096 510.271C405.015 509.07 405.277 506.972 407.679 505.585C410.081 504.198 413.715 504.047 415.795 505.248C417.876 506.45 417.615 508.548 415.213 509.935Z" fill="#4C4C4C"/>
<path d="M415.795 507.577C413.715 506.375 410.081 506.526 407.678 507.913C406.93 508.345 406.389 508.847 406.062 509.368C406.296 509.701 406.639 510.007 407.096 510.271C409.176 511.472 412.81 511.321 415.212 509.934C415.961 509.502 416.501 509.001 416.828 508.479C416.595 508.147 416.251 507.84 415.795 507.577Z" fill="#8A8A8A"/>
<path d="M407.363 499.319C408.726 504.183 408.382 510.121 408.789 510.284C409.251 510.47 410.732 510.381 411.038 509.285C411.038 509.285 410.205 503.136 408.875 498.531L407.363 499.319Z" fill="#55BE5A"/>
<path d="M415.231 494.625C413.868 499.489 413.456 508.993 413.05 509.157C412.587 509.342 411.106 509.254 410.801 508.157C410.801 508.157 412.493 499.088 413.461 493.838L415.231 494.625Z" fill="#2B9E31"/>
<path d="M422.757 500.839C421.311 500.679 420.151 500.755 420.504 499.742C420.856 498.729 423.29 498.604 424.865 499.315C425.045 499.396 425.222 499.489 425.395 499.588C425.927 498.026 426.172 496.23 425.864 494.225C425.338 490.796 422.377 487.918 419.616 488.808C416.856 489.698 416.326 493.146 416.326 493.146C416.326 493.146 414.153 490.417 411.315 491.017C408.527 491.607 407.381 495.448 408.525 498.652C408.876 497.977 409.413 497.086 410.08 496.423C411.306 495.206 413.63 494.471 414.315 495.296C415 496.122 413.887 496.457 412.589 497.112C411.483 497.671 409.903 498.694 409.424 500.551C409.838 501.249 410.307 501.868 410.813 502.417C410.995 502.034 411.208 501.652 411.455 501.311C412.468 499.911 414.642 498.81 415.451 499.513C416.261 500.217 415.217 500.727 414.042 501.585C413.416 502.041 412.635 502.708 412.096 503.611C415.604 506.415 419.923 506.659 419.923 506.659C419.923 506.659 422.889 504.73 424.676 501.272C423.995 501.017 423.314 500.9 422.757 500.839ZM416.106 504.26C415.254 504.726 414.897 504.404 415.102 503.79C415.267 503.297 415.712 502.766 416.043 502.418C416.341 502.105 416.716 501.872 417.135 501.765C417.429 501.689 417.735 501.672 417.877 501.857C418.193 502.27 416.959 503.794 416.106 504.26Z" fill="#55BE5A"/>
<path d="M408.713 493.737C406.085 492.509 403.35 494.675 403.35 494.675C403.35 494.675 403.616 491.196 401.129 489.704C398.685 488.238 395.23 490.271 393.887 493.397C394.604 493.142 395.604 492.854 396.543 492.823C398.271 492.766 400.473 493.81 400.412 494.881C400.352 495.951 399.309 495.439 397.912 495.036C396.722 494.692 394.868 494.366 393.253 495.4C393.08 496.193 393.003 496.966 393 497.712C393.394 497.555 393.81 497.421 394.223 497.339C395.918 497.003 398.26 497.677 398.374 498.743C398.488 499.81 397.376 499.473 395.932 499.301C395.162 499.209 394.136 499.166 393.127 499.461C393.787 503.903 396.785 507.021 396.785 507.021C396.785 507.021 405.171 508.483 409.601 501.958C411.55 499.088 411.341 494.964 408.713 493.737ZM405.893 502.39C405.429 502.625 404.16 501.13 403.859 500.206C403.558 499.282 403.941 498.991 404.507 499.306C404.961 499.559 405.401 500.094 405.681 500.484C405.934 500.834 406.094 501.247 406.122 501.678C406.142 501.981 406.102 502.285 405.893 502.39Z" fill="#2B9E31"/>
</g>
<path d="M246.077 475.225V433.556L273.641 417.348L273.904 488.923L275.985 490.308L279.273 411.439L276.795 410L242.001 430.458V508.367L244.48 509.522L246.077 475.225Z" fill="#8A8A8A"/>
<path d="M248.555 476.662V434.993L276.119 418.786V490.466L279.273 487.579L279.273 411.438L244.48 431.895V509.81L248.555 506.923V476.662Z" fill="#E0E0E0"/>
<path d="M274.393 419.802V490.177L248.553 508.655V434.995L274.393 419.802Z" fill="#F0F0F0"/>
<path d="M253.531 469.867C254.334 470.535 254.23 470.454 254.064 472.178C253.942 473.427 254.156 474.564 254.518 475.101C254.543 475.138 254.567 475.176 254.592 475.201H254.598C254.666 475.288 254.739 475.344 254.819 475.382C255.009 475.469 255.217 475.419 255.438 475.188C256.315 474.264 256.003 470.985 255.837 469.23C255.812 468.98 255.733 468.743 255.604 468.536C255.537 468.424 255.457 468.318 255.365 468.224C254.954 467.799 254.34 467.575 253.752 467.687C253.402 467.755 252.734 469.205 253.531 469.867Z" fill="#4C4C4C"/>
<path d="M254.518 475.101C254.543 475.138 254.567 475.176 254.592 475.201H254.598C254.66 475.238 254.739 475.301 254.819 475.382C255.009 475.469 255.217 475.419 255.438 475.188C256.315 474.264 256.003 470.985 255.837 469.23C255.812 468.98 255.733 468.743 255.604 468.536C255.567 468.362 255.475 468.255 255.365 468.224C255.027 468.118 254.469 468.705 254.439 469.998C254.408 471.578 254.23 474.507 254.518 475.101Z" fill="#8A8A8A"/>
<path d="M550.202 378.771L536.006 386.589V389L550.202 381.183V378.771Z" fill="#8A8A8A"/>
<path d="M522.196 363.351L510.19 369.962C508.835 370.708 508 372.087 508 373.579L536.006 389.001C536.006 387.509 536.841 386.13 538.196 385.384L550.202 378.773L522.196 363.351Z" fill="#E0E0E0"/>
<path d="M547.83 382.507V342.574L519.624 327.042V364.806L516.397 366.56L513.861 321.379L516.397 320L552 339.606V386.79L549.464 388.169L547.83 382.507Z" fill="#8A8A8A"/>
<path d="M545.294 383.885V343.952L517.089 328.42V366.184L513.861 367.938V321.378L549.464 340.983V388.168L543.49 384.878L545.294 383.885Z" fill="#E0E0E0"/>
<path d="M545.294 381.475L549.465 385.999V388.169L543.49 384.879L545.294 383.886V381.475Z" fill="#8A8A8A"/>
<path d="M518.854 329.394V365.225L545.294 379.785V343.953L518.854 329.394Z" fill="#F0F0F0"/>
<path d="M545.294 343.954V377.019L534.613 371.141L533.477 370.512L532.379 369.908L532.072 369.74L531.243 369.285L529.837 368.507L521.365 363.844V330.773L523.11 331.737L529.837 335.442L531.243 336.214L532.072 336.669L532.379 336.843L533.477 337.447L534.613 338.07L545.294 343.954Z" fill="#8A8A8A"/>
<path d="M545.294 343.953V375.096L544.999 374.935L534.613 369.212L533.477 368.59L532.378 367.985L532.071 367.812L531.243 367.357L529.837 366.585L523.109 362.88V331.736L529.837 335.441L531.243 336.214L532.071 336.668L532.378 336.842L533.477 337.446L534.613 338.069L545.294 343.953Z" fill="#B6CEFB"/>
<path opacity="0.3" d="M545.294 364.059V375.097L534.613 369.213L533.477 368.59L532.379 367.986L532.071 367.812L531.243 367.357L529.837 366.585L523.109 362.88L532.165 357.894C533.226 357.313 534.098 357.894 534.098 357.894L545.294 364.059Z" fill="#E0E0E0"/>
<path d="M533.476 337.447V370.512L532.378 369.907L532.071 369.74L531.242 369.284V336.214L532.071 336.669L532.378 336.842L533.476 337.447Z" fill="#4C4C4C"/>
<path d="M532.16 336.754V369.825L531.331 369.37L529.926 368.592V335.527L531.331 336.3L532.16 336.754Z" fill="#F0F0F0"/>
<path d="M534.611 338.07V371.141L533.475 370.512L532.377 369.907V336.843L533.475 337.447L534.611 338.07Z" fill="#F0F0F0"/>
<path d="M534.613 371.14L536.363 370.177V339.033L534.613 338.069V371.14Z" fill="#8A8A8A"/>
<path d="M534.021 351.615C533.199 352.256 533.306 352.178 533.475 353.83C533.601 355.027 533.381 356.117 533.011 356.631C532.986 356.667 532.961 356.703 532.936 356.727H532.929C532.86 356.811 532.785 356.865 532.703 356.901C532.509 356.985 532.296 356.937 532.07 356.715C531.172 355.83 531.492 352.687 531.662 351.005C531.687 350.766 531.768 350.538 531.9 350.341C531.969 350.233 532.051 350.131 532.145 350.041C532.565 349.634 533.193 349.419 533.795 349.527C534.153 349.592 534.837 350.981 534.021 351.615Z" fill="#4C4C4C"/>
<path d="M533.011 356.631C532.986 356.667 532.961 356.703 532.936 356.727H532.929C532.866 356.763 532.785 356.823 532.703 356.901C532.509 356.984 532.296 356.936 532.07 356.715C531.172 355.829 531.492 352.687 531.662 351.005C531.687 350.765 531.768 350.538 531.9 350.34C531.938 350.173 532.032 350.071 532.145 350.041C532.49 349.939 533.061 350.502 533.093 351.741C533.124 353.255 533.306 356.062 533.011 356.631Z" fill="#8A8A8A"/>
<path d="M531.017 349.96C530.195 350.601 530.302 350.523 530.472 352.175C530.597 353.372 530.377 354.461 530.007 354.976C529.982 355.012 529.957 355.048 529.932 355.072H529.925C529.856 355.156 529.781 355.21 529.7 355.246C529.505 355.329 529.292 355.281 529.066 355.06C528.168 354.174 528.488 351.032 528.658 349.35C528.683 349.11 528.764 348.883 528.896 348.685C528.965 348.578 529.047 348.476 529.141 348.386C529.561 347.979 530.189 347.764 530.791 347.871C531.149 347.937 531.833 349.326 531.017 349.96Z" fill="#4C4C4C"/>
<path d="M530.007 354.977C529.982 355.013 529.957 355.049 529.932 355.073H529.925C529.863 355.109 529.781 355.168 529.7 355.246C529.505 355.33 529.292 355.282 529.066 355.061C528.168 354.175 528.488 351.032 528.658 349.35C528.683 349.111 528.764 348.883 528.896 348.686C528.934 348.518 529.028 348.417 529.141 348.387C529.486 348.285 530.057 348.848 530.089 350.087C530.12 351.601 530.302 354.408 530.007 354.977Z" fill="#8A8A8A"/>
<path opacity="0.3" d="M545.295 375.097V376.067L535.48 370.662V338.549L536.365 339.034V370.177L545.295 375.097Z" fill="white"/>
<path opacity="0.3" d="M529.837 366.586V367.558L522.195 363.351V331.234L523.109 331.738V362.881L529.837 366.586Z" fill="#8A8A8A"/>
<path opacity="0.7" d="M537.489 354.614C537.363 355.021 536.535 355.272 536.365 354.219V348.802C536.999 348.539 537.52 349.159 537.595 349.895C537.695 350.793 537.62 354.207 537.489 354.614Z" fill="#8A8A8A"/>
<path d="M534.519 375.655C539.537 375.655 540.176 372.667 540.176 372.667C540.176 372.667 538.967 378.92 538.968 378.943C538.99 379.601 538.546 380.264 537.633 380.766C535.853 381.747 532.966 381.747 531.186 380.766C530.291 380.273 529.846 379.627 529.85 378.981C529.851 378.959 528.643 372.633 528.643 372.633C528.643 372.633 529.502 375.655 534.519 375.655Z" fill="#4C4C4C"/>
<path d="M530.332 370.414C532.584 369.174 536.235 369.174 538.486 370.414C540.739 371.654 540.739 373.665 538.486 374.905C536.235 376.145 532.584 376.145 530.332 374.905C528.08 373.665 528.08 371.654 530.332 370.414ZM530.771 374.663C532.777 375.767 536.041 375.767 538.047 374.663C540.052 373.558 540.052 371.761 538.047 370.657C536.041 369.552 532.777 369.552 530.771 370.657C528.766 371.761 528.766 373.558 530.771 374.663Z" fill="#8A8A8A"/>
<path d="M534.41 369.42C538.492 369.42 539.648 371.739 539.551 372.747C539.484 373.442 539.012 374.134 538.049 374.665C536.042 375.769 532.777 375.769 530.771 374.665C529.755 374.105 529.266 373.368 529.266 372.633C529.266 371.806 530.328 369.42 534.41 369.42Z" fill="#77CB7B"/>
<path d="M534.49 368.349L534.613 368.515L534.541 368.665L534.053 368.562C530.368 368.805 529.054 366.183 529.054 366.183L529.126 366.033C530.374 365.401 531.867 365.137 534.49 368.349Z" fill="#77CB7B"/>
<path d="M538.485 360.367L538.682 360.503C538.682 360.503 538.983 364.554 534.329 366.685L533.81 367.132L533.614 366.997L533.643 366.714C534.507 361.084 536.512 360.42 538.485 360.367Z" fill="#77CB7B"/>
<path d="M530.442 360.41C534.051 363.66 534.985 368.286 535.192 371.257C535.192 371.257 535.22 371.381 535.225 371.516C535.308 371.634 535.264 371.772 535.092 371.866C534.861 371.994 534.485 371.994 534.254 371.866C534.107 371.786 534.054 371.673 534.093 371.569C534.053 371.476 534.024 371.359 534.014 371.207C533.885 369.268 532.883 364.133 529.644 361.216C529.411 361.006 529.4 360.655 529.62 360.432C529.841 360.21 530.208 360.2 530.442 360.41Z" fill="#55BE5A"/>
<path d="M525.418 360.804C525.418 360.804 525.487 360.588 525.657 360.276C526.149 359.376 527.155 359.065 528.198 359.031C527.771 358.448 527.829 357.756 529.185 357.087C530.76 356.31 531.477 356.914 531.771 357.748C532.749 357.053 533.81 356.631 534.615 357.152C534.743 357.235 534.795 357.216 534.795 357.216C534.795 357.216 534.674 357.351 534.832 357.382C534.842 358.086 534.205 358.781 533.711 359.106C534.518 359.135 535.279 359.406 535.279 359.406C535.279 359.406 535.472 359.695 534.982 360.302C534.27 361.161 533.413 361.689 532.502 361.588C532.36 362.41 531.699 362.898 530.222 363.15C528.898 363.307 528.8 362.835 528.8 362.835C528.8 362.835 528.856 362.863 528.861 362.714C527.854 363.425 526.701 363.623 525.905 363.076C525.684 362.919 525.591 362.82 525.539 362.709C525.331 362.253 525.978 361.996 526.741 361.477C526.46 361.473 526.209 361.446 526.007 361.386C525.663 361.29 525.418 360.804 525.418 360.804Z" fill="#00369A"/>
<path d="M530.417 359.379C531.432 359.087 531.495 359.679 531.275 359.967C530.584 360.871 527.534 364.196 525.83 363.027C524.126 361.858 529.401 359.671 530.417 359.379Z" fill="#0047CC"/>
<path d="M531.312 359.365C531.918 359.708 531.154 360.299 530.727 360.435C529.391 360.86 524.358 362.116 525.52 359.991C526.682 357.866 530.707 359.022 531.312 359.365Z" fill="#0047CC"/>
<path d="M529.048 356.801C531.996 355.346 531.94 358.731 531.727 359.408C531.515 360.084 530.548 360.244 530.243 360.14C529.287 359.816 526.1 358.255 529.048 356.801Z" fill="#0047CC"/>
<path d="M534.478 356.865C536.232 358.001 530.981 360.244 529.966 360.548C528.951 360.852 528.869 360.265 529.083 359.976C529.751 359.071 532.725 355.73 534.478 356.865Z" fill="#0047CC"/>
<path d="M530.465 359.078C531.793 358.829 536.679 358.256 534.944 360.35C533.209 362.443 530.016 360.592 529.591 360.133C529.167 359.673 530.041 359.158 530.465 359.078Z" fill="#0047CC"/>
<path d="M531.977 359.098C532.361 359.793 533.27 362.63 530.184 363.156C527.097 363.681 529.757 360.022 530.422 359.363C531.088 358.704 531.854 358.876 531.977 359.098Z" fill="#0047CC"/>
<path d="M529.608 358.864C530.657 358.366 531.784 358.415 532.126 358.975C532.468 359.535 531.895 360.393 530.847 360.891C529.798 361.39 528.671 361.34 528.329 360.78C527.987 360.22 528.56 359.363 529.608 358.864Z" fill="white"/>
<path d="M88.7151 391.476L102.266 399.519V402L88.7151 393.957V391.476Z" fill="#8A8A8A"/>
<path d="M115.449 375.607L126.91 382.41C128.203 383.178 129 384.597 129 386.132L102.267 402.001C102.267 400.466 101.47 399.047 100.177 398.279L88.7162 391.476L115.449 375.607Z" fill="#E0E0E0"/>
<path d="M90.982 395.319V354.229L117.905 338.246V377.104L120.986 378.91L123.406 332.419L120.986 331L87.0011 351.174V399.726L89.4215 401.145L90.982 395.319Z" fill="#8A8A8A"/>
<path d="M93.4026 396.737V355.646L120.326 339.665V378.522L123.406 380.328V332.418L89.4215 352.592V401.144L95.1245 397.759L93.4026 396.737Z" fill="#E0E0E0"/>
<path d="M93.4011 394.257L89.42 398.912V401.146L95.123 397.76L93.4011 396.738V394.257Z" fill="#8A8A8A"/>
<path d="M118.639 340.666V377.536L93.4002 392.518V355.648L118.639 340.666Z" fill="#F0F0F0"/>
<path d="M93.4009 355.648V389.672L103.596 383.623L104.681 382.977L105.729 382.354L106.023 382.182L106.813 381.714L108.155 380.913L116.242 376.115V342.086L114.577 343.078L108.155 346.89L106.813 347.685L106.023 348.153L105.729 348.331L104.681 348.953L103.596 349.594L93.4009 355.648Z" fill="#8A8A8A"/>
<path d="M93.4021 355.648V387.694L93.6837 387.528L103.598 381.639L104.682 380.999L105.73 380.377L106.024 380.198L106.815 379.73L108.156 378.936L114.578 375.123V343.077L108.156 346.89L106.815 347.684L106.024 348.152L105.73 348.331L104.682 348.953L103.598 349.593L93.4021 355.648Z" fill="#B6CEFB"/>
<path opacity="0.3" d="M93.4018 376.336V387.694L103.598 381.639L104.682 380.999L105.73 380.376L106.024 380.198L106.815 379.73L108.156 378.935L114.578 375.123L105.934 369.992C104.922 369.395 104.089 369.992 104.089 369.992L93.4018 376.336Z" fill="#E0E0E0"/>
<path d="M104.68 348.952V382.975L105.728 382.353L106.022 382.181L106.812 381.713V347.684L106.022 348.152L105.728 348.33L104.68 348.952Z" fill="#4C4C4C"/>
<path d="M105.938 348.24V382.27L106.729 381.801L108.07 381.001V346.978L106.729 347.772L105.938 348.24Z" fill="#F0F0F0"/>
<path d="M103.598 349.594V383.623L104.682 382.976L105.73 382.354V348.331L104.682 348.953L103.598 349.594Z" fill="#F0F0F0"/>
<path d="M103.596 383.622L101.926 382.631V350.585L103.596 349.593V383.622Z" fill="#8A8A8A"/>
<path d="M104.161 363.531C104.946 364.19 104.844 364.11 104.682 365.81C104.563 367.042 104.772 368.163 105.126 368.693C105.15 368.73 105.174 368.767 105.198 368.791H105.204C105.27 368.877 105.341 368.933 105.419 368.97C105.605 369.056 105.809 369.007 106.024 368.779C106.881 367.868 106.575 364.634 106.414 362.903C106.39 362.657 106.312 362.423 106.186 362.22C106.12 362.109 106.042 362.004 105.952 361.912C105.551 361.493 104.952 361.271 104.377 361.382C104.035 361.449 103.382 362.878 104.161 363.531Z" fill="#4C4C4C"/>
<path d="M105.126 368.693C105.15 368.729 105.174 368.766 105.198 368.791H105.204C105.264 368.828 105.341 368.89 105.419 368.97C105.605 369.056 105.809 369.007 106.024 368.779C106.881 367.867 106.575 364.634 106.414 362.903C106.39 362.657 106.312 362.423 106.186 362.219C106.15 362.047 106.06 361.942 105.952 361.911C105.623 361.807 105.078 362.386 105.048 363.661C105.018 365.219 104.844 368.107 105.126 368.693Z" fill="#8A8A8A"/>
<path d="M107.028 361.829C107.813 362.488 107.711 362.408 107.55 364.108C107.43 365.34 107.639 366.461 107.993 366.991C108.017 367.027 108.041 367.065 108.065 367.089H108.071C108.137 367.175 108.209 367.231 108.286 367.268C108.472 367.354 108.676 367.305 108.892 367.077C109.748 366.165 109.443 362.932 109.281 361.201C109.257 360.955 109.179 360.721 109.053 360.517C108.987 360.406 108.91 360.302 108.82 360.209C108.418 359.791 107.819 359.569 107.244 359.68C106.903 359.747 106.25 361.176 107.028 361.829Z" fill="#4C4C4C"/>
<path d="M107.993 366.99C108.017 367.027 108.041 367.064 108.065 367.089H108.071C108.131 367.126 108.209 367.187 108.286 367.268C108.472 367.354 108.676 367.305 108.892 367.077C109.748 366.165 109.443 362.932 109.281 361.201C109.257 360.954 109.179 360.72 109.053 360.517C109.018 360.345 108.928 360.24 108.82 360.209C108.49 360.105 107.945 360.684 107.915 361.959C107.885 363.517 107.711 366.405 107.993 366.99Z" fill="#8A8A8A"/>
<path opacity="0.3" d="M93.4006 387.694V388.692L102.77 383.13V350.086L101.925 350.585V382.631L93.4006 387.694Z" fill="white"/>
<path opacity="0.3" d="M108.155 378.936V379.936L115.449 375.607V342.56L114.577 343.078V375.123L108.155 378.936Z" fill="#8A8A8A"/>
<path opacity="0.7" d="M100.853 366.617C100.973 367.036 101.764 367.295 101.926 366.211V360.637C101.321 360.366 100.824 361.004 100.752 361.762C100.656 362.685 100.728 366.198 100.853 366.617Z" fill="#8A8A8A"/>
<path d="M103.686 388.268C98.8969 388.268 98.2871 385.193 98.2871 385.193C98.2871 385.193 99.4408 391.628 99.4403 391.651C99.4186 392.329 99.8432 393.01 100.714 393.528C102.413 394.536 105.169 394.536 106.869 393.528C107.723 393.02 108.148 392.355 108.143 391.691C108.143 391.668 109.295 385.158 109.295 385.158C109.295 385.158 108.476 388.268 103.686 388.268Z" fill="#4C4C4C"/>
<path d="M107.684 382.876C105.534 381.6 102.049 381.6 99.8996 382.876C97.7496 384.152 97.7496 386.221 99.8996 387.497C102.049 388.773 105.534 388.773 107.684 387.497C109.833 386.221 109.833 384.152 107.684 382.876ZM107.264 387.247C105.349 388.384 102.234 388.384 100.319 387.247C98.405 386.111 98.405 384.262 100.319 383.125C102.234 381.989 105.349 381.989 107.264 383.125C109.178 384.262 109.178 386.111 107.264 387.247Z" fill="#8A8A8A"/>
<path d="M103.792 381.853C99.8955 381.853 98.7913 384.239 98.8842 385.276C98.9483 385.991 99.3986 386.703 100.318 387.249C102.234 388.386 105.35 388.386 107.265 387.249C108.235 386.674 108.701 385.915 108.702 385.159C108.702 384.308 107.688 381.853 103.792 381.853Z" fill="#77CB7B"/>
<path d="M103.713 380.751L103.596 380.922L103.664 381.076L104.13 380.97C107.648 381.22 108.902 378.522 108.902 378.522L108.833 378.367C107.643 377.717 106.217 377.446 103.713 380.751Z" fill="#77CB7B"/>
<path d="M99.9 372.537L99.7128 372.676C99.7128 372.676 99.4248 376.845 103.868 379.038L104.363 379.498L104.55 379.359L104.522 379.068C103.698 373.274 101.784 372.592 99.9 372.537Z" fill="#77CB7B"/>
<path d="M107.577 372.581C104.132 375.925 103.24 380.686 103.043 383.743C103.043 383.743 103.016 383.87 103.012 384.01C102.932 384.13 102.974 384.273 103.138 384.37C103.359 384.501 103.717 384.501 103.939 384.37C104.079 384.287 104.129 384.171 104.092 384.064C104.13 383.968 104.158 383.848 104.167 383.691C104.29 381.696 105.247 376.412 108.339 373.411C108.562 373.194 108.572 372.834 108.361 372.605C108.151 372.376 107.8 372.365 107.577 372.581Z" fill="#55BE5A"/>
<path d="M112.373 372.988C112.373 372.988 112.306 372.765 112.144 372.445C111.674 371.518 110.714 371.198 109.719 371.163C110.126 370.563 110.071 369.851 108.776 369.163C107.274 368.363 106.589 368.985 106.308 369.843C105.375 369.127 104.362 368.694 103.594 369.23C103.471 369.315 103.422 369.296 103.422 369.296C103.422 369.296 103.537 369.435 103.386 369.467C103.377 370.191 103.985 370.906 104.456 371.241C103.686 371.271 102.96 371.549 102.96 371.549C102.96 371.549 102.775 371.847 103.243 372.472C103.922 373.355 104.741 373.898 105.61 373.795C105.746 374.64 106.377 375.143 107.787 375.401C109.05 375.563 109.144 375.077 109.144 375.077C109.144 375.077 109.091 375.106 109.086 374.953C110.047 375.685 111.147 375.888 111.908 375.325C112.119 375.164 112.208 375.062 112.256 374.947C112.455 374.479 111.838 374.214 111.109 373.68C111.378 373.676 111.617 373.648 111.811 373.587C112.138 373.488 112.373 372.988 112.373 372.988Z" fill="#00369A"/>
<path d="M107.6 371.521C106.631 371.22 106.57 371.829 106.781 372.126C107.44 373.056 110.352 376.478 111.978 375.275C113.605 374.072 108.57 371.821 107.6 371.521Z" fill="#0047CC"/>
<path d="M106.746 371.507C106.168 371.86 106.896 372.468 107.304 372.608C108.58 373.045 113.384 374.337 112.275 372.151C111.166 369.964 107.324 371.154 106.746 371.507Z" fill="#0047CC"/>
<path d="M108.906 368.868C106.092 367.371 106.146 370.854 106.349 371.55C106.551 372.246 107.474 372.411 107.766 372.304C108.679 371.97 111.72 370.365 108.906 368.868Z" fill="#0047CC"/>
<path d="M103.724 368.935C102.05 370.103 107.063 372.411 108.032 372.724C109.001 373.036 109.079 372.433 108.875 372.135C108.236 371.204 105.398 367.767 103.724 368.935Z" fill="#0047CC"/>
<path d="M107.555 371.211C106.287 370.954 101.623 370.365 103.279 372.519C104.936 374.673 107.984 372.768 108.389 372.296C108.794 371.823 107.96 371.293 107.555 371.211Z" fill="#0047CC"/>
<path d="M106.111 371.232C105.744 371.947 104.876 374.866 107.823 375.407C110.77 375.948 108.23 372.183 107.595 371.505C106.96 370.826 106.228 371.004 106.111 371.232Z" fill="#0047CC"/>
<path d="M108.372 370.991C107.372 370.478 106.296 370.53 105.969 371.105C105.643 371.681 106.19 372.564 107.19 373.077C108.191 373.59 109.267 373.539 109.593 372.963C109.92 372.387 109.373 371.504 108.372 370.991Z" fill="white"/>
<defs>
<clipPath id="clip0_12955_714052">
<rect width="33" height="33" fill="white" transform="matrix(-1 0 0 1 481 360)"/>
</clipPath>
<clipPath id="clip1_12955_714052">
<rect width="33" height="33" fill="white" transform="matrix(-1 0 0 1 318 458)"/>
</clipPath>
<clipPath id="clip2_12955_714052">
<rect width="33" height="33" fill="white" transform="translate(393 488)"/>
</clipPath>
</defs>
</svg>
