<svg width="24" height="24" viewBox="0 0 24 24" fill="none" xmlns="http://www.w3.org/2000/svg">
<mask id="mask0_14363_12723" style="mask-type:alpha" maskUnits="userSpaceOnUse" x="0" y="0" width="24" height="24">
<rect width="24" height="24" fill="#D9D9D9"/>
</mask>
<g mask="url(#mask0_14363_12723)">
<path d="M12.0005 16.8734L7.90047 19.3234C7.71714 19.4234 7.53797 19.4651 7.36297 19.4484C7.18797 19.4318 7.0338 19.3734 6.90047 19.2734C6.76714 19.1734 6.66714 19.0359 6.60047 18.8609C6.5338 18.6859 6.52547 18.5068 6.57547 18.3234L7.65047 13.7484L4.02547 10.6734C3.87547 10.5401 3.7838 10.3859 3.75047 10.2109C3.71714 10.0359 3.72547 9.8651 3.77547 9.69844C3.82547 9.53177 3.91714 9.39427 4.05047 9.28594C4.1838 9.1776 4.35047 9.1151 4.55047 9.09844L9.30047 8.67344L11.1755 4.32344C11.2588 4.1401 11.3755 4.0026 11.5255 3.91094C11.6755 3.81927 11.8338 3.77344 12.0005 3.77344C12.1671 3.77344 12.3255 3.81927 12.4755 3.91094C12.6255 4.0026 12.7421 4.1401 12.8255 4.32344L14.7005 8.69844L19.4505 9.09844C19.6505 9.1151 19.8171 9.18177 19.9505 9.29844C20.0838 9.4151 20.1755 9.55677 20.2255 9.72344C20.2755 9.8901 20.2796 10.0568 20.238 10.2234C20.1963 10.3901 20.1005 10.5401 19.9505 10.6734L16.3505 13.7484L17.4255 18.3234C17.4755 18.5068 17.4671 18.6859 17.4005 18.8609C17.3338 19.0359 17.2338 19.1734 17.1005 19.2734C16.9671 19.3734 16.813 19.4318 16.638 19.4484C16.463 19.4651 16.2838 19.4234 16.1005 19.3234L12.0005 16.8734Z" fill="#131416"/>
</g>
</svg>
