<svg width="24" height="24" viewBox="0 0 24 24" fill="none" xmlns="http://www.w3.org/2000/svg">
<mask id="mask0_14363_2701" style="mask-type:alpha" maskUnits="userSpaceOnUse" x="0" y="0" width="24" height="24">
<rect width="24" height="24" fill="#D9D9D9"/>
</mask>
<g mask="url(#mask0_14363_2701)">
<path d="M12.0005 6.95625V14.7813L15.2255 16.6813L14.3755 13.0813L17.1505 10.7063L13.4755 10.3813L12.0005 6.95625ZM12.0005 16.8813L7.90047 19.3313C7.71714 19.4313 7.53797 19.4729 7.36297 19.4563C7.18797 19.4396 7.0338 19.3813 6.90047 19.2813C6.76714 19.1813 6.66714 19.0438 6.60047 18.8688C6.5338 18.6938 6.52547 18.5146 6.57547 18.3313L7.65047 13.7563L4.02547 10.6813C3.87547 10.5479 3.7838 10.3938 3.75047 10.2188C3.71714 10.0438 3.72547 9.87292 3.77547 9.70625C3.82547 9.53958 3.91714 9.40208 4.05047 9.29375C4.1838 9.18542 4.35047 9.12292 4.55047 9.10625L9.30047 8.68125L11.1755 4.33125C11.2588 4.14792 11.3755 4.01042 11.5255 3.91875C11.6755 3.82708 11.8338 3.78125 12.0005 3.78125C12.1671 3.78125 12.3255 3.82708 12.4755 3.91875C12.6255 4.01042 12.7421 4.14792 12.8255 4.33125L14.7005 8.70625L19.4505 9.10625C19.6505 9.12292 19.8171 9.18958 19.9505 9.30625C20.0838 9.42292 20.1755 9.56458 20.2255 9.73125C20.2755 9.89792 20.2796 10.0646 20.238 10.2313C20.1963 10.3979 20.1005 10.5479 19.9505 10.6813L16.3505 13.7563L17.4255 18.3313C17.4755 18.5146 17.4671 18.6938 17.4005 18.8688C17.3338 19.0438 17.2338 19.1813 17.1005 19.2813C16.9671 19.3813 16.813 19.4396 16.638 19.4563C16.463 19.4729 16.2838 19.4313 16.1005 19.3313L12.0005 16.8813Z" fill="#131416"/>
</g>
</svg>
